<svg id="a8859a5a-504e-4874-af5f-c319c913041d" data-name="ESP SONIC-II" xmlns="http://www.w3.org/2000/svg" xmlns:xlink="http://www.w3.org/1999/xlink" viewBox="0 0 281.12 92.21"><defs><linearGradient id="b9d550b5-24f1-4a68-889a-0a599025244d" x1="173.19" y1="677.87" x2="265.41" y2="677.87" gradientTransform="translate(819.89 -173.19) rotate(90)" gradientUnits="userSpaceOnUse"><stop offset="0" stop-color="#685b53"/><stop offset="0.33" stop-color="#473f39"/><stop offset="0.5" stop-color="#3d3531"/><stop offset="0.66" stop-color="#473f39"/><stop offset="1" stop-color="#594d47"/></linearGradient><linearGradient id="a62868d7-a702-4931-b93e-194fae990d4e" x1="219.3" y1="819.89" x2="219.3" y2="816.96" gradientTransform="translate(819.89 -173.19) rotate(90)" gradientUnits="userSpaceOnUse"><stop offset="0" stop-color="#c8c8c8"/><stop offset="0.5" stop-color="#fff"/><stop offset="0.67" stop-color="#ebebeb"/><stop offset="1" stop-color="#e1e1e1"/></linearGradient><linearGradient id="f2bc31e9-56ae-46d6-8450-cbfe057dae06" x1="219.3" y1="773.04" x2="219.3" y2="770.11" xlink:href="#a62868d7-a702-4931-b93e-194fae990d4e"/><linearGradient id="eabb9050-da5c-489d-851b-bbc65c42cc21" x1="219.3" y1="726.18" x2="219.3" y2="723.25" xlink:href="#a62868d7-a702-4931-b93e-194fae990d4e"/><linearGradient id="a0ca4de2-ab4b-4349-819c-79ed5d71a3a6" x1="219.3" y1="679.33" x2="219.3" y2="676.4" xlink:href="#a62868d7-a702-4931-b93e-194fae990d4e"/><linearGradient id="b7ec33a9-b413-4604-8a67-e8eb006d2cb8" x1="219.3" y1="632.48" x2="219.3" y2="629.55" xlink:href="#a62868d7-a702-4931-b93e-194fae990d4e"/><linearGradient id="e0a413b9-57b2-4ea2-a358-9d64a1aaac9d" x1="219.3" y1="585.62" x2="219.3" y2="582.69" xlink:href="#a62868d7-a702-4931-b93e-194fae990d4e"/><linearGradient id="e21ff3e8-89bd-48a9-a16a-3911334bf317" x1="180.4" y1="679.33" x2="181.37" y2="679.33" gradientTransform="translate(819.89 -173.19) rotate(90)" gradientUnits="userSpaceOnUse"><stop offset="0" stop-color="#c8c8c8"/><stop offset="0.5" stop-color="#fff"/><stop offset="1" stop-color="#e1e1e1"/></linearGradient><linearGradient id="e5d2b250-fca2-45e6-88bc-6bb0741e5ec5" x1="195.84" y1="679.33" x2="196.67" y2="679.33" xlink:href="#e21ff3e8-89bd-48a9-a16a-3911334bf317"/><linearGradient id="a8783ea3-3ad8-4c93-b24a-2f9c75981852" x1="211.22" y1="679.33" x2="212.01" y2="679.33" xlink:href="#e21ff3e8-89bd-48a9-a16a-3911334bf317"/><linearGradient id="b0aaec0f-4c40-49be-874b-b72287899735" x1="226.61" y1="679.33" x2="227.35" y2="679.33" xlink:href="#e21ff3e8-89bd-48a9-a16a-3911334bf317"/><linearGradient id="ac5fd086-58eb-4853-91af-c428213a31fb" x1="242" y1="679.33" x2="242.7" y2="679.33" xlink:href="#e21ff3e8-89bd-48a9-a16a-3911334bf317"/><linearGradient id="a3a3fd67-e13c-4f00-9927-e90872a30bcd" x1="257.39" y1="679.33" x2="258.04" y2="679.33" xlink:href="#e21ff3e8-89bd-48a9-a16a-3911334bf317"/></defs><g id="f95f2db2-1ba6-4242-91e1-0dcd6adaec16" data-name="Neck"><rect id="fd32d8f0-0018-43fa-ad82-7ac33d9ae9f8" data-name="Neck" x="2.93" width="278.19" height="92.21" style="fill:url(#b9d550b5-24f1-4a68-889a-0a599025244d)"/><g id="becb1afa-cbce-42da-8724-fe6a20a2efe5" data-name="Crush 40 Logo"><path id="e9a03139-2659-4712-966c-b5f7d780f288" data-name="Cursh+Ring" d="M1275.87,186c5-5.74,1.53-15.11-1.24-18.28a16.91,16.91,0,0,0-2.76-2.55v-2.56l2.41.86V162c0-.16,0-3.7-2.41-5.12v-4a2.86,2.86,0,0,0-1.88-2.57l-.7-.25a2,2,0,0,0,1.83-.2,1.84,1.84,0,0,0,.75-1.53v-3.19l-.57-.2a1.86,1.86,0,0,0,.57-1.39v-3.19h0v-4.83a2.22,2.22,0,0,0,0-.37l2.46.88V131c0-.18,0-4.37-3.09-5.45l-6.72-2.38V135a2.88,2.88,0,0,0,1.9,2.57l2.2.78v.91l-1.5-.53a2,2,0,0,0-1.84.19,1.85,1.85,0,0,0-.76,1.54V152.3a2.9,2.9,0,0,0,1.53,2.42l-1.53-.54v3.92a2.39,2.39,0,0,0,.17.92l-.17-.06v3.92a2.28,2.28,0,0,0,.12.73,8.39,8.39,0,0,0-3,1.76c-4,3.52-3.84,10.48-.94,16.2C1263.36,186.87,1271.05,191.58,1275.87,186Zm-9.82-55v-6.06l5.33,1.88c2.39.85,2.39,4.46,2.39,4.46v3.61l-1.19-.42v-3.61l-5.33-1.88v3.61A1.84,1.84,0,0,1,1266.05,131Zm5,2.66a3,3,0,0,0-1-.67l-2.2-.77v-2.06l3.25,1.14Zm-.89,4.23-2.89-1a1.84,1.84,0,0,1-1.19-1.59v-2.45l4.08,1.44a1.84,1.84,0,0,1,1.19,1.59v4.78l-1.19-.42Zm-4.09,2.88c0-.65.53-1,1.2-.74l4.09,1.44v2.45c0,.65-.53,1-1.2.74l-2.89-1v1.17l4.09,1.45v2.44c0,.65-.53,1-1.2.75l-4.09-1.45Zm1.2,13.45a1.84,1.84,0,0,1-1.19-1.59v-3.89l1.19.42v1.44l2.9,1a1.84,1.84,0,0,1,1.2,1.59v3.89l-1.2-.43v-1.44Zm-1.23,9v-2.45l4.13,1.46V161l-2.93-1a1.84,1.84,0,0,1-1.2-1.59v-2.45l5.33,1.89c2.4.84,2.4,4.46,2.4,4.46l-2.43-.86v4.78l-4.1-1.45A1.84,1.84,0,0,1,1266,163.17Zm-4.31,17.26c-2.48-5-2.88-11.34,1-14.93a6.19,6.19,0,0,1,2.17-1.33,2.87,2.87,0,0,0,1.16,1.13l5.85,2.09v-1.7a11.19,11.19,0,0,1,2.52,2.53c2.39,3.35,5.17,10.1,1.13,15.73s-11.32,1.48-13.81-3.52Z" transform="translate(-1243.58 -109.72)" style="fill:#fff"/><g id="a4d6e546-a85a-49f0-a59e-f69371b8ed5e" data-name="40"><path id="e39bd633-503f-4abc-bdda-c62220f820c4" data-name="f5616259-cb93-43e7-956c-e991be823be6" d="M1267.25,174.43l5.51,1.95c0-2.41-1.15-3.68-2.09-4l-3.42-1.21v-1l4.31,1.52c0-2.41-1.15-3.68-2.09-4l-3.42-1.21v4.28l-2.72-.95c0,1.68.33,3.42,2.72,4.26a1.7,1.7,0,0,0,1.2,1.68v-1.29Z" transform="translate(-1243.58 -109.72)" style="fill:#fff"/><path id="eb5f6a7a-a9a7-4ab8-950a-a8d5e66d9e7b" data-name="bd7283dd-5d25-4816-ba3d-33143cede286" d="M1271.35,179a1.85,1.85,0,0,0-1.2-1.6l-4.09-1.44v6.39a1.84,1.84,0,0,0,1.19,1.59l4.1,1.45Zm-4.1,1.68v-1.06l2.9,1v1.06Z" transform="translate(-1243.58 -109.72)" style="fill:#fff"/></g></g><g id="a7b1fcef-b7be-4803-b232-be3318b023da" data-name="DOTS"><g id="f1b2c19f-67b6-4e0e-83ba-0253ba103e52" data-name="DOT"><polygon id="b19af2a8-b2d5-4b50-b641-d068415e1810" data-name="Star" points="68.47 43.67 70.95 44.22 72.95 42.33 73.2 44.85 75.81 46.11 73.2 47.36 72.95 49.88 70.95 47.99 68.47 48.54 69.67 46.11 68.47 43.67" style="fill:#fff"/><path id="e28393eb-e830-40f0-a5ec-f0b03e6aaac1" data-name="Circle" d="M1320.22,155.83a4.9,4.9,0,1,1-4.9-4.89,4.89,4.89,0,0,1,4.9,4.89m.23,0a5.13,5.13,0,1,0-5.13,5.12,5.13,5.13,0,0,0,5.13-5.12Z" transform="translate(-1243.58 -109.72)" style="fill:#fff"/></g><g id="ee47375e-0436-4532-a5fe-c912508713ed" data-name="DOT"><polygon id="a8621888-2c82-496a-aaa5-84a0828ce312" data-name="Star" points="162.32 43.78 164.69 44.3 166.6 42.49 166.84 44.91 169.33 46.11 166.84 47.3 166.6 49.72 164.69 47.91 162.32 48.43 163.47 46.11 162.32 43.78" style="fill:#fff"/><path id="edc10318-785d-4f94-9dca-ef4b06b96719" data-name="Circle" d="M1413.71,155.83a4.68,4.68,0,1,1-4.68-4.68,4.69,4.69,0,0,1,4.68,4.68m.21,0a4.89,4.89,0,1,0-4.89,4.89,4.89,4.89,0,0,0,4.89-4.89Z" transform="translate(-1243.58 -109.72)" style="fill:#fff"/></g><g id="a74c8ad2-0e5b-4d32-9748-ec36d003bd08" data-name="DOT"><polygon id="ed21ae1e-45fa-4033-8951-ceedfef9dce1" data-name="Star" points="256.17 43.88 258.44 44.38 260.26 42.66 260.48 44.96 262.86 46.11 260.48 47.25 260.26 49.55 258.44 47.83 256.17 48.33 257.26 46.11 256.17 43.88" style="fill:#fff"/><path id="e0e52886-f3e2-4537-842f-51b51b69348e" data-name="Circle" d="M1507.2,155.83a4.47,4.47,0,1,1-4.46-4.47,4.47,4.47,0,0,1,4.46,4.47m.21,0a4.68,4.68,0,1,0-4.67,4.68,4.68,4.68,0,0,0,4.67-4.68Z" transform="translate(-1243.58 -109.72)" style="fill:#fff"/></g></g><g id="ef50a4b6-cc12-40e6-a47a-8d47e31ecbb6" data-name="Frets copia 2"><rect id="f4968bac-c7d6-429f-b30a-3b4acf14e98d" data-name="Fret" width="2.93" height="92.21" style="fill:url(#a62868d7-a702-4931-b93e-194fae990d4e)"/><rect id="f64420cd-144a-430e-96bd-da8be06b3511" data-name="Fret" x="46.85" width="2.93" height="92.21" style="fill:url(#f2bc31e9-56ae-46d6-8450-cbfe057dae06)"/><rect id="ff3d39f1-ddb8-4ab5-a5bd-ed5045a75a42" data-name="Fret" x="93.71" width="2.93" height="92.21" style="fill:url(#eabb9050-da5c-489d-851b-bbc65c42cc21)"/><rect id="a93fd7cf-e527-4492-9000-404b840eaf94" data-name="Fret" x="140.56" width="2.93" height="92.21" style="fill:url(#a0ca4de2-ab4b-4349-819c-79ed5d71a3a6)"/><rect id="bd38299e-b10a-4615-96c0-5e33ca70343a" data-name="Fret" x="187.41" width="2.93" height="92.21" style="fill:url(#b7ec33a9-b413-4604-8a67-e8eb006d2cb8)"/><rect id="affa3c73-9462-4e53-a88c-87353ac8e6c8" data-name="Fret" x="234.27" width="2.93" height="92.21" style="fill:url(#e0a413b9-57b2-4ea2-a358-9d64a1aaac9d)"/></g><g id="e601d361-2cb6-4766-a6f1-e8d397f75250" data-name="String"><rect id="eb3d8d9e-416a-4f66-ade8-95a3a7036d2d" data-name="String" y="7.2" width="281.12" height="0.98" style="fill:url(#e21ff3e8-89bd-48a9-a16a-3911334bf317)"/><rect id="e322d0b7-84c9-40df-b047-5e1214b19d7f" data-name="String" y="22.64" width="281.12" height="0.83" style="fill:url(#e5d2b250-fca2-45e6-88bc-6bb0741e5ec5)"/><rect id="ba18a2be-b2f5-497c-b2d3-80b908659f11" data-name="String" y="38.03" width="281.12" height="0.79" style="fill:url(#a8783ea3-3ad8-4c93-b24a-2f9c75981852)"/><rect id="a4a5f41d-cde6-48c6-97a4-538678467243" data-name="String" y="53.42" width="281.12" height="0.74" style="fill:url(#b0aaec0f-4c40-49be-874b-b72287899735)"/><rect id="eff1450f-943a-4f89-8e11-bc8c282a9a73" data-name="String" y="68.8" width="281.12" height="0.7" style="fill:url(#ac5fd086-58eb-4853-91af-c428213a31fb)"/><rect id="b88ce14b-aefd-456b-8ad6-24c239ba0888" data-name="String" y="84.19" width="281.12" height="0.66" style="fill:url(#a3a3fd67-e13c-4f00-9927-e90872a30bcd)"/></g></g></svg>