<svg id="b358cf1e-c1ba-4bf6-ae87-4c51e2973fad" data-name="ESP STH-130" xmlns="http://www.w3.org/2000/svg" xmlns:xlink="http://www.w3.org/1999/xlink" viewBox="0 0 281.12 92.21"><defs><linearGradient id="a710cbb5-6a09-4d23-8667-fb8572a2437b" x1="1014.6" y1="648.38" x2="1106.81" y2="648.38" gradientTransform="translate(790.41 -1014.6) rotate(90)" gradientUnits="userSpaceOnUse"><stop offset="0" stop-color="#6e563a"/><stop offset="0.33" stop-color="#4e3320"/><stop offset="0.5" stop-color="#42352d"/><stop offset="0.66" stop-color="#4a3a2d"/><stop offset="1" stop-color="#5d4336"/></linearGradient><linearGradient id="b7a97e8f-9ec2-46d5-8315-7fa6698dccc0" x1="1060.7" y1="790.41" x2="1060.7" y2="787.48" gradientTransform="translate(790.41 -1014.6) rotate(90)" gradientUnits="userSpaceOnUse"><stop offset="0" stop-color="#c8c8c8"/><stop offset="0.5" stop-color="#fff"/><stop offset="0.67" stop-color="#ebebeb"/><stop offset="1" stop-color="#e1e1e1"/></linearGradient><linearGradient id="a6658403-3e29-4f5e-8d41-7155ba706de9" x1="1060.7" y1="743.55" x2="1060.7" y2="740.62" xlink:href="#b7a97e8f-9ec2-46d5-8315-7fa6698dccc0"/><linearGradient id="e2c311ef-4357-4884-b38e-71573083608e" x1="1060.7" y1="696.7" x2="1060.7" y2="693.77" xlink:href="#b7a97e8f-9ec2-46d5-8315-7fa6698dccc0"/><linearGradient id="a3241ead-4159-41c6-ad6e-27f87b519bb1" x1="1060.7" y1="649.85" x2="1060.7" y2="646.92" xlink:href="#b7a97e8f-9ec2-46d5-8315-7fa6698dccc0"/><linearGradient id="f97518e3-b697-48ac-a321-fa4ea796fa17" x1="1060.7" y1="603" x2="1060.7" y2="600.07" xlink:href="#b7a97e8f-9ec2-46d5-8315-7fa6698dccc0"/><linearGradient id="ba6c7fa2-6641-4e15-8a0a-071729ae79e5" x1="1060.7" y1="556.14" x2="1060.7" y2="553.21" xlink:href="#b7a97e8f-9ec2-46d5-8315-7fa6698dccc0"/><linearGradient id="a05ae0df-285e-43ac-a541-8bb9ff6871fc" x1="1021.8" y1="648.38" x2="1022.78" y2="648.38" gradientTransform="translate(790.41 -1014.6) rotate(90)" gradientUnits="userSpaceOnUse"><stop offset="0" stop-color="#c8c8c8"/><stop offset="0.5" stop-color="#fff"/><stop offset="1" stop-color="#e1e1e1"/></linearGradient><linearGradient id="f9c097a3-d5ec-4bac-82a5-02814ef90352" x1="1037.24" y1="648.38" x2="1038.07" y2="648.38" xlink:href="#a05ae0df-285e-43ac-a541-8bb9ff6871fc"/><linearGradient id="fd4544dd-82b1-42e4-97fe-9fe60b90797d" x1="1052.63" y1="648.38" x2="1053.42" y2="648.38" xlink:href="#a05ae0df-285e-43ac-a541-8bb9ff6871fc"/><linearGradient id="fb03d6af-4c54-4bfb-9362-3ede2865e7c6" x1="1068.02" y1="648.38" x2="1068.76" y2="648.38" xlink:href="#a05ae0df-285e-43ac-a541-8bb9ff6871fc"/><linearGradient id="e59232d1-b53f-42fb-bdb3-875319ef9b34" x1="1083.4" y1="648.38" x2="1084.1" y2="648.38" xlink:href="#a05ae0df-285e-43ac-a541-8bb9ff6871fc"/><linearGradient id="a078bda0-aaec-45b5-adfb-4fef43defe39" x1="1098.79" y1="648.38" x2="1099.45" y2="648.38" xlink:href="#a05ae0df-285e-43ac-a541-8bb9ff6871fc"/></defs><g id="a4256901-fb78-48ee-97c9-f7de88af057c" data-name="Neck"><rect id="b77d9968-35be-4930-809d-9149877b4fb4" data-name="Neck" x="2.93" width="278.19" height="92.21" style="fill:url(#a710cbb5-6a09-4d23-8667-fb8572a2437b)"/><g id="b0025544-433b-4276-8f96-d0e364fc67fd" data-name="Crush 40 Logo"><path id="ac8ad24e-8170-41f5-b56b-40652ff7a1d5" data-name="Cursh+Ring" d="M1302.88,1017.32c3.31-3.82,1-10.06-.82-12.17a11.25,11.25,0,0,0-1.84-1.7v-1.7l1.6.57v-1c0-.11,0-2.47-1.6-3.41v-2.65a1.9,1.9,0,0,0-1.25-1.71l-.47-.16a1.33,1.33,0,0,0,1.22-.14,1.22,1.22,0,0,0,.5-1v-2.12l-.38-.13a1.27,1.27,0,0,0,.38-.93V987h0v-3.22a1.94,1.94,0,0,0,0-.24l1.64.58v-3.39c0-.12,0-2.91-2.06-3.62l-4.47-1.59v7.87a1.91,1.91,0,0,0,1.26,1.71l1.46.52v.61l-1-.36a1.33,1.33,0,0,0-1.22.13,1.23,1.23,0,0,0-.5,1v7.92a1.92,1.92,0,0,0,1,1.6l-1-.36v2.62a1.43,1.43,0,0,0,.11.61l-.11,0v2.61a1.55,1.55,0,0,0,.07.48,5.71,5.71,0,0,0-2,1.18c-2.66,2.34-2.56,7-.63,10.78C1294.55,1017.9,1299.67,1021,1302.88,1017.32Zm-6.54-36.63v-4l3.55,1.26c1.59.56,1.59,3,1.59,3v2.4l-.79-.28v-2.4l-3.55-1.26v2.41A1.24,1.24,0,0,1,1296.34,980.69Zm3.32,1.77a1.85,1.85,0,0,0-.7-.44l-1.46-.52v-1.37l2.16.76Zm-.59,2.82-1.93-.69a1.2,1.2,0,0,1-.79-1.05v-1.63l2.72,1a1.21,1.21,0,0,1,.79,1.06v3.18l-.79-.28Zm-2.73,1.91c0-.43.36-.65.8-.49l2.73,1v1.63c0,.43-.36.65-.8.5l-1.93-.69v.78l2.73,1v1.63c0,.43-.36.65-.8.49l-2.73-1Zm.8,9a1.23,1.23,0,0,1-.79-1.06V992.5l.79.28v1l1.93.68a1.25,1.25,0,0,1,.81,1.06v2.59l-.81-.28v-1Zm-.81,6v-1.63l2.74,1v-.77l-1.94-.69a1.22,1.22,0,0,1-.8-1.06v-1.63l3.54,1.25c1.6.57,1.6,3,1.6,3l-1.62-.57v3.18l-2.72-1A1.22,1.22,0,0,1,1296.33,1002.12Zm-2.87,11.49c-1.66-3.33-1.92-7.55.65-9.94a4,4,0,0,1,1.44-.88,2.05,2.05,0,0,0,.77.75l3.9,1.39v-1.13a7.43,7.43,0,0,1,1.68,1.68c1.58,2.23,3.44,6.73.75,10.48s-7.54,1-9.19-2.35Z" transform="translate(-1273.06 -951.13)" style="fill:#fff"/><g id="bc2696a3-a7a0-4dae-ae2e-ec5478f2397d" data-name="40"><path id="b0d3e634-4753-44a7-ba15-4e619fa5c577" data-name="f5616259-cb93-43e7-956c-e991be823be6" d="M1297.14,1009.62l3.67,1.29a2.66,2.66,0,0,0-1.39-2.67l-2.28-.8v-.68l2.87,1a2.65,2.65,0,0,0-1.39-2.67l-2.28-.81v2.86l-1.8-.64a2.6,2.6,0,0,0,1.8,2.84,1.12,1.12,0,0,0,.8,1.11v-.85Z" transform="translate(-1273.06 -951.13)" style="fill:#fff"/><path id="bf244dd9-6bd3-486d-80b8-d40b9909df69" data-name="bd7283dd-5d25-4816-ba3d-33143cede286" d="M1299.88,1012.63a1.23,1.23,0,0,0-.81-1.06l-2.72-1v4.25a1.21,1.21,0,0,0,.79,1.06l2.74,1Zm-2.74,1.12v-.7l1.93.68v.71Z" transform="translate(-1273.06 -951.13)" style="fill:#fff"/></g></g><g id="e5e6b0af-4ba0-4d68-ae77-764d13b7d238" data-name="DOTS"><g id="aaffa420-ad3b-42cd-9bee-62912d800832" data-name="DOT"><polygon id="ad71245a-1074-4617-9c90-720369937897" data-name="Star" points="68.47 43.67 70.95 44.22 72.95 42.33 73.2 44.85 75.81 46.11 73.2 47.36 72.95 49.88 70.95 47.99 68.47 48.54 69.67 46.11 68.47 43.67" style="fill:#fff"/><path id="ff4d5a7a-d4a4-4b08-a525-b314acd2760b" data-name="Circle" d="M1349.7,997.23a4.9,4.9,0,1,1-4.89-4.89,4.89,4.89,0,0,1,4.89,4.89m.23,0a5.12,5.12,0,1,0-5.12,5.13,5.13,5.13,0,0,0,5.12-5.13Z" transform="translate(-1273.06 -951.13)" style="fill:#fff"/></g><g id="fc08235c-8803-4a91-8e87-278e30a5e5ae" data-name="DOT"><polygon id="a79380fb-6995-4a3a-ac94-ebea2341fca6" data-name="Star" points="162.32 43.78 164.69 44.3 166.6 42.49 166.84 44.91 169.33 46.11 166.84 47.3 166.6 49.72 164.69 47.91 162.32 48.43 163.47 46.11 162.32 43.78" style="fill:#fff"/><path id="ae769ef1-dc0f-4f71-989a-cc6635d2eff9" data-name="Circle" d="M1443.19,997.23a4.68,4.68,0,1,1-4.68-4.67,4.67,4.67,0,0,1,4.68,4.67m.22,0a4.9,4.9,0,1,0-4.9,4.9,4.9,4.9,0,0,0,4.9-4.9Z" transform="translate(-1273.06 -951.13)" style="fill:#fff"/></g><g id="a92ccf83-79c2-4411-8903-1ab291a5bccc" data-name="DOT"><polygon id="e3bdc804-5846-452c-bd9d-08ee247a54d0" data-name="Star" points="256.17 43.88 258.44 44.38 260.26 42.66 260.48 44.96 262.86 46.11 260.48 47.25 260.26 49.55 258.44 47.83 256.17 48.33 257.26 46.11 256.17 43.88" style="fill:#fff"/><path id="f78a9f6d-7bc7-492f-991d-81b882e4465c" data-name="Circle" d="M1536.69,997.23a4.47,4.47,0,1,1-4.47-4.46,4.47,4.47,0,0,1,4.47,4.46m.21,0a4.68,4.68,0,1,0-4.68,4.68,4.68,4.68,0,0,0,4.68-4.68Z" transform="translate(-1273.06 -951.13)" style="fill:#fff"/></g></g><g id="bf5eb54b-ae50-41fe-b8d2-b4f6fa625023" data-name="Frets copia"><rect id="afe795ed-bbf4-4ea3-b8ed-703aa893d954" data-name="Fret" width="2.93" height="92.21" style="fill:url(#b7a97e8f-9ec2-46d5-8315-7fa6698dccc0)"/><rect id="afc09f76-9ee6-4dcb-962e-3efe21c31ac4" data-name="Fret" x="46.85" width="2.93" height="92.21" style="fill:url(#a6658403-3e29-4f5e-8d41-7155ba706de9)"/><rect id="aee0342d-1bdd-418c-9d53-8b9a2400fb43" data-name="Fret" x="93.71" width="2.93" height="92.21" style="fill:url(#e2c311ef-4357-4884-b38e-71573083608e)"/><rect id="f8591c0d-aaa8-49bb-af88-776103c46a81" data-name="Fret" x="140.56" width="2.93" height="92.21" style="fill:url(#a3241ead-4159-41c6-ad6e-27f87b519bb1)"/><rect id="b55b217a-6a94-433e-a06e-c15cf97f62e7" data-name="Fret" x="187.41" width="2.93" height="92.21" style="fill:url(#f97518e3-b697-48ac-a321-fa4ea796fa17)"/><rect id="fb7cde4f-ab5a-444f-b714-1f89c546cb8a" data-name="Fret" x="234.27" width="2.93" height="92.21" style="fill:url(#ba6c7fa2-6641-4e15-8a0a-071729ae79e5)"/></g><g id="a8dfeb57-502c-4106-a330-f5e08fdb6bf0" data-name="String"><rect id="a02ebc54-0469-4519-a437-f62959e4ac57" data-name="String" x="2.93" y="7.2" width="278.19" height="0.98" style="fill:url(#a05ae0df-285e-43ac-a541-8bb9ff6871fc)"/><rect id="bfbb48ab-c02d-4725-a226-76324389dfcd" data-name="String" x="2.93" y="22.64" width="278.19" height="0.83" style="fill:url(#f9c097a3-d5ec-4bac-82a5-02814ef90352)"/><rect id="e76462a5-8fa7-44aa-a4d6-0de83888da6c" data-name="String" x="2.93" y="38.03" width="278.19" height="0.79" style="fill:url(#fd4544dd-82b1-42e4-97fe-9fe60b90797d)"/><rect id="fff8ba4e-92dd-4fa8-b748-87081583a9de" data-name="String" x="2.93" y="53.42" width="278.19" height="0.74" style="fill:url(#fb03d6af-4c54-4bfb-9362-3ede2865e7c6)"/><rect id="a4397e46-cbcf-478c-944a-a60752fc6203" data-name="String" x="2.93" y="68.8" width="278.19" height="0.7" style="fill:url(#e59232d1-b53f-42fb-bdb3-875319ef9b34)"/><rect id="bee94d42-f34c-4731-8a18-2e3c0c3993d2" data-name="String" x="2.93" y="84.19" width="278.19" height="0.66" style="fill:url(#a078bda0-aaec-45b5-adfb-4fef43defe39)"/></g></g></svg>