<svg id="aec7b90a-3d1d-49bf-b4f8-5c47c2a3bb47" data-name="ESP STH-130" xmlns="http://www.w3.org/2000/svg" xmlns:xlink="http://www.w3.org/1999/xlink" viewBox="0 0 92.21 281.12"><defs><linearGradient id="e878fcc0-146e-4753-8a21-5275d8b57595" x1="1014.6" y1="586.62" x2="1106.81" y2="586.62" gradientTransform="translate(1647.32 -474.09) rotate(90)" gradientUnits="userSpaceOnUse"><stop offset="0" stop-color="#6e563a"/><stop offset="0.33" stop-color="#4e3320"/><stop offset="0.5" stop-color="#42352d"/><stop offset="0.66" stop-color="#4a3a2d"/><stop offset="1" stop-color="#5d4336"/></linearGradient><linearGradient id="e43d2f31-baf4-47b7-964e-a1a4f10692de" x1="46.11" y1="281.12" x2="46.11" y2="278.19" gradientUnits="userSpaceOnUse"><stop offset="0" stop-color="#c8c8c8"/><stop offset="0.5" stop-color="#fff"/><stop offset="0.67" stop-color="#ebebeb"/><stop offset="1" stop-color="#e1e1e1"/></linearGradient><linearGradient id="ea75fd56-9922-4da3-b3f0-0ec5997c27ef" x1="46.11" y1="234.27" x2="46.11" y2="231.34" xlink:href="#e43d2f31-baf4-47b7-964e-a1a4f10692de"/><linearGradient id="e0ac0630-baeb-4900-a431-c1b28680756b" x1="46.11" y1="187.41" x2="46.11" y2="184.48" xlink:href="#e43d2f31-baf4-47b7-964e-a1a4f10692de"/><linearGradient id="f626a46a-4102-4be2-9de4-73b32f19d2f2" x1="46.11" y1="140.56" x2="46.11" y2="137.63" xlink:href="#e43d2f31-baf4-47b7-964e-a1a4f10692de"/><linearGradient id="ae088728-8a7f-4faf-90b7-e5bb3c02ea03" x1="46.11" y1="93.71" x2="46.11" y2="90.78" xlink:href="#e43d2f31-baf4-47b7-964e-a1a4f10692de"/><linearGradient id="b454ac48-1924-48b3-83d3-a5e446bcfb22" x1="46.11" y1="46.85" x2="46.11" y2="43.92" xlink:href="#e43d2f31-baf4-47b7-964e-a1a4f10692de"/><linearGradient id="b077d57a-1300-4feb-b2f0-98051fb76873" x1="7.2" y1="139.09" x2="8.18" y2="139.09" gradientUnits="userSpaceOnUse"><stop offset="0" stop-color="#c8c8c8"/><stop offset="0.5" stop-color="#fff"/><stop offset="1" stop-color="#e1e1e1"/></linearGradient><linearGradient id="bcd1b99a-b958-468b-828c-f8b05f203aca" x1="22.64" y1="139.09" x2="23.47" y2="139.09" xlink:href="#b077d57a-1300-4feb-b2f0-98051fb76873"/><linearGradient id="a915b792-8730-45d2-9531-6463a9dd2891" x1="38.03" y1="139.09" x2="38.82" y2="139.09" xlink:href="#b077d57a-1300-4feb-b2f0-98051fb76873"/><linearGradient id="a31d282d-343f-4b16-84b4-f244f64b327e" x1="53.42" y1="139.09" x2="54.16" y2="139.09" xlink:href="#b077d57a-1300-4feb-b2f0-98051fb76873"/><linearGradient id="e670e2b5-9b5c-4648-8072-3c8abe138ee0" x1="68.8" y1="139.09" x2="69.5" y2="139.09" xlink:href="#b077d57a-1300-4feb-b2f0-98051fb76873"/><linearGradient id="f79f5a8a-4303-4ca2-9090-252dce304fce" x1="84.19" y1="139.09" x2="84.85" y2="139.09" xlink:href="#b077d57a-1300-4feb-b2f0-98051fb76873"/></defs><g id="bf456a07-008b-42ac-ac91-d0cd490e6173" data-name="Neck"><rect id="ffa4eafd-497f-4420-a42e-5ed5b4dff816" data-name="Neck" x="921.61" y="540.51" width="278.19" height="92.21" transform="translate(-540.51 1199.8) rotate(-90)" style="fill:url(#e878fcc0-146e-4753-8a21-5275d8b57595)"/><g id="bdfb356d-694d-4013-92a9-86dcc294a4c3" data-name="Crush 40 Logo"><path id="a357767e-e6ff-42d1-ab01-c9686c8f8aeb" data-name="Cursh+Ring" d="M1080.79,698.82c-3.82-3.3-10.06-1-12.17.83a10.49,10.49,0,0,0-1.7,1.84h-1.7l.57-1.61h-1c-.11,0-2.47,0-3.41,1.61h-2.65a1.91,1.91,0,0,0-1.71,1.25l-.16.47a1.38,1.38,0,0,0-.13-1.23,1.27,1.27,0,0,0-1-.49h-2.12l-.13.38a1.24,1.24,0,0,0-.93-.38h-5.34l-.24,0,.58-1.64h-3.39c-.12,0-2.9,0-3.62,2l-1.59,4.48h7.87a1.93,1.93,0,0,0,1.71-1.26l.52-1.47h.61l-.36,1a1.35,1.35,0,0,0,.13,1.23,1.23,1.23,0,0,0,1,.5h7.92a1.93,1.93,0,0,0,1.6-1l-.36,1h2.62a1.83,1.83,0,0,0,.61-.11l0,.11h2.61a1.67,1.67,0,0,0,.49-.08,5.56,5.56,0,0,0,1.17,2c2.34,2.66,7,2.55,10.78.62C1081.37,707.15,1084.5,702,1080.79,698.82Zm-36.63,6.54h-4l1.26-3.55c.56-1.59,3-1.59,3-1.59h2.4l-.28.79h-2.4l-1.26,3.55h2.41A1.22,1.22,0,0,1,1044.16,705.36Zm1.77-3.31a1.74,1.74,0,0,0-.44.69l-.52,1.47h-1.37l.76-2.16Zm2.82.59-.69,1.92a1.21,1.21,0,0,1-1,.8h-1.63l1-2.72a1.23,1.23,0,0,1,1.06-.8h3.18l-.28.8Zm1.91,2.72c-.43,0-.65-.35-.49-.8l1-2.72h1.63c.43,0,.65.35.5.8l-.68,1.92h.77l1-2.72H1056c.43,0,.65.35.49.8l-1,2.72Zm9-.8a1.24,1.24,0,0,1-1.06.8H1056l.28-.8h1l.68-1.93a1.24,1.24,0,0,1,1.06-.8h2.59l-.28.8h-1Zm6,.82H1064l1-2.75h-.77l-.69,2a1.24,1.24,0,0,1-1.06.8h-1.63l1.25-3.55c.57-1.59,3-1.59,3-1.59l-.57,1.61h3.19l-1,2.73A1.24,1.24,0,0,1,1065.59,705.38Zm11.49,2.87c-3.33,1.65-7.55,1.92-9.94-.66a3.92,3.92,0,0,1-.88-1.44,2,2,0,0,0,.75-.77l1.39-3.89h-1.13a7.43,7.43,0,0,1,1.68-1.68c2.23-1.59,6.73-3.44,10.48-.75s1,7.53-2.35,9.19Z" transform="translate(-1014.6 -447.52)" style="fill:#fff"/><g id="b04acadc-e884-45c9-9ef7-221462d795de" data-name="40"><path id="bed32347-579c-4561-910a-7859c74d869b" data-name="f5616259-cb93-43e7-956c-e991be823be6" d="M1073.09,704.56l1.29-3.66a2.62,2.62,0,0,0-2.66,1.39l-.81,2.27h-.67l1-2.86a2.64,2.64,0,0,0-2.67,1.39l-.81,2.27h2.86l-.64,1.81a2.6,2.6,0,0,0,2.84-1.81,1.12,1.12,0,0,0,1.11-.8Z" transform="translate(-1014.6 -447.52)" style="fill:#fff"/><path id="a6a5d0b6-1af3-4461-abca-95925ad52df8" data-name="bd7283dd-5d25-4816-ba3d-33143cede286" d="M1076.1,701.83a1.22,1.22,0,0,0-1.06.8l-1,2.73h4.25a1.22,1.22,0,0,0,1.06-.8l1-2.73Zm1.13,2.73h-.71l.68-1.93h.71Z" transform="translate(-1014.6 -447.52)" style="fill:#fff"/></g></g><g id="edec315c-95e3-4dd9-b22e-5ca874ccd944" data-name="DOTS"><g id="a01082fc-c7c5-492a-934d-e084b5907c1b" data-name="DOT"><polygon id="ac0a7864-5def-4ef4-8442-a6b136b2abaf" data-name="Star" points="43.67 212.65 44.22 210.16 42.33 208.17 44.85 207.92 46.11 205.31 47.36 207.92 49.88 208.17 47.99 210.16 48.54 212.65 46.11 211.45 43.67 212.65" style="fill:#fff"/><path id="b533f1f4-a250-4f70-91ea-74da37de7cdd" data-name="Circle" d="M1060.7,652a4.9,4.9,0,1,1-4.89,4.9,4.9,4.9,0,0,1,4.89-4.9m0-.23a5.13,5.13,0,1,0,5.13,5.13,5.13,5.13,0,0,0-5.13-5.13Z" transform="translate(-1014.6 -447.52)" style="fill:#fff"/></g><g id="e8ba9a02-4a06-4496-bea0-59191900550b" data-name="DOT"><polygon id="aa9b45e7-b5df-46b5-a835-e191cff4634e" data-name="Star" points="43.78 118.8 44.3 116.42 42.49 114.52 44.91 114.28 46.11 111.79 47.3 114.28 49.72 114.52 47.91 116.42 48.43 118.8 46.11 117.65 43.78 118.8" style="fill:#fff"/><path id="a10b5d9b-1e11-45a2-8b92-a1322bd40f56" data-name="Circle" d="M1060.7,558.51a4.68,4.68,0,1,1-4.67,4.68,4.68,4.68,0,0,1,4.67-4.68m0-.21a4.89,4.89,0,1,0,4.9,4.89,4.9,4.9,0,0,0-4.9-4.89Z" transform="translate(-1014.6 -447.52)" style="fill:#fff"/></g><g id="f0721933-ad95-4d50-989f-7c81285325f5" data-name="DOT"><polygon id="b576692d-6433-40d5-a9ed-1bcb2374eab7" data-name="Star" points="43.88 24.95 44.38 22.68 42.66 20.86 44.96 20.64 46.11 18.25 47.25 20.64 49.55 20.86 47.83 22.68 48.33 24.95 46.11 23.86 43.88 24.95" style="fill:#fff"/><path id="b17c9098-a85b-4e22-bd24-a65274d9be7b" data-name="Circle" d="M1060.7,465a4.47,4.47,0,1,1-4.46,4.46,4.47,4.47,0,0,1,4.46-4.46m0-.21a4.68,4.68,0,1,0,4.68,4.67,4.68,4.68,0,0,0-4.68-4.67Z" transform="translate(-1014.6 -447.52)" style="fill:#fff"/></g></g><g id="e9bfc188-5e20-46f8-902d-d0c0e673017e" data-name="Frets copia"><rect id="b442ae0e-f735-4403-ae16-f075e9259b9e" data-name="Fret" y="278.19" width="92.21" height="2.93" style="fill:url(#e43d2f31-baf4-47b7-964e-a1a4f10692de)"/><rect id="ba7fd071-c1a8-4999-bf12-1a1c8498a413" data-name="Fret" y="231.34" width="92.21" height="2.93" style="fill:url(#ea75fd56-9922-4da3-b3f0-0ec5997c27ef)"/><rect id="ab5b6ddc-e6f1-4e4b-85f7-fa95a9e1aa1f" data-name="Fret" y="184.48" width="92.21" height="2.93" style="fill:url(#e0ac0630-baeb-4900-a431-c1b28680756b)"/><rect id="b972281d-bcb7-4f21-8f73-e097f643c8c8" data-name="Fret" y="137.63" width="92.21" height="2.93" style="fill:url(#f626a46a-4102-4be2-9de4-73b32f19d2f2)"/><rect id="ef44a41b-08c0-4bd3-b89c-05c4754bd804" data-name="Fret" y="90.78" width="92.21" height="2.93" style="fill:url(#ae088728-8a7f-4faf-90b7-e5bb3c02ea03)"/><rect id="aa894231-77a7-4270-bb70-3c153139cc43" data-name="Fret" y="43.92" width="92.21" height="2.93" style="fill:url(#b454ac48-1924-48b3-83d3-a5e446bcfb22)"/></g><g id="aedaa885-9b2b-493a-be00-e75196ff8f00" data-name="String"><rect id="badff0f4-b34b-43cf-84da-26c45b01f605" data-name="String" x="7.2" width="0.98" height="278.19" style="fill:url(#b077d57a-1300-4feb-b2f0-98051fb76873)"/><rect id="bdd51126-943b-497b-86ed-3ea4e9097de9" data-name="String" x="22.64" width="0.83" height="278.19" style="fill:url(#bcd1b99a-b958-468b-828c-f8b05f203aca)"/><rect id="ef263eb7-bb6f-4aaf-a3e0-d840d9848df9" data-name="String" x="38.03" width="0.79" height="278.19" style="fill:url(#a915b792-8730-45d2-9531-6463a9dd2891)"/><rect id="ba25ba35-4ccf-4b05-98ed-d1e90c3c770a" data-name="String" x="53.42" width="0.74" height="278.19" style="fill:url(#a31d282d-343f-4b16-84b4-f244f64b327e)"/><rect id="b0ec60d7-e598-42ad-a07e-15f1f3b952e2" data-name="String" x="68.8" width="0.7" height="278.19" style="fill:url(#e670e2b5-9b5c-4648-8072-3c8abe138ee0)"/><rect id="ac2e32b7-56ed-49e9-9139-9d6892c5f8e2" data-name="String" x="84.19" width="0.66" height="278.19" style="fill:url(#f79f5a8a-4303-4ca2-9090-252dce304fce)"/></g></g></svg>