<svg id="a34ecf20-577f-42ba-9e96-ab24f18848d3" data-name="ESP SONIC-II" xmlns="http://www.w3.org/2000/svg" xmlns:xlink="http://www.w3.org/1999/xlink" viewBox="0 0 92.21 281.12"><defs><linearGradient id="e2b91b91-209e-4a06-906e-a9677874b903" x1="173.19" y1="677.87" x2="265.41" y2="677.87" gradientTransform="translate(1647.26 -472.12) rotate(90)" gradientUnits="userSpaceOnUse"><stop offset="0" stop-color="#685b53"/><stop offset="0.33" stop-color="#473f39"/><stop offset="0.5" stop-color="#3d3531"/><stop offset="0.66" stop-color="#473f39"/><stop offset="1" stop-color="#594d47"/></linearGradient><linearGradient id="ef801735-bec2-45fe-b5b1-405121e435bb" x1="219.3" y1="819.89" x2="219.3" y2="816.96" gradientTransform="translate(-173.19 -538.77)" gradientUnits="userSpaceOnUse"><stop offset="0" stop-color="#c8c8c8"/><stop offset="0.5" stop-color="#fff"/><stop offset="0.67" stop-color="#ebebeb"/><stop offset="1" stop-color="#e1e1e1"/></linearGradient><linearGradient id="e7755fa5-ea25-4d49-abaf-0b5807025169" x1="219.3" y1="773.04" x2="219.3" y2="770.11" xlink:href="#ef801735-bec2-45fe-b5b1-405121e435bb"/><linearGradient id="ba77ca3c-0c71-450a-9e48-3c2e809e0278" x1="219.3" y1="726.18" x2="219.3" y2="723.25" xlink:href="#ef801735-bec2-45fe-b5b1-405121e435bb"/><linearGradient id="a17bca9a-b731-4e93-bbfa-ecd478bc66fa" x1="219.3" y1="679.33" x2="219.3" y2="676.4" xlink:href="#ef801735-bec2-45fe-b5b1-405121e435bb"/><linearGradient id="f61c3f62-8820-4aae-a510-1b9abdde3324" x1="219.3" y1="632.48" x2="219.3" y2="629.55" xlink:href="#ef801735-bec2-45fe-b5b1-405121e435bb"/><linearGradient id="bd016ef8-62a6-4b35-a8e1-7504d780f0e5" x1="219.3" y1="585.62" x2="219.3" y2="582.69" xlink:href="#ef801735-bec2-45fe-b5b1-405121e435bb"/><linearGradient id="b1aa54c2-c96f-449e-bc8e-6911c614c0c6" x1="180.4" y1="679.33" x2="181.37" y2="679.33" gradientTransform="translate(-173.19 -538.77)" gradientUnits="userSpaceOnUse"><stop offset="0" stop-color="#c8c8c8"/><stop offset="0.5" stop-color="#fff"/><stop offset="1" stop-color="#e1e1e1"/></linearGradient><linearGradient id="abba9a45-adc1-4492-8fbb-da1e2519c4ac" x1="195.84" y1="679.33" x2="196.67" y2="679.33" xlink:href="#b1aa54c2-c96f-449e-bc8e-6911c614c0c6"/><linearGradient id="b3342a02-5e77-468f-89b1-136d9929fee4" x1="211.22" y1="679.33" x2="212.01" y2="679.33" xlink:href="#b1aa54c2-c96f-449e-bc8e-6911c614c0c6"/><linearGradient id="aa0d0b67-cb47-4f1d-a2de-37d37f444d97" x1="226.61" y1="679.33" x2="227.35" y2="679.33" xlink:href="#b1aa54c2-c96f-449e-bc8e-6911c614c0c6"/><linearGradient id="e8f876d0-8e70-41b9-9273-b7785ac2960f" x1="242" y1="679.33" x2="242.7" y2="679.33" xlink:href="#b1aa54c2-c96f-449e-bc8e-6911c614c0c6"/><linearGradient id="f9c55d31-bb0a-46a4-9c6a-443fc73bc18e" x1="257.39" y1="679.33" x2="258.04" y2="679.33" xlink:href="#b1aa54c2-c96f-449e-bc8e-6911c614c0c6"/></defs><g id="ae3514a4-460c-4666-8b40-2e777ccfe723" data-name="Neck"><rect id="bd91b6fd-07ca-4c03-9b11-f07084f2dc8d" data-name="Neck" x="830.3" y="-298.93" width="278.19" height="92.21" transform="translate(298.93 1108.49) rotate(-90)" style="fill:url(#e2b91b91-209e-4a06-906e-a9677874b903)"/><g id="b94270d0-be39-418a-a21f-5e77b7e5fa9f" data-name="Crush 40 Logo"><path id="a710ece3-779f-40fc-bb97-faa0d54d6603" data-name="Cursh+Ring" d="M999.57-143.09c-5.74-5-15.12-1.53-18.29,1.24a16.91,16.91,0,0,0-2.55,2.76h-2.56l.86-2.41h-1.48c-.16,0-3.7.05-5.12,2.41h-4a2.86,2.86,0,0,0-2.57,1.88l-.25.7a2,2,0,0,0-.19-1.83,1.86,1.86,0,0,0-1.54-.75h-3.19l-.2.57a1.86,1.86,0,0,0-1.39-.57h-8a2.19,2.19,0,0,0-.36,0l.87-2.46h-5.09c-.18,0-4.37,0-5.45,3.09l-2.37,6.72h11.81a2.87,2.87,0,0,0,2.57-1.9l.78-2.2h.91l-.53,1.5a2,2,0,0,0,.2,1.84,1.84,1.84,0,0,0,1.53.76h11.89a2.89,2.89,0,0,0,2.41-1.53l-.54,1.53h3.92a2.39,2.39,0,0,0,.92-.17l-.06.17h3.92a2.24,2.24,0,0,0,.73-.12,8.42,8.42,0,0,0,1.77,3c3.52,4,10.47,3.84,16.19.94C1000.43-130.58,1005.14-138.27,999.57-143.09Zm-55,9.82h-6.06l1.88-5.33c.85-2.39,4.46-2.39,4.46-2.39h3.62L948-139.8H944.4l-1.88,5.33h3.61A1.83,1.83,0,0,1,944.54-133.27Zm2.67-5a3,3,0,0,0-.68,1.05l-.77,2.2H943.7l1.15-3.25Zm4.22.89-1,2.89a1.84,1.84,0,0,1-1.59,1.19h-2.45l1.45-4.08a1.83,1.83,0,0,1,1.59-1.19h4.78l-.42,1.19Zm2.88,4.09c-.65,0-1-.53-.74-1.2l1.45-4.09h2.44c.65,0,1,.53.74,1.2l-1,2.89h1.17l1.45-4.09h2.44c.66,0,1,.53.75,1.2l-1.45,4.09Zm13.45-1.2a1.83,1.83,0,0,1-1.59,1.19h-3.89l.42-1.19h1.44l1-2.9a1.85,1.85,0,0,1,1.59-1.2h3.89l-.42,1.2h-1.45Zm9,1.23h-2.44l1.46-4.13h-1.17l-1,2.92a1.84,1.84,0,0,1-1.59,1.21h-2.44l1.88-5.33c.85-2.4,4.46-2.4,4.46-2.4l-.86,2.43h4.78l-1.44,4.09A1.86,1.86,0,0,1,976.73-133.24ZM994-128.93c-5,2.48-11.34,2.88-14.93-1a6.25,6.25,0,0,1-1.32-2.17,2.91,2.91,0,0,0,1.12-1.16l2.1-5.85h-1.7a11.41,11.41,0,0,1,2.52-2.53c3.35-2.38,10.1-5.16,15.73-1.12S999-131.42,994-128.93Z" transform="translate(-923.29 391.92)" style="fill:#fff"/><g id="a19cd2a2-64e9-46e2-8840-7b29d69ce865" data-name="40"><path id="b12e0d3d-6cf8-4d17-92c5-01ed39d7ad4a" data-name="f5616259-cb93-43e7-956c-e991be823be6" d="M988-134.47l2-5.51c-2.41,0-3.68,1.15-4,2.09l-1.21,3.42h-1l1.52-4.31c-2.41,0-3.68,1.15-4,2.09L980-133.27h4.29l-1,2.72c1.69,0,3.42-.33,4.27-2.72a1.69,1.69,0,0,0,1.67-1.2Z" transform="translate(-923.29 391.92)" style="fill:#fff"/><path id="f991298d-6cf1-49ce-ab9d-fea092d33f18" data-name="bd7283dd-5d25-4816-ba3d-33143cede286" d="M992.52-138.57a1.83,1.83,0,0,0-1.59,1.2l-1.45,4.09h6.39a1.83,1.83,0,0,0,1.59-1.19l1.45-4.1Zm1.69,4.1h-1.06l1-2.9h1.06Z" transform="translate(-923.29 391.92)" style="fill:#fff"/></g></g><g id="e3d0ccfb-1666-4de5-81dd-0fd7fd98c0f7" data-name="DOTS"><g id="b3a4ddb3-bd1d-40ee-94ff-7230b56ca500" data-name="DOT"><polygon id="b98b53cc-c709-415f-8948-f2f60c78d0f9" data-name="Star" points="43.67 212.65 44.22 210.16 42.33 208.17 44.85 207.92 46.11 205.31 47.36 207.92 49.88 208.17 47.99 210.16 48.54 212.65 46.11 211.45 43.67 212.65" style="fill:#fff"/><path id="eeeea702-caff-4900-ae6b-2422728a3826" data-name="Circle" d="M969.39-187.44a4.9,4.9,0,0,1,4.9,4.9,4.9,4.9,0,0,1-4.9,4.89,4.89,4.89,0,0,1-4.89-4.89,4.89,4.89,0,0,1,4.89-4.9m0-.23a5.13,5.13,0,0,0-5.12,5.13,5.13,5.13,0,0,0,5.12,5.12,5.12,5.12,0,0,0,5.12-5.12,5.13,5.13,0,0,0-5.12-5.13Z" transform="translate(-923.29 391.92)" style="fill:#fff"/></g><g id="bf0e1b67-d8ef-4ca4-95b4-b6644c8a75a8" data-name="DOT"><polygon id="a17d80c1-9d32-4955-adbe-6c7caa60a970" data-name="Star" points="43.78 118.8 44.3 116.42 42.49 114.52 44.91 114.28 46.11 111.79 47.3 114.28 49.72 114.52 47.91 116.42 48.43 118.8 46.11 117.65 43.78 118.8" style="fill:#fff"/><path id="a3c13276-1dfa-43bd-9c05-b91ef56eabc1" data-name="Circle" d="M969.39-280.93a4.69,4.69,0,0,1,4.68,4.68,4.69,4.69,0,0,1-4.68,4.68,4.68,4.68,0,0,1-4.67-4.68,4.68,4.68,0,0,1,4.67-4.68m0-.21a4.89,4.89,0,0,0-4.89,4.89,4.89,4.89,0,0,0,4.89,4.89,4.9,4.9,0,0,0,4.9-4.89,4.9,4.9,0,0,0-4.9-4.89Z" transform="translate(-923.29 391.92)" style="fill:#fff"/></g><g id="ba122e2e-2d11-4de7-871f-09c37cc5b748" data-name="DOT"><polygon id="b107499b-3efe-4bdb-82b4-514b6181c8b8" data-name="Star" points="43.88 24.95 44.38 22.68 42.66 20.86 44.96 20.64 46.11 18.25 47.25 20.64 49.55 20.86 47.83 22.68 48.33 24.95 46.11 23.86 43.88 24.95" style="fill:#fff"/><path id="ee27a9a5-c19b-4830-8f63-09fb15576f7d" data-name="Circle" d="M969.39-374.42a4.47,4.47,0,0,1,4.47,4.46,4.47,4.47,0,0,1-4.47,4.47,4.47,4.47,0,0,1-4.47-4.47,4.47,4.47,0,0,1,4.47-4.46m0-.21a4.67,4.67,0,0,0-4.67,4.67,4.68,4.68,0,0,0,4.67,4.68,4.69,4.69,0,0,0,4.68-4.68,4.68,4.68,0,0,0-4.68-4.67Z" transform="translate(-923.29 391.92)" style="fill:#fff"/></g></g><g id="a685b3ae-f64b-4846-bd62-e7e70939359a" data-name="Frets copia 2"><rect id="fd2fbd50-fa16-40c8-bd85-1ff87578b6dd" data-name="Fret" y="278.19" width="92.21" height="2.93" style="fill:url(#ef801735-bec2-45fe-b5b1-405121e435bb)"/><rect id="b2cf44e6-bf53-4da9-94af-2abcffaa7373" data-name="Fret" y="231.34" width="92.21" height="2.93" style="fill:url(#e7755fa5-ea25-4d49-abaf-0b5807025169)"/><rect id="a3412175-f433-4052-abdd-b4e449f0ab80" data-name="Fret" y="184.48" width="92.21" height="2.93" style="fill:url(#ba77ca3c-0c71-450a-9e48-3c2e809e0278)"/><rect id="f95d70a3-5d31-421b-8d0a-672298594274" data-name="Fret" y="137.63" width="92.21" height="2.93" style="fill:url(#a17bca9a-b731-4e93-bbfa-ecd478bc66fa)"/><rect id="bd600d0f-11d4-4c72-a608-75535dd719b1" data-name="Fret" y="90.78" width="92.21" height="2.93" style="fill:url(#f61c3f62-8820-4aae-a510-1b9abdde3324)"/><rect id="f6331c7a-b589-4120-ae32-2a0dc4149c00" data-name="Fret" y="43.92" width="92.21" height="2.93" style="fill:url(#bd016ef8-62a6-4b35-a8e1-7504d780f0e5)"/></g><g id="b415b0a8-0cea-4cc1-9673-822fdb8b751e" data-name="String"><rect id="b97dea78-0c52-42c4-acd9-1eff765fbb03" data-name="String" x="7.2" width="0.98" height="281.12" style="fill:url(#b1aa54c2-c96f-449e-bc8e-6911c614c0c6)"/><rect id="fda62506-a257-4fd1-80e1-cf6687f0dcbd" data-name="String" x="22.64" width="0.83" height="281.12" style="fill:url(#abba9a45-adc1-4492-8fbb-da1e2519c4ac)"/><rect id="fd07f99d-befc-4ae3-a5f7-f2c713ed0eb9" data-name="String" x="38.03" width="0.79" height="281.12" style="fill:url(#b3342a02-5e77-468f-89b1-136d9929fee4)"/><rect id="a9b11090-18cb-4bef-95f0-f65b5366b4fb" data-name="String" x="53.42" width="0.74" height="281.12" style="fill:url(#aa0d0b67-cb47-4f1d-a2de-37d37f444d97)"/><rect id="ad705911-616f-4edf-a340-4397e8bd7941" data-name="String" x="68.8" width="0.7" height="281.12" style="fill:url(#e8f876d0-8e70-41b9-9273-b7785ac2960f)"/><rect id="bbb94464-94e8-4727-99b1-64596e308bdb" data-name="String" x="84.19" width="0.66" height="281.12" style="fill:url(#f9c55d31-bb0a-46a4-9c6a-443fc73bc18e)"/></g></g></svg>