<?xml version="1.0" standalone="yes"?>
<svg xmlns="http://www.w3.org/2000/svg" width="47" height="47" viewBox="36 47">
	<g transform-origin="50% 50%" transform="rotate(90 0 0)">
		<path style="fill:#dfdae3; stroke:none;" d="M0 0L1 1L0 0z"/>
		<path style="fill:#2a252b; stroke:none;" d="M1 0C7.34115 2.73537 15.2087 2 22 2L22 0L1 0z"/>
		<path style="fill:#a5a0a1; stroke:none;" d="M22 0L22 2L24 2L24 0L22 0z"/>
		<path style="fill:#2a252b; stroke:none;" d="M24 0L24 2L46 2L46 0L24 0z"/>
		<path style="fill:#635b5f; stroke:none;" d="M46 0L46 3C46.6961 1.4463 46.6961 1.5537 46 0z"/>
		<path style="fill:#a5a0a1; stroke:none;" d="M0 1L1 2L0 1z"/>
		<path style="fill:#635b5f; stroke:none;" d="M1 1C3.33155 1.98453 5.45666 1.98125 8 2C5.66845 1.01547 3.54334 1.01875 1 1z"/>
		<path style="fill:#dfdae3; stroke:none;" d="M0 2C7.64879 5.20957 19.7122 3 28 3C20.3512 -0.209572 8.2878 2 0 2z"/>
		<path style="fill:#a5a0a1; stroke:none;" d="M26 3C31.959 5.50049 40.5639 4 47 4C41.9801 0.196938 31.8847 1.59898 26 3M0 3C0 12.1256 -0.115016 15.971 10 16C5.84363 14.2348 2.51661 14.9959 1 10L23 10L23 15L13 15C16.1633 16.3274 19.5856 15.9996 23 16L23 21L1 21L1 17C-0.761425 21.1977 -1.60926 31.8461 2 35C0.942027 25.5185 17.4031 25.7598 23 30C29.7378 26.2529 39.4809 28 47 28C39.9041 25.0225 30.3318 29.797 24 25C17.4774 28.6274 8.27349 27 1 27C3.35435 19.2445 16.6322 21.484 23 23L23 21C30.4384 23.1987 39.2708 22 47 22C40.5552 19.2956 30.9678 21 24 21L24 16L47 16C40.5552 13.2956 30.9678 15 24 15L24 10L47 10C40.829 7.41054 33.2433 10.9897 27.1474 8.39738C24.7128 7.36205 23.9338 4.58086 22 3L23 8L1 8C0.912406 6.03593 0.778937 4.76904 0 3z"/>
		<path style="fill:#635b5f; stroke:none;" d="M1 3L1 8C1.82989 5.96952 1.82989 5.03048 1 3z"/>
		<path style="fill:#2a252b; stroke:none;" d="M2 3L2 8L22 8L22 4C15.2844 3.15128 8.7714 3 2 3z"/>
		<path style="fill:#635b5f; stroke:none;" d="M18 3C19.506 3.68304 20.3148 3.82589 22 4C20.4939 3.31696 19.6852 3.17411 18 3M24.6667 3.33333C24.2222 3.77779 25.2778 3.72222 25.3333 3.66667C25.7778 3.22224 24.7222 3.27776 24.6667 3.33333M22 4L22 8C22.7102 6.24051 22.7102 5.75949 22 4z"/>
		<path style="fill:#2a252b; stroke:none;" d="M24 4L24 8L47 8L47 4L24 4z"/>
		<path style="fill:#635b5f; stroke:none;" d="M25 8C31.2023 10.6026 40.2977 9 47 9C40.7977 6.3974 31.7023 8 25 8z"/>
		<path style="fill:#2a252b; stroke:none;" d="M1 10L2 14L22 14L22 10L1 10z"/>
		<path style="fill:#635b5f; stroke:none;" d="M22 10L22 14L13 14C16.1633 15.3274 19.5856 14.9996 23 15C22.9124 13.0359 22.7789 11.769 22 10z"/>
		<path style="fill:#2a252b; stroke:none;" d="M24 10L24 15L47 15L47 10L24 10z"/>
		<path style="fill:#635b5f; stroke:none;" d="M1 11L1 14C1.6961 12.4463 1.6961 12.5537 1 11M2 14C4.61271 15.0977 7.16451 14.9928 10 15C7.38729 13.9023 4.83549 14.0072 2 14z"/>
		<path style="fill:#dfdae3; stroke:none;" d="M0.666667 15.3333C0.222226 15.7778 1.27778 15.7222 1.33333 15.6667C1.77778 15.2222 0.722221 15.2778 0.666667 15.3333M10 15C11.2484 15.6848 11.5484 15.7488 13 16C11.7516 15.3152 11.4516 15.2512 10 15M23 15L24 16L23 15z"/>
		<path style="fill:#635b5f; stroke:none;" d="M0 16L1 21C1.91572 18.6996 1.87932 17.6232 0 16z"/>
		<path style="fill:#2a252b; stroke:none;" d="M2 16L2 21L12 21C10.7516 20.3152 10.4516 20.2512 9 20L9 16L2 16z"/>
		<path style="fill:#635b5f; stroke:none;" d="M9 19L13 17C10.5878 15.6452 9.56762 16.3511 9 19z"/>
		<path style="fill:#2a252b; stroke:none;" d="M13 16C13.2021 17.8499 13.2021 19.1501 13 21L22 21L22 16L13 16z"/>
		<path style="fill:#635b5f; stroke:none;" d="M22 16L22 21C22.8299 18.9695 22.8299 18.0305 22 16M24 16L24 21C24.8299 18.9695 24.8299 18.0305 24 16z"/>
		<path style="fill:#2a252b; stroke:none;" d="M25 16L25 21L47 21L47 16L25 16z"/>
		<path style="fill:#dfdae3; stroke:none;" d="M10 17L10 19L13 19L13 17L10 17z"/>
		<path style="fill:#a5a0a1; stroke:none;" d="M13 17C11.457 18.2667 10.9522 18.4892 9 19C11.162 19.917 13.4524 19.7212 13 17z"/>
		<path style="fill:#635b5f; stroke:none;" d="M13 19L14 20L13 19M12 20L13 21L12 20z"/>
		<path style="fill:#dfdae3; stroke:none;" d="M23 21L23 25C23.7102 23.2405 23.7102 22.7595 23 21z"/>
		<path style="fill:#635b5f; stroke:none;" d="M1 27C1.68304 25.494 1.82589 24.6852 2 23L22 23L22 27C23.5841 22.166 18.714 22.0264 15 22.0008C9.54021 21.9631 2.12931 20.233 1 27M24 22L24 27C24.683 25.494 24.8259 24.6852 25 23L47 23C40.5552 20.2956 30.9678 22 24 22z"/>
		<path style="fill:#2a252b; stroke:none;" d="M2 23L2 27L22 27L22 23L2 23M25 23L25 27L47 27L47 23L25 23z"/>
		<path style="fill:#635b5f; stroke:none;" d="M20 35C15.0481 32.9221 7.43372 33.2333 2 33L2 29L16 29C12.7712 27.6451 7.58026 27.2946 4.14892 28.3179C1.62799 29.0697 0.481284 32.1085 2.74691 33.973C6.18006 36.7983 15.7363 35 20 35z"/>
		<path style="fill:#2a252b; stroke:none;" d="M2 29L2 33L22 33L22 28L2 29z"/>
		<path style="fill:#635b5f; stroke:none;" d="M22 28L22 33C22.8299 30.9695 22.8299 30.0305 22 28M24 28L24 33C24.8299 30.9695 24.8299 30.0305 24 28z"/>
		<path style="fill:#2a252b; stroke:none;" d="M25 28L25 33L47 32L47 28L25 28z"/>
		<path style="fill:#dfdae3; stroke:none;" d="M23 30L23 35C23.8299 32.9695 23.8299 32.0305 23 30z"/>
		<path style="fill:#635b5f; stroke:none;" d="M33 32C37.193 33.7594 42.4632 33.1577 47 34C44.029 30.6001 37.2574 32 33 32z"/>
		<path style="fill:#a5a0a1; stroke:none;" d="M7 33C12.289 35.2194 18.4078 33.8573 24 36C20.5412 31.204 12.3854 33 7 33M24 33C29.959 35.5005 38.5639 34 45 34C39.041 31.4995 30.4361 33 24 33z"/>
		<path style="fill:#2a252b; stroke:none;" d="M1 35C5.49205 36.8849 18.6513 37.8322 22 34C15.0393 35.2923 8.05474 35 1 35M24 34L24 36L46 36L46 34L24 34z"/>
		<path style="fill:#a5a0a1; stroke:none;" d="M46 34L47 35L46 34z"/>
		<path style="fill:#dfdae3; stroke:none;" d="M0 35L1 36L0 35z"/>
		<path style="fill:#635b5f; stroke:none;" d="M46 35L47 36L46 35z"/>
	</g>
</svg>
