<svg xmlns="http://www.w3.org/2000/svg" viewBox="0 0 1909.02 579.55"><g id="a5136acd-49a3-4a8a-9042-393fd7ca1083" data-name="Logos"><g id="b937b4f9-9a04-4314-b5cb-27a0c179061b" data-name="Crush 40 (2009) [Variant]"><path id="a3202270-1477-4558-a447-500277118e87" data-name="Crush + Ring" d="M4021.92,4285.48c-167.64-145-441.49-44.76-534.07,36.25-28.29,24.76-53.7,51.92-74.36,80.75h-74.68l25-70.56h-43.13c-4.77,0-108.13,1.54-149.51,70.56H3055.05c-31.73,0-63.87,23.17-75,54.79l-7.24,20.49c6.77-19.3,4.68-38.81-5.75-53.55-9.91-14-26.35-21.73-44.88-21.73h-93l-5.88,16.64c-10-10.86-24.55-16.64-40.71-16.64l-92.92-.33-.12.33H2548.35a67.19,67.19,0,0,0-10.57.87l25.48-72.09H2414.61c-5.19,0-127.45,1-159,90.23l-69.4,196.36h345.09c31.71,0,64-24.06,75.07-55.45l22.67-64.14h26.63l-15.49,43.81c-6.84,19.35-4.76,38.93,5.69,53.72,9.92,14,26.23,22.06,44.76,22.06h347.14c27.95,0,56.48-18.72,70.44-44.57l-15.75,44.57h114.64a69.12,69.12,0,0,0,26.7-4.88l-1.72,4.88h114.46a71.21,71.21,0,0,0,21.46-3.43c9.37,29.35,26,58.71,51.42,87.52,102.81,116.75,306,112.05,473,27.43C4047.29,4650.93,4184.7,4426.28,4021.92,4285.48ZM2415,4572.45H2238l55-155.7c24.7-69.89,130.23-69.89,130.23-69.89h105.52l-12.3,34.78H2411l-55,155.69h105.52C2454.58,4556.88,2434,4572.45,2415,4572.45ZM2492.81,4427a82.45,82.45,0,0,0-19.61,30.56l-22.67,64.13h-60.12l33.47-94.69Zm123.36,25.82-29.86,84.47c-6.79,19.21-27.42,34.78-46.4,34.78h-71.42l42.15-119.25c6.8-19.21,27.42-34.78,46.4-34.78h139.63l-12.3,34.78Zm84.15,119.59c-19,0-28.59-15.57-21.69-35.12l42.28-119.58h71.42c19,0,28.6,15.56,21.69,35.11l-29.86,84.47h34.1l42.27-119.58H2932c19,0,28.6,15.56,21.69,35.11l-42.27,119.59ZM3093,4537.33c-6.79,19.21-27.42,34.78-46.4,34.78H2933l12.29-34.78h42.15l30-84.8c6.91-19.55,27.86-35.12,46.52-35.12h113.56l-12.41,35.12H3123Zm262.09,35.78h-71.42l42.63-120.58h-34.11L3262,4538c-6.91,19.55-27.53,35.12-46.51,35.12h-71.42l55-155.7c24.71-69.89,130.23-69.89,130.23-69.89l-25.06,70.89h139.63L3401.61,4538C3394.7,4557.54,3374.08,4573.11,3355.09,4573.11Zm504.09,125.83c-146,72.5-331.16,84.26-436.14-28.64-18.48-19.87-31-41.18-38.61-63.19a86.19,86.19,0,0,0,32.73-33.79l61.29-170.84h-49.66c21.32-29.43,47.09-55,73.71-73.87,97.94-69.54,294.95-150.9,459.49-32.73S4005.16,4626.44,3859.18,4698.94Z" transform="translate(-2186.22 -4211.85)"/><g id="fa3eafd0-0d5a-4684-81d8-2ae45477a935" data-name="40"><path id="f5616259-cb93-43e7-956c-e991be823be6" data-name="4" d="M3683.93,4537.33l56.88-160.91c-70.33,0-107.41,33.62-117.09,61l-35.31,99.89h-29.6l44.46-125.79c-70.33,0-107.4,33.61-117.09,61l-35.31,99.9H3576l-28,79.22c49.28,0,100.07-9.66,124.66-79.22,25.41,0,37.55-11.87,48.85-35.12h-37.57Z" transform="translate(-2186.22 -4211.85)"/><path id="bd7283dd-5d25-4816-ba3d-33143cede286" data-name="0" d="M3816.12,4417.41c-19,0-39.61,15.57-46.51,35.12l-42.27,119.58H3914c19,0,39.61-15.57,46.4-34.78l42.39-119.92Zm49.29,119.92h-31l30-84.8h31Z" transform="translate(-2186.22 -4211.85)"/></g></g></g></svg>