<?xml version="1.0" encoding="utf-8"?>
<!-- Generator: Adobe Illustrator 25.3.0, SVG Export Plug-In . SVG Version: 6.00 Build 0)  -->
<svg version="1.1" id="Capa_1" xmlns="http://www.w3.org/2000/svg" xmlns:xlink="http://www.w3.org/1999/xlink" x="0px" y="0px"
	 viewBox="0 0 1930.1 597" style="enable-background:new 0 0 1930.1 597;" xml:space="preserve">
<style type="text/css">
	.st0{fill:none;}
	.st1{fill:#FFFFFF;}
	.st2{fill:#FF0000;}
</style>
<g>
	<path class="st0" d="M1792.7,397.9c-2.6,2.4-5.2,4.7-8.1,6.9c-15.8,12.1-33.9,18.7-51,18.7H1518c-14.2,26.9-33.5,45.9-60.2,59.5
		c-31.1,15.8-64.1,17.8-89.3,17.8H1313l4.1-11.7l23.3-65.5h-111.8c7.3,13.7,16.4,26.4,27,37.7c49.4,53.1,121,81.2,207,81.2
		c70.4,0,148.1-19.3,218.8-54.4C1722.6,467.6,1761.7,435.7,1792.7,397.9z"/>
	<path class="st0" d="M270.5,309.9l20.6-58.3c2.4-6.7,5.5-13,9.5-18.9h-44.3L229,309.9H270.5z"/>
	<path class="st0" d="M1817.9,360.2c-1,2.7-2.1,5.4-3.3,8l0.9-1.4c25.9-40,40.5-81.5,42.5-120.2L1817.9,360.2z"/>
	<path class="st0" d="M1272.6,190.6L1272.6,190.6h44.4l-4.1,11.7l-5.7,16.1c6.1-4.9,12.6-9.3,19.4-13.1
		c27.1-15.4,59.8-23.2,97.1-23.2h22.5c21.1-16.5,57.7-35.1,115.1-35.1h55.5l-4.1,11.7l-13.7,38.9c11.6-6.1,24.5-9.4,37.7-9.5h214.1
		c-11-34.1-33.8-63.6-67.8-88.1c-53.8-38.7-115.4-58.3-183-58.3c-128.1,0-236.2,69.6-266.3,91
		C1310.8,149.1,1290.3,168.6,1272.6,190.6z"/>
	<path d="M1848,82.4c-61.9-53.5-138.2-73.6-214.6-73.6l0,0c-130.5,0-261.1,58.8-319.5,109.9c-28.3,24.8-53.7,51.9-74.4,80.8H1165
		l24.9-70.6h-43.1c-4.8,0-108.1,1.6-149.5,70.6H881.2c-31.7,0-63.8,23.2-75,54.8l-7.2,20.5c6.8-19.3,4.7-38.8-5.8-53.6
		c-9.9-14-26.3-21.7-44.9-21.7h-93l-5.9,16.6c-10-10.9-24.6-16.6-40.7-16.6H374.6c-3.5,0-7.1,0.3-10.6,0.9l25.5-72.1H240.8
		c-5.2,0-127.5,1-159,90.2L12.4,414.7h345.1c31.7,0,64-24.1,75.1-55.5l22.7-64.1h26.6l-15.5,43.8c-6.8,19.4-4.8,38.9,5.7,53.7
		c9.9,14.1,26.2,22.1,44.8,22.1h347.2c28,0,56.4-18.7,70.4-44.6l-15.8,44.6h114.6c9.1,0.1,18.2-1.5,26.7-4.9l-1.7,4.9h114.4
		c7.3,0,14.5-1.2,21.5-3.4c9.4,29.4,26,58.7,51.4,87.5c54.3,61.7,136.7,89.5,226.9,89.5c80.5,0,167.4-22.1,246.1-62
		C1873.4,447.8,2010.8,223.2,1848,82.4z M1255,199.3c21.3-29.4,47.1-55,73.7-73.9c61.9-44,163.4-92.7,271.3-92.7
		c62.8,0,127.6,16.5,188.2,59.9c41.6,29.9,64.9,65.8,74.2,103.9h-225.7c-20,0-40.3,9.5-55.3,24.4l23.1-65.4h-43.1
		c-50.7,0-87.5,15.1-112,35.1h-25.5c-77.7,0-122.8,35.4-140.8,69.9l21.7-61.3H1255V199.3L1255,199.3z M1510.1,334.2h37.6
		c-11.3,23.2-23.4,35.1-48.8,35.1c-24.6,69.6-75.4,79.2-124.7,79.2l28-79.2h-125.1l35.3-99.9c9.7-27.4,46.8-61,117.1-61L1385,334.2
		h29.6l35.3-99.9c9.7-27.4,46.8-61,117.1-61L1510.1,334.2L1510.1,334.2z M1595.8,249.4c6.9-19.6,27.5-35.1,46.5-35.1H1829
		l-42.4,119.9c-6.8,19.2-27.4,34.8-46.4,34.8h-186.7L1595.8,249.4z M241.1,369.3H64.2l55-155.7c24.7-69.9,130.2-69.9,130.2-69.9H355
		l-12.3,34.8H237.2l-55,155.7h105.5C280.7,353.8,260.1,369.3,241.1,369.3z M319,223.9c-8.7,8.6-15.4,19-19.6,30.5l-22.7,64.1h-60.1
		l33.5-94.7L319,223.9L319,223.9z M442.3,249.8l-29.9,84.5c-6.8,19.2-27.4,34.8-46.4,34.8h-71.4l42.2-119.2
		c6.8-19.2,27.4-34.8,46.4-34.8h139.6l-12.3,34.8L442.3,249.8L442.3,249.8z M526.5,369.3c-19,0-28.6-15.6-21.7-35.1l42.3-119.6h71.4
		c19,0,28.6,15.6,21.7,35.1l-29.9,84.5h34.1l42.3-119.6h71.4c19,0,28.6,15.6,21.7,35.1l-42.3,119.6H526.5z M919.2,334.2
		c-6.8,19.2-27.4,34.8-46.4,34.8H759.2l12.3-34.8h42.1l30-84.8c6.9-19.6,27.9-35.1,46.5-35.1h113.6l-12.4,35.1h-42.1L919.2,334.2z
		 M1181.3,370h-71.4l42.6-120.6h-34.1l-30.2,85.5c-6.9,19.6-27.5,35.1-46.5,35.1h-71.4l55-155.7c24.7-69.9,130.2-69.9,130.2-69.9
		l-25.1,70.9H1270l-42.3,119.6C1220.9,354.4,1200.3,370,1181.3,370z M1685.3,495.8c-69.6,34.6-148.2,55.4-222.7,55.4
		c-81.7,0-158.5-25-213.4-84c-18.5-19.9-31-41.2-38.6-63.2c13.8-8,25.2-19.7,32.7-33.8l-15.7,44.5h125.1l-27.4,77.2l0,0h43.1
		c24.3,0,55.9-1.9,85.4-16.8c25.7-13,44.8-31.8,58.8-60.4h221c31.7,0,64.9-26,76-57.5l54.3-153.5
		C1885.7,314.9,1792.1,442.8,1685.3,495.8z"/>
	<polygon points="1660.6,334.2 1691.6,334.2 1721.6,249.4 1690.6,249.4 	"/>
	<line class="st0" x1="1254.9" y1="199.3" x2="1255" y2="199.3"/>
	<path class="st1" d="M1917.6,164.9c-12.4-33.1-33.9-63.1-63.9-89.1c-30.7-26.4-66.3-46.3-104.9-58.6C1713.5,5.8,1674.7,0,1633.5,0
		l0,0c-76.8,0-145.6,19.8-189.9,36.3c-54.3,20.4-103.7,48-135.4,75.7c-28.6,25-53.1,51.4-73.1,78.6h-57.8l20.8-58.9l4.1-11.7h-55.5
		c-21.5,0.6-42.8,3.8-63.4,9.7c-19,5.4-36.1,12.8-50.6,22c-16.8,10.6-30.3,23.6-40.3,38.8H881.2c-17.2,0-35.1,6.1-50.4,17.2
		c-8.9,6.4-16.6,14.4-22.7,23.4c-1.9-5.4-4.5-10.5-7.8-15.2c-11.4-16.2-30.4-25.4-52-25.4h-99.2l-2.1,5.8l-1.7,4.7
		c-10.3-6.9-22.9-10.5-36.7-10.5h-232l21.1-59.5l4.1-11.7h-161c-24.6,0.5-48.9,4.6-72.3,12.1c-21.3,6.9-39.7,16.4-54.7,28.3
		c-18.9,15-32.5,33.7-40.2,55.7L4.1,411.8L0,423.5h357.5c17.2,0,35.1-6.3,50.5-17.7s26.9-26.8,32.9-43.6l20.6-58.3h8.1L458.2,336
		c-7.8,22.1-5.3,44.5,6.8,61.7c11.6,16.4,30.5,25.8,51.9,25.8H864c15.3,0,30.9-4.8,45.2-14c0.9-0.6,1.8-1.2,2.7-1.8l-1.5,4.1
		l-4.1,11.7h127c4.3,0,8.6-0.3,12.9-0.9l-0.3,0.9h126.8c5.3,0,10.6-0.6,15.8-1.7c10.4,28.7,27.4,56.5,50.5,82.8
		c27.2,30.9,62,54.6,103.5,70.3c38.8,14.7,82.6,22.2,130,22.2c40.7,0,83-5.5,125.9-16.3c43-10.9,84.7-26.5,124.3-46.6
		c49.9-25.3,97.9-65.3,135.1-112.6c18.5-23.4,34.2-48.9,46.8-76c12.6-27.7,20.7-55.4,24-82.4C1932.6,228.4,1929,195.4,1917.6,164.9z
		 M1472.5,588.3c-90.2,0-172.6-27.8-226.9-89.5c-25.4-28.8-42-58.2-51.4-87.5c-6.9,2.2-14.2,3.4-21.5,3.4h-114.4l1.7-4.9
		c-8.5,3.4-17.6,5-26.7,4.9H918.6l15.8-44.6c-14,25.9-42.5,44.6-70.4,44.6H516.8c-18.5,0-34.8-8-44.8-22.1
		c-10.5-14.8-12.5-34.4-5.7-53.7l15.5-43.8h-26.6l-22.7,64.1c-11.1,31.4-43.4,55.4-75.1,55.5h-345l69.4-196.4
		c31.5-89.2,153.8-90.2,159-90.2h148.7L364,200.2c3.5-0.6,7-0.9,10.6-0.9h234.2c16.2,0,30.7,5.8,40.7,16.6l5.9-16.6h93
		c18.5,0,35,7.7,44.9,21.7c10.4,14.8,12.5,34.3,5.8,53.6l7.2-20.5c11.2-31.6,43.3-54.8,75-54.8h116.1c41.4-69,144.7-70.6,149.5-70.6
		h43.1l-24.9,70.6h74.7c20.7-28.8,46.1-56,74.4-80.8c58.4-51.1,189-109.9,319.5-109.9l0,0c76.4,0,152.7,20.1,214.6,73.6
		c162.8,140.8,25.4,365.5-129.4,443.9C1639.8,566.2,1553,588.3,1472.5,588.3z"/>
	<path class="st1" d="M1282.9,260.7c18-34.4,63.1-69.9,140.8-69.9h25.5c24.5-20,61.3-35.1,112-35.1h43.1l-23.1,65.4
		c15-14.9,35.3-24.4,55.3-24.4h225.7c-9.3-38.1-32.6-74.1-74.2-103.9c-60.5-43.5-125.4-59.9-188.2-59.9
		c-107.9,0-209.4,48.7-271.3,92.7c-26.6,18.9-52.4,44.4-73.7,73.9h49.6L1282.9,260.7z M1599.9,41.6c67.6,0,129.2,19.6,183,58.3
		c34,24.4,56.8,54,67.8,88.1h-214.1c-13.1,0.1-26.1,3.4-37.7,9.5l13.7-38.9l4.1-11.7h-55.5c-57.4,0-94,18.6-115.1,35.1h-22.5
		c-37.3,0-70,7.8-97.1,23.2c-6.8,3.8-13.3,8.2-19.4,13.1l5.7-16.1l4.1-11.7h-44.3l0,0c17.6-22,38.2-41.5,61.1-58
		C1363.8,111.3,1471.9,41.6,1599.9,41.6z"/>
	<path class="st1" d="M1863.9,203.8l-54.3,153.5c-11.1,31.4-44.3,57.5-76,57.5h-221c-14,28.6-33.1,47.4-58.8,60.4
		c-29.4,14.9-61.1,16.8-85.4,16.8h-43.1l0,0l27.4-77.2h-125.1l15.7-44.5c-7.6,14.1-18.9,25.8-32.7,33.8c7.6,22,20.1,43.3,38.6,63.2
		c54.9,59,131.7,84,213.4,84c74.5,0,153.1-20.8,222.7-55.4C1792.1,442.8,1885.7,314.9,1863.9,203.8z M1255.6,461.2
		c-10.6-11.3-19.7-24-27-37.7h111.8l-23.3,65.5l-4.1,11.7h55.5c25.3,0,58.2-2,89.3-17.8c26.8-13.6,46-32.5,60.2-59.5h215.6
		c17.1,0,35.2-6.7,51-18.7c2.8-2.2,5.5-4.4,8.1-6.9c-31,37.8-70.1,69.6-111.3,90.1c-70.7,35.1-148.4,54.4-218.8,54.4
		C1376.6,542.4,1304.9,514.4,1255.6,461.2z M1814.6,368.2c1.2-2.6,2.3-5.3,3.3-8l40.1-113.6c-2.1,38.8-16.6,80.2-42.5,120.2
		L1814.6,368.2z"/>
	<path class="st1" d="M276.7,318.6l22.7-64.1c4.2-11.5,10.9-22,19.6-30.5h-69l-33.5,94.7h60.2V318.6z M300.6,232.7
		c-3.9,5.9-7.1,12.2-9.5,18.9l-20.6,58.3H229l27.3-77.2H300.6z"/>
	<path class="st2" d="M237.2,178.5h105.5l12.3-34.8H249.5c0,0-105.5,0-130.2,69.9l-55,155.7h176.9c19,0,39.6-15.6,46.5-35.1H182.1
		L237.2,178.5z"/>
	<path class="st2" d="M522.8,215H383.2c-19,0-39.6,15.6-46.4,34.8L294.6,369H366c19,0,39.6-15.6,46.4-34.8l29.9-84.5h68.2L522.8,215
		z"/>
	<path class="st2" d="M758.1,214.6h-71.4l-42.3,119.6h-34.1l29.9-84.5c6.9-19.5-2.7-35.1-21.7-35.1h-71.4l-42.3,119.6
		c-6.9,19.5,2.7,35.1,21.7,35.1h211l42.3-119.6C786.7,230.2,777.1,214.6,758.1,214.6z"/>
	<path class="st2" d="M1003.7,214.3H890.1c-18.7,0-39.6,15.6-46.5,35.1l-30,84.8h-42.1L759.2,369h113.6c19,0,39.6-15.6,46.4-34.8
		l30-84.8h42.1L1003.7,214.3z"/>
	<path class="st2" d="M1227.8,334.9l42.3-119.6h-139.6l25.1-70.9c0,0-105.5,0-130.2,69.9l-55,155.7h71.4c19,0,39.6-15.6,46.5-35.1
		l30.2-85.5h34.1L1109.9,370h71.4C1200.3,370,1220.9,354.4,1227.8,334.9z"/>
	<path class="st2" d="M1449.9,234.3l-35.3,99.9H1385l44.5-125.8c-70.3,0-107.4,33.6-117.1,61l-35.3,99.9h125.1l-28,79.2
		c49.3,0,100.1-9.7,124.7-79.2c25.4,0,37.6-11.9,48.8-35.1h-37.6h-0.1l56.9-160.9C1496.6,173.3,1459.6,206.9,1449.9,234.3z"/>
	<path class="st2" d="M1786.5,334.2l42.4-119.9h-186.7c-19,0-39.6,15.6-46.5,35.1L1553.5,369h186.7
		C1759.1,369,1779.8,353.4,1786.5,334.2z M1691.6,334.2h-31l30-84.8h31L1691.6,334.2z"/>
</g>
<g id="Official_Fan_Website">
	<path id="F" class="st2" d="M95.9,493.4h33.4V480H95.9v-20.2h33.4v-13.4H97.4c-6.3,0.3-12,1.7-16.6,3.9c-2,1-4.2,2.2-6.1,3.7
		c-1.9,1.5-3.7,3.4-5.3,5.6c-1.5,2.2-2.7,4.9-3.7,8c-1,3.1-1.5,6.6-1.5,10.5v72.4h16.6c4.4,0,7.8-1.5,10.7-4.4
		c2.9-2.9,4.4-6.4,4.4-10.9V493.4z"/>
	<path id="a_1_" class="st2" d="M241.6,541.7c0.8-1.9,1.2-3.9,1.2-5.8v-55.3h-68.5c-4.4,0-8,1.5-10.9,4.4c-2.5,2.5-3.9,5.6-4.2,9.2
		h51.9v15.1h-36.6c-4.4,0-8,1.5-10.9,4.4c-2.9,2.9-4.4,6.3-4.4,10.7v27h68.5c2,0,4.1-0.3,5.8-1.2c1.9-0.8,3.4-1.9,4.7-3.2
		C239.8,545.1,240.8,543.4,241.6,541.7z M211.1,537.5h-20.4v-15.1h20.4V537.5z"/>
	<path id="n" class="st2" d="M330.7,541.5c0.8,1.9,1.9,3.4,3.2,4.9c1.4,1.5,2.9,2.4,4.7,3.2c1.9,0.8,3.7,1.2,5.8,1.2H361v-55.3
		c0-2-0.5-4.1-1.2-5.8c-0.8-1.9-1.9-3.4-3.2-4.9c-1.4-1.4-2.9-2.4-4.7-3.2c-1.9-0.8-3.7-1.2-5.8-1.2h-68.5v55.5c0,2,0.3,4.1,1.2,5.8
		c0.8,1.9,1.9,3.4,3.2,4.9c1.4,1.4,2.9,2.4,4.7,3.2s3.9,1.2,5.8,1.2h16.6v-57.2h20.4v42.1C329.5,537.8,329.8,539.7,330.7,541.5z"/>
	<path id="W" class="st2" d="M594.4,446.5c-5.6,0.5-10.9,1.9-15.4,3.9c-2,1-4.2,2.2-6.1,3.7c-1.9,1.5-3.7,3.4-5.3,5.6
		c-1.5,2.2-2.7,4.9-3.7,8c-1,3.1-1.5,6.6-1.5,10.5v59.2h-20.2v-90.9c-5.6,0.5-10.7,1.9-15.3,3.9c-2,1-4.2,2.2-6.1,3.7
		c-1.9,1.5-3.7,3.4-5.3,5.6c-1.5,2.2-2.7,4.9-3.7,8c-1,3.1-1.5,6.6-1.5,10.5v59.2h-20.2v-90.9c-5.6,0.5-10.7,1.9-15.3,3.9
		c-2,1-4.2,2.2-6.1,3.7c-1.9,1.5-3.7,3.4-5.3,5.6c-1.5,2.2-2.7,4.9-3.7,8c-1,3.1-1.5,6.6-1.5,10.5v72.6h120.4c4.4,0,8-1.5,10.9-4.4
		c2.9-2.9,4.4-6.4,4.4-10.9L594.4,446.5L594.4,446.5z"/>
	<path id="e" class="st2" d="M711.8,541.7c0.7-1.4,1-2.7,1.2-4.2h-52.1v-15.3h36.8c2,0,4.1-0.3,5.8-1.2c1.9-0.8,3.4-1.9,4.7-3.2
		c1.4-1.5,2.4-3.1,3.2-4.9c0.8-1.9,1.2-3.7,1.2-5.8v-26.8h-68.5c-4.4,0-8,1.5-10.9,4.4c-2.9,2.9-4.4,6.4-4.4,10.9v55.3h68.5
		c2,0,4.1-0.3,5.8-1.2c1.9-0.8,3.4-1.9,4.9-3.2C709.8,545.1,710.9,543.6,711.8,541.7z M660.9,493.7h20.4v14.9h-20.4V493.7z"/>
	<path id="b" class="st2" d="M830,541.7c0.8-1.9,1.2-3.9,1.2-5.8v-55.3h-51.9V447c-5.6,0.5-10.7,1.9-15.1,4.1c-2,1-4.2,2.2-6.1,3.9
		c-1.9,1.5-3.7,3.4-5.3,5.6s-2.7,4.9-3.7,8c-1,2.9-1.5,6.4-1.5,10.5v72.3h68.5c2,0,4.1-0.3,5.8-1.2c1.7-0.8,3.4-1.9,4.7-3.2
		C828,545.1,829.2,543.4,830,541.7z M799.5,537.5h-20.4v-43.6h20.4V537.5z"/>
	<path id="s" class="st2" d="M908.5,541.5c0.8-1.9,1.2-3.7,1.2-5.8v-42.1h17.5v-13.4h-34.4c-2,0-4.1,0.3-5.8,1.2
		c-1.7,0.8-3.4,1.9-4.9,3.2c-1.4,1.4-2.4,2.9-3.2,4.7c-0.8,1.9-1.2,3.9-1.2,5.9v42.1h-15.9v13.4h32.6c2,0,4.1-0.3,5.8-1.2
		c1.9-0.8,3.4-1.9,4.7-3.2C906.5,544.9,907.7,543.2,908.5,541.5z"/>
	<g id="i_2_">
		<path class="st2" d="M959.3,455.9c-0.8,1.9-1.2,3.9-1.2,5.9v6.6h16.6c2,0,4.1-0.3,5.8-1.2c1.9-0.8,3.4-1.9,4.9-3.2
			c1.4-1.5,2.4-2.9,3.2-4.9l0,0c0.8-1.9,1.2-3.7,1.2-5.8v-6.8h-16.6c-2,0-4.1,0.5-5.8,1.2c-1.9,0.8-3.4,1.9-4.7,3.2
			C961.1,452.5,960.1,454,959.3,455.9z"/>
		<path class="st2" d="M988.6,541.7L988.6,541.7c0.8-1.9,1.2-3.7,1.2-5.8v-55.5h-16.6c-2,0-4.1,0.5-5.8,1.2
			c-1.9,0.8-3.4,1.9-4.7,3.2c-1.4,1.4-2.4,2.9-3.2,4.7c-0.8,1.9-1.2,3.7-1.2,5.8v55.5h16.6c2,0,4.1-0.3,5.8-1.2
			c1.9-0.8,3.4-1.9,4.7-3.2C986.7,545.1,987.8,543.4,988.6,541.7z"/>
	</g>
	<path id="t" class="st2" d="M1068,541.7c0.8-1.9,1.2-3.9,1.2-5.9v-42.4h17.5V480h-17.5v-33.4c-5.6,0.5-10.9,1.9-15.3,3.9
		c-2,1-4.2,2.2-6.1,3.7c-1.9,1.5-3.7,3.4-5.3,5.6c-1.5,2.2-2.7,4.9-3.7,8c-1,3.1-1.5,6.6-1.5,10.5v1.7h-15.9v13.4l15.9,0.3v56.8
		h16.8c2,0,4.1-0.3,5.8-1.2c1.9-0.8,3.4-1.9,4.7-3.2C1066.1,545.1,1067.1,543.4,1068,541.7z"/>
	<path id="e_1_" class="st2" d="M1201.5,541.7c0.7-1.4,1-2.7,1.2-4.2h-51.9v-15.3h36.8c2,0,4.1-0.3,5.8-1.2c1.9-0.8,3.4-1.9,4.7-3.2
		c1.4-1.5,2.4-3.1,3.2-4.9c0.8-1.9,1.2-3.7,1.2-5.8v-26.8H1134c-4.4,0-8,1.5-10.9,4.4c-2.9,2.9-4.4,6.4-4.4,10.9v55.3h68.5
		c2,0,4.1-0.3,5.8-1.2c1.9-0.8,3.4-1.9,4.9-3.2C1199.6,545.1,1200.6,543.6,1201.5,541.7z M1150.7,493.7h20.4v14.9h-20.4V493.7z"/>
</g>
</svg>
