<svg xmlns="http://www.w3.org/2000/svg" viewBox="0 0 1930.14 597.05"><g id="a411236f-5416-459a-acfc-92be5591e7c5" data-name="Logos"><g id="fe0d6cd2-94ae-49c9-a974-3f18d1ee80ba" data-name="Crush 40 (2014) [Red]"><g id="b6eb2ca5-a08c-4639-a52c-cbab81d05158" data-name="&quot;Drop Shadow&quot;"><path d="M1538,6858.57h0c-47,0-90.17-7.36-128.48-21.88-40.74-15.45-75-38.69-101.72-69.07-23.76-27-40.89-55.57-51-85.05a74,74,0,0,1-18.63,2.44H1117.59l.81-2.31a78.87,78.87,0,0,1-19.61,2.31H978l8.72-24.66c-15.92,15.18-37,24.66-57.21,24.66H582.32c-20,0-37.58-8.71-48.33-23.91-11.28-16-13.56-37-6.24-57.7l13.42-38H523.83l-21.64,61.23C490.44,6659.88,456.39,6685,423,6685H71.71l71.47-202.19c32.55-92.09,157.8-93.15,163.11-93.15H461.13L435.91,6461c1.39-.08,2.77-.13,4.13-.13H674.25c15,0,28.52,4.65,38.83,13.21l4.67-13.21h96.07c20.2,0,37.86,8.6,48.46,23.58a56.87,56.87,0,0,1,9.68,24,90.07,90.07,0,0,1,27-31.2c14.52-10.56,31.49-16.38,47.81-16.38h113.62c17.81-28.25,48.77-49.31,89.73-61a249.89,249.89,0,0,1,62.22-9.57h49.32l-25,70.56h66.26c20-27.52,44.74-54.31,73.71-79.66,31.35-27.43,80.21-54.74,134-74.91,43.89-16.45,112.19-36,188.33-36,40.76,0,79.14,5.7,114.06,17A295.38,295.38,0,0,1,1916.46,6345c56.57,48.93,81.86,112.35,73.14,183.41-6.39,52.11-30.56,106.13-69.89,156.25-36.78,46.85-84.22,86.43-133.58,111.44C1706.57,6836.37,1618.45,6858.57,1538,6858.57ZM1287,6685a179,179,0,0,0,30.93,45.1c50.24,54,122.93,82.59,210.21,82.59,71.09,0,149.5-19.49,220.77-54.89,52.73-26.19,102.22-70.91,135.79-122.7,31.92-49.25,46.83-100.77,42.87-147.07l-48.28,136.61c-12,33.85-47.17,60.36-80.13,60.36H1580.9c-13.87,27.32-32.86,46.41-59.56,59.94-30.25,15.32-62.57,17.29-87.35,17.29h-49.33l27.4-77.23Zm-5.57-13.23q2.47,6.68,5.54,13.16l8.54-24.21A91.76,91.76,0,0,1,1281.43,6671.78Zm-942.31-91.63,21.64-61.22a85.08,85.08,0,0,1,13.93-24.73h-56l-30.38,85.95Zm1037.2-119.26-13.6,38.46a134.44,134.44,0,0,1,31.56-24.4c26.47-15,58.43-22.6,95-22.6h24c20.35-16.26,56.3-35.11,113.54-35.11h49.32l-19.87,56.21c14-9.79,30.13-15.22,45.87-15.22h220.07c-10.48-37.37-34.37-69.64-71.07-96-54.61-39.23-117.06-59.12-185.61-59.12-129.38,0-238.45,70.31-268.79,91.86-24.65,17.5-47.86,40.17-67.54,65.92Z" transform="translate(-65.53 -6265.89)"/><path d="M1699,6274.64c76.35,0,152.71,20.12,214.57,73.63,162.78,140.8,25.37,365.45-129.45,443.89-78.76,39.91-165.58,62-246.12,62-90.24,0-172.6-27.78-226.92-89.47-25.37-28.81-42-58.17-51.41-87.52a71.28,71.28,0,0,1-21.47,3.43H1123.77l1.73-4.88a69.34,69.34,0,0,1-26.7,4.88H984.15l15.75-44.57c-14,25.85-42.48,44.57-70.43,44.57H582.32c-18.53,0-34.84-8-44.75-22.06-10.46-14.79-12.54-34.37-5.69-53.72l15.48-43.81H520.73l-22.67,64.14c-11.1,31.39-43.36,55.41-75.07,55.45H77.9l69.41-196.36c31.53-89.21,153.79-90.23,159-90.23H455l-25.49,72.09a67.31,67.31,0,0,1,10.58-.87H674.25c16.16,0,30.7,5.78,40.71,16.63l5.88-16.63h93c18.53,0,35,7.71,44.88,21.72,10.43,14.75,12.52,34.26,5.75,53.56l7.24-20.5c11.18-31.61,43.31-54.78,75-54.78H1062.8c41.38-69,144.75-70.56,149.51-70.56h43.13l-24.94,70.56h74.68c20.65-28.83,46.06-56,74.35-80.75,58.42-51.11,189-109.88,319.5-109.88m-378.56,190.63h49.66l-21.69,61.34c18-34.43,63.1-69.88,140.83-69.88h25.54c24.47-20,61.31-35.12,112-35.12h43.13l-23.11,65.4c15-14.92,35.29-24.4,55.3-24.4h225.74c-9.27-38.15-32.59-74.06-74.19-103.94-60.52-43.46-125.4-59.93-188.16-59.93-107.87,0-209.41,48.69-271.32,92.66-26.63,18.9-52.4,44.44-73.72,73.87m70.39,292.59,27.39-77.22H1293.13l15.71-44.53a86.26,86.26,0,0,1-32.73,33.79c7.6,22,20.14,43.32,38.62,63.19,54.89,59,131.72,84,213.4,84,74.52,0,153.09-20.77,222.73-55.35,106.79-53,200.39-180.92,178.56-292l-54.26,153.49c-11.11,31.42-44.26,57.45-76,57.45h-221c-14,28.65-33.13,47.38-58.83,60.4-29.42,14.91-61.08,16.82-85.37,16.82h-43.13M282.09,6584.52h60.12l22.68-64.14a82.34,82.34,0,0,1,19.6-30.55H315.57l-33.48,94.69M1699,6265.89c-76.79,0-145.64,19.76-189.86,36.33-54.32,20.35-103.67,47.95-135.4,75.72-28.58,25-53.14,51.42-73.06,78.58h-57.84l20.82-58.9,4.12-11.66h-55.5a254.83,254.83,0,0,0-63.42,9.73c-19,5.43-36.07,12.84-50.62,22-16.79,10.61-30.33,23.65-40.3,38.79H946.74c-17.23,0-35.12,6.11-50.38,17.21a95.46,95.46,0,0,0-22.73,23.41,60.52,60.52,0,0,0-7.78-15.2c-11.43-16.16-30.39-25.42-52-25.42H714.65l-2.06,5.83-1.66,4.7c-10.32-6.86-22.94-10.53-36.68-10.53H442.15L463.2,6397l4.12-11.66h-161A254.56,254.56,0,0,0,234,6397.39c-21.28,6.9-39.68,16.42-54.69,28.29-18.93,15-32.47,33.72-40.23,55.68L69.65,6677.72l-4.12,11.67H423c17.18,0,35.1-6.31,50.47-17.69s26.9-26.76,32.85-43.6l20.61-58.3H535l-11.36,32.14c-7.8,22.07-5.33,44.55,6.79,61.69,11.58,16.37,30.49,25.76,51.9,25.76H929.47c15.26,0,30.88-4.83,45.17-14,.92-.59,1.82-1.18,2.71-1.79l-1.45,4.09-4.13,11.67h127a89.55,89.55,0,0,0,12.92-.9l-.32.9h126.83a77.64,77.64,0,0,0,15.81-1.66c10.4,28.69,27.37,56.5,50.5,82.78,27.24,30.92,62,54.56,103.46,70.27,38.81,14.71,82.55,22.17,130,22.17,40.68,0,83-5.49,125.87-16.32A601.2,601.2,0,0,0,1788.1,6800c49.92-25.29,97.88-65.29,135.05-112.64a378.14,378.14,0,0,0,46.76-76c12.64-27.66,20.72-55.38,24-82.41,4.24-34.61.63-67.64-10.75-98.15-12.36-33.15-33.85-63.13-63.88-89.1a299.78,299.78,0,0,0-104.89-58.59c-35.36-11.39-74.18-17.17-115.4-17.17Zm-360.85,190.63a311.64,311.64,0,0,1,61.07-58c30.08-21.35,138.16-91,266.26-91,67.62,0,129.2,19.61,183,58.29,34,24.44,56.78,54,67.75,88.08H1702.12a82.6,82.6,0,0,0-37.68,9.54l13.74-38.87,4.13-11.67H1626.8c-57.39,0-94,18.64-115.06,35.12h-22.47c-37.32,0-70,7.79-97.15,23.16a145.88,145.88,0,0,0-19.42,13.12l5.68-16.07,4.13-11.67h-44.33ZM321.75,6498.58h44.34a87.14,87.14,0,0,0-9.45,18.89L336,6575.77H294.47l27.28-77.19Zm1558.31,135.64a87.3,87.3,0,0,0,3.35-8.12l40.15-113.58c-2.08,38.75-16.6,80.21-42.53,120.21l-1,1.49Zm-296.5,55.17h215.6c17.12,0,35.25-6.66,51-18.74q4.23-3.24,8.07-6.85c-31,37.75-70.15,69.65-111.31,90.09-70.69,35.1-148.4,54.44-218.84,54.44-86,0-157.6-28.08-207-81.2a176.62,176.62,0,0,1-27-37.74h111.78l-23.26,65.55-4.14,11.67H1434c25.26,0,58.25-2,89.33-17.76,26.78-13.57,46-32.55,60.24-59.46Z" transform="translate(-65.53 -6265.89)" style="fill:#fff"/></g><g id="ae0f8029-b87e-4962-9ca6-07e98630efd6" data-name="Crush"><path id="b196bb34-5b50-42fd-950b-23693f3e1f81" data-name="C" d="M302.68,6444.43H408.21l12.29-34.79H315s-105.52,0-130.23,69.9l-55,155.69H306.66c19,0,39.6-15.57,46.51-35.11H247.65Z" transform="translate(-65.53 -6265.89)" style="fill:red"/><path id="b00f7a3a-1e88-4f71-ae3a-2a6971dfa8f9" data-name="r" d="M588.35,6480.87H448.72c-19,0-39.6,15.56-46.39,34.78L360.17,6634.9h71.42c19,0,39.61-15.57,46.4-34.78l29.86-84.47h68.2Z" transform="translate(-65.53 -6265.89)" style="fill:red"/><path id="b66f8db6-8c75-4ec6-8dd0-10678bff9036" data-name="u" d="M823.63,6480.53H752.21l-42.27,119.59h-34.1l29.86-84.47c6.91-19.55-2.71-35.12-21.69-35.12H612.59l-42.27,119.59c-6.91,19.54,2.71,35.11,21.69,35.11h211l42.27-119.58C852.23,6496.1,842.62,6480.53,823.63,6480.53Z" transform="translate(-65.53 -6265.89)" style="fill:red"/><path id="f2e53ad9-495f-4b4d-b3f4-5d796e4d9fa3" data-name="s" d="M1069.22,6480.2H955.65c-18.66,0-39.61,15.57-46.51,35.12l-30,84.8H837l-12.29,34.78H938.29c19,0,39.6-15.57,46.39-34.78l30-84.8h42.14Z" transform="translate(-65.53 -6265.89)" style="fill:red"/><path id="a68009ba-ce7c-49e6-a9b4-fbe65b96e311" data-name="h" d="M1221,6410.31s-105.52,0-130.22,69.89l-55,155.7h71.42c19,0,39.61-15.57,46.52-35.12l30.21-85.46H1218l-42.62,120.58h71.42c19,0,39.6-15.57,46.51-35.12l42.27-119.58H1195.94Z" transform="translate(-65.53 -6265.89)" style="fill:red"/></g><g id="b2d9080c-28ff-42cd-9368-d3efd7c2fd92" data-name="40"><path id="ab42d6a4-0641-4c06-b1ac-0a49742e8d39" data-name="4" d="M1575.61,6600.12l56.88-160.91c-70.33,0-107.4,33.62-117.09,61l-35.31,99.89h-29.6L1495,6474.33c-70.32,0-107.4,33.61-117.08,61l-35.31,99.89h125.12l-28,79.23c49.29,0,100.08-9.66,124.67-79.23,25.4,0,37.55-11.87,48.84-35.11h-37.57Z" transform="translate(-65.53 -6265.89)" style="fill:red"/><path id="a5dcac1e-c240-491c-9584-1f63fe367d47" data-name="0" d="M1707.8,6480.2c-19,0-39.6,15.57-46.51,35.12L1619,6634.9h186.67c19,0,39.61-15.57,46.4-34.78l42.39-119.92Zm49.29,119.92h-31l30-84.8h31Z" transform="translate(-65.53 -6265.89)" style="fill:red"/></g></g></g></svg>