<svg xmlns="http://www.w3.org/2000/svg" xmlns:xlink="http://www.w3.org/1999/xlink" viewBox="0 0 281.12 92.21"><defs><linearGradient id="b2a83126-939d-492a-94f7-5644c6cc51f0" x1="173.19" y1="677.87" x2="265.41" y2="677.87" gradientTransform="translate(819.89 -173.19) rotate(90)" gradientUnits="userSpaceOnUse"><stop offset="0" stop-color="#685b53"/><stop offset="0.33" stop-color="#473f39"/><stop offset="0.5" stop-color="#3d3531"/><stop offset="0.66" stop-color="#473f39"/><stop offset="1" stop-color="#594d47"/></linearGradient><linearGradient id="b8f7d988-fc6c-4e75-94e1-9cd93fc38808" x1="219.3" y1="819.89" x2="219.3" y2="816.96" gradientTransform="translate(819.89 -173.19) rotate(90)" gradientUnits="userSpaceOnUse"><stop offset="0" stop-color="#c8c8c8"/><stop offset="0.5" stop-color="#fff"/><stop offset="0.67" stop-color="#ebebeb"/><stop offset="1" stop-color="#e1e1e1"/></linearGradient><linearGradient id="f67c0844-20ec-4319-9775-7de32c354bcb" x1="219.3" y1="773.04" x2="219.3" y2="770.11" xlink:href="#b8f7d988-fc6c-4e75-94e1-9cd93fc38808"/><linearGradient id="f368e9e5-74aa-46d1-8236-28e7e2e8de99" x1="219.3" y1="726.18" x2="219.3" y2="723.25" xlink:href="#b8f7d988-fc6c-4e75-94e1-9cd93fc38808"/><linearGradient id="bd6306f2-9491-4200-9606-3dcf739fa792" x1="219.3" y1="679.33" x2="219.3" y2="676.4" xlink:href="#b8f7d988-fc6c-4e75-94e1-9cd93fc38808"/><linearGradient id="b74fd6cf-3004-4554-9abe-7a185bddb94b" x1="219.3" y1="632.48" x2="219.3" y2="629.55" xlink:href="#b8f7d988-fc6c-4e75-94e1-9cd93fc38808"/><linearGradient id="ebeb791d-dc00-4174-b2ee-c347dacd951d" x1="219.3" y1="585.62" x2="219.3" y2="582.69" xlink:href="#b8f7d988-fc6c-4e75-94e1-9cd93fc38808"/><linearGradient id="e5981d87-cb13-4bbb-9fd9-a13466037f90" x1="180.4" y1="679.33" x2="181.37" y2="679.33" gradientTransform="translate(819.89 -173.19) rotate(90)" gradientUnits="userSpaceOnUse"><stop offset="0" stop-color="#c8c8c8"/><stop offset="0.5" stop-color="#fff"/><stop offset="1" stop-color="#e1e1e1"/></linearGradient><linearGradient id="b9873959-fc9d-4b60-9d76-eb4c25dd799f" x1="195.84" y1="679.33" x2="196.67" y2="679.33" xlink:href="#e5981d87-cb13-4bbb-9fd9-a13466037f90"/><linearGradient id="adbab510-d10e-4e07-a04b-6ea442650617" x1="211.22" y1="679.33" x2="212.01" y2="679.33" xlink:href="#e5981d87-cb13-4bbb-9fd9-a13466037f90"/><linearGradient id="ea3b7433-47c7-4381-a4b3-4b1dcb9fa72b" x1="226.61" y1="679.33" x2="227.35" y2="679.33" xlink:href="#e5981d87-cb13-4bbb-9fd9-a13466037f90"/><linearGradient id="edcf2254-fc85-4355-886a-853658314b5f" x1="242" y1="679.33" x2="242.7" y2="679.33" xlink:href="#e5981d87-cb13-4bbb-9fd9-a13466037f90"/><linearGradient id="b1a012bd-0f21-4b26-bc86-935a4be79e81" x1="257.39" y1="679.33" x2="258.04" y2="679.33" xlink:href="#e5981d87-cb13-4bbb-9fd9-a13466037f90"/></defs><g id="ea78965a-11dd-4769-84fd-d4cb801f6a07" data-name="ESP SHADOW-II"><g id="b03b2f87-e5d5-4999-9aee-6a67c6ade5e0" data-name="Neck"><rect id="a36e91fe-1d88-4260-91a8-843b4f093a03" data-name="Neck" x="2.93" width="278.19" height="92.21" style="fill:url(#b2a83126-939d-492a-94f7-5644c6cc51f0)"/><g id="a84eaae7-e585-4204-8471-a69d3facc34c" data-name="Crush 40 Logo"><path id="bd8903ad-dbf2-47a9-99c6-7f33b5caaa90" data-name="Cursh+Ring" d="M1275.87,186c5-5.74,1.53-15.11-1.24-18.28a16.91,16.91,0,0,0-2.76-2.55v-2.56l2.41.86V162c0-.16,0-3.7-2.41-5.12v-4a2.86,2.86,0,0,0-1.88-2.57l-.7-.25a2,2,0,0,0,1.83-.2,1.84,1.84,0,0,0,.75-1.53v-3.19l-.57-.2a1.86,1.86,0,0,0,.57-1.39v-3.19h0v-4.83a2.22,2.22,0,0,0,0-.37l2.46.88V131c0-.18,0-4.37-3.09-5.45l-6.72-2.38V135a2.88,2.88,0,0,0,1.9,2.57l2.2.78v.91l-1.5-.53a2,2,0,0,0-1.84.19,1.85,1.85,0,0,0-.76,1.54V152.3a2.9,2.9,0,0,0,1.53,2.42l-1.53-.54v3.92a2.39,2.39,0,0,0,.17.92l-.17-.06v3.92a2.28,2.28,0,0,0,.12.73,8.39,8.39,0,0,0-3,1.76c-4,3.52-3.84,10.48-.94,16.2C1263.36,186.87,1271.05,191.58,1275.87,186Zm-9.82-55v-6.06l5.33,1.88c2.39.85,2.39,4.46,2.39,4.46v3.61l-1.19-.42v-3.61l-5.33-1.88v3.61A1.84,1.84,0,0,1,1266.05,131Zm5,2.66a3,3,0,0,0-1-.67l-2.2-.77v-2.06l3.25,1.14Zm-.89,4.23-2.89-1a1.84,1.84,0,0,1-1.19-1.59v-2.45l4.08,1.44a1.84,1.84,0,0,1,1.19,1.59v4.78l-1.19-.42Zm-4.09,2.88c0-.65.53-1,1.2-.74l4.09,1.44v2.45c0,.65-.53,1-1.2.74l-2.89-1v1.17l4.09,1.45v2.44c0,.65-.53,1-1.2.75l-4.09-1.45Zm1.2,13.45a1.84,1.84,0,0,1-1.19-1.59v-3.89l1.19.42v1.44l2.9,1a1.84,1.84,0,0,1,1.2,1.59v3.89l-1.2-.43v-1.44Zm-1.23,9v-2.45l4.13,1.46V161l-2.93-1a1.84,1.84,0,0,1-1.2-1.59v-2.45l5.33,1.89c2.4.84,2.4,4.46,2.4,4.46l-2.43-.86v4.78l-4.1-1.45A1.84,1.84,0,0,1,1266,163.17Zm-4.31,17.26c-2.48-5-2.88-11.34,1-14.93a6.19,6.19,0,0,1,2.17-1.33,2.87,2.87,0,0,0,1.16,1.13l5.85,2.09v-1.7a11.19,11.19,0,0,1,2.52,2.53c2.39,3.35,5.17,10.1,1.13,15.73s-11.32,1.48-13.81-3.52Z" transform="translate(-1243.58 -109.72)" style="fill:#be1622"/><g id="acca59a2-2c47-4b76-8900-7163869df3aa" data-name="40"><path id="f1306915-0fce-4674-b8f3-fad83a929f72" data-name="f5616259-cb93-43e7-956c-e991be823be6" d="M1267.25,174.43l5.51,1.95c0-2.41-1.15-3.68-2.09-4l-3.42-1.21v-1l4.31,1.52c0-2.41-1.15-3.68-2.09-4l-3.42-1.21v4.28l-2.72-.95c0,1.68.33,3.42,2.72,4.26a1.7,1.7,0,0,0,1.2,1.68v-1.29Z" transform="translate(-1243.58 -109.72)" style="fill:#be1622"/><path id="f1fe2eb9-09b1-438e-9415-ae12d9762a09" data-name="bd7283dd-5d25-4816-ba3d-33143cede286" d="M1271.35,179a1.85,1.85,0,0,0-1.2-1.6l-4.09-1.44v6.39a1.84,1.84,0,0,0,1.19,1.59l4.1,1.45Zm-4.1,1.68v-1.06l2.9,1v1.06Z" transform="translate(-1243.58 -109.72)" style="fill:#be1622"/></g></g><g id="e943e97c-cd6a-433b-b3dd-f7644d7cec87" data-name="DOTS"><g id="be0785e3-303d-4d7e-ac9f-523a326e629c" data-name="DOT"><polygon id="acd38e59-edfb-45ea-87be-d1f952fb51c3" data-name="Star" points="68.47 43.67 70.95 44.22 72.95 42.33 73.2 44.85 75.81 46.11 73.2 47.36 72.95 49.88 70.95 47.99 68.47 48.54 69.67 46.11 68.47 43.67" style="fill:#be1622"/><path id="ae513eef-edd0-4798-a461-01a713cf6637" data-name="Circle" d="M1320.22,155.83a4.9,4.9,0,1,1-4.9-4.89,4.89,4.89,0,0,1,4.9,4.89m.23,0a5.13,5.13,0,1,0-5.13,5.12,5.13,5.13,0,0,0,5.13-5.12Z" transform="translate(-1243.58 -109.72)" style="fill:#be1622"/></g><g id="a641eccb-d2a7-46d2-a517-9076d3d2a6cc" data-name="DOT"><polygon id="a83b13e8-2ed1-4700-93e7-06e19aa05428" data-name="Star" points="162.32 43.78 164.69 44.3 166.6 42.49 166.84 44.91 169.33 46.11 166.84 47.3 166.6 49.72 164.69 47.91 162.32 48.43 163.47 46.11 162.32 43.78" style="fill:#be1622"/><path id="fdecf3b5-3e45-4ec4-b891-f3a4a2c06e0f" data-name="Circle" d="M1413.71,155.83a4.68,4.68,0,1,1-4.68-4.68,4.69,4.69,0,0,1,4.68,4.68m.21,0a4.89,4.89,0,1,0-4.89,4.89,4.89,4.89,0,0,0,4.89-4.89Z" transform="translate(-1243.58 -109.72)" style="fill:#be1622"/></g><g id="bca7a775-e986-43df-8dd1-355869f25815" data-name="DOT"><polygon id="abcb23eb-32a8-4aca-aac4-e1603036735e" data-name="Star" points="256.17 43.88 258.44 44.38 260.26 42.66 260.48 44.96 262.86 46.11 260.48 47.25 260.26 49.55 258.44 47.83 256.17 48.33 257.26 46.11 256.17 43.88" style="fill:#be1622"/><path id="b4a8ba70-9169-4451-9a31-329a96969270" data-name="Circle" d="M1507.2,155.83a4.47,4.47,0,1,1-4.46-4.47,4.47,4.47,0,0,1,4.46,4.47m.21,0a4.68,4.68,0,1,0-4.67,4.68,4.68,4.68,0,0,0,4.67-4.68Z" transform="translate(-1243.58 -109.72)" style="fill:#be1622"/></g></g><g id="b3465fd8-2b1f-479e-815f-78b0c7a810ea" data-name="Frets copia 3"><rect id="a8189517-2745-4a5e-a644-7d249e88320b" data-name="Fret" width="2.93" height="92.21" style="fill:url(#b8f7d988-fc6c-4e75-94e1-9cd93fc38808)"/><rect id="e1046b2c-05e1-48a9-858c-8bc439929e13" data-name="Fret" x="46.85" width="2.93" height="92.21" style="fill:url(#f67c0844-20ec-4319-9775-7de32c354bcb)"/><rect id="e691c37b-46bc-43d8-9cb4-d027d238b588" data-name="Fret" x="93.71" width="2.93" height="92.21" style="fill:url(#f368e9e5-74aa-46d1-8236-28e7e2e8de99)"/><rect id="b575c04f-cd5d-4f8f-896f-270076287064" data-name="Fret" x="140.56" width="2.93" height="92.21" style="fill:url(#bd6306f2-9491-4200-9606-3dcf739fa792)"/><rect id="f9256214-09b6-4857-874b-a5119df1463b" data-name="Fret" x="187.41" width="2.93" height="92.21" style="fill:url(#b74fd6cf-3004-4554-9abe-7a185bddb94b)"/><rect id="a72b7fc5-18b1-4757-a98c-da0b31f7e712" data-name="Fret" x="234.27" width="2.93" height="92.21" style="fill:url(#ebeb791d-dc00-4174-b2ee-c347dacd951d)"/></g><g id="b9f5bf5e-4e88-4f6d-b38e-349fa4706b06" data-name="String"><rect id="fac72144-27e6-4478-a893-bd5525848cd5" data-name="String" y="7.2" width="281.12" height="0.98" style="fill:url(#e5981d87-cb13-4bbb-9fd9-a13466037f90)"/><rect id="a380be58-a11e-48e4-828e-fbe2f4e05da7" data-name="String" y="22.64" width="281.12" height="0.83" style="fill:url(#b9873959-fc9d-4b60-9d76-eb4c25dd799f)"/><rect id="b4a9a663-3a03-4e99-8033-7175d096e938" data-name="String" y="38.03" width="281.12" height="0.79" style="fill:url(#adbab510-d10e-4e07-a04b-6ea442650617)"/><rect id="b59341fe-ec54-4224-ad47-a90d29c1e2c3" data-name="String" y="53.42" width="281.12" height="0.74" style="fill:url(#ea3b7433-47c7-4381-a4b3-4b1dcb9fa72b)"/><rect id="f218a7f3-c75d-4942-b4dd-9b8cfd4c952f" data-name="String" y="68.8" width="281.12" height="0.7" style="fill:url(#edcf2254-fc85-4355-886a-853658314b5f)"/><rect id="b57e39fb-5e08-4909-a1a3-0a6de7481248" data-name="String" y="84.19" width="281.12" height="0.66" style="fill:url(#b1a012bd-0f21-4b26-bc86-935a4be79e81)"/></g></g></g></svg>