<svg id="b12eaf9b-1925-4ce0-9fdd-0a09ad348973" data-name="Capa 1" xmlns="http://www.w3.org/2000/svg" viewBox="0 0 2825.4 1030.72"><g id="f6ab7f63-0df6-42b7-aa3b-4699fcd887c3" data-name="a5136acd-49a3-4a8a-9042-393fd7ca1083"><g id="a1f0bb45-b77c-4b63-a09b-1de3e9f3d20c" data-name="b937b4f9-9a04-4314-b5cb-27a0c179061b"><path id="b66945ef-e62b-43ff-b299-dd15c0752aca" data-name="a3202270-1477-4558-a447-500277118e87" d="M1835.7,73.63c-167.64-145-441.49-44.76-534.07,36.25-28.29,24.76-53.7,51.92-74.36,80.75h-74.68l25-70.56h-43.13c-4.77,0-108.13,1.54-149.51,70.56H868.83c-31.73,0-63.87,23.17-75,54.79l-7.24,20.49c6.77-19.3,4.68-38.81-5.75-53.55-9.91-14-26.35-21.73-44.88-21.73H643l-5.88,16.64c-10-10.86-24.55-16.64-40.71-16.64l-92.92-.33-.12.33H362.13a66.8,66.8,0,0,0-10.57.87L377,119.41H228.39c-5.19,0-127.45,1-159,90.23L0,406H345.08c31.71,0,64-24.06,75.07-55.45l22.67-64.14h26.63L454,330.22c-6.84,19.35-4.76,38.93,5.69,53.72,9.92,14,26.23,22.06,44.76,22.06H851.55c28,0,56.48-18.72,70.44-44.57L906.24,406h114.64a69.12,69.12,0,0,0,26.7-4.88l-1.72,4.88h114.46a71.09,71.09,0,0,0,21.46-3.43c9.37,29.35,26,58.71,51.42,87.52,102.81,116.75,306,112.05,473,27.43C1861.07,439.08,1998.48,214.43,1835.7,73.63ZM228.78,360.6h-177l55-155.7C131.48,135,237,135,237,135H342.53l-12.3,34.78H224.78l-55,155.69H275.3C268.36,345,247.78,360.6,228.78,360.6Zm77.81-145.45A82.3,82.3,0,0,0,287,245.71l-22.67,64.13H204.19l33.47-94.69ZM430,241l-29.86,84.47c-6.79,19.21-27.42,34.78-46.4,34.78H282.27L324.42,241c6.8-19.21,27.42-34.78,46.4-34.78H510.45L498.15,241ZM514.1,360.56c-19,0-28.59-15.57-21.69-35.12l42.28-119.58h71.42c19,0,28.6,15.56,21.69,35.11l-29.86,84.47H632l42.27-119.58h71.47c19,0,28.6,15.56,21.69,35.11L725.2,360.56Zm392.68-35.08c-6.79,19.21-27.42,34.78-46.4,34.78H746.78l12.29-34.78h42.15l30-84.8c6.91-19.55,27.86-35.12,46.52-35.12H991.3l-12.41,35.12H936.78Zm262.09,35.78h-71.42l42.63-120.58H1106l-30.19,85.47c-6.91,19.55-27.53,35.12-46.51,35.12H957.85l55-155.7c24.71-69.89,130.23-69.89,130.23-69.89L1118,206.57h139.63l-42.26,119.58C1208.48,345.69,1187.86,361.26,1168.87,361.26ZM1673,487.09c-146,72.5-331.16,84.26-436.14-28.64-18.48-19.87-31-41.18-38.61-63.19a86.23,86.23,0,0,0,32.73-33.79l61.29-170.84h-49.66c21.32-29.43,47.09-55,73.71-73.87,97.94-69.54,295-150.9,459.49-32.73S1818.94,414.59,1673,487.09Z" transform="translate(467.71 216.01)" style="fill:#fff"/><g id="abd7e553-a842-46bf-bc9f-a74f364fd1b5" data-name="fa3eafd0-0d5a-4684-81d8-2ae45477a935"><path id="ebca7f8c-5d33-4dab-8d27-939c8a915650" data-name="f5616259-cb93-43e7-956c-e991be823be6" d="M1497.71,325.48l56.88-160.91c-70.33,0-107.41,33.62-117.09,61l-35.31,99.89h-29.6l44.46-125.79c-70.33,0-107.4,33.61-117.09,61l-35.31,99.9h125.13l-28,79.22c49.28,0,100.07-9.66,124.66-79.22,25.41,0,37.55-11.87,48.85-35.12h-37.57Z" transform="translate(467.71 216.01)" style="fill:#fff"/><path id="f6d234ef-fd14-49e6-aa1a-886c15504125" data-name="bd7283dd-5d25-4816-ba3d-33143cede286" d="M1629.9,205.56c-19,0-39.61,15.57-46.51,35.12l-42.27,119.58h186.66c19,0,39.61-15.57,46.4-34.78l42.39-119.92Zm49.29,119.92h-31l30-84.8h31Z" transform="translate(467.71 216.01)" style="fill:#fff"/></g></g></g><path d="M1136.56-212.78c-12.54,0-32.23,17-32.23,31,0,4.13,1.5,4.05,1.5,5.26,0,2.55-8.64-1.81-8.64-12.48,0-8.34,18.56-27,39.3-27,9.47,0,14.5,3.83,14.5,11.34,0,21.42-22.62,69.2-46,69.2-5.26,0-10.15-3.68-10.15-10.89a6.66,6.66,0,0,1,6.24-6.84c2.33,0-1,3.91-1,8.26,0,1.51-.08,4.81,4,4.81,10.52,0,37.12-47,37.12-67.62C1141.15-209.78,1140-212.78,1136.56-212.78Z" transform="translate(467.71 216.01)" style="fill:#fff"/><path d="M1189.83-174.84c-3.38,4.58-10.82,15.25-20.73,16.53-3.46,4.28-7.74,7.44-12,7.44-7.13,0-11.27-7.37-10.89-11.87.3-3.38,3.61-9,6.54-12.85,1.72-7.66,9.16-14.43,15.17-14.43,6.61,0,10.15,7.67,9.62,13.15-.3,3.76-2.33,9.17-5.33,14.13,5.86-2,12.39-8.87,16.38-14.65C1190.06-179.57,1190.36-175.44,1189.83-174.84Zm-28.55,15.4a15.66,15.66,0,0,1-4.58-3c-2.26,3.68-3.61,6.68-1.28,6.68C1157.37-155.76,1159.4-157.26,1161.28-159.44Zm-3.83-20.28c2.18.22,7.44,2.18,7.21,4.88-.15,1.35-3,5.26-5.71,9.17a16,16,0,0,0,5,2.63c3.31-5.26,5.79-12.1,6.16-15.63.45-5.94.15-8.27-2.48-8.27C1164.29-186.94,1160-183.86,1157.45-179.72Z" transform="translate(467.71 216.01)" style="fill:#fff"/><path d="M1234.46-174.31c-3,4.73-16.75,23.59-23.59,23.59-2.71,0-10.29-3-9.69-9.39s9.24-20.29,7.51-20.29c-1.35,0-11,15.33-16.53,22.62a23,23,0,0,0-1,3.38c-.15,1.5.61,1.27-.3,2.1-1.05,1-9.84,2.25-9.24-5.18.53-5.41,14.95-36,16.61-54.48.3-3.6,10.82,2.71,10.52,5.79-.15,2-7.59,22.61-12.78,37.27,4.74-7.67,12.92-20.07,16.91-20.07,5.71,0,7.74,5,7.36,8.95s-9.54,24.56-6.91,24.56c3.23,0,14.73-14.5,19.61-21.63C1234.61-179.42,1234.91-175.07,1234.46-174.31Z" transform="translate(467.71 216.01)" style="fill:#fff"/><path d="M1276.84-174.24c-2.93,4.58-14.66,22.32-21.64,23.52-1.66.6-8.57-2-8.12-7.06.3-3.84,5.64-14.81,8.87-22.92-5.56,6.08-19.54,21.86-21.57,26.3-.07,1.27.38,2-.3,2.63-1.2,1.05-8.86-1.66-8.41-7s10.44-23.07,11-29.08c.3-3.61,8.49,1.35,8.19,4.36-.15,1.8-3.38,9.92-6.24,17.2,4.21-5.63,15.78-20.66,20.14-23.06a1.42,1.42,0,0,1,.6-.3.62.62,0,0,1,.37-.08,1.41,1.41,0,0,1,.61.08c2.48.45,6.31,3.45,6.16,5.63-.23,2.56-7.29,19.91-9.77,27.2-.3,1.05-.15,1.65.45,1.65,3.23,0,13.22-14.65,18.18-21.78C1277-179.35,1277.29-174.91,1276.84-174.24Z" transform="translate(467.71 216.01)" style="fill:#fff"/><path d="M1319.21-174.24c-2.93,4.58-14.65,22.32-21.64,23.52-1.65.6-8.56-2-8.11-7.06.3-3.84,5.63-14.81,8.86-22.92-5.56,6.08-19.53,21.86-21.56,26.3-.08,1.27.37,2-.3,2.63-1.2,1.05-8.87-1.66-8.42-7s10.45-23.07,11-29.08c.3-3.61,8.49,1.35,8.19,4.36-.15,1.8-3.38,9.92-6.23,17.2,4.2-5.63,15.77-20.66,20.13-23.06a1.48,1.48,0,0,1,.6-.3.66.66,0,0,1,.38-.08,1.39,1.39,0,0,1,.6.08c2.48.45,6.31,3.45,6.16,5.63-.22,2.56-7.29,19.91-9.77,27.2-.3,1.05-.15,1.65.46,1.65,3.23,0,13.22-14.65,18.18-21.78C1319.36-179.35,1319.66-174.91,1319.21-174.24Z" transform="translate(467.71 216.01)" style="fill:#fff"/><path d="M1360.38-174.39c-1.12,1.73-16.68,21.94-23,27.2-.22.15-.37.3-.6.45C1330-131.34,1321.61-117,1314.1-117c-6.31,0-7.66-4.88-7.36-7.74.3-3.9,8.19-9.31,17.65-16.3,3.61-7.51,7.14-16.38,10.15-24.34-3.91,5.78-10.6,14.12-16.61,14.12-2.4,0-8-3.23-7.59-8.56s10.07-22.09,10.6-28.1c.3-3.61,8.41,1.35,8.11,4.35s-12.47,27.8-10,27.8c4.73,0,16.53-14.65,20.59-24.19a59,59,0,0,0,2.32-8.64c.31-3.61,8.49,1.35,8.19,4.43-.15,1.43-4.35,15.56-10.44,30.51,6.61-7.06,17.51-21,19.16-23.52S1360.83-175.14,1360.38-174.39Zm-39.14,39.52c-6,4.51-10.45,8-10.67,10.22-.08,1.5.37,1.58.67,1.58C1313.87-123.07,1317.48-127.88,1321.24-134.87Z" transform="translate(467.71 216.01)" style="fill:#fff"/><path d="M1400.88-151c-.08,0-.15.07-.3.07h-.38c-2.78,0-7.74-1.58-7.29-7.21.45-4.58,4.14-6.54,6.17-18.41-6.84,8.49-14.81,18.33-18.11,22.92v.22c-.15,1.43.6,1.28-.3,2.11-1.05,1-9.7.52-9.09-6.84.52-5.33,7.28-13,8.94-31.48.3-3.53,10.74,2.7,10.52,5.78-.16,1.88-3.91,12-6.77,20.14,5.26-7.59,14.73-21,16.61-21h.07c2.56-.6,9.85,4.21,9.62,6.76-.15,1.88-3.08,9.62-5.41,15.93-.22,1.51.08,2.41,1.28,2.41,6.16,0,21.41-26.45,21.86-31.71s4.36-.83,4.13,1.73c-.75,9.31-21,36.21-31,38.54a.53.53,0,0,0-.3.08Z" transform="translate(467.71 216.01)" style="fill:#fff"/><path d="M1474.81-174.39c-2.93,4.66-14.5,22.09-21.41,22.92h-.46c-1.5,0-9.31-.83-8.86-6.16a14.81,14.81,0,0,1,.52-2.56c-3.53,4.51-7.28,8.64-9.09,8.64-4,0-11.27-3.76-10.82-9.39s11.5-28.18,17.36-28.18c5.33,0,9.32,3.76,11.57,6.62a23.11,23.11,0,0,0,1.65-4.66c.3-3.61,8.42,1.35,8.12,4.36-.15,2.55-6.46,18.18-8.87,25.17-.37,1.2-.3,1.95.38,1.95,3.23,0,13.52-14.28,18.41-21.41C1475-179.5,1475.26-175.07,1474.81-174.39Zm-23.67-2.1c.53-1.36,1.13-2.63,1.58-3.84a10.43,10.43,0,0,0-4.73-1.2c-4.29,0-15.63,25.4-12.33,25.4C1438.37-156.13,1447.83-171.16,1451.14-176.49Z" transform="translate(467.71 216.01)" style="fill:#fff"/><path d="M1517.26-174.24c-2.93,4.58-14.65,22.32-21.64,23.52-1.65.6-8.57-2-8.12-7.06.31-3.84,5.64-14.81,8.87-22.92-5.56,6.08-19.53,21.86-21.56,26.3-.08,1.27.37,2-.3,2.63-1.21,1.05-8.87-1.66-8.42-7s10.45-23.07,11-29.08c.3-3.61,8.49,1.35,8.19,4.36-.15,1.8-3.38,9.92-6.24,17.2,4.21-5.63,15.78-20.66,20.14-23.06a1.48,1.48,0,0,1,.6-.3.66.66,0,0,1,.38-.08,1.39,1.39,0,0,1,.6.08c2.48.45,6.31,3.45,6.16,5.63-.23,2.56-7.29,19.91-9.77,27.2-.3,1.05-.15,1.65.45,1.65,3.23,0,13.23-14.65,18.18-21.78C1517.41-179.35,1517.71-174.91,1517.26-174.24Z" transform="translate(467.71 216.01)" style="fill:#fff"/><path d="M1548.36-193.62c-1.43,0-.82-1.58-5.86-1.58a98.34,98.34,0,0,0-10.44,1.35c-4.14,11.87-10.3,28.93-12.63,36-.37,1.35-.3,2.1.46,2.1,3.15,0,13.44-14.35,18.4-21.48,1.66-2.33,2,2,1.51,2.78-3,4.65-14.58,22.09-21.42,22.84-.15,0-.3.07-.52.07-1.51,0-9.32-.9-8.87-6.23.38-3.69,7.21-19.09,12-34.34a59,59,0,0,1-6.08.53c-5.79,0-7.37-8.57-5.41-8.57.82,0,2.48,2.25,8.34,2.25,1.88,0,3.45-.07,5-.07A86.41,86.41,0,0,0,1525.6-212c.3-3.61,10.81,2.63,10.52,5.71a62.92,62.92,0,0,1-2.26,7.29,60.27,60.27,0,0,1,7.89-.53C1549.71-199.56,1549.94-193.62,1548.36-193.62Z" transform="translate(467.71 216.01)" style="fill:#fff"/><path d="M1572.7-175.29c-3.3,4.58-18,23.82-28.4,23.82-5,0-11.79-6.24-11.49-9.92,1.2-13.52,12.77-27.65,19.46-27.65,5.71,0,10.59,6.84,10.29,11.12s-7.59,13.3-14.35,13.3a14.4,14.4,0,0,1-4.81-.75c-2,5.33-2.55,9.76.3,9.76,9.32,0,21.87-15.4,27.43-21.86C1572.55-179.2,1573.08-175.82,1572.7-175.29Zm-26.59,3.76c7.81-1.81,12.24-11.95,9.24-11.95C1553.24-183.48,1549.26-177.77,1546.11-171.53Z" transform="translate(467.71 216.01)" style="fill:#fff"/><path d="M1614.85-174.39c-3,4.66-14.57,22.09-21.41,22.92h-.53c-1.5,0-9.31-.83-8.86-6.16a14.56,14.56,0,0,1,.67-2.63c-3.6,4.58-7.43,8.71-9.24,8.71-4,0-11.27-3.76-10.74-9.39s11.42-28.18,17.35-28.18c4.89,0,8.72,3.24,11.05,5.94,3.46-9.77,6.76-20.44,7.51-28.78.3-3.6,10.82,2.71,10.52,5.79-.22,2.63-13.07,37.49-16.68,48.46-.37,1.28-.3,2,.45,2,3.16,0,13.45-14.28,18.41-21.41C1614.93-179.5,1615.3-175.07,1614.85-174.39Zm-24.87-.3c.76-1.88,1.43-3.91,2.18-5.94a10,10,0,0,0-4.21-.9c-4.2,0-15.62,25.4-12.32,25.4C1578.11-156.13,1586.08-168.38,1590-174.69Z" transform="translate(467.71 216.01)" style="fill:#fff"/><path d="M1665.94-193.62c-1.43,0-.82-1.58-5.86-1.58a98.34,98.34,0,0,0-10.44,1.35c-4.14,11.87-10.3,28.93-12.63,36-.37,1.35-.3,2.1.46,2.1,3.15,0,13.44-14.35,18.4-21.48,1.66-2.33,2,2,1.51,2.78-3,4.65-14.58,22.09-21.42,22.84-.15,0-.3.07-.52.07-1.51,0-9.32-.9-8.87-6.23.38-3.69,7.21-19.09,12-34.34a59,59,0,0,1-6.08.53c-5.79,0-7.37-8.57-5.41-8.57.82,0,2.48,2.25,8.34,2.25,1.88,0,3.45-.07,5-.07a86.41,86.41,0,0,0,2.78-14.05c.3-3.61,10.81,2.63,10.52,5.71a62.92,62.92,0,0,1-2.26,7.29,60.27,60.27,0,0,1,7.89-.53C1667.29-199.56,1667.52-193.62,1665.94-193.62Z" transform="translate(467.71 216.01)" style="fill:#fff"/><path d="M1692.76-174.84c-3.38,4.58-10.82,15.25-20.73,16.53-3.46,4.28-7.74,7.44-12,7.44-7.13,0-11.27-7.37-10.89-11.87.3-3.38,3.61-9,6.54-12.85,1.72-7.66,9.16-14.43,15.17-14.43,6.62,0,10.15,7.67,9.62,13.15-.3,3.76-2.33,9.17-5.33,14.13,5.86-2,12.39-8.87,16.38-14.65C1693-179.57,1693.29-175.44,1692.76-174.84Zm-28.55,15.4a15.66,15.66,0,0,1-4.58-3c-2.26,3.68-3.61,6.68-1.28,6.68C1660.31-155.76,1662.33-157.26,1664.21-159.44Zm-3.83-20.28c2.18.22,7.44,2.18,7.21,4.88-.15,1.35-3,5.26-5.71,9.17a16,16,0,0,0,5,2.63c3.31-5.26,5.79-12.1,6.16-15.63.45-5.94.15-8.27-2.48-8.27C1667.22-186.94,1662.93-183.86,1660.38-179.72Z" transform="translate(467.71 216.01)" style="fill:#fff"/><path d="M1718.68-197.46c0-2.78,4.29-6.53,4.29-11.94,0-1.5,1.35-2,2.48-2,2,0,4.13,1.66,4.13,5.64,0,3.23-2.26,8.19-2.26,12.77C1727.32-189.27,1718.68-194.3,1718.68-197.46Zm12.55,0c0-2.78,4.28-6.53,4.28-11.94,0-1.5,1.36-2,2.56-2,2,0,4.13,1.66,4.13,5.64,0,3.23-2.25,8.19-2.25,12.77C1740-189.27,1731.23-194.3,1731.23-197.46Z" transform="translate(467.71 216.01)" style="fill:#fff"/><path d="M2282.61-205.72c0,2.78-4.28,6.54-4.28,11.95,0,1.5-1.35,2-2.55,2-2,0-4.13-1.65-4.13-5.64,0-3.23,2.25-8.19,2.25-12.77C2273.9-213.91,2282.61-208.88,2282.61-205.72Zm12.55,0c0,2.78-4.28,6.54-4.28,11.95,0,1.5-1.35,2-2.48,2-2,0-4.13-1.65-4.13-5.64,0-3.23,2.25-8.19,2.25-12.77C2286.52-213.91,2295.16-208.88,2295.16-205.72Z" transform="translate(467.71 216.01)" style="fill:#fff"/><path d="M2300.42-153.65c.23-3.08,4.43-7.06,7.51-7.06,2.33,0,4,1.42,3.76,3.9s-2.78,7-6.16,7C2303-149.82,2300.2-151.55,2300.42-153.65Z" transform="translate(467.71 216.01)" style="fill:#fff"/><path d="M2323.41-153.65c.23-3.08,4.43-7.06,7.51-7.06,2.33,0,4,1.42,3.76,3.9s-2.78,7-6.16,7C2326-149.82,2323.19-151.55,2323.41-153.65Z" transform="translate(467.71 216.01)" style="fill:#fff"/><path d="M2346.4-153.65c.23-3.08,4.43-7.06,7.51-7.06,2.33,0,4,1.42,3.76,3.9s-2.78,7-6.16,7C2349-149.82,2346.18-151.55,2346.4-153.65Z" transform="translate(467.71 216.01)" style="fill:#fff"/><path d="M1802.44-150.64H1752L1767.7-195c7-19.9,37.09-19.9,37.09-19.9h30l-3.5,9.9h-30l-15.66,44.33h30C1813.71-155.07,1807.85-150.64,1802.44-150.64Z" transform="translate(467.71 216.01)" style="fill:#fff"/><path d="M1859.73-184.7l-8.51,24c-1.93,5.47-7.8,9.91-13.21,9.91h-20.34l12-34c1.93-5.47,7.8-9.9,13.21-9.9h39.76l-3.5,9.9Z" transform="translate(467.71 216.01)" style="fill:#fff"/><path d="M1883.69-150.65c-5.41,0-8.14-4.43-6.18-10l12-34h20.34c5.41,0,8.14,4.43,6.17,10l-8.5,24h9.71l12-34h20.35c5.41,0,8.14,4.43,6.17,10l-12,34Z" transform="translate(467.71 216.01)" style="fill:#fff"/><path d="M1995.5-160.64c-1.93,5.47-7.8,9.91-13.21,9.91h-32.35l3.5-9.91h12l8.55-24.14c2-5.57,7.93-10,13.24-10h32.34l-3.53,10h-12Z" transform="translate(467.71 216.01)" style="fill:#fff"/><path d="M2070.13-150.45H2049.8l12.13-34.33h-9.71l-8.59,24.33c-2,5.57-7.84,10-13.25,10H2010l15.67-44.33c7-19.9,37.08-19.9,37.08-19.9l-7.14,20.18h39.76l-12,34.05C2081.41-154.88,2075.54-150.45,2070.13-150.45Z" transform="translate(467.71 216.01)" style="fill:#fff"/><path id="a6404704-77fc-41aa-b465-7913116dd232" data-name="f5616259-cb93-43e7-956c-e991be823be6" d="M2163.77-160.64l16.2-45.82c-20,0-30.59,9.58-33.35,17.37l-10,28.45h-8.43l12.66-35.82c-20,0-30.58,9.57-33.34,17.37l-10.05,28.44H2133l-8,22.56c14,0,28.5-2.75,35.5-22.56,7.24,0,10.69-3.38,13.91-10h-10.7Z" transform="translate(467.71 216.01)" style="fill:#fff"/><path d="M2201.41-194.78c-5.41,0-11.28,4.43-13.24,10l-12,34.05h53.15c5.41,0,11.28-4.44,13.21-9.91l12.07-34.14Zm14,34.14h-8.83l8.54-24.14H2224Z" transform="translate(467.71 216.01)" style="fill:#fff"/><path d="M-421.57,729.17c-13.88,0-35.66,18.78-35.66,34.33,0,4.57,1.66,4.49,1.66,5.82,0,2.82-9.56-2-9.56-13.8,0-9.23,20.53-29.93,43.48-29.93,10.47,0,16,4.24,16,12.55,0,23.7-25,76.57-50.87,76.57-5.82,0-11.23-4.08-11.23-12.06a7.37,7.37,0,0,1,6.9-7.56c2.58,0-1.16,4.32-1.16,9.14,0,1.66-.08,5.32,4.41,5.32,11.63,0,41.06-51.95,41.06-74.81C-416.5,732.49-417.83,729.17-421.57,729.17Z" transform="translate(467.71 216.01)" style="fill:#fff"/><path d="M-356.22,771.65c-3.25,5.07-16,24.44-23.61,25.77-1.92.66-9.48-2.33-9-7.9a14.71,14.71,0,0,1,.91-3.74c-4.32,5.57-10,11.14-15.13,11.14-2.66,0-9-3.49-8.48-9.4s11.23-24.19,11.81-30.84c.41-4,9.39,1.5,9.06,4.82s-13.88,30.43-11.22,30.43c4.57,0,14.79-12,20.45-22,2.49-5.9,4.74-11.39,5-14.22.33-4,9.31,1.5,9,4.83-.25,2.82-8,22.11-10.8,30.17-.25,1.17-.17,1.83.58,1.83,3.57,0,14.38-16,19.87-23.94C-356.06,766-355.64,770.81-356.22,771.65Z" transform="translate(467.71 216.01)" style="fill:#fff"/><path d="M-309.25,771.81c-3.24,5.07-16.21,24.69-23.94,26-1.83.67-9.48-2.24-9-7.81.33-4.24,6.23-16.38,9.81-25.36-6.15,6.74-21.62,24.19-23.86,29.1-.08,1.41.42,2.24-.33,2.91-1.33,1.16-9.81-1.83-9.31-7.73s11.55-25.52,12.13-32.17c.34-4,9.4,1.49,9.06,4.82-.16,2-3.74,11-6.9,19,4.66-6.23,17.46-22.86,22.28-25.52a1.75,1.75,0,0,1,.67-.33.75.75,0,0,1,.41-.08,1.71,1.71,0,0,1,.67.08c2.74.5,7,3.82,6.82,6.24-.25,2.82-8.07,22-10.81,30.09-.33,1.16-.17,1.83.5,1.83,3.57,0,14.63-16.21,20.12-24.11C-309.09,766.16-308.75,771.06-309.25,771.81Z" transform="translate(467.71 216.01)" style="fill:#fff"/><path d="M-263.86,771.89c-3.32,5.24-14.8,25.11-25.35,25.11-2.08,0-7.48-2.33-6.9-9,.5-5.9,15.79-37.41,17.54-57.94.33-4,12,3,11.64,6.4-.25,2.91-14.22,41.15-18.38,53.62-.16,1,0,1.66.67,1.66,3.49,0,13.72-15,19.12-22.94C-263.69,766.16-263.36,771.06-263.86,771.89Z" transform="translate(467.71 216.01)" style="fill:#fff"/><path d="M-239.75,771.65c-3.24,5.15-15.88,24.44-23.52,25.35h-.5c-1.67,0-10.31-.91-9.81-6.82s12.05-29.34,12.38-32.67c.34-4,9.31,1.5,9.06,4.83-.24,2.82-7.23,20.11-9.89,27.76-.41,1.41-.33,2.25.42,2.25,3.57,0,15.13-15.8,20.53-23.7C-239.25,766-239.25,770.9-239.75,771.65Zm-19.78-25.94c.41-4.41,6.23-10.06,10.64-10.06,3.32,0,5.57,2.08,5.32,5.57s-4,9.89-8.73,9.89C-255.88,751.11-259.78,748.62-259.53,745.71Z" transform="translate(467.71 216.01)" style="fill:#fff"/><path d="M-198.76,771.65C-202.09,777-215.39,797-223,797c-5.15,0-8.72-8.15-11-16.63-2.58,7.24-4.41,12.64-4.49,13.47-.17,1.66.66,1.41-.33,2.33-1.17,1.08-10.89,2.41-10.15-5.74.5-5.9,16.8-39.9,18.54-60.35.42-4,12,3,11.72,6.4-.16,1.58-4.32,13.39-8.81,25.94,5.07-5.4,12.06-10.48,18-10.48,8.65,0,2,21.28-18.37,24.44,2.08,7.24,5.32,13.14,8.06,13.14,5.41,0,14-13,19.46-20.87C-198.6,766-198.27,770.9-198.76,771.65Zm-29.18,2.16c10-2.33,18.78-9.65,19.2-15C-208.49,756.18-221.87,765.16-227.94,773.81Z" transform="translate(467.71 216.01)" style="fill:#fff"/><path d="M-162,770.65C-165.68,775.72-182,797-193.44,797c-5.57,0-13.05-6.9-12.72-11,1.33-15,14.13-30.59,21.53-30.59,6.32,0,11.72,7.56,11.39,12.3s-8.4,14.71-15.88,14.71a15.83,15.83,0,0,1-5.32-.83c-2.24,5.9-2.83,10.81.33,10.81,10.31,0,24.19-17,30.35-24.19C-162.18,766.33-161.6,770.07-162,770.65Zm-29.43,4.16c8.65-2,13.55-13.22,10.23-13.22C-183.55,761.59-187.95,767.9-191.45,774.81Z" transform="translate(467.71 216.01)" style="fill:#fff"/><path d="M-132.59,770.9c-2.08,3.41-7.06,6.4-12.38,9.23a12.35,12.35,0,0,1,.33,3.9c-.58,6.57-8.65,15.3-16.54,15.3-2.58,0-5.49-3.74-5.24-6.57.33-4.07,5.07-7.15,10.81-10.22-.34-4.74-2.42-8.65-4.91-12.39-.5.66-1,1.33-1.33,1.83-.75,1-2.58-1.75-1.83-2.75.33-.49.83-1.08,1.25-1.74-3.08-4.66-5.9-9.56-5.32-16,.75-8.65,10.56-15.05,15-15.05,2.42,0,4.41,2.24,3.83,8.23-.42,5.32-3.24,11.47-6.24,16.79,3,5.24,7.32,10.56,9.31,16,4.66-2.57,9-5.32,11.31-8.81C-132.75,765.91-132.09,770.15-132.59,770.9Zm-23.19,15c-3.58,2.25-6.15,4.49-6.32,7-.08.75.33,1.49.92,1.49C-158.11,794.42-156.2,789.1-155.78,785.94Zm-.92-27.59c2.58-4.58,4.83-9.73,5.16-13.89.33-3.49-.25-4.49-1.5-4.49-2,0-4.74,7-5.15,11.14A15.12,15.12,0,0,0-156.7,758.35Z" transform="translate(467.71 216.01)" style="fill:#fff"/><path d="M-76.31,750.36c-1.58,0-.91-1.74-6.48-1.74a106.27,106.27,0,0,0-11.55,1.5c-4.58,13.13-11.39,32-14,39.81-.42,1.5-.33,2.33.5,2.33,3.49,0,14.88-15.88,20.37-23.77,1.82-2.58,2.16,2.24,1.66,3.07-3.33,5.16-16.13,24.44-23.69,25.27-.17,0-.34.09-.59.09-1.66,0-10.3-1-9.81-6.9.42-4.08,8-21.12,13.3-38a65.26,65.26,0,0,1-6.73.58c-6.4,0-8.14-9.48-6-9.48.91,0,2.74,2.5,9.22,2.5,2.08,0,3.83-.09,5.49-.09A94.91,94.91,0,0,0-101.49,730c.33-4,12,2.91,11.63,6.32a65.17,65.17,0,0,1-2.49,8.06,67.14,67.14,0,0,1,8.73-.58C-74.81,743.8-74.56,750.36-76.31,750.36Z" transform="translate(467.71 216.01)" style="fill:#fff"/><path d="M-36.48,771.73c-3.33,5.24-18.54,26.1-26.11,26.1-3,0-11.39-3.32-10.72-10.39S-63.09,765-65,765c-1.49,0-12.14,17-18.29,25a25.73,25.73,0,0,0-1.08,3.74c-.16,1.66.67,1.41-.33,2.33-1.16,1.08-10.89,2.49-10.23-5.74.59-6,16.55-39.82,18.38-60.27.33-4,12,3,11.63,6.4-.16,2.25-8.39,25-14.13,41.23,5.24-8.48,14.3-22.19,18.71-22.19,6.31,0,8.56,5.49,8.14,9.89s-10.55,27.18-7.64,27.18c3.57,0,16.29-16,21.69-23.94C-36.32,766.08-36,770.9-36.48,771.73Z" transform="translate(467.71 216.01)" style="fill:#fff"/><path d="M-.07,770.65C-3.73,775.72-20,797-31.49,797c-5.57,0-13-6.9-12.72-11,1.33-15,14.13-30.59,21.53-30.59,6.32,0,11.72,7.56,11.39,12.3s-8.4,14.71-15.88,14.71a15.83,15.83,0,0,1-5.32-.83c-2.25,5.9-2.83,10.81.33,10.81,10.31,0,24.19-17,30.34-24.19C-.24,766.33.35,770.07-.07,770.65Zm-29.43,4.16c8.65-2,13.55-13.22,10.23-13.22C-21.6,761.59-26,767.9-29.5,774.81Z" transform="translate(467.71 216.01)" style="fill:#fff"/><path d="M68.27,771.65c-3.33,5.15-16.13,24.44-23.7,25.35H44c-1.66,0-10.31-.91-9.81-6.82a17,17,0,0,1,.75-2.91c-4,5.08-8.23,9.65-10.23,9.65-4.4,0-12.46-4.16-11.88-10.39S25.45,755.35,32,755.35c5.4,0,9.64,3.58,12.22,6.57,3.82-10.81,7.48-22.61,8.31-31.84.34-4,12,3,11.64,6.4-.25,2.91-14.46,41.48-18.45,53.62-.42,1.41-.34,2.25.5,2.25,3.49,0,14.88-15.8,20.36-23.7C68.35,766,68.76,770.9,68.27,771.65Zm-27.52-.34c.83-2.08,1.58-4.32,2.41-6.56a10.92,10.92,0,0,0-4.66-1c-4.65,0-17.29,28.1-13.63,28.1C27.61,791.85,36.43,778.3,40.75,771.31Z" transform="translate(467.71 216.01)" style="fill:#fff"/><path d="M99.36,771.73c-3.24,5.15-14.71,26.43-22.45,27.35a3,3,0,0,1-.49.08c-1.67,0-10.31-1-9.81-6.9s8.14-17.7,8.39-21.11c.17-2-1.16-3.41-3.32-4.91-1.58,2.41-3.16,4.49-4.08,5.74-.74,1-2.49-1.75-1.74-2.75s1.83-2.74,3.16-4.65c-3.83-2.66-7.82-6.07-7.15-13.13.75-8.65,10.56-15.05,15-15.05,2.42,0,4.33,2.24,3.83,8.23-.42,4.82-2.74,10.31-5.41,15.29,4.33,3.41,10.65,5,10.15,10.89-.25,2.66-5.16,15-7.32,21.37-.41,1.5-.33,2.33.42,2.33,3.57,0,13.71-17.88,19.12-25.77C99.53,766.08,99.86,771,99.36,771.73Zm-26.1-14c2.41-4.4,4.49-9.31,4.82-13.3.33-3.49-.25-4.49-1.5-4.49-2,0-4.82,7-5.15,11.14A8.84,8.84,0,0,0,73.26,757.76Z" transform="translate(467.71 216.01)" style="fill:#fff"/><path d="M123.39,771.65c-3.25,5.15-15.88,24.44-23.53,25.35h-.5c-1.66,0-10.31-.91-9.81-6.82s12.06-29.34,12.39-32.67c.33-4,9.31,1.5,9.06,4.83-.25,2.82-7.23,20.11-9.89,27.76-.42,1.41-.34,2.25.41,2.25,3.58,0,15.13-15.8,20.54-23.7C123.88,766,123.88,770.9,123.39,771.65ZM103.6,745.71c.42-4.41,6.24-10.06,10.64-10.06,3.33,0,5.57,2.08,5.32,5.57s-4,9.89-8.73,9.89C107.26,751.11,103.35,748.62,103.6,745.71Z" transform="translate(467.71 216.01)" style="fill:#fff"/><path d="M170.77,771.81c-3.24,5.07-16.21,24.69-23.94,26-1.83.67-9.48-2.24-9-7.81.33-4.24,6.24-16.38,9.81-25.36-6.15,6.74-21.61,24.19-23.86,29.1-.08,1.41.42,2.24-.33,2.91-1.33,1.16-9.81-1.83-9.31-7.73s11.56-25.52,12.14-32.17c.33-4,9.39,1.49,9.06,4.82-.17,2-3.74,11-6.9,19,4.65-6.23,17.46-22.86,22.28-25.52a1.64,1.64,0,0,1,.66-.33.79.79,0,0,1,.42-.08,1.64,1.64,0,0,1,.66.08c2.75.5,7,3.82,6.82,6.24-.25,2.82-8.06,22-10.81,30.09-.33,1.16-.16,1.83.5,1.83,3.58,0,14.63-16.21,20.12-24.11C170.94,766.16,171.27,771.06,170.77,771.81Z" transform="translate(467.71 216.01)" style="fill:#fff"/><path d="M211.18,771.65C207.85,777,194.55,797,187,797c-5.16,0-8.73-8.15-11.06-16.63-2.58,7.24-4.41,12.64-4.49,13.47-.17,1.66.67,1.41-.33,2.33-1.17,1.08-10.89,2.41-10.14-5.74.49-5.9,16.79-39.9,18.53-60.35.42-4,12,3,11.72,6.4-.16,1.58-4.32,13.39-8.81,25.94,5.07-5.4,12.06-10.48,18-10.48,8.65,0,2,21.28-18.37,24.44,2.08,7.24,5.32,13.14,8.06,13.14,5.41,0,14-13,19.46-20.87C211.34,766,211.68,770.9,211.18,771.65ZM182,773.81c10-2.33,18.79-9.65,19.2-15C201.45,756.18,188.07,765.16,182,773.81Z" transform="translate(467.71 216.01)" style="fill:#fff"/><path d="M239.94,746.13c0-3.08,4.74-7.24,4.74-13.22,0-1.67,1.5-2.16,2.75-2.16,2.16,0,4.57,1.82,4.57,6.23,0,3.58-2.5,9.06-2.5,14.13C249.5,755.19,239.94,749.62,239.94,746.13Zm13.89,0c0-3.08,4.73-7.24,4.73-13.22,0-1.67,1.5-2.16,2.83-2.16,2.16,0,4.57,1.82,4.57,6.23,0,3.58-2.49,9.06-2.49,14.13C263.47,755.19,253.83,749.62,253.83,746.13Z" transform="translate(467.71 216.01)" style="fill:#fff"/><path d="M536.15,737c0,3.08-4.74,7.23-4.74,13.22,0,1.66-1.5,2.16-2.83,2.16-2.16,0-4.57-1.83-4.57-6.23,0-3.58,2.5-9.07,2.5-14.14C526.51,727.92,536.15,733.49,536.15,737ZM550,737c0,3.08-4.74,7.23-4.74,13.22,0,1.66-1.49,2.16-2.74,2.16-2.16,0-4.57-1.83-4.57-6.23,0-3.58,2.49-9.07,2.49-14.14C540.47,727.92,550,733.49,550,737Z" transform="translate(467.71 216.01)" style="fill:#fff"/><path d="M480.64,746.22c3-.72,5.81-1.64,8.71-2.05a36.33,36.33,0,0,1,7.94-.16,6.46,6.46,0,0,1,6,7.06c-.34,3.8-1.09,7.56-1.79,11.31-2,10.9-4.12,21.79-6.13,32.69-.23,1.24-.67,1.73-2,1.73-5.28,0-10.55.05-15.83.09-.24,0-.48-.06-.91-.11.34-2,.65-4,1-5.91q2.4-13.49,4.84-27c0-.08,0-.16,0-.25.26-1.79-.13-2.66-1.3-2.89-2.13-.42-3.45.28-3.8,2.14-1,5.51-2,11-3,16.55s-2,10.86-2.94,16.3c-.17,1-.58,1.19-1.48,1.18q-8-.06-16,0c-1.08,0-1.46-.19-1.23-1.4q6-31.53,11.8-63.06c.18-1,.55-1.39,1.61-1.38,5.11.05,10.22,0,15.33,0,1.58,0,1.61,0,1.34,1.64-.69,4-1.4,8-2.1,12C480.76,745.21,480.71,745.7,480.64,746.22Z" transform="translate(467.71 216.01)" style="fill:#fff"/><path d="M327.81,778.82c-.87,4.76-1.73,9.49-2.59,14.23-.27,1.51-.51,3-.87,4.52a1.45,1.45,0,0,1-.91.93c-6.78,1.21-13.54,1.43-20.21-.7-8-2.56-12.82-8.19-15.11-16.07-4.7-16.16.5-37.2,20.48-47.74a42.9,42.9,0,0,1,26-5c2.23.28,2.25.27,1.84,2.52-.92,5-1.82,10-2.75,14.94-.37,2-.39,1.91-2.37,1.71-7.44-.72-13.89,1.42-19,6.94A17,17,0,0,0,307.58,766c-.4,7.06,3.67,12.21,10.7,13.07,2.71.34,5.52-.14,8.28-.25.29,0,.57-.12.85-.16C327.48,778.63,327.56,778.7,327.81,778.82Z" transform="translate(467.71 216.01)" style="fill:#fff"/><path d="M416.68,745.46c-.27,1.57-.53,3.11-.81,4.65-1.67,9.19-3.3,18.39-5,27.57a52.28,52.28,0,0,1-1.72,6.23c-2.34,7.29-7.32,11.73-14.67,13.74a38.58,38.58,0,0,1-17.65.39,14,14,0,0,1-7.52-4.18,8.76,8.76,0,0,1-2.48-8C369.18,772.91,371.61,760,374,747c.2-1.11.66-1.39,1.71-1.38,4.95,0,9.89-.07,14.84-.11.65,0,1.3.07,2.07.12,0,.43,0,.75-.08,1.06q-3.07,16.85-6.17,33.69c-.2,1.06-.27,2,.87,2.57a3.11,3.11,0,0,0,3.45-.61,5.15,5.15,0,0,0,.9-2q2.79-14.8,5.51-29.63c.26-1.39.53-2.77.76-4.17.11-.66.38-1,1.12-1.06,5.61-.07,11.21-.16,16.82-.24A4.72,4.72,0,0,1,416.68,745.46Z" transform="translate(467.71 216.01)" style="fill:#fff"/><path d="M414.62,780c2.66.63,5,1.35,7.41,1.71a17.77,17.77,0,0,0,5.2,0c2.26-.34,2.89-2.25,1.35-3.94-1.83-2-3.82-3.93-5.72-5.91-.81-.84-1.59-1.7-2.31-2.61-4.73-6-2.11-16.2,4.17-20.5A26.34,26.34,0,0,1,439,744.13a83.92,83.92,0,0,1,17.46,1.64c.59.1,1.16.19,1,1.06-.8,4.33-1.58,8.66-2.37,13a4.74,4.74,0,0,1-.23.59c-1.71-.35-3.39-.78-5.1-1-2.34-.31-4.7-.47-7.06-.66a5.26,5.26,0,0,0-1.37.08c-1,.17-2.22.36-2.34,1.48a3.43,3.43,0,0,0,1.17,2.25c2.33,2.3,4.82,4.44,7.16,6.74,6,5.89,5.7,12.26,1.56,18.88a19.75,19.75,0,0,1-11.51,8.62c-8.29,2.47-16.5,1.73-24.71-.31-.36-.09-.89-.74-.84-1C412.69,790.3,413.66,785.17,414.62,780Z" transform="translate(467.71 216.01)" style="fill:#fff"/><path d="M357,745.79c-.31,2.06-.58,3.86-.91,6,4.14-3.36,8.39-5.86,13.8-6.23-.13.88-.22,1.6-.35,2.32-.83,4.57-1.7,9.14-2.5,13.72-.16,1-.56,1.36-1.54,1.31A13.23,13.23,0,0,0,359,764a11.74,11.74,0,0,0-7,9.17c-1.33,7.94-2.83,15.85-4.26,23.77-.11.6-.21,1.12-1,1.12l-17.32,0a2.59,2.59,0,0,1-.6-.17c.43-2.42.84-4.82,1.28-7.22q4-21.62,7.95-43.22c.38-2.06,0-1.84,2.13-1.84,5.07,0,10.13,0,15.2,0C355.83,745.7,356.31,745.75,357,745.79Z" transform="translate(467.71 216.01)" style="fill:#fff"/><path d="M2185.65,9.46a99.88,99.88,0,0,0-11.72-21.2c-2.44-3.18-4.8-6.43-7.47-9.4l-1.95-2.27-1-1.13-1-1.08-4.12-4.32c-1.36-1.46-2.86-2.77-4.27-4.16s-2.84-2.79-4.35-4.08l-4.47-3.92-2.24-2-2.3-1.87c-3.08-2.49-6.13-5-9.32-7.35l-4.74-3.56c-1.58-1.19-3.22-2.29-4.83-3.44-12.9-9.12-26.31-17.44-40-25.29,13.34,8.39,26.39,17.22,38.86,26.8,1.55,1.2,3.14,2.36,4.66,3.6l4.56,3.73c3.08,2.44,6,5.06,9,7.65l2.2,1.94,2.14,2,4.25,4c1.44,1.33,2.74,2.79,4.12,4.18s2.76,2.77,4,4.25l3.87,4.38,1,1.1.91,1.14,1.81,2.28c2.49,3,4.64,6.22,6.87,9.38a94.75,94.75,0,0,1,10.3,20.48,60.78,60.78,0,0,1,3.53,22.09,53.72,53.72,0,0,1-5.34,21.41A77.54,77.54,0,0,1,2166,73.42a124,124,0,0,1-16.87,15.3c-12.19,9.26-25.72,16.87-39.69,23.5a389.66,389.66,0,0,1-43.23,17.19q-11.05,3.69-22.28,6.86c-3,.84-6,1.64-8.94,2.42q2.49-7.42,4.53-15c1.26-4.84,2.41-9.71,3.34-14.68a119.48,119.48,0,0,0,2-15.21A121.75,121.75,0,0,0,2036,106.3c-2.68,4.28-5.13,8.66-7.47,13.07a263.46,263.46,0,0,0-12.3,27.16l-2.2,5.65,5,3.33a259.6,259.6,0,0,0,25.32,14.85c4.39,2.22,8.84,4.34,13.43,6.26a116.92,116.92,0,0,0,14.24,5,117,117,0,0,0-10.19-11.15c-3.55-3.49-7.24-6.76-11-10-3.46-2.92-7-5.7-10.6-8.4,2.59-.8,5.18-1.6,7.75-2.44q11.4-3.71,22.6-8a401.18,401.18,0,0,0,43.84-19.48c14.19-7.45,28-15.91,40.5-26.23a132.31,132.31,0,0,0,17.43-17.12,85,85,0,0,0,13-21,60.84,60.84,0,0,0,5.06-24.34A67,67,0,0,0,2185.65,9.46Z" transform="translate(467.71 216.01)" style="fill:#fff"/><path d="M429.58,458.81a261.84,261.84,0,0,0-26.93-11.69c-4.63-1.66-9.31-3.23-14.09-4.59a118.85,118.85,0,0,0-14.75-3.29,119.59,119.59,0,0,0,11.46,9.84c4,3,8,5.84,12.11,8.55,3.78,2.48,7.63,4.81,11.53,7.06-2.48,1.1-4.94,2.21-7.4,3.36-7.25,3.36-14.4,6.92-21.47,10.62a403.08,403.08,0,0,0-41.17,24.64c-13.18,9.1-25.84,19.17-37,30.93a131.74,131.74,0,0,0-15.23,19.1,85.19,85.19,0,0,0-10.41,22.42,60.82,60.82,0,0,0-2.08,24.77,66.9,66.9,0,0,0,7.7,23.38A100,100,0,0,0,296,643.54c2.8,2.86,5.53,5.8,8.54,8.43l2.22,2,1.11,1,1.15,1,4.61,3.79c1.52,1.29,3.17,2.41,4.74,3.62s3.16,2.42,4.81,3.52l4.91,3.35,2.46,1.67,2.51,1.58c3.36,2.1,6.69,4.24,10.14,6.17l5.13,3c1.71,1,3.48,1.88,5.21,2.83,13.91,7.49,28.23,14.13,42.74,20.27C382,699,368,691.81,354.48,683.8c-1.68-1-3.4-2-5.06-3l-5-3.15c-3.35-2-6.56-4.3-9.8-6.51l-2.42-1.66-2.36-1.75-4.72-3.49c-1.58-1.15-3.05-2.44-4.58-3.66s-3.08-2.41-4.52-3.73L311.68,653l-1.09-1-1-1-2.08-2.05c-2.83-2.66-5.35-5.61-7.94-8.48a94.5,94.5,0,0,1-12.7-19.09,60.68,60.68,0,0,1-6.18-21.49,53.8,53.8,0,0,1,2.72-21.9,77,77,0,0,1,10.24-19.9,123.53,123.53,0,0,1,14.9-17.23c11-10.66,23.5-19.85,36.56-28.13a393,393,0,0,1,40.84-22.28q10.53-5,21.28-9.5c2.85-1.19,5.72-2.34,8.58-3.48q-1.56,7.68-2.67,15.47c-.66,5-1.22,9.93-1.54,15a118.75,118.75,0,0,0-.12,15.34,120.27,120.27,0,0,0,7.27-13.51c2.14-4.57,4-9.21,5.84-13.87a264.64,264.64,0,0,0,8.93-28.45l1.5-5.87Z" transform="translate(467.71 216.01)" style="fill:#fff"/></svg>