<?xml version="1.0" standalone="yes"?>
<svg xmlns="http://www.w3.org/2000/svg" width="1280" height="852">
<path style="fill:#666; stroke:none;" d="M563 137C566.64 140.679 572.504 140.064 577.014 142.991C583.212 147.013 585.094 155.214 591.058 158.771C596.151 161.809 599.953 159.788 599 154C600.635 154.545 600.455 154.365 601 156L603 153C603.986 154.479 604 154.203 604 156C608.289 150.266 609.497 141.704 612 135C596.708 135 577.304 130.077 563 137M610 154C617.576 153.979 624.467 151.091 632 151.004C646.961 150.831 662.556 154.817 677 158.444C683.668 160.119 690.876 161.947 697 165.134C701.742 167.602 705.963 172.17 711.039 173.776C716.435 175.483 722.426 175 728 175C721.127 166.242 708.722 165.329 699 161.394C678.48 153.089 658.898 142.482 637 137.819C631.819 136.715 620.036 132.891 615.318 136.028C611.598 138.5 610.102 149.762 610 154M516 171C523.768 171.005 531.844 172.089 538.871 167.775C548.349 161.958 553.571 152.361 566 152C562.684 149.045 559.333 148.428 555 148C557.49 147.068 559.348 146.877 562 147C546.083 135.657 517.973 152.815 516 171M546 163C547.58 162.317 547.777 162.195 549 161C547.42 161.684 547.223 161.805 546 163M750 194C750.684 195.58 750.805 195.777 752 197C751.316 195.42 751.195 195.223 750 194M709 248C726.742 249.451 738.365 263.943 747 278C750.018 276.448 751.63 273.796 755 273C754.995 265.816 752.921 259.947 751.619 253C749.337 240.825 747.822 229.651 740.812 218.979C737.923 214.582 733.097 212.27 730 208C719.536 213.143 716.698 226.017 713.251 236C711.82 240.143 709.683 243.607 709 248M702 235C704.545 233.365 704.779 232.007 705 229L708 231C712.838 224.818 716.041 216.826 717 209C706.519 210.652 703.133 226.082 702 235M703 219L701 225C703.306 223.375 704.063 221.664 705 219L703 219M580 292C575.574 295.206 577.043 298.099 576.791 303C576.244 313.636 576.609 322.581 587 328C586.438 329.801 586.176 331.122 586 333L592 333C590.521 333.986 590.797 334 589 334L590 337C587.965 335.703 586.305 334.667 584 334L586 339C583.298 341.681 586.154 345.908 587.481 349C590.338 355.653 594.501 364.94 592 372C590.669 367.539 589.78 362.607 589 358C584.974 360.562 586.715 372.291 591 373C590.669 376.316 591.185 382.035 594 384C592.264 385.137 591.864 385.618 590 385C588.582 388.379 589.098 391.952 589.201 395.576C589.3 399.05 588.785 402.618 589.806 406C591.074 410.198 594.195 413.404 596.807 416.804C602.38 424.06 608.194 431.234 614.975 437.41C618.983 441.061 622.05 445.655 627 448C630.681 441.112 635.587 435.155 640.349 429C646.213 421.422 651.384 413.777 661 411C656.305 409.031 652.248 410.663 648 413C646.217 406.667 646.454 403.206 648 397L655 399C655.562 397.199 655.824 395.878 656 394L651 396C657.433 387.676 666.043 386.004 667 374L671 377C678.487 362.767 680.068 348.562 683 333C684.114 336.52 684.031 340.599 687 343C686.438 344.801 686.176 346.122 686 348L685 344L683 344C681.953 352.276 680.746 361.563 676.757 369C673.709 374.683 666.56 381.46 668 388L672 387L672 391C677.402 394.419 684.736 396.335 689 401C691.149 401 696.526 403.397 692 404C705.246 409.116 711.113 387.443 716.553 380C724.28 369.43 732.396 359.248 737.536 347C739.183 343.075 739.208 338.917 740.584 335C742.584 329.307 747.283 325.338 747.895 319C748.876 308.841 745.202 297.479 742 288L740 288C738.739 290.01 737.81 291.778 737 294C735.814 292.965 735.396 292.661 734 292L735 296C720.19 299.178 709.721 281.797 699 275C697.651 285.443 693.088 295.455 693 306L691 303C688.853 308.128 691.04 314.556 691.255 320C691.817 334.282 693.92 347.843 691 362C688.85 349.343 688.991 334.868 689 322C686.257 327.159 687.299 332.45 688 338C685.307 332.406 684.021 325.202 684 319C683.315 320.248 683.251 320.549 683 322C676.848 309.432 680.79 294.823 677 282C675.562 285.426 675.983 289.304 676.001 293C676.057 304.559 679.765 315.591 680 327L677 314C675.584 314.472 675.186 314.814 674 316C674.683 314.42 674.805 314.223 676 313C674.395 307.856 674 303.375 674 298L672 298L672 334C668.587 327.604 670 319.109 670 312C667.028 316.282 667.548 321.949 667 327C665.521 326.014 665.797 326 664 326C665.344 320.42 665.984 314.735 666 309L664 309L664 323L662 322C662.338 326.977 660.617 330.267 660.108 335.015C659.103 344.402 659 354.552 659 364C656.28 357.554 657.153 350.85 656.985 344C656.87 339.303 656.013 334.718 656 330L654 330L655 343C653.814 341.964 653.396 341.661 652 341C650.408 345.304 647.92 349.372 647.319 354C646.846 357.639 647.844 361.356 648 365C645.433 359.224 646.014 353.203 646 347C645.994 344.461 646.669 341.445 644 341C644.751 337.731 644.751 335.269 644 332C640.868 336.396 640.499 341.911 642 347C637.877 344.324 639.623 340.31 639.911 336C640.183 331.926 639.508 328.019 639 324C637.805 325.223 637.683 325.42 637 327C637.131 320.153 640.356 313.685 641.624 307C642.382 303.006 641.288 298.989 641.933 295C643.827 283.293 646 271.973 646 260C641.383 265.113 639.306 273.554 637 280C636.669 276.99 636.945 274.036 637 271C635.13 272.229 634.776 272.868 634 275C632.814 273.965 632.396 273.661 631 273C629.77 275.635 628.766 278.196 628 281C626.818 278.57 626.27 276.687 626 274C624.339 274.613 623.517 275.043 622 276L622 272C617.471 271.987 613.536 272.075 610 269L615 269C611.49 266.344 607.069 264.692 603 263C599.065 271.175 600.903 275.587 603 284C596.289 283.276 575.458 277.996 583.699 267.809C588.066 262.41 596.29 262.938 600.239 257.61C602.095 255.106 600.978 252.594 600.008 250C597.71 243.857 594.076 238.938 587 238.204C575.752 237.036 568.149 250.125 568.18 260C568.197 265.581 570.327 271.583 571.579 277C572.994 283.118 572.728 291.163 580 292M702 238C701.105 241.381 700.18 244.489 700 248C702.28 245.103 703.267 241.535 702 238z"/>
<path style="fill:#666; stroke:none;" d="M710 258L721 262L721 278C715.104 276.527 711.536 272.528 706 271C706.129 281.911 717.399 290.36 727 294C727.324 290.406 728.065 287.112 730.558 284.329C734.327 280.123 740.592 279.075 738.293 272C735.922 264.703 727.693 258.056 721 254.89C715.771 252.418 711.383 251.371 710 258M709 261L709 263L712 263L712 261L709 261M611 264C612.986 265.301 613.628 265.33 616 265C614.073 263.909 613.23 263.835 611 264M691 293C695.421 287.88 696.438 277.595 698 271C696.086 272.606 695.163 273.783 694 276C694.375 272.767 695.986 270.111 697 267C685.161 265.749 690.102 285.896 691 293M587 270L587 272L589 272L589 270L587 270M590 273C591.392 275.602 592.215 277.017 595 278C594.137 274.935 593.064 273.863 590 273M683 273L683 279L685 279L685 273L683 273M596 275L596 277L598 277L598 275L596 275M665 276C663.554 279.412 663.041 282.304 663 286C665.428 282.947 666.509 279.709 665 276M673 280L673 296C674.812 291.681 674.812 284.319 673 280M739 280C738.014 281.479 738 281.203 738 283C739.766 282.021 739.955 281.778 739 280M735 282L734 286C735.656 284.596 735.751 284.046 735 282M684.333 284.667C684.278 284.722 684.222 285.778 684.667 285.333C684.722 285.278 684.778 284.222 684.333 284.667M742 284L742 286L744 286L744 284L742 284M751 284L750 290C752.221 288.325 752.562 286.743 753 284L751 284z"/>
<path style="fill:#666; stroke:none;" d="M665 288C663.712 292.594 663.442 296.272 664 301C666.5 297.341 666.707 292.069 665 288M680 292C680.36 300.39 682.64 308.61 683 317L685 317C684.638 308.592 682.07 300.47 682 292L680 292M749 293L749 296C749.696 294.446 749.696 294.554 749 293z"/>
<path style="fill:#666; stroke:none;" d="M497 301L499 318C505.08 313.258 506.592 307.26 508 300L497 301z"/>
<path style="fill:#666; stroke:none;" d="M659 319L659 326C660.591 323.286 660.802 321.588 659 319z"/>
<path style="fill:#666; stroke:none;" d="M584 353C584.307 355.123 584.382 355.686 586 357C585.436 355.248 585.081 354.458 584 353M587 354L587 357C587.696 355.446 587.696 355.554 587 354z"/>
<path style="fill:#666; stroke:none;" d="M655 422L656 426C657.24 424.19 657.184 424.223 657 422L655 422M733 431C733.901 434.891 735.138 438.466 737 442C733.786 439.431 732.24 436.907 731 433C726.375 444.188 736.877 454.431 741 464C744.45 462.911 747.519 460.937 751 459.939C754.091 459.053 757.872 459.508 760.674 457.821C768.353 453.199 771.729 441.749 768 434L766 437L765 434C762.591 434.272 760.419 434.201 758 434L759 438C755.438 435.161 753.24 433.92 749 436C749 434.203 748.986 434.478 748 433L748 442C746.814 440.814 746.416 440.472 745 440L745 445L737 431L733 431M387 432L384 437C386.136 435.451 387.451 434.136 389 432L387 432z"/>
<path style="fill:#666; stroke:none;" d="M722 645L723 648C720.558 647.891 718.377 647.572 716 647C710.689 651.347 700.659 651.616 694 653.231C676.618 657.447 658.813 659.803 641 660.91C636.717 661.176 633.094 659.074 628.964 659.148C625.038 659.218 621.716 661.624 617.985 662.561C614.715 663.382 610.401 663.117 607.394 664.6C604.695 665.93 604.071 669.362 603.377 672C601.976 677.328 600.83 682.835 598.886 688C596.305 694.858 591.459 701.28 589.474 708.286C587.183 716.368 588.573 725.704 587.907 734C587.55 738.431 585.789 742.48 586.097 747C586.445 752.107 587.986 756.796 588 762C609.227 762 629.094 755.529 649.089 748.838C670.147 741.791 692.982 736.721 713 726.701C716.268 725.064 718.777 722.285 722 720.569C725.781 718.554 730.058 718.75 733.996 717.312C738.037 715.836 740.922 712.501 745.015 711.042C751.328 708.793 757.84 707.597 759 700C762.897 699.51 766.13 699.111 770 700L769 704C773.725 707.312 778.844 708.29 784 710.691C791.168 714.028 797.356 718.708 805 721.15C810.882 723.03 817.887 722.59 824 723.093C828.592 723.472 836.536 728.791 840 725C844.536 725.774 848.562 726.847 853 728C851.302 731.242 849.573 732.274 846 733L846 735C848.961 735.372 852.064 736.203 855 735.282C859.107 733.995 862.019 730.451 866 728.875C869.283 727.575 872.833 727.361 875.961 725.583C879.099 723.798 881.094 720.743 884.039 718.722C895.667 710.745 904.946 701.583 911.961 689C916.054 681.657 916.981 671.854 921.6 665.04C925.851 658.768 935.169 653.511 941 648.59C946.554 643.904 951.858 639.141 957 634C960.385 630.616 963.729 626.451 968 624.161C972.119 621.951 979.243 619.731 981.929 625.109C983.417 628.089 981.544 631.329 980.243 634C977.121 640.406 973.305 646.386 970.603 653C965.825 664.7 959.483 675.481 954.306 687C951.369 693.532 949.862 700.571 946.741 707C941.5 717.796 933.482 728.721 935 741C930.433 740.313 928.751 743.443 924.985 745.582C922.279 747.119 919.023 747.725 916 748.335C909.716 749.603 903.287 748.295 897 749.325C890.22 750.435 885.057 754.264 879 757.11C868.398 762.094 858.701 763.934 854 776L858 777L855 780C855 778.203 854.986 778.479 854 777C845.06 783.781 835.067 790.276 824 793.243C812.894 796.221 803.217 794.736 792 795.015C787.878 795.117 784.064 796.391 780 796.826C772.186 797.663 763.856 797.55 756 797.896C751.98 798.073 748.065 796.765 744.039 797.062C738.632 797.46 734.34 803.928 739 808C737.689 810.865 735.478 813.854 735.184 817.039C734.842 820.732 736.51 824.467 737.346 828C739.202 835.846 741.652 843.92 742 852L837 852L838 846C840.997 848.11 844.107 848.01 847.576 848.98C857.967 851.887 865.534 852.885 876 849.495C880.22 848.129 885.884 846.496 887.717 841.942C889.474 837.576 885.305 832.556 885 828C880.91 825.937 877.796 820.487 882.318 816.742C884.465 814.964 887.385 815.063 890 815C889.206 808.396 891.365 806.142 893.366 800C894.832 795.498 894.431 791.456 898 788C898.005 789.125 897.773 790.813 898.111 791.917C900.601 800.033 911.087 792.493 916 794.472C920.714 796.371 919.72 802.083 924 803C915.104 806.331 905.391 800.658 897.019 803.897C893.145 805.396 890.116 810.992 894.434 813.972C897.293 815.946 901.671 814.651 904.911 815.263C908.703 815.979 912.189 818.113 916 819L916 821C908.91 823.607 911.289 832.906 918.054 834.683C926.46 836.891 932.708 830.297 939 826C938.043 820.603 938.053 815.789 944 814C944.811 811.236 946.308 808.748 947.1 806C947.766 803.693 947.323 801.244 948.263 799C949.314 796.493 951.541 794.649 952.312 792C953.406 788.24 952.755 782.973 953.025 779C953.66 769.645 953.922 760.382 954 751C941.044 746.555 948.915 736.178 953.03 728C956.167 721.767 958.556 715.133 961.9 709C964.705 703.857 968.388 699.247 971.03 694C975.642 684.842 978.863 674.839 984.012 666C991.209 653.644 997.759 640.203 1003.27 627C1004.62 623.767 1005.19 620.201 1006.65 617.039C1007.87 614.4 1010.09 612.467 1011.45 609.911C1013.19 606.62 1013.9 603.069 1016.39 600.171C1027.81 586.917 1047.17 583.501 1061 573.572C1069.63 567.377 1078.3 560.247 1085.99 552.911C1093.37 545.86 1099.4 538.315 1108 532.52C1118.75 525.272 1130.17 517.646 1142 512.312C1149.78 508.804 1158.23 506.958 1166 503.485C1170.56 501.444 1174.64 498.419 1179 496C1176.37 486.862 1170.89 478.078 1165.96 470C1162.2 463.829 1160.32 459.028 1153 457C1152.75 461.334 1153.87 465.822 1155 470C1152.45 467.669 1150.67 464.191 1147.67 462.418C1129.05 451.403 1109.49 470.593 1095 480.91C1090.01 484.464 1084.63 490.463 1079 492.763C1075.82 494.065 1072.7 492.131 1071.64 488.981C1070.42 485.335 1072.75 481.209 1074.23 478C1077.78 470.336 1083.54 463.449 1085 455C1080.38 452.898 1072.48 446.145 1067.6 450.894C1065.54 452.905 1066.13 456.288 1064.88 458.741C1058.98 470.256 1054.73 482.783 1048.14 494C1041.42 505.433 1033.43 516.201 1027.32 528C1021.9 538.471 1018.69 549.567 1011.1 558.956C1007.6 563.284 1003.46 562.64 999.424 565.603C992.552 570.648 986.916 578.758 980.714 584.704C968.998 595.937 955.667 605.424 943 615.515C936.971 620.317 932.364 626.491 926 630.958C922.333 633.531 918.029 634.83 914.375 637.275C909.377 640.619 906.991 646.148 901 648.437C890.592 652.412 886.058 644.511 877 641.717C871.176 639.92 862.204 642 856 642C827.424 642 798.546 640.778 770 642.039C760.429 642.462 751.517 646.878 742 647.829C734.805 648.548 728.901 646.173 722 645M668 473C668.522 476.532 669.07 479.8 672 482C671.739 478.104 670.84 475.706 668 473M595 490C597.249 502.114 601.341 512.138 607.262 523.039C610.52 529.04 616.039 535.185 617 542C625.215 540.672 624.989 532.77 625 526C625.014 517.907 627.403 509.216 625.726 501.17C624.879 497.103 622.465 492.922 621 489C612.334 491.435 603.852 491.643 595 490M589 506C587.484 514.548 590.331 522.597 591.579 531C592.188 535.106 592.32 539.56 595.303 542.776C599.643 547.456 606.066 547.863 612 548C610.855 543.46 609.015 538.622 605 536L608 545C604.901 541.898 603.79 538 602.119 534C599.22 527.063 596.267 520.477 595 513C593.203 513 593.479 513.014 592 514C591.232 512.686 591.314 512.768 590 512C590.542 509.326 590.508 508.269 589 506M678 516C678.057 521.208 679.4 526.069 681 531C682.061 526.564 680.772 519.603 678 516M373.148 518.786C367.223 521.033 370.098 533.306 376.867 531.288C383.787 529.225 380.901 515.846 373.148 518.786M374 548C361.708 545.216 368.566 555.931 367 563C375.17 566.462 385.352 566.093 394 565L395 560C389.2 554.254 395.764 545.278 392.397 538.419C390.641 534.843 377.79 532.372 375.179 535.607C372.879 538.456 374 544.568 374 548z"/>
<path style="fill:#666; stroke:none;" d="M351 548C344.982 556.171 334.181 562.042 324 562.815C318.774 563.211 313.289 562 308 562C301.61 562 295.355 562.92 289 562.996C283.291 563.064 277.686 563.926 272 563.996C267.984 564.046 264.35 563.375 262 567C265.419 566.765 268.64 566.788 272 566C274.67 569.059 281.96 569.406 286 570C285.251 572.254 284.656 573.314 283 575C282.438 571.63 275.033 573 272 573C275.309 575.654 280.636 578.449 285.015 577.683C287.443 577.258 289.523 575.701 292 575.483C294.725 575.243 297.264 576.704 300 576.401C302.778 576.094 305.192 574.451 308 574.137C312.12 573.676 316.048 575.097 320 576C320.348 573.025 319.839 570.87 319 568C320.58 568.684 320.777 568.805 322 570L332 571C332 569.203 331.986 569.479 331 568C332.783 567.02 332.594 567.092 333 565C338.718 564.549 344.241 564 350 564C352.15 558.501 354.173 554.01 353 548L351 548M629 552C629.497 555.207 630.15 556.444 633 558C632.737 554.59 632.321 553.099 629 552M597 556C597.034 565.68 602.974 566.733 609 573L598 570C598.949 577.51 596.832 590.231 601.024 596.721C603.133 599.987 606.941 599.325 610.196 600.14C617.399 601.944 623.494 606.026 631 607C633.261 597.501 633.429 585.657 632.286 576C631.953 573.197 632.683 568.806 630.436 566.657C628.149 564.471 623.907 567.256 620.996 566.46C612.81 564.221 604.842 559.265 597 556M628 559C628.547 560.875 629.11 562.255 630 564C631.527 561.327 630.586 560.438 628 559M414 570C424.713 571.605 442.258 579.474 450 568C441.144 565.432 433.473 562.066 424 562.183C418.616 562.249 413.813 564.218 414 570M236 600L235 597C236.84 598.717 237.349 599.566 238 602L243 600L243 605C245.126 604.769 246.879 604.754 249 605C249 603.203 249.014 603.479 250 602C254.708 605.092 258.114 603.116 263 604.661C269.106 606.592 273.972 611.719 280 614L279 618L282 619C280.659 626.041 288.965 629.672 295 630C292.96 631.073 290.746 631.982 289.742 634.225C287.708 638.765 290.863 644.016 295.971 643.744C303.72 643.33 300.227 634.467 296 632C300.818 633.709 304.961 636.621 310 638C308.754 641.995 307.831 644.893 309 649C313.945 649.024 316.995 650.769 322 649L320 660L314 660C315.401 662.165 316.643 662.906 319 664L318 668C315.834 666.805 314.447 666.309 312 666C313.223 667.195 313.42 667.316 315 668C309.818 672.368 305.968 670.492 300 672C300.665 674.516 301.305 677.338 304.133 678.227C307.844 679.393 312.255 676.831 313.682 682.059C315.583 689.022 312.193 696.774 310.208 703.17C307.931 710.509 307.269 718.419 306.282 726C301.889 759.722 299 794.005 299 828C305.79 827.458 306.93 817.884 307 812C313.844 809.728 309.341 803.613 306 800C309.031 799.523 311.929 796.686 314.87 796.812C317.079 796.906 318.912 798.758 321.039 799.262C323.6 799.869 326.417 799.196 329 799C325.772 807.28 321.254 804.21 314 804C315.334 805.902 315.663 805.966 318 806C318.11 808.442 318.428 810.623 319 813C316.218 815.544 318.185 818.247 320 821L313 823C313.472 824.416 313.814 824.814 315 826C306.907 826.096 307.061 829.361 310 836C307.386 836.18 303.732 834.802 301.318 835.707C297.548 837.12 298.071 848.539 298 852L334 852C340.038 852 346.034 852.875 348 846C353.867 846.867 358.491 851.091 364.09 851.867C377.539 853.73 392.416 852 406 852C412.489 852 424.592 852.114 426 844C403.454 839.752 381.396 832.47 358 835.05C355.347 835.343 352.673 835.967 350 835.586C347.467 835.224 344.84 833.741 342.228 834.361C338.533 835.238 335.267 843.6 335 847C328.27 842.796 327.799 833.958 318 836L318 829C324.953 829 332.039 828.71 338.911 829.443C341.644 829.735 344.03 832.065 346.867 831.034C349.472 830.087 349.861 827.358 351.116 825.245C354.088 820.238 356.763 817.046 352 812C354.379 812.027 354.683 812.06 356 814C359.58 810.87 363.987 806.081 360.397 801.224C358.917 799.223 356.475 798.218 354.71 796.51C352.808 794.67 351.482 792.643 348.981 791.514C344.722 789.59 339.55 790 335 790C335 782.298 336.173 774.674 335.985 767C335.887 762.972 334.211 758.981 334.387 755C334.542 751.473 336.693 748.394 337.471 745C338.678 739.729 338.767 733.416 339 728C332.2 727.135 328.65 726.498 329 719C334.73 718.597 339.163 712.503 340.532 706.985C341.04 704.942 340.311 702.338 341.772 700.603C343.255 698.842 345.949 699.067 348 699C348.95 690.485 338.38 690.618 332 692C331.557 686.438 331.108 680.449 330 675C337.197 679.868 341.226 675.023 348 673L349 668C352.01 668.939 355.694 670.712 358.852 669.392C362.673 667.795 362.059 662.93 358.852 661.028C354.701 658.567 347.747 663.378 344.693 660.343C343.054 658.714 343.776 655.506 343.251 653.424C341.385 646.036 338.178 640.266 330 640C328.428 629.846 319.953 633.334 313.015 630.146C309.231 628.407 306.767 624.93 303.497 622.504C298.645 618.904 291.992 615.647 286 615L286 612C280.386 610.552 276.174 605.734 271.425 602.545C269.347 601.149 266.759 600.779 264.839 599.147C261.359 596.188 260.879 591.876 256 591C253.73 585.205 250.061 583.282 244 583L243 577C246.93 574.009 244.528 570.167 244 566C237.945 566 232.024 566.922 226 566.996C223.517 567.027 219.704 566.364 217.603 568.028C211.048 573.22 220.698 584.5 224.834 587.706C226.554 589.039 228.715 589.494 230.069 591.313C232.498 594.577 232.212 597.81 236 600M88 618C88 605.841 90 594.184 90 582C81.2973 583.693 72.7006 586.91 65 591.337C62.4235 592.818 57.6358 595.355 57.6358 598.855C57.6358 601.888 61.7952 603.856 64.0008 605.127C71.64 609.531 79.7379 614.975 88 618M598 605C598.427 607.645 598.821 608.461 601 610C599.704 611.594 599.465 612.018 599 614C592.659 612.144 589.099 609.02 582 609C583.132 616.725 590.834 616.746 596.961 618.998C599.391 619.892 601.477 621.497 604.089 621.853C610.35 622.705 615.57 620.181 619 627C624.106 627.403 631.827 630.18 634 624C637.403 625.692 638.99 628.603 641.958 630.857C647.347 634.949 655.232 639.091 662 639.87C665.119 640.23 669.135 640.212 671.682 638.106C677.104 633.625 671.803 628.782 667 628L667 624C657.51 624.256 650.158 619.674 641.714 616.046C638.912 614.842 635.817 614.818 633.001 613.597C625.949 610.541 620.859 606.846 613 610L614 615C609.157 614.23 607.744 611.666 607 607L598 605M251 626C252.24 624.19 252.184 624.223 252 622C255.532 622.136 256.846 623.219 259 626C261.449 618.919 248.91 616.622 251 626M332.149 622.782C327.957 624.471 329.659 629.323 332.228 631.682C334.979 634.207 341.257 635.082 344.682 633.397C347.592 631.965 347.585 626.924 345.397 624.858C342.957 622.556 335.209 621.548 332.149 622.782M283 648C283.552 644.82 285.017 642.073 286 639C281.627 637.705 270.255 634.883 266.607 638.603C262.369 642.925 268.909 648.68 273.001 649.527C276.281 650.206 279.79 648.544 283 648M259 660C261.968 654.752 266.609 658.812 271 656L269 652C266.385 652.323 263.693 652.981 261.09 652.277C258.567 651.595 256.05 649.366 253.303 650.622C250.443 651.93 250.812 656.304 252.741 658.258C254.398 659.936 256.832 659.88 259 660z"/>
<path style="fill:#666; stroke:none;" d="M363 674C363.827 673.937 365.237 674.018 366.097 673.682C371.635 671.521 366.339 666.206 363.603 670.278C362.941 671.263 363.084 672.923 363 674M372 676C373.524 677.977 375.027 679.469 377 681L378 677L372 676M374 685C373.914 686.262 373.995 687.668 373.486 688.87C369.222 698.951 361.185 685.937 354.989 686.063C352.256 686.119 346.688 688.682 350.608 691.826C352.637 693.453 356.525 693.404 359 694L359 696L355 697C355.131 701.003 357.907 706.299 360 700C360.986 701.479 361 701.203 361 703L369 703C367.161 703.652 364.293 704.095 363.031 705.735C359.326 710.549 366.721 712.779 370 713C370.448 717.217 371.157 720.828 375 723C374.387 721.338 373.957 720.517 373 719C376.936 717.456 377.628 715.062 378 711C382.603 712.988 386.991 713.897 392 714C391.598 701.728 378.067 706.081 370 703C371.968 699.47 372.746 697.005 372 693C373.186 694.186 373.584 694.528 375 695C375.625 691.637 375.972 688.422 376 685L374 685M357 721L357 726C360.21 725.359 361.844 724.458 364 722C361.582 721.278 359.528 721.052 357 721z"/>
<path style="fill:#666; stroke:none;" d="M528 769C530.254 768.251 531.314 767.656 533 766C530.139 766.104 529.451 766.523 528 769z"/>
<path style="fill:#666; stroke:none;" d="M892.608 824.028C887.831 827.739 897.256 834.294 901.392 830.261C906.151 825.62 896.188 821.247 892.608 824.028z"/>
<path style="fill:#666; stroke:none;" d="M466 851L484 852C480.943 847.156 467.241 843.589 466 851z"/>
<path style="fill:#666; stroke:none;" d="M891 848C893.462 848.697 894.665 848.11 897 847C894.726 846.591 893.219 847.212 891 848M884 851C885.248 851.685 885.548 851.749 887 852C885.752 851.315 885.452 851.251 884 851z"/>
</svg>
