<?xml version="1.0" standalone="yes"?>
<svg xmlns="http://www.w3.org/2000/svg" width="1527" height="932">
<path style="fill:#444; stroke:none;" d="M6 0L6 2L8 2L8 0L6 0M90 0C91.2482 0.684753 91.5485 0.74884 93 1C91.7514 0.315063 91.4518 0.251282 90 0M22 1L22 4C22.6961 2.44629 22.6961 2.55371 22 1M14 6L14 9C14.6961 7.44623 14.6961 7.55377 14 6M17.3333 7.66669C17.2777 7.72235 17.2223 8.77765 17.6667 8.33331C17.7221 8.27789 17.7779 7.22217 17.3333 7.66669M1006 10C1005.43 14.327 1006.7 15.6571 1011 16C1007 17.4977 1003.26 17.9648 999 18L1001 15L997 14C996.352 16.7094 996.058 19.2154 996 22C994.521 21.0143 994.797 21 993 21L996 27C997.65 25.7623 997.333 24.3335 998 27C999.063 25.0309 999.532 23.2017 1000 21C1004.98 23.4592 1010.42 26.0728 1016 25C1016.9 27.1237 1016.88 27.1006 1019 28C1017.26 19.6102 1014.41 13.3608 1006 10M22.3333 17.6667C22.2775 17.7225 22.2223 18.7776 22.6667 18.3333C22.7221 18.2779 22.7779 17.2222 22.3333 17.6667z"/>
<path style="fill:#444; stroke:none;" d="M6 22C6.02024 27.9164 7.21389 34.2913 9.13272 39.9105C10.1379 42.8542 12.3611 45.1312 13.5139 48.0146C16.2689 54.9056 15.9122 65.0846 10 70C11.2816 73.4533 11.5043 75.2079 9 78C9.86469 82.0209 7.42356 84.2559 4 86C11.8161 93.8971 5.89784 105.287 8 115C5.37349 115.839 4.8387 116.373 4 119C5.98178 118.535 6.40553 118.297 8 117C9.22198 120.206 9.33103 122.603 9 126L12 125C12 127.626 13.7629 126.791 16 126C14.7034 124.08 14.2089 123.684 12 123C14.3844 121.969 16.4181 121.241 19 121L19 117C14.2759 115.584 15.9403 112.634 14 109C16.4787 109.383 18.6258 110.168 21 111L21 102C19.0478 101.489 18.5429 101.267 17 100L21 101C20.2322 99.686 20.3141 99.7678 19 99C21.2267 97.9631 25.0575 96.9303 25.2639 93.9561C25.4973 90.592 22.354 89.3553 24 86C23.5855 82.3569 24.2911 80.2247 26 77C21.7352 74.1422 24.7494 68.2073 26 64L23 64C23.6751 61.3411 23.5917 59.6883 23 57L27 52L26 46C21.8463 44.572 18.4601 42.2999 14 42C13.8446 35.3893 10.7909 26.6201 6 22M40 22L40 27C40.8299 24.9694 40.8299 24.0305 40 22M51.6667 22.3333C51.2221 22.778 52.2778 22.7222 52.3333 22.6667C52.7778 22.2222 51.7222 22.2778 51.6667 22.3333M1020 22C1021.25 22.6848 1021.55 22.7488 1023 23C1021.75 22.3151 1021.45 22.2512 1020 22M1024.67 22.3333C1024.22 22.7775 1025.28 22.7225 1025.33 22.6667C1025.78 22.2219 1024.72 22.278 1024.67 22.3333M1039.33 23.6667C1039.28 23.7225 1039.22 24.7776 1039.67 24.3333C1039.72 24.2781 1039.78 23.222 1039.33 23.6667M71.3333 25.6667C71.2778 25.7223 71.2222 26.7778 71.6667 26.3333C71.7223 26.2776 71.7777 25.2224 71.3333 25.6667M993.333 25.6667C993.278 25.7222 993.222 26.7777 993.667 26.3333C993.722 26.2778 993.778 25.2222 993.333 25.6667M1014.33 27.6667C1014.28 27.7223 1014.22 28.7776 1014.67 28.3333C1014.72 28.2777 1014.78 27.2222 1014.33 27.6667M987 28C988.506 28.6831 989.315 28.8259 991 29C989.494 28.317 988.685 28.1741 987 28M1016 29L1015 33C1016.43 31.6077 1017.04 30.7671 1018 29L1016 29M51 30L51 32L53 32L53 30L51 30M115 30C109.707 38.8218 109.349 48.9797 108 59C111.983 56.4451 111.026 51.481 114 48L114 45C112.013 43.4722 112.047 42.5449 112 40L116 40C115.925 36.6482 116.157 33.139 115 30M981 30L981 35C981.83 32.9697 981.83 32.0304 981 30M984 30L984 34C985.733 32.7776 986.151 31.9912 987 30L984 30M1052 30L1050 34C1053.61 33.8798 1054.92 34.5119 1056 38C1053.21 37.8666 1052.2 38.2681 1050 40C1048.94 38.3998 1049.12 38.7193 1047 39C1050 42.3354 1053.64 44.8683 1058 46L1061 41C1058.31 40.5824 1057.45 40.2827 1056 38C1057.64 38.545 1057.45 38.3649 1058 40C1060.26 34.583 1056.86 31.8055 1052 30M1019 31L1019 33L1022 33L1022 31L1019 31M71.3333 34.6667C71.2779 34.7221 71.2221 35.7778 71.6667 35.3333C71.7223 35.2777 71.7778 34.2223 71.3333 34.6667M1038.33 36.6667C1038.28 36.7226 1038.22 37.7774 1038.67 37.3333C1038.72 37.278 1038.78 36.2222 1038.33 36.6667M74.6667 39.3333C74.2222 39.7778 75.2778 39.7222 75.3333 39.6667C75.7778 39.2222 74.7222 39.2778 74.6667 39.3333M1059 44C1060.25 44.6849 1060.55 44.7488 1062 45L1059 47C1060.26 48.6661 1061.16 50.0987 1062 52L1066 52C1065.23 50.6857 1065.31 50.7679 1064 50L1065 46C1062.91 46 1063.28 46.1381 1063 44L1059 44M8 51C10.1318 50.2235 10.7707 49.8699 12 48C9.70263 48.6736 9.22594 48.9653 8 51M62 53L63 54L62 53M275 60C274.982 66.5022 272.812 72.5574 272.622 79C272.438 85.2133 274.151 91.725 270 97C272.143 106.347 277.065 114.698 279 124L282 124C282.074 126.646 283.274 130.215 282.536 132.741C281.86 135.055 279.755 136.6 279 139C280.797 139 280.521 138.986 282 138C282.045 143.422 284.256 147.773 284.87 153C287.971 179.393 294.92 206.201 292.733 233C292.086 240.932 297.233 255.95 289 261C285.547 254.125 275.589 244.531 268 243C272.091 252.663 285.824 259.032 286 270C280.415 264.762 274.596 259.699 269.3 254.166C265.369 250.059 262.987 245.681 257 245C260.899 255.358 269.795 262.813 276.869 271.004C278.505 272.898 284.432 278.674 280.623 281.118C277.591 283.064 273.143 278.444 271 276.794C264.613 271.876 256.851 263.867 249 262C252.946 276.059 269.452 282.621 278.42 292.54C280.565 294.913 287.21 303.616 279.941 304.238C273.824 304.763 269.112 297.182 263 296C265.499 300.071 267.187 304.932 269.849 308.791C271.737 311.529 273.982 312.727 275 316C271.864 316.914 271.32 319.039 269.625 321.736C266.552 326.628 262.653 331.091 262 337L258 336C257.523 342.646 255.802 349.484 252 355L251 352L247 353C245.566 349.52 243.897 346.249 242 343C246.258 342.088 244.365 338.478 244 335C236.923 335.242 233.837 331.849 228 329C228.779 325.352 227.036 322.413 227.558 318.962C227.941 316.431 229.726 314.149 231 312L234 315C229.684 318.113 231.531 323.246 231 328C233.811 328.701 236.304 329.941 239 331C236.202 326.698 233.777 323.161 233 318L235 321C236.062 319.307 236.52 317.96 237 316L239 317C240.037 312.613 238.066 307.453 237.428 303C236.187 294.331 235.073 284.761 235 276L231 276C230.356 268.024 234.598 254.244 223 252.383C218.86 251.719 214.263 253.163 210 253C213.332 255.747 216.714 256.778 221 257L224 269C220.856 266.358 217.037 265.982 213 266C213.002 261.167 210.621 259.526 206 259C205.326 261.297 205.035 261.774 203 263C204.597 264.514 206.065 266.055 208 267C204.294 267.145 202.367 265.063 199 264C199 265.797 199.014 265.521 200 267C198.009 265.308 196.693 264.557 197 262C194.208 259.208 189.375 262.156 186 263C177.36 265.16 171.388 269.723 164 275L162 275C159.606 276.396 158.519 279.177 157 281L155 281C153.111 282.889 156.162 283.791 153 283L152 289C146.437 287.852 138.287 287.12 133.299 284.671C130.111 283.105 128.466 279.584 125 278C125.667 280.305 126.703 281.965 128 284C126.031 283.941 125.011 285.19 123 286C122.826 289.819 121.848 293.292 121 297C122.125 298.672 122.125 298.328 121 300L122 304C117.06 307.939 118.199 316.253 118 322C115.169 322.217 114.561 322.628 113 325C112.014 323.521 112 323.797 112 322C110.018 325.355 111.465 327.357 114 330L107 336L108 334C105.185 335.472 104.456 336.878 104 340C102.233 338.373 101.272 337.669 99 337L100 332C98.9491 330.031 99.3129 329.175 100 327C94.7711 323.597 98.1724 310.62 98.8449 305C99.8745 296.396 100.43 287.431 102.467 279C104.285 271.474 107.272 264.859 107.816 257C108.327 249.612 104.819 242.453 106 235C102.8 230.862 101.364 224.09 100 219L103 220L95 208C97.5251 207.146 98.03 206.492 99 204C96.1952 200.488 95.8155 196.207 94.3704 192.039C93.5015 189.533 91.8301 187.426 90.9892 184.911C89.3354 179.962 89.0617 174.147 88 169C94.9223 170.331 97.502 166.484 102 162C102.177 160.355 102.141 160.353 103 159C100.892 153.976 105.396 149.971 105 145L110 149C110.934 145.874 111.873 144.934 115 144C113.814 145.186 113.416 145.528 112 146C114.988 146.983 116.063 145.85 117 143C111.843 143.011 107.095 142.758 102 142C101.525 146.833 97.4077 149.167 94.6759 143.941C91.1861 137.265 93.2147 128.477 98 123C96.231 122.221 94.9641 122.088 93 122C94.2228 120.805 94.42 120.684 96 120C96.1477 112.843 98.052 106.04 99 99C93.8736 102.32 95.3344 110.666 90 115C90.063 109.515 90.4745 102.186 92.7415 97.1127C94.7043 92.7203 97.8921 94.4373 99 98C103.555 94.1534 105.174 86.7975 106 81C103.636 81.4825 103.482 81.6359 103 84C97.7567 84.8078 94.4151 89.1819 89.0895 89.9468C81.4565 91.043 73.2382 85.7238 66 84L66 81L69 81C70.1897 74.0057 72.3776 69.2476 80 69C78.5216 69.9856 78.7967 70 77 70C79.0442 70.7744 79.8447 70.5922 82 70C81.7357 65.5216 82.6917 61.2681 84 57C81.5017 56.4496 77.7949 55.4038 75.3403 56.6536C73.1264 57.7808 72.6919 60.7607 71.4437 62.7006C68.1535 67.8141 66.0227 69.5854 66 76L61 75C59.2904 80.9792 53.1432 83.3262 51 89C52.4216 90.7886 52.6974 91.7057 53 94L47 94C47.2995 96.3921 47.3196 97.0435 46 99C46 100.797 46.0143 100.521 47 102C44.6481 104.074 46.3191 106.023 45.4367 108.804C43.8599 113.774 40.4578 116.734 36 119C37.7264 123.517 41.3032 123.544 44.6204 126.569C47.4869 129.183 50.2559 133.553 52 137L44 136C44.9782 138.928 47.069 140.615 49 143L52 141C52.3741 145.75 56.1818 148.214 56 153L54 153C52.8933 149.817 51.9144 147.733 49 146C50.3155 152.33 54.4862 154.244 52 161C53.9485 161.936 54.5502 162.392 56 164C54.9774 162.466 55.1954 162.598 54 162C51.6969 167.56 55.8272 172.181 56 178C52.4922 177.872 51.093 178.626 50 182L54 183C53.2322 181.686 53.3141 181.768 52 181L58 183C57.6622 187.096 57.019 190.126 54 193L55 197L51 195C51.3247 198.753 52.3436 202.227 52 206C49.324 205.273 46.7699 205.159 44 205C46.1252 212.265 52.8102 206.755 57 205C54.9847 208.84 56.4162 212.294 55 216L55 218C63.1932 228.167 45.3782 231.093 43 239C39.0793 239.535 35.554 243.196 32 241C30.2689 242.006 28.9471 242.547 27 243C30.1946 240.322 32.2485 238.268 32 234C34.4173 235.265 36.2763 235.818 39 236C36.9369 231.831 32.6298 230.458 31 226C27.1953 227.231 25.2652 230.458 21.9097 232.532C17.9033 235.01 13.3511 237.288 9.01466 239.123C5.92666 240.43 2.85658 240.946 1.13966 244.189C-1.74226 249.632 0 258.992 0 265L0 312C2.80432 311.234 5.36529 310.23 8 309C6.49389 308.317 5.68529 308.174 4 308C4.54504 306.365 4.36487 306.545 6 306C4.49395 305.317 3.68523 305.174 2 305L3 302C1.36491 301.455 1.545 301.635 1 300L6 298C6 296.203 5.98568 296.479 5 295C9.10705 291.489 13.1554 282.411 14 277C17.2999 277 20.7691 276.089 24 276.306C27.6379 276.55 31.9253 280.015 33 275C33.8803 277.326 34.4928 279.564 35 282L30 282L29 288C31.4648 288.165 32.1687 288.381 34 290L31 289C29.4543 293.066 28.4299 295.076 24 296C25.4638 297.968 26.6064 298.352 29 299C30.2228 297.805 30.42 297.684 32 297C30.663 299.479 30.1837 301.19 30 304L22 306C21.5605 308.38 19.9372 309.891 20 312L16 312C15.5069 314.793 15.3068 317.506 14 320L16 323L12 323C12.9802 324.783 12.9076 324.594 15 325C13.3136 326.656 12.2537 327.251 10 328C9.57359 330.806 8.96486 331.948 7 334L6 325L3 325L3 321C6.27615 323.248 8.45358 322.495 12 321C12 316.918 10.7096 313.817 13 310L14 311C9.91943 308.209 2.48613 311.5 0.603395 316.105C-2.10985 322.741 0 333.876 0 341C0 348.271 -0.508499 355.751 0.0578704 363C0.263253 365.629 1.75728 368.214 1.57562 370.83C1.42851 372.949 0.235102 374.87 0.0578704 377.039C-2.08854 403.31 0 430.632 0 457L4 457C2.81434 454.283 1.56915 451.932 1 449C5.05049 450.95 9.37023 452.369 13 455L6 454C9.74251 457.364 13.4598 458.313 18 456C21.1514 462.766 28.9792 468.797 35 473L30 478L31 474C29.8048 472.777 29.6836 472.58 29 471L26 474C27.0012 475.924 27.0775 476.098 29 477L26 479C28.9185 481.782 30.1372 484.074 31 488C36.3498 484.306 38.2153 488.54 43 491C42.6599 493.018 42.6766 493.968 43 496C35.676 494.386 26.9743 496.553 24 488C20.807 488.163 18.0922 487.806 15 487C17.0777 485.34 18.404 484.494 21 484C18.8888 478.206 12.9285 478.804 10 474C9.31704 475.506 9.17409 476.315 9 478C5.95916 477.1 3.16906 477.008 0 477L0 932L1527 932L1527 768C1521.62 767.893 1516.98 766.643 1514 772C1507.05 765.419 1522.33 764.001 1527 763L1527 519L1527 461C1527 452.866 1528.96 441.767 1526.44 434C1524.82 429.035 1520.1 425.081 1517 421L1525 424L1526 423C1523.96 416.836 1519.91 412.606 1514 410L1516 407C1513.61 404.645 1511.25 401.891 1508 400.742C1503.97 399.319 1500.03 400.985 1496 400.532C1492.52 400.14 1489.59 398.258 1486 398C1487.04 396.814 1487.34 396.396 1488 395C1485.73 394.078 1483.47 392.553 1481 392.277C1478.93 392.045 1476.92 393.06 1474.87 392.706C1470.22 391.903 1466.65 387.828 1463 393C1465.12 393.899 1465.1 393.876 1466 396C1461.98 395.827 1458.2 395.522 1455 393C1451.81 394.954 1448.58 395.981 1445 397C1451.92 389.868 1462.69 387.433 1472 385C1467.89 377.419 1463.46 371.536 1461 363C1467.52 368.677 1469.27 379.041 1476.33 384.397C1479.6 386.885 1485.12 386.531 1489 387.862C1497.09 390.641 1505.5 394.74 1513 398.767C1519.38 402.199 1521.48 409.136 1527 413L1527 380C1521.77 384.949 1521.43 393.392 1523 400C1515.16 390.863 1523.17 380.966 1526.15 372C1527.32 368.453 1527.4 363.776 1526.86 360.089C1526.48 357.519 1524.86 355.471 1524.3 352.961C1522.79 346.183 1523.16 338.649 1521.33 332C1518.32 321.085 1513.57 310.877 1508.79 300.714C1507.49 297.948 1507.36 294.809 1506 292.04C1504.02 288.019 1499.32 286.74 1497.47 282.87C1494.3 276.231 1498.33 258.371 1488.95 255.938C1484.45 254.774 1470.16 255.997 1467.62 260.279C1464.46 265.616 1469.63 272.683 1470.66 278C1471.13 280.403 1470.7 283.385 1472.6 285.258C1474.8 287.421 1479.13 287.458 1482 288C1483.22 286.805 1483.42 286.684 1485 286L1485 290C1478.11 290.974 1474.04 295.808 1469 300C1469.84 303.004 1471.62 305.231 1473 308C1470.36 308.077 1468.73 307.997 1467 310L1460 309C1460.77 310.314 1460.69 310.232 1462 311C1459.18 317.694 1460.7 325.972 1462 333L1468 334C1469.66 330.901 1471.84 328.349 1473 325L1475 325C1476.97 333.292 1474.09 342.041 1477 350L1473 351C1470.76 348.454 1468.11 349.267 1465 350C1463.87 347.994 1463.13 347.994 1462 350C1458.3 337.808 1457.56 323.638 1455.59 311C1454.77 305.777 1455.58 298.474 1451 295C1453.06 287.846 1450.01 278.362 1449 271C1447.37 259.086 1446.73 246.981 1445.91 235C1445.51 229.164 1443.72 222.877 1444.17 217.039C1444.88 207.852 1454.19 197.883 1458.48 190C1461.98 183.579 1474.43 169.789 1465 164C1465.54 162.365 1465.36 162.545 1467 162C1464.11 156.982 1458.59 150.715 1453 149C1449.85 151.836 1446.03 152.833 1442 154C1445.08 151.32 1447.39 147.885 1451 146C1449.56 140.798 1444.12 138.275 1443 145C1437.42 145.183 1436.1 147.876 1431.94 151.046C1429.24 153.097 1426.02 154.276 1424 157C1421.89 156.356 1420.2 156.094 1418 156C1416.58 164.792 1405.71 162.585 1405 172C1403.52 171.014 1403.8 171 1402 171C1400.82 174.603 1396.1 180.547 1396.58 184.036C1397.27 189.055 1403.47 192.584 1405.74 197.001C1412.19 209.562 1416 222.952 1416 237C1416 242.626 1416.37 248.405 1415.71 254C1415.29 257.592 1414.04 261.414 1417 264C1414.72 267.328 1415.1 271.036 1415.02 275C1414.89 281.909 1415.44 289.163 1414.57 296C1414 300.521 1413.13 305.212 1416 309C1413.21 314.266 1414.61 319.282 1414.71 325C1414.94 337.689 1416.03 350.361 1417 363C1413.19 353.325 1415.33 342.823 1413 333L1408 334L1413 328C1409.23 328.737 1404.42 329.999 1401.04 331.838C1395.84 334.668 1394.26 338.069 1388 336L1387 340C1385.52 339.014 1385.8 339 1384 339C1382.01 347.528 1384.46 356.375 1384.68 365C1384.87 373.117 1386.35 380.925 1386.91 389C1387.69 400.263 1387.9 411.814 1389.43 423C1390.91 433.931 1394.76 444.906 1394 456C1399.58 454.235 1403.98 449.728 1410 450C1405.41 454.896 1401.09 455.629 1401 463L1392 462C1392.47 463.416 1392.81 463.814 1394 465L1382 462C1376.79 471.19 1367.58 480.327 1357 483C1362.05 476.793 1368.51 471.695 1375 467L1374 464C1377.91 461.924 1380.54 456.622 1375 455C1376.03 449.366 1374.56 444.394 1371 440C1373.2 439.906 1374.89 439.644 1377 439C1374.76 438.189 1373.35 438.471 1371 439L1373 433C1373.22 434.684 1373.22 435.314 1373 437C1374.78 436.02 1374.59 436.092 1375 434C1377.32 436.066 1379.08 437.899 1382 439C1379.65 434.419 1377.24 428.475 1372 427L1374 423C1375.8 423.562 1377.12 423.824 1379 424C1378.45 422.125 1377.89 420.745 1377 419C1375.33 420.255 1373.9 421.159 1372 422C1373.22 420.805 1373.42 420.684 1375 420C1373.49 419.317 1372.69 419.174 1371 419C1373.07 417.661 1373.52 417.365 1374 415C1386.73 425.211 1387.51 441.275 1391 456C1394.2 448.382 1389.16 438.924 1389 431C1387.08 428.581 1386.37 425.673 1384.78 423C1382.62 419.365 1379.45 416.294 1379 412C1375.68 412.406 1373.2 411.933 1370 411L1372 407C1368.31 406.092 1362.36 406.327 1359.56 403.527C1357.7 401.659 1357.13 398.524 1356.94 396C1356.43 389.251 1355.55 380.579 1357 374L1355 374C1355.65 371.542 1355.65 370.458 1355 368C1357.32 365.606 1355.06 362.79 1354 360C1358.2 358.84 1362.27 354.755 1358 351C1361.3 345.611 1363.18 343.043 1360 337C1361.45 336.749 1361.75 336.685 1363 336C1361.85 332.852 1362.67 329.787 1359 329C1359.57 324.914 1358.63 321.06 1359 317L1356 317C1356.88 314.674 1357.49 312.436 1358 310L1356 310C1357.06 304.528 1354.88 300.985 1353 296C1354.48 296.986 1354.2 297 1356 297L1353 290L1355 290C1354.67 287.375 1354.57 286.183 1356 284L1355 280C1356.77 278.349 1356.45 277.411 1356 275C1357.19 276.186 1357.58 276.528 1359 277L1360 273C1356.66 272.698 1354.09 271.248 1351 270C1353.14 266.491 1353.78 264.054 1353 260L1355 260C1354.25 257.646 1353.4 256.05 1352 254L1349 256L1351 249C1354.64 250.32 1357.77 252.88 1357 257C1357.31 259.478 1357.63 260.933 1359 263C1356.15 264.556 1355.5 265.793 1355 269C1356.66 268.387 1357.48 267.957 1359 267L1359 271L1362 271C1362.26 276.593 1366.14 279.049 1367 284C1363.54 281.671 1360.8 282.797 1357 284C1358.15 286.8 1358.99 288.943 1359 292C1361.6 290.101 1361.25 288.844 1360 286C1362.13 285.77 1363.88 285.754 1366 286C1365.01 287.479 1365 287.203 1365 289L1370 288C1368.46 289.267 1367.95 289.489 1366 290L1366 294L1372 295L1369 302L1373 301C1373 296.993 1372.06 292.956 1372.19 289C1372.34 284.613 1373.38 280.451 1372.86 276C1372.44 272.383 1371.62 269.057 1368 268L1368 259C1364.67 259 1367.64 254.894 1366.83 252.167C1365.01 245.996 1363.94 239.564 1362.83 233C1362.4 230.415 1364.14 226.484 1362.5 224.167C1357.85 217.582 1343.46 222 1337 222C1336.7 224.294 1336.42 225.211 1335 227C1342.97 233.894 1342.48 244.083 1343.04 254C1343.28 258.397 1344.6 262.617 1344.91 267C1345.61 277.018 1344.79 287.048 1344 297L1342 297C1342 279.697 1339.45 262.019 1336.39 245C1334.06 232.066 1330.54 219.144 1331 206C1333.8 207.535 1334.83 209.034 1336 212C1339.92 211.258 1344.8 210.103 1346 206C1347.63 206.545 1347.45 206.365 1348 208L1351 207C1350.26 204.32 1349.47 203.281 1347 202L1347 205C1344.98 204.013 1344.2 203.767 1342 204L1343 201L1339 202C1341.08 199.672 1343.2 198.401 1346 197C1346.98 198.784 1346.91 198.594 1349 199C1348.4 197.805 1348.53 198.022 1347 197C1349.59 194.788 1349.75 191.789 1353 190L1355 195L1351 195C1351.9 196.923 1352.08 196.999 1354 198C1353.46 200.17 1353.16 199.901 1355 201L1355 203C1352.95 203.787 1352.95 204.213 1355 205L1351 207C1352.94 211.822 1359.5 213.196 1362.99 208.848C1367.62 203.071 1371.4 193.318 1372 186L1369 186L1369 178L1365 177L1366 172C1361.72 170.782 1358.2 170.092 1356 166C1354.69 166.768 1354.77 166.686 1354 168L1352 168C1351.23 166.686 1351.31 166.768 1350 166C1349.87 170.851 1345.18 177.519 1340 178.167C1337.02 178.539 1334.57 176.826 1332 176L1331 181C1332.8 181.562 1334.12 181.824 1336 182C1334.29 182.857 1333.89 182.982 1332 183C1332.11 185.825 1329.87 193.677 1326.03 188.522C1324.27 186.161 1324.06 179.857 1324.3 177C1324.54 174.124 1326.17 171.743 1326.87 169C1329.3 159.409 1330.98 150.882 1331.66 141C1331.96 136.592 1333.05 133.458 1332 129L1334 129C1330.91 119.894 1319.61 118.212 1313 112L1321 112L1321 109C1317.31 107.755 1313.89 106.39 1310 106C1310.23 101.787 1310.76 98.8336 1306 98L1307 95C1304.29 94.3522 1301.78 94.0583 1299 94C1300.85 88.8264 1300.06 85.3166 1300.26 80C1300.53 72.9302 1301.33 67.1497 1300 60L1294 60C1291.94 67.7582 1291.85 79.6296 1287 86L1288 89C1284.9 91.708 1286.37 96.2012 1285.74 100C1284.67 106.45 1281.47 112.587 1280 119C1278.2 118.438 1276.88 118.176 1275 118C1274.57 112.327 1274.83 106.627 1274 101L1268 101L1269 104C1265.72 106.79 1260.26 117.585 1264 121C1263.69 123.377 1263.75 123.983 1265 126L1263 126C1266.18 131.185 1265.15 137 1268.06 142.17C1271.25 147.845 1274.6 154.407 1278.25 159.755C1281.88 165.089 1286.43 168.365 1288.1 175C1289.3 179.775 1289.98 186.082 1289.73 191C1289.55 194.429 1288.08 197.507 1288.33 201C1289.1 212.114 1292.71 222.903 1292.99 234C1293.21 243.124 1293.94 252.927 1293.22 262C1292.42 272.002 1290.73 281.913 1290.71 292C1290.69 304.809 1292.39 318.295 1294 331L1289 331L1293 335C1289.64 334.375 1286.42 334.028 1283 334L1284 337C1278.84 335.772 1274.18 336.038 1269 337C1270.57 335.36 1272.08 334.249 1274 333C1266.87 328.213 1261.5 337.804 1254 337C1254.85 333.406 1255.15 331.086 1253 328C1259.41 324.073 1254.15 320.368 1251 316L1257 315L1257 312L1249 307C1250.04 305.814 1250.34 305.396 1251 304L1245 302C1246.55 297.833 1245.25 295.18 1245 291C1240.7 290.646 1237.11 288.98 1233 288C1232.87 283.7 1230.54 281.68 1229.6 277.816C1229 275.365 1229.81 272.479 1230 270C1226.76 273.115 1225.76 277.202 1222 280C1220.25 275.015 1214.63 274.718 1210 273.795C1201.72 272.143 1194.57 270.829 1186 271C1186.18 262.721 1193.08 251.438 1184 246C1185.48 244.402 1186.06 243.892 1188 243C1185.99 235.022 1194.24 226.227 1185 221C1186.5 219.563 1188.15 218.249 1188.42 216.015C1188.9 212.003 1185.54 212.674 1184 215C1177.6 212.823 1173.53 215.037 1173 222C1171.52 221.014 1171.8 221 1170 221L1167 227L1166 226C1166 229.604 1168.18 231.059 1167 234L1166 233L1167 237C1165.81 235.814 1165.42 235.472 1164 235C1164.51 237.436 1165.12 239.674 1166 242C1163.3 242.578 1163.21 243.261 1163 246C1165.08 245.435 1165.29 245.643 1167 247C1164.63 247.475 1164.34 247.934 1163 250C1162.01 248.521 1162 248.797 1162 247C1160.92 249.48 1160.67 251.817 1159 254C1159.62 250.516 1160.02 248.004 1158 245C1157.03 248.51 1157.55 251.423 1158 255C1160.25 256.154 1160.85 256.751 1162 259L1159 258C1159.92 260.382 1160.68 262.461 1161 265C1159.78 263.014 1158.68 261.61 1157 260L1154 262C1155.7 263.69 1156.43 264.668 1157 267C1159.02 267.878 1160.23 268.651 1162 270C1160.4 271.062 1160.72 270.884 1161 273C1159 271.542 1157.2 270.111 1155 269C1155.75 274.903 1151.73 278.051 1146 278C1148.08 276.781 1149.42 275.793 1151 274L1146 273C1146.55 271.365 1146.36 271.545 1148 271L1147 267C1148.92 265.703 1149.32 265.209 1150 263L1145 265C1146.5 262.737 1147.99 260.822 1150 259C1147.94 257.018 1146.31 254.628 1144 253C1143.53 256.168 1142.79 257.427 1140 259L1140 255L1136 256L1138 245C1135.57 244.349 1134.72 243.84 1133 242C1132.32 243.248 1132.25 243.548 1132 245L1129 243L1127 245C1129.06 249.378 1125.6 251.645 1123 255C1124.19 256.186 1124.53 256.584 1125 258C1122.91 258.406 1122.98 258.217 1122 260L1120 260C1118.46 258.197 1117.4 258.168 1115 258L1117 262C1108.91 265.2 1101.51 271.023 1094.71 276.316C1090.88 279.296 1087.83 280.783 1088 286L1081 286C1079.2 289.898 1076.99 292.341 1073 294C1072.63 296.296 1072.02 297.892 1071 300C1069.81 298.964 1069.4 298.661 1068 298C1065.15 303.001 1063.16 309.026 1057 310C1056.4 314.588 1053.45 317.718 1052 322C1050.17 320.664 1049.25 320.31 1047 320C1047.6 321.195 1047.47 320.977 1049 322C1047.96 323.186 1047.66 323.604 1047 325L1045 322C1043.91 323.928 1043.83 324.77 1044 327L1043 328L1041 327L1041 330L1044 330C1040.75 331.067 1038.16 331.971 1036 329C1034.16 333.865 1038.88 337.654 1042 341C1040.58 341.472 1040.19 341.814 1039 343L1039 340C1037.68 341.957 1037.7 342.608 1038 345C1036.08 345.902 1036 346.076 1035 348C1033.89 346.257 1033.73 345.881 1032 345L1033 348C1030.34 344.169 1030.23 341.962 1034 339L1032 343C1035.1 341.518 1036.52 340.104 1038 337C1035.72 337.541 1033.45 338.146 1031.09 337.687C1029.16 337.311 1027.16 335.488 1025.13 335.901C1019.79 336.992 1018.06 346.053 1020 350C1017.52 348.477 1013.85 347.159 1013.26 343.942C1012.49 339.71 1015.98 333.749 1017.67 330C1022.57 319.085 1027.07 307.507 1032.79 297C1036.42 290.341 1041.28 284.3 1045.48 278C1053.16 266.513 1061.57 253.617 1073.04 245.499C1076.32 243.174 1080.27 242.948 1084 241.781C1090.99 239.597 1099.49 236.775 1104.91 231.7C1108.6 228.232 1114.85 222.927 1116.31 218C1118 212.289 1115.35 207.482 1119.43 202.015C1124.29 195.498 1133.46 193.236 1137 186C1134.07 186.312 1130.84 186.198 1128 186.969C1125.72 187.589 1123.54 189.351 1121.1 189.289C1117.98 189.21 1116.79 185.641 1113.9 184.965C1111.1 184.314 1107.71 186.39 1105 187C1104.15 176.287 1095.66 183.807 1090 186C1087.1 177.74 1081.88 182.233 1077 186.424C1069.19 193.128 1062.56 201.568 1056.67 210C1049.19 220.701 1044.84 232.751 1036.21 242.91C1023.58 257.775 1009.42 271.446 997.16 286.651C992.52 292.404 988.813 298.908 984.342 304.745C978.402 312.498 971.521 319.132 967 328C965.287 322.204 966.191 315.996 965.925 310C965.411 298.414 964.935 287.116 961.33 276C959.512 270.393 959.066 263.358 953 261C953.986 259.521 954 259.797 954 258C950.795 254.469 952.291 251.385 951.776 247C951.157 241.729 949.5 236.281 948.585 231C948.226 228.931 948.04 226.376 946.4 224.858C944.278 222.894 940.692 222.986 938 223.018C935.295 223.051 932.661 223.471 930 223.921C926.406 224.527 923.256 225.366 920 227C922.975 248.157 924.705 269.598 922 291C918.43 288.995 914.977 287.036 911 286L912 289C904.228 286.089 899.576 288.288 892 290C893.248 290.685 893.548 290.749 895 291C894.703 293.8 894.555 296.217 895 299C892.197 298.436 889.682 299.128 887 298C884.133 300.017 881.273 301.741 878 303C877.913 307.193 877.132 310.972 876 315C870.784 307.333 865.09 300.017 859.785 292.406C857.508 289.14 856.31 285.308 853.875 282.116C849.871 276.867 842.984 270.602 842 264C838.181 261.902 838.109 257.443 834 256C834.781 250.525 833.436 239.497 828.387 236.028C826.337 234.62 823.35 235.008 821 235C820.897 226.223 816.052 219.135 807 218C807.41 211.143 801.873 212.841 797.005 211.427C793.865 210.516 792.389 208.778 791 206C794.355 205.176 797.069 203.904 799 201L794 201C793.363 196.397 792.66 190.378 791.232 186C789.959 182.1 787.593 179.141 787 175C781.75 172.114 782.952 167.142 781.691 162C780.976 159.088 779.029 156.716 777.834 154.001C773.707 144.623 768.026 127.06 754 134C750.438 123.431 743.208 122.57 733 125C732.628 121.624 731.26 119.1 730 116C720.168 112.911 723.682 93.7234 711 99C711.768 100.314 711.686 100.232 713 101C710.957 107.851 712.491 113.223 713.679 120C714.424 124.249 714.386 128.719 715.835 132.83C717.715 138.166 721.78 143.185 722.583 148.834C723.103 152.497 723.176 159.18 722.235 162.714C721.307 166.202 719.255 169.233 719.158 172.961C719.083 175.85 720.549 178.329 721.31 181.039C723.14 187.556 724.608 193.85 727.619 199.996C731.053 207.005 737.528 209.213 742.716 214.414C745.251 216.956 746.706 220.72 748 224C754.086 223.753 763.421 227.694 762 235L767 237C766.058 240.73 766.837 244.184 767 248C772.713 251.495 769.792 257.69 772.349 262.871C775.29 268.832 782.438 272.29 786 278L788 278L789 274C792.037 277.591 794.115 280.862 791 285L794 293C803.442 294.972 805.77 300.103 810.287 307.625C815.141 315.708 819.742 323.91 823 333C817.228 335.229 814.617 341.032 808 342C807.322 344.678 806.455 346.649 805 349L807 352L803 350C802.014 351.479 802 351.203 802 353L800 352C799.521 353.497 799.6 353.35 800 355C797.896 354.987 797.212 357.034 795 358C795.406 362.156 794.936 364.949 792 368L793 365C791.686 365.768 791.768 365.686 791 367C790.776 365.316 790.782 364.687 791 363L787 364C788.632 362.001 789.461 361.418 792 361L793 355C795.379 354.973 795.683 354.94 797 353C794.255 352.019 791.928 351.195 789 351C791.278 344.284 791.066 337.818 792.263 331C792.863 327.583 794.873 324.556 794.777 321C794.686 317.624 793.217 314.411 793 311L791 311C790.723 315.3 789.82 318.724 786 321C786.501 323.013 786.637 324.039 786 326C786.93 332.548 782.955 341.264 781.742 347.911C781.062 351.631 778.661 355.082 782 358C780.944 360.825 778.249 364.989 781 367L781 369C778.27 371.484 779.991 374.812 781 378L777 378C777.309 380.447 777.805 381.834 779 384C768.127 384.09 757.771 387.431 747 384.444C742.717 383.257 737.927 382.092 737.086 376.995C736.497 373.419 738.913 370.271 739.942 367C741.674 361.495 742.392 350.788 739 346C745.473 339.801 758.082 331.309 759.772 322C761.073 314.827 757.407 308.758 756 302C752.633 305.207 753.296 307.957 755 312C752.133 311.259 749.928 310.628 747 311C747.221 307.994 747.455 306.635 750 305C749.453 303.125 748.89 301.745 748 300C744.565 301.568 741.778 303.287 738 304C741.781 311.575 749.622 313.216 752 322C747.941 321.361 745.078 318.628 741 318C741.475 315.43 742.914 314.225 744 312C740.928 312.44 738.715 313.5 736 315C735.217 311.345 730.837 311.338 729.528 315.083C728.373 318.388 730.94 323.425 731 327C729.553 324.315 729.263 320.964 727 319C729.507 309.879 722.633 302.622 722 294C721.315 295.248 721.251 295.549 721 297C719.488 295.742 718.534 295.321 720 294C713.708 282.763 711.474 267.364 708 255L704 257L705 261L703 260C703.787 261.785 706.022 264.2 706 261C708.605 262.563 707.979 263.526 706 266L705 265L706 270C704.316 269.776 703.686 269.782 702 270C703.17 272.075 703.692 273.637 704 276C705.267 274.457 705.489 273.952 706 272C707.427 275.194 709.133 278.047 711 281L707 281C708.145 284.294 708.3 287.603 709 291C705.95 291.948 705.088 293.003 704 296L710 294C710.39 298.945 711.999 303.241 707 306C706.685 303.67 706.098 302.083 705 300C704.315 301.248 704.251 301.548 704 303C702.948 300.413 702.757 298.786 703 296C701.584 296.472 701.186 296.814 700 298L700 294C698.919 295.458 698.564 296.248 698 298C697.438 296.199 697.176 294.878 697 293L701 293C700.02 291.217 700.092 291.406 698 291C698.602 285.851 697.45 279.975 696 275C696.986 276.479 697 276.203 697 278L700 276L699 270C697.7 270.65 698 270.147 698 272C697.227 268.523 697.154 265.472 698 262C696.203 262 696.479 262.014 695 263C695.986 261.521 696 261.797 696 260C693.574 260 693.221 258.103 692 256C695.169 254.911 696.822 252.504 699 250C700.624 252.044 701.643 252.896 704 254L701 249L704 250C703.387 248.339 702.957 247.517 702 246L707 248C707.041 244.3 707.683 241.437 709 238C707.521 237.014 707.797 237 706 237C709.857 229.325 709.644 225.338 706 218C707.479 218.986 707.203 219 709 219C709 213.925 707.704 207.934 708.504 203C709.467 197.06 715.747 188.656 707 186C705.091 189.629 703.098 195.81 699.61 198.154C694.404 201.651 686.183 197.071 683 193L685 193L685 191C682.024 189.615 679.236 188.557 676 188C675.875 181.931 674.63 176.164 676.459 170.17C677.528 166.667 680.27 164.061 681.636 160.714C683.154 156.995 682.467 153.264 685 150C684.727 145.743 684.066 142.771 682 139C679.553 139.168 676.665 138.779 674.429 139.949C669.442 142.559 668.771 149.529 664 153L665 150C660.487 151.796 660.22 155.731 658.725 160C656.455 166.481 652.324 172.031 652 179C648.003 180.328 647.044 183.046 648 187C642.936 190.294 640.519 196.156 636 200L638 207L642 207C639.391 209.884 636.575 210.799 637 215C625.663 221.492 619.139 232.987 611.484 243.089C607.591 248.227 603.928 256.005 596.985 257.843C594.407 258.525 591.529 257.513 589 257C589.683 255.42 589.805 255.223 591 254C590.235 247.697 593.852 245.504 597.065 240.791C599.046 237.886 599.949 233.824 601.337 230.576C603.318 225.941 606.183 220.515 607.529 215.714C608.338 212.832 607.995 209.878 609.13 207.039C613.59 195.876 619.872 184.963 625 174L621 173C619.155 174.947 617.496 176.015 615 177C614.613 182.023 612.124 183.567 608 186C609.783 182.997 611.317 180.44 612 177C610.216 177.98 610.406 177.908 610 180C608.365 179.455 608.545 179.635 608 178C604.69 181.105 601.938 178.146 605 175C605.068 172.102 605.919 171.006 608 169L607 167C609.172 165.173 609.35 162.832 610.285 160.169C612.18 154.769 614.155 149.41 616 144L614 144C615.533 140.36 615.877 137.86 615 134L612 135C609.245 130.381 605.065 129.005 600 128L599 131C599.04 127.982 600.348 125.166 598 123C598 124.797 598.014 124.521 599 126C594.588 128.261 593.624 131.696 591.465 135.911C587.526 143.599 583.946 151.804 581 160C579.42 159.316 579.223 159.195 578 158L576 158L576 160L574 160L574 158L569 159C570.597 156.341 570.1 154.026 570.743 151.039C571.888 145.716 575.622 136.648 570 133C570 135.858 567.945 134.618 566.5 137C564.971 139.52 563.301 145.096 562.333 148C561.243 151.27 563.076 154.822 562 158C561.383 159.822 559.736 161.014 559.333 163C558.672 166.257 558.798 169.74 557.667 173C557.048 174.781 555.547 176.081 555.333 178C554.872 182.147 555.92 192 550.833 194.5C548.875 195.462 545.057 193.379 543 193L546 191C544.001 190.127 541.195 190.007 539.602 188.397C536.148 184.907 537.093 174.651 537 170C532.935 167.738 530.979 165.273 526 165C526.994 173.168 532.673 192.694 524 198C524.542 200.513 524.525 202 527 202C527.176 203.878 527.438 205.199 528 207L524 207C524.016 211.691 526.863 217.888 525 222C526.768 227.239 527.947 234.561 527 240C521.619 240.298 516.565 244.425 520 250C516.925 254.357 515.874 257.961 511 261C511.042 263.662 510.09 266.054 512 268L512 270C509.604 272.062 509.7 274.995 508.91 278C506.992 285.296 507.132 295.916 503 302C505.494 308.39 502.211 315.284 503 322C498.68 318.494 494.881 313.334 489 316L490 313C487.929 314.324 487.861 314.547 488 317L486 316C486.15 319.409 484.881 321.793 484 325C486.809 324.987 489.267 325.36 492 326C490.521 326.986 490.797 327 489 327L490 331C488.16 329.283 487.651 328.434 487 326L484 327C485.193 329.833 486.067 331.881 486 335C491.206 339.247 494.853 345.367 496 352C493.037 350.801 491.15 350.448 488 351C489.036 349.814 489.339 349.396 490 348C486.328 345.266 483.601 344.111 479 344C479.31 346.247 479.664 347.174 481 349L472 350C475.858 351.685 478.632 351.493 480 356C479.014 354.521 479 354.797 479 353C477.422 356.31 477.488 359.407 478 363L482 362C480.5 364.522 479.852 366.064 480 369C481.314 368.232 481.232 368.314 482 367C485.591 369.052 489.067 370.707 493 372C494.902 370.844 495.722 370.844 498 371L498 366C499.684 369.701 500.249 372.097 499 376L495 375C492.077 376.1 489.85 374.209 487 373C487.472 374.416 487.814 374.814 489 376L485 375C486.154 376.865 487.184 377.703 489 379C486.295 379.349 484.395 380.063 484 377C482.239 377.791 482.455 377.962 481 377C480.078 379.323 480.313 380.581 481 383L475 383L476 386L469 389C473.32 394.992 470.76 400.856 463 400C463.768 401.314 463.686 401.232 465 402C460.057 403.462 454.956 403.415 450 402C449.806 403.857 449.79 405.153 450 407L446 408C446.777 410.132 447.13 410.771 449 412C447.703 413.594 447.465 414.018 447 416L453 416C450.223 417.97 448.834 419.685 448 423L452 421C452.319 423.459 454.209 424.196 456 426C454.469 425.403 451.909 423.615 450.306 423.667C448.62 423.721 449.63 425.047 451 425C451.481 428.029 453.023 429.621 455 432C456.195 431.402 455.977 431.534 457 430C457.804 435.123 460.636 438.771 466 439L466 441L464 440C466.273 445.378 470.293 450.577 474.299 454.83C478.046 458.809 481.698 461.206 482 467C479.312 466.408 477.659 466.325 475 467C472.53 462.561 469.471 457.284 464 458C464.338 456.328 464.537 456.69 463 456L467 455C462.304 452.187 457.369 452.893 453 456C456.117 456.145 458.16 455.31 461 454C460.776 455.684 460.782 456.313 461 458L454 459C456.052 459.874 457.747 459.953 460 460C456.329 461.959 453.111 461.997 449 462C451.413 466.051 455.601 468.412 457 473C454.372 470.094 450.937 467.925 448.495 464.896C445.685 461.412 444.504 456.989 442.652 453C440.885 449.194 438.325 446.002 437 442L433 442L433 434C432.315 435.248 432.251 435.548 432 437C426.804 434.376 418.783 429.716 417 424C421.082 424.621 423.97 427.34 428 428C426.435 426.119 425.201 425.058 423 424L424 420L426 421C428.912 412.995 424.524 409.176 422 402C410.694 404.69 402.959 396.146 393 392L403 391L403 389C400.432 388.3 397.785 387.432 395.09 387.893C393.029 388.245 391.191 389.948 389.082 389.895C387.012 389.843 384.776 387.931 383 387L384 391C382.015 389.723 381.15 389.019 380 387C374.736 386.546 370.053 386.259 365 388L366 384L348 390L349 386C345.233 388.949 343.014 392.691 341 397L339 397C338.998 392.908 341.611 391.1 344 388C342.106 388.465 340.723 389.066 339 390C343.203 384.451 346.776 375.868 348 369C354.395 370.007 356.351 373.068 363 370C362.528 368.584 362.186 368.186 361 367C362.6 365.938 362.281 366.116 362 364C363.797 364 363.522 363.986 365 363C364.402 361.805 364.534 362.023 363 361C364.681 359.695 366.048 358.818 368 358C366.231 357.221 364.964 357.088 363 357C362.745 353.943 362.745 351.057 363 348L367 348C366.232 346.686 366.314 346.768 365 346C366.134 340.931 362.789 336.992 362 332C372.721 329.646 371.43 318.578 378 312C377.638 309.057 378.892 305.128 377 303C378.218 301.014 379.32 299.61 381 298C381.592 285.802 392.471 272.899 397.552 262C401.156 254.268 405.761 247.012 410.887 240.17C413.328 236.911 416.837 234.28 418.84 230.715C420.649 227.497 421.167 223.409 422.495 219.961C423.996 216.065 426.68 213.008 428.704 209.424C430.022 207.093 430.269 204.375 431.701 202.093C438.2 191.74 446.755 183.197 454.812 174.231C461.18 167.145 464.143 156.815 473 152C472.338 150.603 472.036 150.187 471 149C474.506 146.731 475.06 143.32 477.55 140.129C479.888 137.134 483.661 135.075 484.317 130.999C485.041 126.497 482.303 121.888 483 117C479.141 112.811 481.228 109.145 486 107C485.114 104.984 485.055 104.893 487 104C485.752 103.315 485.452 103.251 484 103L488 102L488 97C490.175 96.4154 491.244 95.4273 493 94C493.212 87.8918 494.328 78.1448 500 75L499 71L503 69C502.764 66.614 503.131 65.1176 501 64C501.519 61.6625 501.48 60.3596 501 58C500.317 59.5061 500.174 60.3148 500 62C497.974 60.879 497.171 59.8928 496 62C494.814 60.9645 494.396 60.6613 493 60C492.014 61.4785 492 61.2031 492 63L488 62C486.946 66.8383 483.149 77.5187 478.892 80.2678C476.279 81.9554 473.638 80.1221 471 82C469.61 80.9739 468.529 80.2678 466.885 79.6729C456.505 75.9166 454.22 85.3288 445.896 87.7014C442.382 88.7031 438.543 88.4575 435 89.4036C430.225 90.6787 425.755 93.4231 421 94.9637C417.675 96.0411 413.969 96.2964 411.13 98.51C406.353 102.234 402.494 110.113 401.518 116.039C401.028 119.016 401.879 121.988 401.256 124.961C398.527 137.994 394.059 150.582 393 164C386.914 166.131 383.471 177.368 379.74 182.586C376.45 187.188 371.528 189.202 367.455 192.836C363.075 196.744 361.173 202.046 358.321 206.961C356.48 210.134 354.561 212.308 354 216C350.051 217.41 347.438 226.073 343.174 225.369C337.698 224.465 336.583 211.134 335.444 207C331.546 192.85 327.26 178.38 324.364 164C323.19 158.168 325.653 151.674 320 148C322.305 142.559 321.311 137.635 322.26 132C324.589 118.177 327.803 104.759 322.11 91.0432C320.985 88.3318 318.477 87.037 317.022 84.625C315.871 82.7159 316.238 80.2687 314.973 78.4298C313.384 76.1188 310.374 76.0295 308.133 74.6975C301.704 70.8773 303.554 63.2075 294 66C293.86 63.9847 293.634 62.4418 292.829 60.571C292.05 58.7583 291.361 56.0701 290.016 54.6073C285.903 50.1326 278.853 58.6647 275 60M105 61C105.578 63.6974 106.261 63.7894 109 64C107.771 62.1301 107.132 61.7766 105 61M504 62L504 64C505.635 63.455 505.455 63.6353 506 62L504 62M4 64C4.52573 66.5431 4.87789 67.535 7 69C6.35204 66.6064 5.96762 65.4639 4 64M104 68C103.251 70.2537 102.656 71.3135 101 73C102.127 75.8405 102.987 76.4917 106 77C106.51 73.7201 107.597 71.0029 109 68L104 68z"/>
<path style="fill:#444; stroke:none;" d="M0 76C2.4917 75.0301 3.14562 74.5251 4 72C1.75104 73.1536 1.15356 73.751 0 76M46.6667 77.3333C46.2221 77.7779 47.2777 77.7223 47.3333 77.6667C47.7778 77.2222 46.7222 77.2778 46.6667 77.3333M57 79C58.5801 78.3164 58.7771 78.1953 60 77C58.4201 77.6835 58.2227 77.8049 57 79M0 80L1 81L0 80M0 96L0 99C0.696158 97.4462 0.696102 97.5537 0 96z"/>
<path style="fill:#444; stroke:none;" d="M119 102L119 104L121 104L121 102L119 102z"/>
<path style="fill:#444; stroke:none;" d="M17 113L17 115L19 115L19 113L17 113M21 116C22.3141 117.618 22.8772 117.693 25 118C23.542 116.919 22.7519 116.564 21 116z"/>
<path style="fill:#444; stroke:none;" d="M31 117L32 118L31 117z"/>
<path style="fill:#444; stroke:none;" d="M7.33333 120.667C7.27788 120.722 7.22222 121.778 7.66667 121.333C7.72231 121.278 7.77782 120.222 7.33333 120.667M32 122C32.6835 123.58 32.8049 123.777 34 125L34 122L32 122z"/>
<path style="fill:#444; stroke:none;" d="M21 124L21 126L18 125C20.2502 128.202 23.1623 129.403 27 129C25.3748 126.192 24.0587 125.086 21 124M32 126L33 127L32 126M37 126L37 128L39 128L39 126L37 126M28 129C29.3766 129.911 30.4399 130.404 32 131C32 129.203 31.9857 129.479 31 128L28 129M8 133L6 143C11.9635 150.912 2.07447 152.387 0.317901 158.225C-0.571546 161.181 0 164.945 0 168L0 189C4.13264 185.524 2.62491 182.759 3.75926 178.015C5.00187 172.817 9.80869 168.46 15 168C16.4777 164.932 16.9212 162.398 17 159C19.5907 161.139 21.8194 162.899 25 164C24.0944 158.591 18.8561 155.477 23 150C21.1121 144.286 22.348 139.729 21 134C16.171 134.596 12.695 134.239 8 133z"/>
<path style="fill:#444; stroke:none;" d="M918 137C918.001 143.051 916.645 148.283 916.171 154.089C915.553 161.674 916.238 166.698 913 174L909 172C908.541 177.817 905.184 184.406 905.567 190C906.267 200.224 914.957 207.821 918 217C922.863 214.753 926.395 212.137 932 212.015C935.719 211.935 942.232 214.41 945.502 212.647C948.93 210.799 950.004 204.447 950.56 201C951.344 196.145 953.698 186.436 950.397 182.299C946.789 177.779 938.197 175.885 933 173.868C930.688 172.971 927.361 172.798 925.848 170.566C924.532 168.624 925.065 165.258 924.692 163C923.268 154.382 922.976 146.676 923 138C921.052 137.952 919.823 137.696 918 137M235 140L235 142L237 142L237 140L235 140z"/>
<path style="fill:#444; stroke:none;" d="M1365 140C1362.07 144.862 1359.32 149.426 1358 155L1362 155C1362.12 150.778 1362.9 147.954 1366 145C1365.8 142.777 1366.36 141.976 1367 140L1365 140M126.667 142.333C126.222 142.778 127.278 142.722 127.333 142.667C127.778 142.222 126.722 142.278 126.667 142.333M1440.67 142.333C1440.22 142.778 1441.28 142.722 1441.33 142.667C1441.78 142.222 1440.72 142.278 1440.67 142.333M123 146L127 145C124.954 144.249 124.404 144.344 123 146M223.333 144.667C223.278 144.722 223.222 145.778 223.667 145.333C223.722 145.278 223.778 144.222 223.333 144.667z"/>
<path style="fill:#444; stroke:none;" d="M107 155C108.924 153.999 109.098 153.923 110 152C107.636 152.482 107.482 152.636 107 155M574 158C576.123 157.101 576.101 157.124 577 155C574.876 155.899 574.899 155.876 574 158z"/>
<path style="fill:#444; stroke:none;" d="M1357 157C1357.12 160.309 1355.27 162.041 1356 166C1359.49 163.796 1359.88 160.971 1360 157L1357 157M40 160C41.58 159.316 41.7772 159.195 43 158C41.4201 158.684 41.2226 158.805 40 160z"/>
<path style="fill:#444; stroke:none;" d="M108 166C109.659 166.406 110.242 166.309 112 166C110.341 165.594 109.758 165.691 108 166z"/>
<path style="fill:#444; stroke:none;" d="M1337 165C1338.51 165.683 1339.31 165.826 1341 166L1337 167C1337.75 170.269 1337.75 172.731 1337 176C1340.97 174.851 1342.37 173.061 1343 169L1345 170C1344.2 165.195 1341.43 165.053 1337 165M229.667 167.333C229.222 167.778 230.278 167.722 230.333 167.667C230.778 167.222 229.722 167.278 229.667 167.333z"/>
<path style="fill:#444; stroke:none;" d="M17 168L17 170L19 170L19 168L17 168z"/>
<path style="fill:#444; stroke:none;" d="M1343 174L1344 175L1343 174z"/>
<path style="fill:#444; stroke:none;" d="M1045 178C1045 179.797 1045.01 179.521 1046 181C1042.16 182.277 1042.16 184.723 1046 186C1046.96 182.671 1048.03 180.24 1045 178z"/>
<path style="fill:#444; stroke:none;" d="M1038 181L1039 182L1038 181z"/>
<path style="fill:#444; stroke:none;" d="M956 182C957.875 184.323 960.076 184.594 963 185C960.739 183.382 958.718 182.585 956 182M1027 182L1028 183L1027 182z"/>
<path style="fill:#444; stroke:none;" d="M33 188C33 189.797 33.0143 189.521 34 191C32.2774 190.066 30.8938 189.465 29 189C29.0941 191.205 29.3562 192.894 30 195C36.1565 191.576 43.4773 193.683 50 191C46.1924 183.453 39.7027 186.809 33 188z"/>
<path style="fill:#444; stroke:none;" d="M25 187L25 189L28 189L28 187L25 187z"/>
<path style="fill:#444; stroke:none;" d="M1038 193L1043 194L1042 189C1039.37 189.839 1038.84 190.373 1038 193M1033 190C1031.96 191.186 1031.66 191.604 1031 193C1032.85 192.033 1033.72 191.86 1033 190M1036.33 190.667C1036.28 190.722 1036.22 191.777 1036.67 191.333C1036.72 191.278 1036.78 190.222 1036.33 190.667M1046 190C1046.06 192.784 1046.35 195.291 1047 198L1052 196C1050.96 193.332 1048.87 191.027 1048 195L1046 190z"/>
<path style="fill:#444; stroke:none;" d="M18 196L20 199C13.0713 200.89 5.55608 208.542 1 214C3.47582 217.166 4.18885 218.439 2 222L1 218C-0.212955 220.89 0.00172643 223.874 0 227C4.36513 223.74 7.34533 221.259 13 222C12.3872 220.338 11.9573 219.517 11 218L18 218L24 207C24.9857 208.479 25 208.203 25 210L28 208C29.1693 213.457 37.0965 210.983 35 205C36.4905 203.573 36.2926 203.133 36 201L40 203L41 202L41 200C38.8509 198.471 38.879 197.661 39 195C34.2311 195.613 28.93 197.81 26 193C23.0107 193.642 20.6458 194.468 18 196M1010.33 196.667C1010.28 196.722 1010.22 197.778 1010.67 197.333C1010.72 197.278 1010.78 196.222 1010.33 196.667z"/>
<path style="fill:#444; stroke:none;" d="M1018 198L1018 200L1020 200L1020 198L1018 198M1011 199L1011 201L1013 201L1013 199L1011 199z"/>
<path style="fill:#444; stroke:none;" d="M1479 201C1477.96 202.187 1477.66 202.603 1477 204C1478.99 203.153 1479.7 202.993 1479 201M1028 202C1026.52 202.986 1026.8 203 1025 203L1025 208L1029 207C1028.91 205.036 1028.78 203.769 1028 202M1015 208C1016.46 206.896 1016.9 206.457 1018 205C1015.88 205.899 1015.9 205.876 1015 208M1493.67 205.333C1493.22 205.778 1494.28 205.722 1494.33 205.667C1494.78 205.222 1493.72 205.278 1493.67 205.333z"/>
<path style="fill:#444; stroke:none;" d="M1472.67 206.333C1472.22 206.777 1473.28 206.723 1473.33 206.667C1473.78 206.222 1472.72 206.278 1472.67 206.333M136 207L136 209L138 209L138 207L136 207z"/>
<path style="fill:#444; stroke:none;" d="M1007 207L1007 211C1012.34 209.814 1016.67 211.845 1022 212C1017.71 209.372 1012.03 207.334 1007 207M1495 207C1495.42 209.69 1495.72 210.554 1498 212L1498 207L1495 207z"/>
<path style="fill:#444; stroke:none;" d="M1492.67 208.333C1492.22 208.777 1493.28 208.722 1493.33 208.667C1493.78 208.222 1492.72 208.278 1492.67 208.333M131 217C134.745 215.113 135.736 213.119 135 209C131.06 210.584 131.048 213.014 131 217M1024.33 209.667C1024.28 209.722 1024.22 210.777 1024.67 210.333C1024.72 210.278 1024.78 209.222 1024.33 209.667M1026 209L1025 215C1028.4 213.929 1029.28 212.456 1030 209C1028.8 209.598 1029.02 209.466 1028 211C1027.23 209.686 1027.31 209.768 1026 209z"/>
<path style="fill:#444; stroke:none;" d="M1343 215C1348.25 217.547 1354.15 219.566 1360 219L1359 222C1361.55 220.366 1361.78 219.006 1362 216C1360.05 215.489 1359.54 215.267 1358 214L1354 215L1354 213L1343 215M1491 213L1490 215L1492 215C1492 213.147 1492.3 213.65 1491 213M1486 214L1486 219C1486.83 216.97 1486.83 216.031 1486 214z"/>
<path style="fill:#444; stroke:none;" d="M938 217L946 223C949.611 217.135 942.481 215.871 938 217M1336 217L1336 221L1338 221L1338 217L1336 217M1241 218C1239.9 219.457 1239.46 219.896 1238 221L1239 228L1235 229C1234.26 231.507 1233.42 231.966 1231 233C1232.31 236.473 1231.52 238.384 1229 241C1236.88 246.432 1244.25 235.669 1244.81 228C1245.09 224.12 1243.05 221.099 1241 218M919 219L919 224C921.46 223.163 922.962 221.622 925 220C922.948 219.126 921.253 219.047 919 219M1488 221L1490 225L1486 225C1484.87 228.777 1480.12 231.123 1482 235L1479 238C1479.84 240.118 1480.01 241.714 1480 244C1482.58 244.668 1486.07 246.056 1488.74 245.23C1496.42 242.852 1497.45 226.384 1498 220C1494.41 219.521 1491.52 220.829 1488 221M140.333 220.667C140.278 220.722 140.222 221.778 140.667 221.333C140.722 221.278 140.778 220.222 140.333 220.667M31 221L30 225C31.4335 223.608 32.0449 222.767 33 221L31 221M1234 221L1233 222L1233 224C1235.36 223.518 1235.52 223.364 1236 221L1234 221z"/>
<path style="fill:#444; stroke:none;" d="M1478 223L1478 225L1481 225L1481 223L1478 223M105 228C109.369 227.189 113.564 227 118 227L118 225C113.503 225 107.968 224.101 105 228z"/>
<path style="fill:#444; stroke:none;" d="M1191 227L1192 228L1191 227z"/>
<path style="fill:#444; stroke:none;" d="M105.667 229.333C105.222 229.778 106.278 229.722 106.333 229.667C106.778 229.222 105.722 229.278 105.667 229.333M126 229C127.543 230.267 128.048 230.489 130 231C128.457 229.733 127.952 229.511 126 229M1142 241L1142 243L1143 244L1148 243L1148 247C1153.5 245.218 1153.1 239.954 1152.06 235.005C1151.68 233.165 1150.87 229.444 1148.19 229.921C1145.1 230.473 1144.35 238.707 1142 241z"/>
<path style="fill:#444; stroke:none;" d="M521.333 236.667C521.278 236.722 521.222 237.778 521.667 237.333C521.722 237.278 521.778 236.222 521.333 236.667M1139 236L1139 238L1141 238L1141 236L1139 236z"/>
<path style="fill:#444; stroke:none;" d="M1190 238C1190.85 239.991 1191.27 240.778 1193 242C1192.33 239.703 1192.03 239.226 1190 238z"/>
<path style="fill:#444; stroke:none;" d="M135 240C136.769 240.779 138.036 240.912 140 241C138.231 240.221 136.964 240.088 135 240z"/>
<path style="fill:#444; stroke:none;" d="M1019 244L1019 247C1019.7 245.446 1019.7 245.554 1019 244z"/>
<path style="fill:#444; stroke:none;" d="M1186.67 245.333C1186.22 245.778 1187.28 245.722 1187.33 245.667C1187.78 245.222 1186.72 245.278 1186.67 245.333z"/>
<path style="fill:#444; stroke:none;" d="M1142 249L1145 247C1143.01 246.301 1142.85 247.006 1142 249z"/>
<path style="fill:#444; stroke:none;" d="M38 247L38 249L40 249C39.455 247.365 39.6352 247.545 38 247M137 247L137 255C138.139 252.465 138.482 249.744 139 247L137 247M1021.33 247.667C1021.28 247.722 1021.22 248.778 1021.67 248.333C1021.72 248.278 1021.78 247.222 1021.33 247.667M1277 247C1276.01 248.479 1276 248.203 1276 250C1277.77 249.021 1277.96 248.778 1277 247z"/>
<path style="fill:#444; stroke:none;" d="M1484 249L1484 251L1490 252C1489.27 248.597 1487.19 249.013 1484 249M135.333 250.667C135.278 250.722 135.222 251.778 135.667 251.333C135.722 251.278 135.778 250.222 135.333 250.667M207 250L208 251L207 250M1140 250L1140 252L1142 252L1142 250L1140 250M1143.33 250.667C1143.28 250.722 1143.22 251.778 1143.67 251.333C1143.72 251.278 1143.78 250.222 1143.33 250.667M1146 250L1146 252L1148 252L1148 250L1146 250M1152 250L1151 255C1152.88 253.377 1152.92 252.3 1152 250z"/>
<path style="fill:#444; stroke:none;" d="M1221 250C1223.85 252.598 1227.09 255.196 1231 255C1228.18 251.941 1225.01 250.93 1221 250M1468 250L1468 252L1473 252L1473 250L1468 250M140 251C140.307 253.123 140.382 253.686 142 255C141.404 253.44 140.911 252.377 140 251M706 251C706.406 253.092 706.217 253.02 708 254C707.316 252.42 707.195 252.223 706 251M1352 251C1352.9 253.124 1352.88 253.101 1355 254C1354.52 251.636 1354.36 251.482 1352 251z"/>
<path style="fill:#444; stroke:none;" d="M207 255C208.506 255.683 209.315 255.826 211 256C209.494 255.317 208.685 255.174 207 255M134.333 256.667C134.278 256.722 134.222 257.778 134.667 257.333C134.722 257.278 134.778 256.222 134.333 256.667M137 258C139.681 257.952 140.708 258.936 143 260C141.763 256.92 139.563 255.075 137 258M1271 256L1272 257L1271 256M20 257L20 259L22 259L22 257L20 257M1228 257L1227 269L1229 269C1229 264.887 1229.04 261.017 1230 257L1228 257z"/>
<path style="fill:#444; stroke:none;" d="M1270 258C1271.14 259.015 1271.61 259.309 1273 260C1272.02 258.217 1272.09 258.406 1270 258z"/>
<path style="fill:#444; stroke:none;" d="M955 259L955 261L957 261C956.455 259.365 956.635 259.545 955 259M137.667 261.333C137.222 261.778 138.278 261.722 138.333 261.667C138.778 261.222 137.722 261.278 137.667 261.333z"/>
<path style="fill:#444; stroke:none;" d="M215 261C215.849 262.991 216.267 263.778 218 265C217.326 262.703 217.035 262.226 215 261z"/>
<path style="fill:#444; stroke:none;" d="M27.6667 262.333C27.2223 262.778 28.2777 262.722 28.3333 262.667C28.7779 262.222 27.7223 262.278 27.6667 262.333M701.667 262.333C701.222 262.778 702.278 262.722 702.333 262.667C702.778 262.222 701.722 262.278 701.667 262.333M22 263L23 267C23.393 265.076 23.1456 264.64 22 263z"/>
<path style="fill:#444; stroke:none;" d="M702.333 264.667C702.278 264.722 702.222 265.778 702.667 265.333C702.722 265.278 702.778 264.222 702.333 264.667M1153 264L1153 266L1155 266L1155 264L1153 264z"/>
<path style="fill:#444; stroke:none;" d="M139 265L140 270L135 270C136.478 269.014 136.203 269 138 269C135.677 268.079 134.419 268.313 132 269C132.598 270.195 132.466 269.977 134 271L132 272L132 274L139 272L140 279L146 279L141 270L144 270C142.787 267.11 141.994 265.954 139 265z"/>
<path style="fill:#444; stroke:none;" d="M1150.33 267.667C1150.28 267.722 1150.22 268.778 1150.67 268.333C1150.72 268.278 1150.78 267.222 1150.33 267.667z"/>
<path style="fill:#444; stroke:none;" d="M1152.33 268.667C1152.28 268.722 1152.22 269.778 1152.67 269.333C1152.72 269.278 1152.78 268.222 1152.33 268.667z"/>
<path style="fill:#444; stroke:none;" d="M1158 269L1159 270L1158 269M1269 271L1272 270C1270.22 269.045 1269.98 269.234 1269 271z"/>
<path style="fill:#444; stroke:none;" d="M145.667 271.333C145.222 271.778 146.278 271.722 146.333 271.667C146.778 271.222 145.722 271.278 145.667 271.333M1357.67 271.333C1357.22 271.777 1358.28 271.722 1358.33 271.667C1358.78 271.222 1357.72 271.278 1357.67 271.333z"/>
<path style="fill:#444; stroke:none;" d="M31.3333 279.667C31.2777 279.722 31.2223 280.778 31.6667 280.333C31.7221 280.278 31.7779 279.222 31.3333 279.667z"/>
<path style="fill:#444; stroke:none;" d="M1358.33 280.667C1358.28 280.722 1358.22 281.778 1358.67 281.333C1358.72 281.278 1358.78 280.222 1358.33 280.667z"/>
<path style="fill:#444; stroke:none;" d="M719.333 285.667C719.278 285.722 719.222 286.778 719.667 286.333C719.722 286.278 719.778 285.222 719.333 285.667z"/>
<path style="fill:#444; stroke:none;" d="M704.667 286.333C704.222 286.778 705.278 286.722 705.333 286.667C705.778 286.222 704.722 286.278 704.667 286.333M920.333 286.667C920.278 286.722 920.222 287.778 920.667 287.333C920.722 287.278 920.778 286.222 920.333 286.667M1374 287L1374 289L1376 289L1376 287L1374 287M1391 287L1392 288L1391 287z"/>
<path style="fill:#444; stroke:none;" d="M703.333 289.667C703.278 289.722 703.222 290.777 703.667 290.333C703.722 290.278 703.778 289.222 703.333 289.667M719 289L719 291L721 291L721 289L719 289z"/>
<path style="fill:#444; stroke:none;" d="M889 293L889 296L891 296L891 293L889 293z"/>
<path style="fill:#444; stroke:none;" d="M1374 294C1374.3 296.294 1374.58 297.211 1376 299C1373.43 301.247 1371.86 302.539 1372 306L1369 306L1369 308L1376 308C1374.16 311.797 1373.93 315.873 1371 319C1372.51 319.683 1373.31 319.826 1375 320C1373.66 321.28 1372.6 322.03 1371 323C1377.07 331.949 1376.97 341.492 1377 352C1377.02 357.442 1377.06 363.971 1383 366C1382.56 355.671 1381.57 345.325 1380.82 335C1380.3 327.934 1380.48 322.766 1378 316L1382 315C1381.52 317.36 1381.48 318.662 1382 321C1388.79 316.378 1385.51 308.099 1381 303C1380.27 306.388 1380.85 309.543 1381 313L1379 313C1378.71 306.563 1376.15 300.481 1376 294L1374 294z"/>
<path style="fill:#444; stroke:none;" d="M1367 296C1366.01 297.479 1366 297.203 1366 299C1367.29 297.557 1367.4 297.766 1367 296z"/>
<path style="fill:#444; stroke:none;" d="M1117 297L1118 298L1117 297M1405 297C1404.51 297.406 1400.92 299.114 1401 299L1401 301C1398.83 302.806 1397.43 303.459 1395 302L1396 301C1389.91 306.089 1394.67 312.196 1394 319C1396.2 318.906 1397.89 318.644 1400 318C1401.54 319.803 1402.6 319.832 1405 320C1403.21 318.578 1402.29 318.303 1400 318C1403.73 316.613 1407.39 315.808 1411 314C1409.86 312.984 1409.39 312.692 1408 312L1408 310C1410.08 309.964 1410.28 309.945 1412 311L1413 305C1410.52 301.965 1408.18 299.29 1405 297z"/>
<path style="fill:#444; stroke:none;" d="M1038 300L1040 304C1042.48 302.837 1044.71 301.51 1047 300C1044.09 299.445 1041.04 300.264 1038 300z"/>
<path style="fill:#444; stroke:none;" d="M1050.67 300.333C1050.22 300.778 1051.28 300.722 1051.33 300.667C1051.78 300.222 1050.72 300.278 1050.67 300.333z"/>
<path style="fill:#444; stroke:none;" d="M708 301L708 304L710 303C709.455 301.365 709.635 301.545 708 301M1062 301L1062 303C1063.64 302.455 1063.45 302.635 1064 301L1062 301M1267 301L1268 307C1268.99 304.425 1268.65 303.177 1267 301z"/>
<path style="fill:#444; stroke:none;" d="M1363 301C1363.98 302.784 1363.91 302.594 1366 303C1364.86 301.984 1364.39 301.691 1363 301M118.667 302.333C118.222 302.778 119.278 302.722 119.333 302.667C119.778 302.222 118.722 302.278 118.667 302.333M1359 302L1360 303L1359 302z"/>
<path style="fill:#444; stroke:none;" d="M1038 304C1036.81 305.186 1036.47 305.584 1036 307C1037.85 306.033 1038.72 305.86 1038 304z"/>
<path style="fill:#444; stroke:none;" d="M1032 311C1029.47 317.394 1024.01 323.218 1023 330C1033.35 324.955 1035.3 311.192 1046 306C1040.35 304.068 1037.84 310.957 1032 311M1359.33 305.667C1359.28 305.723 1359.22 306.777 1359.67 306.333C1359.72 306.278 1359.78 305.222 1359.33 305.667z"/>
<path style="fill:#444; stroke:none;" d="M1391.33 309.667C1391.28 309.723 1391.22 310.777 1391.67 310.333C1391.72 310.278 1391.78 309.222 1391.33 309.667z"/>
<path style="fill:#444; stroke:none;" d="M129 310C130.506 310.683 131.315 310.826 133 311C131.494 310.317 130.685 310.174 129 310z"/>
<path style="fill:#444; stroke:none;" d="M126.667 311.333C126.222 311.778 127.278 311.722 127.333 311.667C127.778 311.222 126.722 311.278 126.667 311.333M480.667 311.333C480.222 311.778 481.278 311.722 481.333 311.667C481.778 311.222 480.722 311.278 480.667 311.333z"/>
<path style="fill:#444; stroke:none;" d="M1054 312L1054 314C1055.64 313.455 1055.45 313.635 1056 312L1054 312z"/>
<path style="fill:#444; stroke:none;" d="M1369 312C1369.65 314.394 1370.03 315.536 1372 317C1371.47 314.457 1371.12 313.465 1369 312M703.667 313.333C703.222 313.778 704.278 313.722 704.333 313.667C704.778 313.222 703.722 313.278 703.667 313.333z"/>
<path style="fill:#444; stroke:none;" d="M144 314L144 316L146 316C145.455 314.365 145.635 314.545 144 314M1052.33 315.667C1052.28 315.723 1052.22 316.777 1052.67 316.333C1052.72 316.278 1052.78 315.222 1052.33 315.667z"/>
<path style="fill:#444; stroke:none;" d="M472 321C473.58 320.317 473.777 320.195 475 319C472.908 319.406 472.98 319.217 472 321M480 319L479 323C480.459 321.688 481.157 320.769 482 319L480 319z"/>
<path style="fill:#444; stroke:none;" d="M240.333 321.667C240.278 321.722 240.222 322.778 240.667 322.333C240.722 322.278 240.778 321.222 240.333 321.667z"/>
<path style="fill:#444; stroke:none;" d="M1396 321L1397 322L1396 321z"/>
<path style="fill:#444; stroke:none;" d="M9.33333 324.667C9.27769 324.722 9.22231 325.778 9.66667 325.333C9.72226 325.278 9.77778 324.222 9.33333 324.667z"/>
<path style="fill:#444; stroke:none;" d="M476 324C477.248 324.685 477.548 324.749 479 325C477.752 324.315 477.452 324.251 476 324z"/>
<path style="fill:#444; stroke:none;" d="M238 326L238 329L240 329L240 326L238 326M468 326C470.915 327.991 474.491 328.868 477 326C473.784 326.7 471.232 326.573 468 326z"/>
<path style="fill:#444; stroke:none;" d="M105 328C105.839 330.627 106.373 331.161 109 332C107.846 329.751 107.249 329.154 105 328M478 328C479.943 329.567 481.579 330.403 484 331C482.02 329.116 480.69 328.531 478 328z"/>
<path style="fill:#444; stroke:none;" d="M1038.33 328.667C1038.28 328.723 1038.22 329.777 1038.67 329.333C1038.72 329.278 1038.78 328.222 1038.33 328.667z"/>
<path style="fill:#444; stroke:none;" d="M1274 330L1274 332L1282 332C1279.87 329.078 1277.4 329.651 1274 330z"/>
<path style="fill:#444; stroke:none;" d="M239 331L239 333L241 333L241 331L239 331z"/>
<path style="fill:#444; stroke:none;" d="M1031 337C1032.56 336.404 1033.62 335.911 1035 335C1032.55 334.861 1032.32 334.929 1031 337z"/>
<path style="fill:#444; stroke:none;" d="M1393 335L1394 336L1393 335M1464.67 335.333C1464.22 335.777 1465.28 335.723 1465.33 335.667C1465.78 335.222 1464.72 335.278 1464.67 335.333z"/>
<path style="fill:#444; stroke:none;" d="M812 337L813 338L812 337z"/>
<path style="fill:#444; stroke:none;" d="M1463 339C1464.47 341.122 1465.46 341.474 1468 342C1466.31 340.344 1465.25 339.749 1463 339z"/>
<path style="fill:#444; stroke:none;" d="M461.333 341.667C461.278 341.722 461.222 342.778 461.667 342.333C461.722 342.277 461.778 341.222 461.333 341.667M471 343C472.58 342.317 472.777 342.195 474 341C471.908 341.406 471.98 341.217 471 343z"/>
<path style="fill:#444; stroke:none;" d="M1469 342L1470 343L1469 342z"/>
<path style="fill:#444; stroke:none;" d="M1466 343C1465.72 345.739 1465.73 346.467 1468 348L1468 343L1466 343z"/>
<path style="fill:#444; stroke:none;" d="M474 347L474 349L477 349L477 347L474 347z"/>
<path style="fill:#444; stroke:none;" d="M469.333 349.667C469.278 349.722 469.222 350.778 469.667 350.333C469.722 350.278 469.778 349.222 469.333 349.667M368 350L368 353C368.696 351.446 368.696 351.554 368 350z"/>
<path style="fill:#444; stroke:none;" d="M463 351L464 352L463 351z"/>
<path style="fill:#444; stroke:none;" d="M469 352L469 354C470.635 353.455 470.455 353.635 471 352L469 352z"/>
<path style="fill:#444; stroke:none;" d="M922 352L922 354L924 354L924 352L922 352z"/>
<path style="fill:#444; stroke:none;" d="M364.667 354.333C364.222 354.778 365.278 354.722 365.333 354.667C365.778 354.222 364.722 354.278 364.667 354.333z"/>
<path style="fill:#444; stroke:none;" d="M1359.33 359.667C1359.28 359.723 1359.22 360.777 1359.67 360.333C1359.72 360.278 1359.78 359.222 1359.33 359.667z"/>
<path style="fill:#444; stroke:none;" d="M367.667 361.333C367.222 361.778 368.278 361.722 368.333 361.667C368.778 361.222 367.722 361.278 367.667 361.333z"/>
<path style="fill:#444; stroke:none;" d="M469.333 363.667C469.278 363.722 469.222 364.778 469.667 364.333C469.722 364.278 469.778 363.222 469.333 363.667z"/>
<path style="fill:#444; stroke:none;" d="M1358.33 364.667C1358.28 364.722 1358.22 365.778 1358.67 365.333C1358.72 365.278 1358.78 364.222 1358.33 364.667M365 365L363 368C365.179 368.726 364.78 368.44 364 370C367.144 369.273 370.05 368.307 373 367C370.76 366.362 368.961 366.308 367 365L365 365M375 365C375.545 366.635 375.365 366.455 377 367L377 365L375 365M378 365L379 366L378 365z"/>
<path style="fill:#444; stroke:none;" d="M470 366C471.163 368.217 472.086 369.394 474 371C472.942 368.799 471.881 367.565 470 366z"/>
<path style="fill:#444; stroke:none;" d="M374.667 370.333C374.222 370.778 375.278 370.722 375.333 370.667C375.778 370.222 374.722 370.278 374.667 370.333z"/>
<path style="fill:#444; stroke:none;" d="M1382 370C1382.41 372.092 1382.22 372.02 1384 373C1383.31 371.611 1383.02 371.14 1382 370z"/>
<path style="fill:#444; stroke:none;" d="M377.667 371.333C377.222 371.778 378.278 371.722 378.333 371.667C378.778 371.222 377.722 371.278 377.667 371.333M380 371C381.248 371.685 381.548 371.749 383 372C381.752 371.315 381.452 371.251 380 371z"/>
<path style="fill:#444; stroke:none;" d="M349 386C351.79 384.617 353.858 383.289 357 383C360.092 380.208 364.528 379.371 367 376C369.377 376.572 371.558 376.891 374 377C373.048 371.519 368.689 371.89 364 373.043C357.041 374.755 350.485 378.647 349 386M406 372L407 373L406 372z"/>
<path style="fill:#444; stroke:none;" d="M379 374C380.223 375.195 380.42 375.316 382 376C380.777 374.805 380.58 374.684 379 374M1380.33 374.667C1380.28 374.723 1380.22 375.777 1380.67 375.333C1380.72 375.278 1380.78 374.222 1380.33 374.667z"/>
<path style="fill:#444; stroke:none;" d="M389 378L390 379L389 378z"/>
<path style="fill:#444; stroke:none;" d="M394 381C398.21 385.899 405.836 389.184 412 391C407.387 384.587 401.915 381.072 394 381z"/>
<path style="fill:#444; stroke:none;" d="M345 383L344 385L346 385C346 383.147 346.3 383.65 345 383z"/>
<path style="fill:#444; stroke:none;" d="M451 389L452 390L451 389z"/>
<path style="fill:#444; stroke:none;" d="M454 392L455 393L454 392M469 392L469 394L471 394L471 392L469 392z"/>
<path style="fill:#444; stroke:none;" d="M1490.67 394.333C1490.22 394.778 1491.28 394.722 1491.33 394.667C1491.78 394.222 1490.72 394.278 1490.67 394.333z"/>
<path style="fill:#444; stroke:none;" d="M451 397L449 401C451.121 399.919 451.919 399.121 453 397L451 397M462 397L462 399C463.635 398.455 463.455 398.635 464 397L462 397M77 398L76 404C77.495 401.815 77.8888 400.508 77 398M458 398L457 399L457 401L462 401L460 398L458 398M466.667 398.333C466.222 398.778 467.278 398.722 467.333 398.667C467.778 398.222 466.722 398.278 466.667 398.333z"/>
<path style="fill:#444; stroke:none;" d="M420 400L421 401L420 400z"/>
<path style="fill:#444; stroke:none;" d="M428.667 404.333C428.222 404.778 429.278 404.722 429.333 404.667C429.778 404.222 428.722 404.278 428.667 404.333z"/>
<path style="fill:#444; stroke:none;" d="M437 407L438 408L437 407z"/>
<path style="fill:#444; stroke:none;" d="M434.333 409.667C434.278 409.722 434.222 410.778 434.667 410.333C434.722 410.278 434.778 409.222 434.333 409.667z"/>
<path style="fill:#444; stroke:none;" d="M1375.33 410.667C1375.28 410.723 1375.22 411.777 1375.67 411.333C1375.72 411.278 1375.78 410.222 1375.33 410.667z"/>
<path style="fill:#444; stroke:none;" d="M444.667 415.333C444.222 415.778 445.278 415.722 445.333 415.667C445.778 415.222 444.722 415.278 444.667 415.333z"/>
<path style="fill:#444; stroke:none;" d="M445 418L444 420C445.263 419.029 445.392 419.306 445 418z"/>
<path style="fill:#444; stroke:none;" d="M446 420L447 421L446 420z"/>
<path style="fill:#444; stroke:none;" d="M447 423L448 424L447 423z"/>
<path style="fill:#444; stroke:none;" d="M442 431L443 432L442 431z"/>
<path style="fill:#444; stroke:none;" d="M1380.67 441.333C1380.22 441.778 1381.28 441.722 1381.33 441.667C1381.78 441.222 1380.72 441.278 1380.67 441.333z"/>
<path style="fill:#444; stroke:none;" d="M1376.67 444.333C1376.22 444.778 1377.28 444.722 1377.33 444.667C1377.78 444.222 1376.72 444.278 1376.67 444.333M1382.33 447.667C1382.28 447.722 1382.22 448.778 1382.67 448.333C1382.72 448.277 1382.78 447.222 1382.33 447.667z"/>
<path style="fill:#444; stroke:none;" d="M1378.67 454.333C1378.22 454.778 1379.28 454.722 1379.33 454.667C1379.78 454.222 1378.72 454.278 1378.67 454.333M467 455C468.949 456.573 470.588 457.291 473 458C471.051 456.427 469.412 455.709 467 455z"/>
<path style="fill:#444; stroke:none;" d="M1386.67 455.333C1386.22 455.778 1387.28 455.722 1387.33 455.667C1387.78 455.223 1386.72 455.278 1386.67 455.333z"/>
<path style="fill:#444; stroke:none;" d="M474.667 459.333C474.222 459.778 475.278 459.722 475.333 459.667C475.778 459.222 474.722 459.278 474.667 459.333M472 460L473 461L472 460M14.6667 461.333C14.2223 461.778 15.2778 461.722 15.3333 461.667C15.7778 461.222 14.7222 461.278 14.6667 461.333z"/>
<path style="fill:#444; stroke:none;" d="M17 462L17 464L19 464L19 462L17 462z"/>
<path style="fill:#444; stroke:none;" d="M22 470L27 471L25 467C23.0761 468.001 22.9015 468.078 22 470M11 471C12.58 470.316 12.7772 470.195 14 469C11.9076 469.406 11.9802 469.217 11 471z"/>
<path style="fill:#444; stroke:none;" d="M0 471L0 475C0.710226 473.24 0.710211 472.759 0 471z"/>
<path style="fill:#444; stroke:none;" d="M26 482L26 484L28 484L28 482L26 482z"/>
<path style="fill:#444; stroke:none;" d="M19.6667 485.333C19.2222 485.778 20.2778 485.722 20.3333 485.667C20.7777 485.222 19.7223 485.278 19.6667 485.333z"/>
<path style="fill:#444; stroke:none;" d="M47.6667 539.333C47.2222 539.778 48.2778 539.722 48.3333 539.667C48.7778 539.222 47.7222 539.278 47.6667 539.333z"/>
<path style="fill:#444; stroke:none;" d="M50 544C50.5451 545.635 50.3648 545.455 52 546L52 544L50 544M54 549L55 550L54 549M60.6667 554.333C60.2222 554.778 61.2777 554.722 61.3333 554.667C61.7778 554.222 60.7222 554.278 60.6667 554.333z"/>
</svg>
