<?xml version="1.0" standalone="yes"?>
<svg xmlns="http://www.w3.org/2000/svg" width="640" height="480">
<path style="fill:#666; stroke:none;" d="M496 1L496 3C499.93 4.71005 502.713 5.41501 507 5L507 2C503.093 1.52435 499.905 0.0940552 496 1M512 0C513.616 2.88586 514.713 3.29965 518 3L518 1C515.894 0.356232 514.205 0.0941467 512 0M510 4L510 6L513 6L513 4L510 4M513 10C516.581 10.8251 518.769 8.66501 521 6C518.068 6.96671 515.652 8.42053 513 10M374 11L374 13L376 13L376 11L374 11M520 12C521.088 14.9971 521.95 16.0515 525 17C523.676 14.3134 522.687 13.324 520 12M524 18C524.66 21.427 527.53 27.2602 531 28C530.038 24.2602 528.038 21.2674 526 18L524 18M407 35L407 39C410.804 38.1056 414.001 36.7426 418 37C416.175 31.5066 411.427 33.8292 407 35M396 47C394.704 48.5944 394.465 49.0183 394 51L400 51L400 48C400.826 47.8683 402.201 47.897 403.008 47.3966C411.405 42.1892 391.156 36.7931 394.49 45.5023L396 47M538 41C539.219 44.8162 540.916 47.4435 544 50C542.76 46.2628 540.936 43.6167 538 41M399 61C402.16 62.5187 405.509 62.8497 409 63C405.96 60.6971 402.732 61.0029 399 61M555 67C558.618 76.5615 564.97 91.5366 574 97C571.112 89.4226 567.326 82.6375 562.709 76C560.356 72.6165 558.573 69.1621 555 67M411 128C407.184 129.342 407.403 132.251 405.675 135.576C401.008 144.559 400.119 157.662 393 165C393.997 159.109 396.224 153.075 394.567 147.015C393.652 143.668 390.984 141.337 390 138C381.723 134.236 377.735 123.396 369 121L370 127C367.049 126.066 364.047 125.574 361 125L362 132L355 134L355 130C347.08 130.001 340.647 133.174 333 135C334.717 133.16 335.566 132.651 338 132L338 130L332 130L332 127L326 127L328 122C324.848 122.089 322.78 122.51 320 124C319.498 120.74 319.216 118.229 320 115C317.411 115.85 316.424 116.444 315 114C311.309 121.185 310.01 129.046 309 137L305 136C300.152 144.583 299 150.142 299 160C293.91 156.182 289.639 149.116 288 143L293 143C292.735 136.828 290.891 131.057 290 125C283.349 127.186 285.569 134.519 285.742 140C285.992 147.983 286.302 155.256 289.245 162.91C290.519 166.221 293.407 168.131 295.027 171.174C297.026 174.927 296.862 179.878 297.424 184C298.978 195.417 296.579 206.9 300.547 218C302.698 224.017 307.161 227.791 310.152 233.17C313.111 238.491 314.403 247.972 313.877 254C313.328 260.283 307.374 262.892 304.593 268.015C296.415 283.075 287.694 299.188 276 312C273.72 305.765 267.612 305.095 262 302.983C251.72 299.114 240.888 299 230 299C222.78 299 216.212 298.979 210.263 303.803C195.788 315.541 203.022 338.61 208 353C203.479 352.425 199.382 351.03 195 350C198.704 341.14 192.694 334.392 190 326C187.374 325.888 182.882 324.472 180.589 326.067C178.621 327.436 178.391 330.845 178.171 333C177.465 339.896 178 347.071 178 354C187.385 354.032 196.435 356.999 206 357C206 354.704 206.873 355.004 209 354C209.458 357.211 211.05 359.862 211.701 363C212.585 367.258 211.535 371.719 212.34 376C213.676 383.114 218.069 388.952 221.655 395C224.618 399.997 227.114 405.804 232.04 409.231C238.306 413.591 245.183 409.621 249.374 404.399C251.231 402.086 253.978 400.345 255.431 397.741C258.402 392.416 260.35 382.877 259 377C261.237 375.118 261.14 372.741 262.418 370.17C264.82 365.339 270.88 356.536 276 355C277.086 351.941 278.192 350.625 281 349C279.397 355.687 274.464 361.091 274 368C279.397 364.664 285.918 354.729 288.574 349C290.035 345.847 290.052 342.099 291.934 339.129C293.978 335.902 297.944 334.574 300.031 331.401C302.839 327.133 303.167 322.716 308 320C309.76 308.664 315.973 298.725 319.591 288C321.45 282.489 320.878 276.484 323.014 271.015C324.317 267.677 327.376 265.412 328.37 261.961C329.635 257.568 328.842 252.512 329.039 248C329.385 240.109 330.122 232.334 333.141 225C336.337 217.237 336.867 210.015 338.421 202.035C338.821 199.977 337.565 197.343 338.577 195.483C340.427 192.084 344.471 193.604 347 195C350.37 190.592 353.271 187.432 359 187L355 189C358.628 193.326 363.748 193.943 365 200C373.229 200.161 373.822 205.283 378.108 210.715C381.47 214.975 385.804 218.673 389.96 222.116C392.838 224.5 396.921 228.108 397.378 232.127C397.789 235.74 393.83 236.953 392.008 239.39C390.034 242.031 389.678 245.82 389.286 249C387.658 262.215 389.418 275.796 387.871 288.961C386.732 298.661 383.111 308.15 382.17 318C381.61 323.86 380.54 333.268 382.703 338.812C383.939 341.981 387.299 342.718 388.988 345.415C390.619 348.02 391.091 352.966 391.621 356C393.224 365.18 389.077 375.655 389 385L386 385C386 389.973 384.902 397.845 389.299 401.392C392.79 404.208 399.182 400.928 403 400.001C408.724 398.611 414.276 400.465 419.791 399.513C423.677 398.842 425.589 395.335 430 395C430.562 391.975 430.936 389.078 431 386C434.963 384.677 437.795 381.004 440.742 378.08C451.371 367.537 453.766 357.196 456.883 343C458.444 335.894 460.446 327.958 457.355 321C455.228 316.213 452.312 311.938 447.996 308.904C444.61 306.524 439.417 305.094 438 301C441.491 303.857 445.529 305.443 450 306C448.442 300.409 442.913 298.373 439.738 293.83C436.49 289.182 435.714 283.666 432 279C435.495 279.455 438.538 281.322 442 281.737C455.487 283.352 467.28 278.581 472 265C473.539 272.993 464.576 285.025 458 289C460.966 298.763 469.659 288.747 472.556 283.92C476.799 276.849 476.286 262.733 474 255C476.387 252.791 475.028 247.531 471.076 247.882C468.813 248.083 466.791 250.504 465.13 251.831C461.367 254.837 457.813 255.892 457 261C451.54 261 444.966 262.225 443 256C450.667 255.607 459.452 252.222 465.816 247.927C468.871 245.864 470.744 242.848 474 241C471.344 234.367 466.721 240.472 461.999 241.61C458.782 242.384 455.515 242.169 452.468 243.679C449.294 245.251 447.307 248.265 443.957 249.598C438.543 251.751 433.291 251.123 428 254C427.841 251.684 428.138 250.972 426 251C429.191 242.92 437.582 239.67 445 236.133C447.417 234.981 450.497 234.383 452.44 232.44C455.351 229.528 456.414 223.915 457 220C445.724 217.907 432.312 223.189 427 234L425 234C423.761 230.6 423.085 227.623 423 224L428 225L429 221C422.518 219.658 419.027 213.214 415.573 208C411.166 201.35 406.113 194.986 400.845 189C399.073 186.987 392.059 181.398 393.342 178.268C394.436 175.597 399.839 176.915 402 177L402 173L404 173C405.103 185.148 413.253 181.258 422 183.419C426.843 184.615 431.342 188.105 436 190C438.552 191.038 447.625 196.467 448.227 190.89C448.932 184.355 441.076 176.027 439.066 170C434.217 155.465 435.788 139.252 429.525 125C426.813 118.829 424.461 112.555 420.489 107.044C419.043 105.037 416.438 101.48 413.51 103.137C411.289 104.393 411.153 107.785 411.04 110C410.737 115.973 411 122.02 411 128z"/>
<path style="fill:#666; stroke:none;" d="M293.333 147.667C293.278 147.722 293.222 148.778 293.667 148.333C293.722 148.278 293.778 147.222 293.333 147.667z"/>
<path style="fill:#3c3c3c; stroke:none;" d="M315 152C317.874 155.019 320.904 155.662 325 156C324.072 158.646 323.477 160.241 324 163L320 163C321.073 168.163 325.643 171.34 330 174C330.611 165.924 336.213 166.001 343 166C342.63 154.853 324.069 152.075 315 152M419 152C420.381 156.816 424.087 159.137 428 162C430.824 158.892 431.656 156.156 432 152C428.517 154.377 425.511 156.274 423 152L419 152M358 163C362.578 162.544 370.132 161.768 373 158C367.892 158.018 361.142 158.523 358 163z"/>
<path style="fill:#666; stroke:none;" d="M615 159C619.265 172.386 631.166 185.378 639 197C640.569 192.424 636.977 188.616 634.424 185C628.517 176.63 622.894 165.524 615 159z"/>
<path style="fill:#666; stroke:none;" d="M529 182L530 183L529 182z"/>
<path style="fill:#666; stroke:none;" d="M347 196L347 199L349 199L349 196L347 196M350 207C349.159 203.727 347.475 201.031 346 198C339.035 200.809 343.324 208.389 350 207M361 217C363.782 216.188 364.627 215.547 366 213C363.218 213.812 362.373 214.453 361 217M639 215C636.367 219.408 632.843 225.805 640 227C640 223.017 640.552 218.697 639 215M478 217C479.1 221.517 482.164 223.551 485 227C477.533 226.757 477.06 220.857 471 218C471.297 222.666 472.929 234.824 477.533 237.127C482.04 239.382 490.266 235.178 495 234.439C511.585 231.849 528.384 233.298 544 226C539.144 221.041 533.136 224.13 527 223.675C520.578 223.199 514.363 221.855 508 221.174C503.687 220.712 499.29 221.398 495 220.674C488.685 219.61 484.626 215.5 478 217M462 236C464.106 236.644 465.795 236.906 468 237L467 234L472 234C470.575 225.802 464.717 232.149 462 236M0 232L0 239L14 240C10.7 235.66 4.00677 236.393 0 232M357 232C358.013 234.485 358.726 235.598 361 237C360.188 234.218 359.547 233.373 357 232M533 233C534.248 233.685 534.548 233.749 536 234C534.752 233.315 534.452 233.251 533 233M517 234L517 237C519.877 236.682 521.334 236.38 523 234L517 234M350.333 236.667C350.278 236.722 350.222 237.778 350.667 237.333C350.722 237.278 350.778 236.222 350.333 236.667M434 245C440.008 249.48 451.787 241.828 456 237C448.431 237.923 440.871 241.8 434 245M514 238L514 241L517 241L517 238L514 238M354 255L354 257L357 257L357 255L354 255M346 257C343.241 261.839 342.212 267.326 339.465 272C331.486 285.581 322.183 298.363 316.056 313C312.291 321.997 310.247 333.347 309 343C314.34 339.629 315.086 333.422 317.97 328.17C320.158 324.185 323.486 320.851 325.545 316.83C330.702 306.757 332.586 295.314 337.309 285C340.388 278.275 346.483 271.443 347 264C350.006 263.779 351.365 263.545 353 261L348 262L348 257L346 257M520 257L520 259L523 259L523 257L520 257M350 258L349 260L351 260C351 258.147 351.3 258.65 350 258M358 258C359.446 260.283 360.311 260.582 363 261C361.554 258.717 360.689 258.418 358 258M142 260L142 263C145.17 262.827 147.136 262.644 149 260L142 260z"/>
<path style="fill:#666; stroke:none;" d="M489.667 261.333C489.222 261.778 490.278 261.722 490.333 261.667C490.778 261.222 489.722 261.278 489.667 261.333M337 262L335 271C339.254 269.589 339.235 266.042 340 262L337 262M530 269L530 273L532 273L532 269L530 269M351 274C354.762 272.826 358.041 272.044 362 272L362 270C357.953 270 352.01 269.262 351 274M519 274C521.626 273.161 522.161 272.626 523 270C520.751 271.154 520.154 271.751 519 274M535 270C535.718 273.456 536.598 274.929 540 276C538.701 273.237 537.447 271.836 535 270M171 277C172.521 279.11 173.531 280.195 176 281L176 277L171 277M543 282C545.892 290.242 549.274 293.993 558 294C557.539 288.059 552.448 286.966 550 282L543 282M176 285L176 287L180 287L180 285L176 285M135 289C137.543 288.474 138.535 288.122 140 286C137.311 286.418 136.446 286.717 135 289M184.333 288.667C184.278 288.722 184.222 289.778 184.667 289.333C184.722 289.278 184.778 288.222 184.333 288.667M174.667 291.333C174.222 291.778 175.278 291.722 175.333 291.667C175.778 291.222 174.722 291.278 174.667 291.333M464 296C465.614 299.541 467.758 302.8 471 305L472 293L464 296M372 305L376 306C376.956 301.983 377 298.113 377 294C375.136 294 369.486 293.009 368 294C366.241 295.172 366.729 299.888 368 301L370 301C372.064 303.064 372.446 303.215 372 305M350 297L350 307C351.401 303.879 351.73 300.411 352 297L350 297M464 312C466.147 316.136 469.141 319.359 472 323C474.546 316.476 470.296 312.191 464 312M99 316L99 318C100.635 317.455 100.455 317.635 101 316L99 316M552 316L553 317L552 316M107 317C106.977 323.813 105.001 330.139 105 337L107 337C107.898 330.327 109.696 323.751 110 317L107 317M168 317C166.115 324.919 167.773 332.996 166.816 341C165.788 349.586 164.814 358.422 163.572 367C162.729 372.817 161.017 378.068 161 384C163.983 379.658 164.205 373.153 165.081 368C167.128 355.965 168.98 343.236 169 331C169.007 326.468 169.767 321.211 168 317M98 319C97.879 321.661 97.8509 322.471 100 324L100 319L98 319M554 323C557.324 329.981 565.297 335.073 571 340.166C583.293 351.143 594.704 364.353 610 371C596.319 351.578 570.84 342.242 557 323L554 323M532 324L533 325L532 324M551 326C552.312 327.459 553.231 328.157 555 329C553.771 327.13 553.132 326.776 551 326M548.667 328.333C548.222 328.778 549.278 328.722 549.333 328.667C549.778 328.222 548.722 328.278 548.667 328.333M171 331L171 333L173 333L173 331L171 331M150 334L149 350C151.698 345.497 151.893 339.183 152 334L150 334M100.667 337.333C100.222 337.778 101.278 337.722 101.333 337.667C101.778 337.222 100.722 337.278 100.667 337.333M104.333 338.667C104.278 338.722 104.222 339.778 104.667 339.333C104.722 339.278 104.778 338.222 104.333 338.667M171 343L171 346L173 346L173 343L171 343M539 351C539.293 353.733 539.23 356.262 539 359C543.046 357.657 542.953 354.935 543 351L539 351M169.333 357.667C169.278 357.722 169.222 358.778 169.667 358.333C169.722 358.278 169.778 357.222 169.333 357.667M206.333 369.667C206.278 369.722 206.222 370.778 206.667 370.333C206.722 370.278 206.778 369.222 206.333 369.667M529 370L529 379C530.256 376.006 530.256 372.994 529 370M166 380C164.933 383.577 164.684 387.318 164 391C166.73 391.117 169.314 391.499 172 392L172 388L167 389C166.998 385.874 167.213 382.89 166 380M169 381C168.278 383.418 168.052 385.472 168 388L170 388C169.981 385.457 169.985 383.332 169 381M189 382C188.717 388.602 183.972 403.74 190 408C190.001 399.154 191.379 390.841 191 382L189 382M457 382L457 384L461 384L461 382L457 382M100 390C99.6237 394.814 98.1253 399.019 104 400C102.554 396.588 102.041 393.696 102 390L100 390M32 391C32.839 393.885 34.1153 394.289 37 395C35.7191 392.529 34.6798 391.744 32 391M62 392C63.2483 392.685 63.5484 392.749 65 393C63.7517 392.315 63.4516 392.251 62 392M167 392L167 396C167.71 394.241 167.71 393.759 167 392M529 393L529 399C529.951 396.715 529.951 395.285 529 393M91.6667 394.333C91.2222 394.778 92.2778 394.722 92.3333 394.667C92.7778 394.222 91.7222 394.278 91.6667 394.333M61 396L61 398L64 398L64 396L61 396M93 397L93 400C93.6961 398.446 93.6961 398.554 93 397M146 403C146.406 405.092 146.217 405.02 148 406C147.316 404.42 147.195 404.223 146 403M155.667 404.333C155.222 404.778 156.278 404.722 156.333 404.667C156.778 404.222 155.722 404.278 155.667 404.333M128 405L128 407L130 407L130 405L128 405M164 405L165 410C154.856 405.087 154.112 423.223 163.812 417.596C164.853 416.993 165.965 416.155 166.668 415.164C168.566 412.493 167.658 409.571 170 407C167.987 405.775 166.341 405.355 164 405M196 405C197.154 407.249 197.751 407.846 200 409C198.846 406.751 198.249 406.154 196 405M546 407C548.366 417.07 559.794 423.489 560 434C563.669 434.343 565.808 436.369 569 438C564.566 427.459 554.882 414.184 546 407M173 408C172.486 409.647 171.803 411.331 171.459 413.025C171.055 415.016 171.706 422.25 175.416 419.248C179.342 416.072 176.31 409.825 173 408M129.667 409.333C129.222 409.778 130.278 409.722 130.333 409.667C130.778 409.222 129.722 409.278 129.667 409.333M117.333 411.667C117.278 411.722 117.222 412.778 117.667 412.333C117.722 412.278 117.778 411.222 117.333 411.667M190 412L190 414L192 414L192 412L190 412M27 414L27 416L29 416L29 414L27 414M70 414C70 420.083 69.8858 425.999 71 432L75 432C74.9322 425.861 73.0048 420.191 73 414L70 414M91 414L91 418C91.7102 416.241 91.7102 415.759 91 414M187 414C186.89 416.442 186.572 418.623 186 421L189 421L189 414L187 414M196 415L196 423C197.768 420.029 198.055 417.821 196 415M97 417L97 421L100 421L100 417L97 417M80 427C79.1008 434.115 76.5048 442.474 86 443C84.5863 437.305 83.0007 433.02 83 427L80 427M106 430L105 434C107.697 433.422 107.789 432.739 108 430L106 430M213 433L212 438C214.179 436.461 214.573 435.645 215 433L213 433M580 436L580 438L582 438L582 436L580 436M437 437C437.066 444.871 438.876 453.768 442 461C444.78 454.376 441.398 442.367 437 437M557 439L557 441L559 441L559 439L557 439M543 441L544 442L543 441M551 441L552 442L551 441M542 461L543 466C543.916 463.699 543.879 462.623 542 461M197.667 463.333C197.222 463.778 198.278 463.722 198.333 463.667C198.778 463.222 197.722 463.278 197.667 463.333M21 465L21 467L23 467L23 465L21 465M551 466L552 467L551 466M432 476C435.251 481.152 441.571 480 447 480L444 472C439.771 472.927 436.238 475.368 432 476z"/>
</svg>
