<?xml version="1.0" standalone="yes"?>
<svg xmlns="http://www.w3.org/2000/svg" width="640" height="427">
<path style="fill:#666; stroke:none;" d="M43 21L43 26C37.184 26.052 31.816 27.948 26 28C21.964 34.9084 14.9412 30.2602 8.99614 28.8889C6.33233 28.2744 2.1349 27.2122 0.603395 30.3179C-1.70385 34.9968 0 43.8552 0 49L0 94C0 147.994 0.851246 202.092 1 256C5.62126 258.493 15.7289 270.198 11.4761 275.687C8.33745 279.737 2.66063 279.083 0 284L4 284L4 292L0 292L0 302L4 302C4 305.56 3.55115 309.485 4.27778 312.985C5.6085 319.395 12.46 323.204 18.5756 321.275C30.1899 317.613 41.0539 308.879 53 307C54.0327 301.418 54.0811 296.467 49 293C57.1052 292.878 56.6208 304.596 65 306C64.3809 303.883 64.0647 302.198 64 300L67 304C68.9482 304.048 70.1765 304.304 72 305C72.7007 300.085 69.365 296.611 68 292C71.7068 296.066 74.4341 301.504 75 307L69 306C71.1119 309.83 73.8395 309.951 78 310C79.8571 315.281 92.7349 315.77 98 316C100.064 322.243 107.717 326.964 112.741 330.759C114.594 332.159 115.966 334.171 118.129 335.143C121.193 336.519 124.666 335.487 127.486 337.585C134.483 342.79 137.517 350.74 147 352L147 356L150 356L151 363C154.945 359.251 149.88 344.605 144 345C142.26 332.34 131.87 328.56 123 321C125.711 317.628 119.281 311.171 118.784 307C118.272 302.704 121.414 299.147 122 295C125.009 293.98 127.253 291.656 130 290L131 295C132.462 291.989 137.006 284.444 135 282C137.323 277.243 141.355 272.362 141 267C139.086 268.606 138.163 269.783 137 272C138.186 267.419 141.143 263.748 142 259C140.198 261.171 139.094 263.393 138 266C138.439 259.538 144.208 255.478 144 249L147 249L147 246C145.686 246.768 145.768 246.686 145 248C144.391 244.762 143.318 242.011 142 239L139 240C136.922 233.926 131.273 230.465 128.35 224.83C125.841 219.993 126.925 215.993 126 211L130 210C130.541 201.652 131.423 194.325 140 191L139 189L142 189C143.639 183.325 150.675 181.935 156 181.876C169.483 181.725 177.821 188.921 183 201C178.806 198.855 177.368 200.12 174 203C175.078 199.893 176.082 198.517 179 197C175.99 193.114 172.648 191.419 168 190C163.832 195.085 159.372 199.246 154 203C155.103 201.543 155.543 201.103 157 200C152.212 197.042 146.159 202.113 151.319 206.393C155.195 209.608 160.535 205.427 165 207.164C172.516 210.087 174.232 218.957 182 221C181.317 223.525 180.071 225.618 179 228L187 225L187 233C183.103 232.654 181.391 233.993 179 237C183.543 238.237 186.07 237.372 188 233C187.913 237.781 183.22 244.816 178 242C176.203 242 176.479 242.014 175 243C174.232 241.686 174.314 241.768 173 241C174.297 239.406 174.535 238.982 175 237C171.609 235.174 170.502 233.19 173 230C171.384 224.821 170.877 219.662 168 215L163 215C164.534 213.977 164.402 214.195 165 213C160.678 208.458 154.758 210.079 153 216C154.949 215.064 155.55 214.608 157 213C159.466 214.876 162.165 215.761 165 217C163.15 217.202 161.85 217.202 160 217C157.564 219.246 155.227 219.382 152 220C150.771 218.13 150.132 217.776 148 217C149.872 225.484 160.741 230.55 169 231L167 238C170.45 240.042 173.319 243.952 176 247C184.299 245.381 191.249 249.036 196 240C197.161 242.787 198.478 245.392 200 248C205.575 245.068 201.62 242.204 199.85 237.961C198.818 235.489 198.628 232.599 198 230C201.592 228.66 204.2 228.56 208 229C205.908 233.102 206.81 236.556 207 241C211.221 239.299 214.648 237.511 216 233L210 236C211.158 231.368 212.29 226.048 215.698 222.429C218.553 219.398 222.499 220.273 224 216L221 216C223.445 206.758 222.917 199.29 221 190L216 190C216.749 185.964 216.997 182.101 217 178C222.475 180.438 223.932 184.251 224 190L228 189C227.146 191.38 226.334 193.488 226 196L229 194C228.555 203.731 227 213.1 227 223C229.681 224.221 230.779 225.319 232 228C223.946 228.096 224.338 231.975 224 239L220 239L221 244C216.705 244.2 213.426 244.6 212 249L217 248C214.485 255.044 217.469 256.049 224 254L223 256C227.838 253.858 231.911 250.736 237 249C233.428 247.764 230.369 249.628 227 251C231.664 243.738 238.062 235.314 248 237L249 236L249 230C250.145 234.531 249.013 239.316 249 244C244.648 244.199 241.038 245.445 237 247C240.479 249.004 243.29 246.581 247 246.667C248.808 246.709 250.483 247.88 252.278 247.25C253.005 246.995 252.933 245.308 253 245C254.635 245.545 254.455 245.365 255 247C260.563 248.72 257.101 253.821 259.063 257.91C261.391 262.761 268.281 268.51 273 271C271.998 261.762 265.008 255.826 261 248L265 247C265.529 250.829 269.833 249.628 272.995 250.495C275.743 251.249 277.585 253.3 280.134 254.394C282.682 255.486 285.439 255.86 288 257C286.612 257.691 286.139 257.985 285 259C287.021 259.881 288.854 260.496 291 261C289.72 252.731 281.811 251.239 275 248.711C269.871 246.807 266.568 244.736 261 246C265.679 243.338 270.51 245.412 275 243L265 239L267 234L270 238C282.03 237.535 288.607 241.496 294 252C297.969 242.538 290.731 237.399 285.529 230.96C282.378 227.059 280.774 222.191 277.756 218.209C272.261 210.957 259.283 201.281 250 201C254.025 208.009 264.291 209.206 261 219C255.932 215.225 251.523 208.954 245 208C245.953 210.506 246.806 211.445 249 213L246 214C247.259 217.053 250.155 220.524 250.033 223.941C249.856 228.927 241.722 229.763 238 230C237.89 227.558 237.572 225.377 237 223C243.134 218.667 240.733 204.827 242 198C240.518 195.898 240.346 193.393 239.162 191C237.448 187.537 234.742 184.385 233.25 180.866C231.839 177.538 232.936 175.117 229 174L229 168L226 168L225 173C221.963 170.212 220.247 168.327 216 168C215.948 165.472 215.722 163.418 215 161C211.679 161.828 208.43 163.58 205 163.831C199.204 164.256 192.895 163 187 163C186.657 160.194 185.845 157.695 185 155L190 155L190 152C185.675 152.015 182.116 152.716 178 154C177.509 149.972 175.415 146.199 175.17 142.17C175.02 139.699 176.544 137.106 174.392 135.117C169.038 130.17 158.456 130.801 156 123L152 123C151.783 120.169 151.372 119.561 149 118C150.742 116.889 151.119 116.729 152 115C153.594 116.297 154.018 116.535 156 117C155.967 111.007 155.39 107.365 160 103L160 108C162.273 107.331 163.233 106.627 165 105C164.233 102.588 164.395 101.941 166 100L166 98C163.583 96.7354 161.724 96.1821 159 96C157.683 92.2487 154.526 92.2283 151.619 89.8565C146.444 85.6342 143.128 79.8098 136 79C135.515 70.9961 129.583 65.6203 122 65C123.336 63.1744 123.69 62.2473 124 60L120 61C118.401 54.1202 118.679 47.8681 111 46C109.629 47.7742 109.11 48.4005 107 49C103.675 51.206 101.694 49.0907 98.0394 48.6304C94.1994 48.1468 89.8974 48.0884 86 48L86 45L81 45L82 43C79.3582 42.8209 77.4126 42.8165 77 40C69.0006 40.6667 64.7273 38.5972 57.8295 35.3102C51.5685 32.3266 46.4628 32.3641 47 24L43 21M148 60C150.799 62.0833 153.542 62.6964 157 63C154.186 60.572 151.674 60.1084 148 60M540 62C540 64.121 539.93 63.7546 538 65C540.934 67.2302 543.612 69.1458 546 72C543.908 72.4057 543.98 72.2167 543 74C562.106 72.9983 573.297 88.3332 591 92C584.441 83.6419 572.169 80.4647 563.001 75.7261C559.583 73.9599 557.629 71.032 554.545 69.0085C552.16 67.444 548.684 66.9803 546 66L547 63C544.582 62.2776 542.528 62.0519 540 62M361.995 65.527C357.522 66.2376 353.77 69.635 352.577 73.9962C351.396 78.3123 353.921 83.332 359.015 82.4583C363.44 81.6995 366.823 77.1767 367.655 73.0008C368.535 68.5857 367.112 64.7142 361.995 65.527M166 66L166 69L169 69L169 66L166 66M623 66C622.243 70.0936 621.329 73.3502 625 76C624.576 72.6466 624.334 69.0917 623 66M608 69C608.684 70.58 608.805 70.7773 610 72L610 69L608 69M611 72L613 79C610.4 80.7197 610.476 81.9655 611 85L617 84C615.53 80.1897 614.77 77.1187 615 73L611 72M617 72L617 75C618.195 73.7772 618.316 73.5801 619 72L617 72M317.001 78.7423C305.269 83.2505 310.839 100.434 322.995 96.0293C335.587 91.4668 330.151 73.6889 317.001 78.7423M495 80C492.838 86.3867 492.019 93.2738 492 100L494 100C494.297 93.1888 496.858 86.8418 497 80L495 80M549 80C550.473 84.7089 554.379 86.1756 559 87C556.655 83.6452 552.739 81.5703 549 80M626 81C627.314 82.6179 627.877 82.6933 630 83C628.457 81.7333 627.952 81.5108 626 81M502 89C503.034 92.2087 504.108 94.2276 507 96C506.776 91.9483 506.235 89.7354 502 89M561 93C562.397 96.1984 563.649 97.9121 567 99C565.518 95.8959 564.104 94.4821 561 93M624 99C624.168 101.402 624.197 102.46 626 104C625.614 101.857 625.255 100.75 624 99M573 102C573.526 104.543 573.878 105.535 576 107C575.474 104.457 575.122 103.465 573 102M510 105L510 116C515.303 113.868 515.302 107.132 510 105M559 110C559.482 112.364 559.636 112.518 562 113C562 111.203 561.986 111.478 561 110L559 110M570 112C571.704 115.902 572.593 122.01 574.998 125.312C576.558 127.452 579.598 128.391 581.804 129.689C586.168 132.255 590.974 135.397 594.857 138.63C597.32 140.681 598.356 143.699 600.567 145.946C604.041 149.477 609.382 151.496 614 153C607.689 141.449 594.756 134.532 585 126.13C580.383 122.155 575.653 118.046 574 112L570 112M560 115L560 117L562 117L562 115L560 115M562 121L562 126L565 126C564.824 124.122 564.562 122.801 564 121L562 121M483 143C481.308 149.356 486.672 160.769 493.015 163.258C497.143 164.877 501.807 163.19 505.674 165.843C510.36 169.059 512.264 175.295 515 180C518.018 176.579 518.996 171.998 521.17 168C522.668 165.245 524.938 162.446 523.887 159.129C522.122 153.556 515.944 149.402 512.725 144.761C508.359 138.467 506.538 132.092 498 131.174C493.06 130.642 488.022 131.35 484.059 134.558C480.835 137.167 479.22 140.508 483 143M521.667 143.333C521.222 143.778 522.278 143.722 522.333 143.667C522.778 143.222 521.722 143.278 521.667 143.333M437 144C437.768 145.314 437.686 145.232 439 146L439 148C436.616 149.398 434.514 152.824 431.826 153.424C429.564 153.93 427.069 152.16 425 151.478C421.717 150.395 418.431 150.071 415 150C416.506 150.683 417.315 150.826 419 151C417.521 151.986 417.797 152 416 152C420.679 156.052 424.043 157.561 430 159C429.826 161.45 430.095 162.696 431 165C431.683 163.494 431.826 162.685 432 161C435.051 161.953 437.799 162.796 441 163C442.018 155.158 448.829 145.587 437 144M358 150C360.106 150.644 361.795 150.906 364 151L365 147C361.885 147.216 360.163 147.723 358 150z"/>
<path style="fill:#666; stroke:none;" d="M295 154C294.043 155.517 293.613 156.338 293 158C294.63 156.485 295.163 156.145 295 154M360 157L360 159L364 160L364 156L360 157M307 165C307.373 168.629 307.986 171.417 307 175C302.728 172.821 300.011 173.544 296 176C298.004 179.604 297.997 182.948 298 187C298.47 187 301.793 187.31 302 187C303.546 184.681 301.141 184.285 304 185C305.29 179.311 309.838 172.959 314 169C313.166 172.137 312.411 174.231 316 175C316.218 176.932 317.331 178.908 317.235 180.871C317.129 183.027 315.664 184.877 315.443 187.039C314.983 191.546 316.365 200.485 319.313 204.127C321.948 207.382 327.519 209.511 331 211.833C337.56 216.21 344.944 219.533 351.231 224.282C353.576 226.054 355.046 228.562 357.245 230.458C361.006 233.703 364.539 234.872 366 240C371.574 241.447 376.443 246.658 381.428 249.66C387.866 253.538 395.92 256.481 403 259C402.446 254.165 402.813 251.806 406 248C406.369 252.517 408.604 257.507 407.486 262C405.763 268.925 400.607 275.029 398.637 282C397.643 285.518 398 289.382 398 293C399.613 292.018 399.493 291.89 401 293L403 284C403.644 286.106 403.906 287.795 404 290C406.54 285.259 407.874 279.365 408 274L410 274C410 282.339 409.473 290.774 411 299C416.789 295.618 415.396 285.941 414.83 280C413.798 269.152 415.354 257.83 413.867 247.09C413.222 242.435 409.749 238.8 409 234L405 234L406 237C403.919 237.991 401.678 239.714 399.271 238.922C396.028 237.855 393.049 234.745 390 233.12C384.646 230.265 379.434 227.06 374 224.374C368.72 221.765 363.2 220.15 360 215C364.899 214.613 370.171 214.534 375 213.741C377.462 213.336 380.382 212.582 382.624 211.469C393.26 206.19 389.195 194.531 379.961 190.367C374.022 187.689 369.153 190.282 364.015 193.35C361.071 195.109 359.054 196.679 357.928 200.019C356.388 204.587 356.013 209.223 356 214C347.634 210.517 336.409 204.901 331.739 196.675C329.322 192.418 328.933 187.449 327.009 183.039C325.592 179.791 323.172 177.388 322 174L316 174C316.058 171.216 316.352 168.709 317 166L307 165z"/>
<path style="fill:#666; stroke:none;" d="M421 171C419.618 173.42 418.637 174.061 416 175C416.132 179.455 416.981 182.712 421 185C423.018 179.945 425.209 176.579 424 171L421 171M431 189L431 194L435 194L435 197L440 197C441.913 191.272 448.645 187.341 448.758 181C448.806 178.268 446.159 172.334 442.584 174.89C438.518 177.798 440.563 185.114 435.877 187.972C434.358 188.899 432.701 188.871 431 189M294 178C293.411 181.698 293.925 185.27 294 189C296.419 185.765 295.686 181.91 296 178L294 178z"/>
<path style="fill:#666; stroke:none;" d="M401 181C401.987 183.853 403.064 184.373 406 185C405.013 182.147 403.936 181.627 401 181M394 182C391.724 185.659 389.094 188.79 388 193C391.835 190.179 395.561 186.614 397 182L394 182M301 209C296.416 205.544 292.93 201.789 287 201L287 205C293.765 207.302 298.518 213.455 301 220C299.406 218.703 298.982 218.465 297 218L298 222C295.636 221.553 292.469 220.375 290.111 221.333C286.512 222.796 288.156 226.391 291 227L288 232C289.688 232.689 290.069 232.676 291 234C293.15 234.049 294.919 234.438 297 235C296.632 240.613 299.172 246.737 305 248C304.582 245.311 304.283 244.446 302 243C304.62 239.175 307.412 229.374 301 228C301.615 225.176 301.344 222.873 301 220C304.161 224.23 305.886 230.993 311.094 233.157C316.259 235.303 322.107 231.631 326.891 234.897C331.893 238.312 331.425 244.208 325 244C328.806 253.593 348.608 259.928 354 249C347.904 245.453 344.312 238.968 338 236L339 233L334 233L335 230C331.675 229.017 326.172 229.921 323.603 227.397C321.291 225.127 320.864 219.94 319.579 216.961C316.743 210.382 312.415 201.334 307.236 196.238C304.91 193.949 295.379 190.278 295.361 196.11C295.348 200.485 299.035 205.253 301 209M312 195C311.014 196.479 311 196.203 311 198C312.289 196.557 312.401 196.766 312 195M446 195L446 198C435.374 198 424.533 198.669 414 200C415.24 202.444 416.82 203.746 418.91 205.519C421.151 207.42 423.212 210.285 426.093 211.229C435.018 214.154 441.981 203.772 450.039 203.234C456.385 202.81 467.501 209.341 472 203C465.293 201.462 458.948 199.144 452 199C450.881 195.807 449.284 195.375 446 195M515 196C514.12 198.021 513.504 199.854 513 202C515.25 200.292 515.808 198.721 515 196z"/>
<path style="fill:#666; stroke:none;" d="M387 210C384.071 214.277 382.168 218.393 387 222L386 216C387.478 216.986 387.203 217 389 217L389 210L387 210M500 210C500.822 213.281 503.26 222.384 508 218L510 218C510.98 219.783 510.908 219.594 513 220C512.144 215.864 513.235 213.683 515 210C510.021 210.711 505.022 210.003 500 210z"/>
<path style="fill:#666; stroke:none;" d="M242 224C242.8 223.973 244.189 224.072 245.047 223.852C250.249 222.519 245.586 217.417 242.743 221.162C242.214 221.859 242.156 223.288 242 224z"/>
<path style="fill:#666; stroke:none;" d="M184 227C181.526 228.95 179.065 230.625 177 233C180.558 232.523 184.919 231.28 184 227M619 235C617.333 235.005 615.639 234.944 613.976 235.094C613.027 235.18 611.962 235.236 611.059 235.573C603.257 238.478 612.369 245.214 617.107 239.707C618.323 238.293 618.582 236.737 619 235z"/>
<path style="fill:#666; stroke:none;" d="M574 254C575.586 253.981 577.369 254.134 578.916 253.682C584.817 251.958 581.228 244.56 576.031 250.184C574.991 251.31 574.593 252.632 574 254M192 250C191.374 253.958 188.889 255.697 187 259L194 258C193.761 255.08 193.378 252.588 192 250M322 250C322.07 251.952 322.354 251.94 321 253L321 255L323 256C321.754 256.75 320.619 257.264 319.678 258.424C311.104 269 328.85 272.523 330 281L337 282C333.271 283.414 330.414 286.022 326.826 287.476C323.43 288.852 319.559 288.703 316 289.321C313.168 289.813 310.052 291.33 307.171 290.361C304.898 289.597 302.91 287.394 301 286C299.566 288.219 298.271 290.262 295.826 291.492C293.412 292.705 289.937 292.656 288.604 295.419C285.579 301.691 292.428 310.718 292.778 317C293.265 325.754 288.189 333.658 287 342L290 341C290.145 345.483 291.641 348.249 294 352C286.078 345.886 280.216 335.46 275 327L285 331C283.227 325.902 277.232 325.628 273.13 322.787C270.622 321.051 269.308 318.528 267.748 315.996C264.55 310.807 256.756 302.316 259 296L256 295C262.787 290.204 262.713 285.498 261 278C257.944 279.215 254.342 281.946 251 281.905C244.875 281.829 239.473 274.317 234 272C236.978 279.858 241.932 285.632 244 294C238.712 288.222 235.191 279.384 228 276C231.681 287.002 237.402 300.278 245.301 308.91C252.896 317.212 264.1 324.01 266 336C273.584 340.261 279.274 353.732 281 362C283.539 362 283.309 363.614 284 366L286 366C287.487 363.64 289.609 357.497 292.273 356.482C295.862 355.114 303.487 364.029 304.227 367.09C304.907 369.905 303.353 373.252 302.808 376C301.151 384.357 300.486 397.815 311 400C310.211 394.641 307.797 389.501 308.184 384C308.653 377.335 312.843 369.468 311.595 363.001C310.102 355.261 301.004 351.656 298.247 343.996C295.992 337.732 299.469 334.025 299.942 328C300.573 319.97 297.454 311.992 298.062 304.004C298.275 301.213 299.295 298.839 302.059 297.757C305.272 296.498 308.699 298.133 312 297.698C318.797 296.802 326.03 291.428 332 297L337 296C338.944 288.572 346.918 291.303 353 292C351.919 289.879 351.121 289.081 349 288C351.884 286.558 352.056 285.514 354 286C350.994 278.419 342.258 274.064 337 268C340.778 266.822 342.156 264.407 344 261C336.4 257.836 329.044 254.241 322 250M254 261C254.939 263.637 255.58 264.618 258 266C257.492 262.987 256.841 262.127 254 261M554 310C556.909 308.626 560.898 306.513 562.686 303.701C564.121 301.445 563.74 298.641 564.938 296.3C566.421 293.399 569.308 291.604 572 290C571.995 296.001 569.422 302.153 570.671 307.999C571.068 309.859 571.601 312.824 573.469 313.824C577.778 316.13 578.679 307.198 579.188 305.004C580.536 299.197 585.609 295.435 585.708 289C585.756 285.833 584.034 282.912 583 280C576.368 281.072 573.606 278.657 573 272L570 272L570 263C562.189 263.606 559.285 271.418 557.621 277.996C556.892 280.88 554.831 283.262 554.289 286.17C553.741 289.113 554.821 292.056 554.821 295C554.821 299.981 554 304.973 554 310M245 269L242 273C244.143 271.869 245.099 271.432 245 269M286 274C286.334 278.364 287.496 280.522 292 279C290.164 276.553 288.763 275.299 286 274M296 274L296 277L298 277L298 274L296 274z"/>
<path style="fill:#666; stroke:none;" d="M251 275L250 281C252.945 279.802 255.189 278.63 257 276L251 275z"/>
<path style="fill:#666; stroke:none;" d="M304.333 282.667C304.278 282.722 304.222 283.778 304.667 283.333C304.722 283.278 304.778 282.222 304.333 282.667z"/>
<path style="fill:#666; stroke:none;" d="M175 290C176.977 293.78 179.138 293.28 183 293C182.172 289.134 178.339 289.13 175 290M161 294L170 293C167.211 290.562 161.952 289.558 161 294M367 293L380 304L383 303C383.564 304.752 383.919 305.542 385 307C387.528 297.593 374.373 293.644 367 293M132 295C131.75 300.827 131.75 306.173 132 312C133.608 310.55 134.064 309.949 135 308C132.162 304.17 134.427 301.025 136 297L132 295M356 295C357.58 298.723 358.97 299.915 363 299L363 297C360.57 295.818 358.687 295.27 356 295M271 296C271.577 298.609 271.92 300.333 274 302C273.705 298.999 273.75 297.438 271 296M155 299L155 301C158.078 300.936 160.975 300.562 164 300C161.11 298.787 158.126 299.002 155 299M100 302L100 304L102 304L102 302L100 302M279.333 305.667C279.278 305.722 279.222 306.778 279.667 306.333C279.722 306.278 279.778 305.222 279.333 305.667M53 309C54.2535 316.365 58.3145 321.927 62.1034 328.17C63.974 331.252 64.8749 334.051 68 336C67.7075 331.642 65.2396 328.247 64.608 323.999C63.9852 319.81 65.2332 315.116 66 311C60.6788 311 57.586 311.211 53 309M209 332C208.306 323.208 207.194 317.357 213 310C205.436 308.003 204.517 313.852 203.718 320C203.353 322.816 202.452 326.1 204.024 328.722C205.156 330.61 207.089 331.225 209 332M228 310C228.012 314.238 227.467 318.406 232 320C232.171 323.906 233.449 335.762 239.004 335.794C243.373 335.819 246.759 327.317 248 324C245.348 321.809 243.339 319.946 240 319L241 324C238.988 322.416 237.54 321.033 236 319C237.479 319.986 237.203 320 239 320L239 316L248 319C243.521 311.377 236.128 310.001 228 310z"/>
<path style="fill:#666; stroke:none;" d="M152 319C154.052 319.874 155.747 319.953 158 320L158 318C155.795 318.094 154.106 318.356 152 319M94 322C94.0202 326.799 96.0227 328.013 97.7778 332.083C99.2975 335.608 98.7802 340.1 103 341C102.871 339.372 101.805 336.681 102.5 335.167C103.447 333.103 106 332.731 106 330C106 324.724 97.507 323.127 94 322M252 326C252.674 328.297 252.965 328.774 255 330C254.316 327.791 253.92 327.297 252 326M230 329L230 342L234 342L232 338C235.304 340.595 236.734 344.608 240 347C238.778 340.588 234.692 334.912 232 329L230 329M79 330C79.4939 335.974 83.3556 340.189 84 346L88 345C88.5954 347.778 92.3115 349.563 93.6667 345.889C94.602 343.353 92.6828 341.127 91.6667 339C88.7711 332.939 85.7383 330.595 79 330M378 333C383.038 336.117 389.363 340.425 395 342C393.448 335.051 384.843 328.359 378 333M171 333C172.314 334.618 172.877 334.693 175 335C173.542 333.919 172.752 333.564 171 333M257 336L257 339L260 339L260 336L257 336M557 345C557.811 345.125 559.234 345.5 560.141 345.433C569.762 344.717 560.394 333.242 557.318 341.103C556.876 342.233 557.038 343.84 557 345M240 340C240.812 342.782 241.453 343.627 244 345C245.043 342.905 245.603 341.301 246 339L240 340M12 349C13.2483 349.685 13.5484 349.749 15 350C13.4661 351.023 13.5977 350.805 13 352C15.6297 354.098 16.1792 357.375 19 359C18.9211 361.518 19.3923 363.538 20 366C22.0762 365.968 23.3945 365.774 25 367C30.7762 364.648 35.0254 366.53 41 367C39.0755 360.005 31.334 355.796 26.1196 351.15C24.252 349.487 22.5164 347.043 19.8958 346.617C17.0961 346.162 14.2688 347.575 12 349M236 352C237.878 351.824 239.199 351.562 241 351L241 349L240 348C237.508 348.97 236.854 349.475 236 352M223 350C223.301 355.964 226.179 361.206 226.917 367C227.387 370.692 225.544 375.045 230 376L228 384C233.342 388.512 238.423 389.724 243 383C244.186 384.186 244.584 384.528 246 385L245 381L252 377C251.063 375.153 249.408 373.109 249.307 370.974C249.126 367.166 253.216 363.819 254 360C251.653 360 250.584 358.279 248 358L244 364C245.797 364 245.521 363.986 247 363L246 369C243.538 365.732 242.012 362.286 238 361L239 368C232.682 362.169 227.981 356.83 223 350M570 378C570 373.595 570.318 369.376 570.699 365.001C571.16 359.706 568.065 357.063 564.254 353.9C562.423 352.381 559.793 350.656 557.603 352.647C555.225 354.809 556.038 359.288 556.764 361.985C558.561 368.664 562.636 377.17 570 378M204 360C205.22 359.822 206.476 359.841 207.562 359.142C213.844 355.095 206.691 349.298 204.318 356.014C203.895 357.211 204.04 358.772 204 360M0 356C3.99916 357.919 7.76198 358.253 10 354C6.52767 354.276 3.29762 354.883 0 356M202 372C206.387 370.544 205.985 367.15 206 363C200.58 363.907 201.654 367.408 202 372M148 372L158 368C155.475 360.424 149.376 367.468 148 372M19 367C15.4301 369.708 11.3797 368.684 9 373C12.0809 374.9 15.6396 376.045 18.5756 378.143C23.1726 381.427 26.1367 385.216 32 386L32 390L37 390C37.6656 396.002 42.0986 399.91 45 405C42.3898 405.562 41.3255 407.383 44.1111 409.306C46.5348 410.978 50.1903 410.953 53 411C50.7702 402.085 40.8232 398.947 41 389C33.2924 381.602 30.8826 370.139 19 367M55 405C58.4213 402.601 58.0393 399.805 59.5239 396.174C60.6042 393.531 62.8685 391.233 64.7346 389.112C75.9015 376.419 90.7334 372.955 107 373C105.084 371.676 103.358 371.446 103 369C94.1199 370.05 85.678 369.77 77.2855 373.545C74.2999 374.887 71.7623 377.36 68.9992 379.111C65.602 381.264 60.894 382.617 58.7647 386.224C55.4356 391.863 56.9289 398.816 55 405M179 374C177.245 387.023 172.59 400.351 169 413C165.58 403.501 162.167 401.007 152 401C152 402.797 152.014 402.521 153 404L149 404C150.987 408.263 151.768 411.324 151 416C157.138 421.252 159.339 426.922 168 427C170.212 415.268 174.108 403.391 177.746 392C179.671 385.974 182.444 380.374 183 374C181.805 374.598 182.023 374.466 181 376C180.232 374.686 180.314 374.768 179 374M255 379C255.613 380.661 256.043 381.483 257 383L253 383L252 390C255.676 391.806 257.379 393.936 258 398C262.814 399.213 267.112 402.152 270.7 405.594C272.948 407.75 274.023 409.94 277 411C276.932 402.776 273.631 395.588 277 388C275.686 388.768 275.768 388.686 275 390C269.174 386.405 264.24 381.141 257 382C256.316 380.42 256.195 380.223 255 379M76.6667 381.333C76.2222 381.778 77.2778 381.722 77.3333 381.667C77.7778 381.222 76.7222 381.278 76.6667 381.333M494 395C501.465 394.912 505.324 391.304 507 384C498.254 384.978 494.821 384.966 494 395M582 384C580.996 387.175 579.4 389.985 578 393C584.68 394.778 586.038 389.439 588 384L582 384M14 389L27 390L27 387C22.4452 386.906 16.9785 384.802 14 389M493 386C483.341 387.42 492.234 395.831 493 386M130 397C131.154 399.249 131.751 399.846 134 401C132.67 399.247 131.753 398.33 130 397M148 399C150.871 399.419 152.214 399.34 154 397C151.659 397.355 150.013 397.775 148 399M18 401C20.3013 400.603 21.9045 400.043 24 399C21.2378 397.409 18.7139 397.669 18 401M503.019 398.989C500.979 399.951 498.774 401.798 498.451 404.166C497.983 407.611 501.238 410.643 504.536 409.123C506.674 408.139 511.432 403.564 511.369 401.019C511.277 397.279 505.148 397.985 503.019 398.989M142 399C143.223 400.195 143.42 400.316 145 401C144.02 399.217 144.092 399.406 142 399M8 403L14 403C11.9666 400.359 9.89969 400.237 8 403M252 404C253.949 403.064 254.55 402.608 256 401C253.703 401.674 253.226 401.965 252 404z"/>
<path style="fill:#666; stroke:none;" d="M142 406C143.223 407.195 143.42 407.316 145 408C143.777 406.805 143.58 406.684 142 406M520 415C522.172 414.536 523.958 413.895 526 413C524.189 406.599 519.004 408.952 520 415M134 409L134 411L137 411L137 409L134 409M138 411C138.98 412.783 138.908 412.594 141 413C139.777 411.805 139.58 411.684 138 411M53 412C54.226 416.629 56.7629 419.752 61 422C59.7698 417.952 56.4968 414.357 53 412M208 424C210.16 426.996 212.426 426.958 216 427C217.974 422.589 219.109 418.781 220 414C214.549 416.277 213.888 422.306 208 424M205 426L206 427L205 426z"/>
</svg>
