<?xml version="1.0" standalone="no"?>
<!DOCTYPE svg PUBLIC "-//W3C//DTD SVG 20010904//EN"
 "http://www.w3.org/TR/2001/REC-SVG-20010904/DTD/svg10.dtd">
<svg version="1.0" xmlns="http://www.w3.org/2000/svg"
 width="1274.018701pt" height="1080.000000pt" viewBox="0 0 1274.018701 1080.000000"
 preserveAspectRatio="xMidYMid meet">
<metadata>
Created by potrace 1.12, written by Peter Selinger 2001-2015
</metadata>
<g transform="translate(0.059704,1080.000000) scale(0.100000,-0.100000)"
fill="#666" stroke="none">
<path d="M2240 10784 c0 -9 13 -28 29 -43 17 -16 33 -41 37 -57 4 -16 15 -40
26 -53 10 -13 18 -37 18 -53 0 -27 24 -159 37 -202 4 -15 7 -16 14 -5 7 11 9
11 9 -3 0 -9 -4 -18 -9 -20 -6 -2 -4 -44 4 -108 8 -58 15 -134 15 -170 0 -36
4 -72 10 -80 18 -28 23 19 16 142 -5 84 -3 124 5 134 6 7 11 30 11 49 0 28 3
35 15 31 10 -4 13 -1 11 12 -2 9 -10 16 -16 15 -18 -4 -15 34 3 41 19 7 19 20
1 39 -8 7 -16 33 -17 57 l-3 43 48 3 c64 2 79 18 35 37 -19 8 -42 24 -52 35
-26 29 -40 96 -28 138 l9 34 -114 0 c-98 0 -114 -2 -114 -16z"/>
<path d="M2863 10793 c26 -2 67 -2 90 0 23 2 2 3 -48 3 -49 0 -68 -1 -42 -3z"/>
<path d="M0 10579 c0 -95 3 -126 15 -139 8 -9 17 -40 19 -68 3 -29 12 -59 20
-68 29 -29 15 -64 -25 -64 -27 0 -29 -3 -29 -40 0 -37 2 -40 28 -40 15 0 33 5
40 12 9 9 12 8 12 -5 0 -9 11 -27 25 -39 25 -22 34 -58 14 -58 -6 0 -17 -7
-26 -15 -14 -14 -18 -13 -43 15 -15 16 -32 30 -38 30 -9 0 -12 -112 -12 -436
l0 -437 70 6 c53 4 73 2 84 -9 21 -20 26 -18 26 11 0 14 7 28 15 31 8 3 17 14
20 23 10 31 52 41 175 41 150 0 156 -4 159 -109 1 -40 7 -81 13 -91 9 -14 7
-23 -10 -45 l-22 -28 89 -87 c88 -86 88 -87 74 -114 -16 -30 -11 -29 -99 -9
-40 9 -161 -117 -137 -141 10 -10 19 -7 43 14 26 23 40 25 40 8 0 -7 16 -26
35 -41 26 -21 44 -27 68 -25 35 3 33 -2 53 141 l7 47 63 -6 c45 -5 68 -3 79 6
19 16 19 25 -2 46 -16 16 -16 18 5 35 31 25 115 16 159 -18 32 -23 36 -23 94
-12 45 9 63 9 72 0 6 -6 24 -11 39 -11 17 0 27 -5 26 -12 -2 -8 9 -14 24 -16
15 -2 36 -14 47 -28 12 -15 34 -27 56 -31 20 -3 41 -13 48 -22 11 -15 37 -34
63 -47 6 -3 28 5 48 17 34 20 36 24 30 53 -4 17 -8 45 -10 61 -1 17 -3 33 -3
36 -1 4 -29 12 -63 19 -35 6 -68 16 -73 20 -22 18 -149 40 -196 34 -45 -6 -51
-4 -90 30 -24 20 -47 36 -52 36 -5 0 -22 11 -37 24 -21 17 -46 25 -97 30 -77
8 -199 59 -209 89 -3 9 -14 17 -25 17 -21 0 -25 10 -8 27 6 6 8 16 5 22 -9 14
-36 14 -36 0 0 -6 -14 3 -31 20 -25 26 -29 36 -24 61 4 17 12 30 18 30 6 0 2
6 -8 14 -17 12 -17 17 -5 46 7 18 14 55 14 82 l1 50 50 20 c58 23 114 19 175
-12 22 -11 53 -19 70 -18 19 1 38 -6 54 -21 15 -14 31 -21 41 -17 43 16 63
157 27 195 -9 10 -29 34 -44 53 -35 46 -97 78 -153 78 -24 0 -55 5 -68 11 -18
8 -34 7 -67 -4 -37 -12 -48 -13 -76 -1 -42 18 -54 18 -54 0 0 -8 -10 -22 -22
-30 -44 -31 -217 -14 -268 27 -26 21 -62 103 -58 133 2 25 8 29 35 32 18 2 43
-4 55 -12 12 -9 35 -16 51 -16 15 0 38 -7 52 -16 30 -20 142 -54 177 -54 15 0
30 5 33 10 3 6 24 10 45 10 21 0 42 5 45 10 3 6 15 10 26 10 24 0 25 18 2 36
-21 16 -53 18 -53 4 0 -6 -10 -9 -22 -7 -36 5 -151 64 -170 86 -10 12 -24 21
-32 21 -14 0 -26 54 -31 143 -1 26 -9 55 -16 65 -8 9 -23 34 -33 55 -11 20
-22 37 -26 37 -4 0 -13 14 -20 30 -7 17 -20 35 -30 40 -9 5 -38 51 -64 103
-64 130 -78 141 -177 146 l-79 3 0 -123z m166 -573 c18 -19 18 -22 -3 -30 -17
-7 -33 9 -33 32 0 16 18 15 36 -2z m1342 -1123 c2 -8 -5 -13 -17 -13 -21 0
-35 13 -24 24 10 10 36 3 41 -11z"/>
<path d="M4100 10167 c0 -16 39 -45 41 -30 0 4 4 -2 9 -14 14 -33 46 -29 59 7
5 17 9 31 8 31 -1 1 -13 3 -27 4 -14 2 -40 6 -57 10 -27 6 -33 4 -33 -8z"/>
<path d="M11922 9986 c-6 -6 -13 -36 -17 -66 -11 -85 -29 -118 -72 -136 -44
-19 -96 -13 -125 13 -16 14 -38 18 -109 18 l-89 0 5 -26 c10 -44 -19 -97 -60
-115 -59 -24 -107 -2 -151 72 -10 17 -12 16 -26 -11 -8 -17 -20 -61 -26 -100
-7 -38 -15 -80 -18 -91 -5 -18 -1 -21 20 -21 14 0 26 3 26 7 0 4 29 16 65 26
36 10 65 22 65 26 0 5 6 8 14 8 8 0 37 11 64 25 28 14 57 25 65 25 19 0 191
56 234 75 17 8 43 16 57 17 14 1 26 5 26 9 0 8 88 43 112 45 21 2 63 17 146
55 34 16 69 29 76 29 8 0 18 5 21 11 5 7 -4 8 -28 4 -40 -8 -62 2 -124 52 -48
39 -136 68 -151 49z"/>
<path d="M12381 9960 c-58 -27 -46 -37 18 -16 27 9 57 16 65 16 8 0 18 5 21
10 11 17 -58 11 -104 -10z"/>
<path d="M4050 9903 c0 -5 7 -17 15 -27 14 -19 15 -19 15 7 0 17 -5 27 -15 27
-8 0 -15 -3 -15 -7z"/>
<path d="M3185 9884 c-38 -8 -93 -19 -121 -25 -55 -11 -76 -37 -48 -60 8 -6
14 -24 14 -40 0 -16 5 -29 11 -29 8 0 10 -19 7 -58 -3 -51 -9 -64 -43 -100
-21 -23 -48 -42 -59 -42 -36 0 -42 -13 -54 -113 -7 -54 -17 -104 -23 -110 -5
-7 -28 -41 -51 -77 -23 -36 -54 -77 -70 -91 -16 -15 -28 -36 -28 -51 0 -27
-22 -52 -56 -62 -33 -10 -49 -61 -49 -158 0 -82 1 -88 29 -117 17 -17 32 -31
35 -31 3 0 16 16 29 35 24 38 42 44 62 20 7 -8 21 -15 31 -15 15 0 19 7 19 36
0 31 3 35 20 29 11 -3 20 -2 20 3 0 14 -26 33 -33 25 -13 -12 -7 35 9 73 15
35 15 39 0 50 -9 6 -16 23 -16 36 0 21 9 29 49 47 78 33 108 24 94 -27 -6 -26
17 -69 61 -111 19 -19 33 -38 30 -43 -3 -4 -1 -8 4 -8 9 0 36 -47 37 -66 0 -6
6 -18 13 -26 17 -20 72 -130 72 -144 0 -6 10 -24 22 -40 12 -15 23 -33 24 -40
1 -6 25 -53 53 -104 28 -51 51 -98 51 -105 0 -7 7 -18 15 -25 8 -7 15 -27 15
-46 0 -30 -3 -33 -29 -32 -29 1 -110 -31 -111 -44 0 -11 43 -37 77 -47 25 -7
35 -5 58 15 33 29 50 30 70 7 52 -60 95 -116 95 -124 0 -5 6 -9 14 -9 19 0 55
-46 63 -79 3 -14 15 -35 26 -45 22 -22 56 -93 57 -118 0 -10 -10 -23 -22 -29
-21 -11 -21 -12 -1 -28 54 -44 107 -184 93 -246 -6 -28 -4 -40 12 -60 11 -14
17 -25 14 -25 -3 0 3 -9 14 -20 11 -11 20 -29 20 -39 0 -11 14 -31 32 -46 39
-33 82 -98 98 -150 7 -22 21 -60 31 -85 16 -40 26 -73 72 -235 6 -21 20 -46
30 -55 23 -19 46 -71 57 -129 6 -36 5 -46 -11 -62 -22 -22 -40 -24 -58 -6 -11
10 -12 5 -8 -28 6 -56 28 -107 55 -128 15 -12 22 -29 22 -51 0 -38 34 -122 53
-129 6 -3 3 -6 -8 -7 -16 -1 -14 -4 10 -15 43 -20 60 -36 79 -72 15 -30 21
-33 61 -33 34 0 48 -5 63 -25 18 -22 18 -28 6 -76 -15 -56 -38 -98 -57 -104
-7 -2 -28 -6 -49 -8 -33 -5 -37 -3 -43 21 -7 27 -7 27 -16 5 -4 -13 -15 -23
-24 -23 -12 0 -11 -7 6 -40 26 -49 16 -85 -37 -144 -29 -32 -34 -46 -32 -75
l3 -36 72 -3 c62 -2 73 -6 78 -23 4 -11 17 -24 30 -29 15 -6 25 -20 29 -44 6
-32 11 -37 58 -51 l51 -15 32 36 c34 38 59 47 88 32 13 -7 17 -21 17 -63 0
-34 5 -59 15 -69 8 -8 15 -23 15 -34 0 -10 11 -29 25 -42 14 -13 23 -25 21
-27 -2 -2 7 -16 19 -29 48 -52 42 -104 -14 -126 -20 -7 -28 -6 -37 7 -11 15
-14 15 -33 -4 -12 -12 -21 -29 -21 -38 -1 -23 -35 -48 -89 -64 -23 -7 -48 -20
-54 -29 -7 -9 -30 -20 -52 -23 -65 -10 -71 -12 -98 -30 -15 -9 -33 -17 -40
-17 -8 0 -26 -9 -40 -20 -14 -12 -41 -26 -59 -33 -36 -13 -108 -58 -108 -68 0
-4 -19 -26 -43 -50 -24 -24 -52 -55 -62 -69 -28 -35 -88 -78 -116 -84 -74 -14
-89 -30 -89 -97 0 -30 -3 -37 -15 -33 -19 8 -45 -13 -45 -35 0 -9 -13 -35 -29
-57 -32 -43 -44 -88 -49 -181 -2 -25 -10 -36 -39 -54 -48 -29 -62 -48 -62 -79
0 -27 22 -64 32 -53 4 3 7 -6 7 -20 0 -17 -11 -36 -29 -53 -17 -15 -33 -40
-37 -58 -16 -74 -54 -120 -78 -96 -6 6 -16 66 -22 133 -8 94 -11 108 -13 60
-1 -56 -4 -64 -30 -82 -36 -26 -40 -26 -123 2 -44 14 -70 28 -74 41 -5 16 -9
15 -33 -12 -22 -23 -34 -29 -55 -25 -54 11 -84 -50 -50 -102 12 -18 15 -43 13
-92 -2 -48 0 -67 9 -66 6 2 9 -3 6 -11 -3 -8 0 -17 6 -21 9 -6 9 -9 0 -15 -9
-6 -9 -12 0 -30 17 -32 6 -50 -34 -50 -42 0 -73 -15 -115 -59 l-32 -33 21 -15
c25 -18 44 -59 41 -90 -2 -21 2 -23 44 -23 50 0 84 26 85 64 0 25 28 45 64 46
43 0 96 37 96 65 0 13 4 26 9 29 13 8 20 -85 8 -109 -6 -11 -9 -46 -8 -78 2
-49 -2 -62 -23 -88 -15 -17 -26 -37 -26 -44 0 -7 -16 -31 -36 -52 -20 -21 -45
-55 -55 -76 -11 -20 -24 -37 -29 -37 -6 0 -10 -6 -10 -13 0 -8 -22 -29 -50
-48 -27 -19 -50 -39 -50 -45 0 -13 -116 -134 -129 -134 -5 0 -38 -25 -73 -55
-34 -30 -69 -55 -75 -55 -7 0 -13 -5 -13 -10 0 -15 -125 -70 -158 -70 -31 0
-125 -36 -162 -63 -35 -25 -87 -23 -95 4 -10 29 -34 57 -73 81 -30 18 -65 19
-60 1 6 -24 -31 -103 -48 -103 -7 0 -18 -8 -23 -19 -9 -16 -5 -23 24 -42 19
-13 40 -34 47 -47 7 -13 24 -30 38 -37 27 -15 67 -52 103 -98 19 -23 33 -29
99 -37 43 -5 85 -14 95 -19 10 -6 42 -20 70 -32 29 -12 53 -25 53 -29 0 -11
187 -88 230 -96 19 -3 45 -11 58 -17 30 -14 142 7 201 39 24 13 54 24 66 24
12 0 48 9 81 20 32 11 68 20 79 20 11 0 30 7 42 15 12 8 50 19 85 24 34 6 90
15 123 20 33 6 84 11 114 11 113 0 273 44 286 78 13 34 35 147 35 180 0 55 26
171 50 219 11 24 33 49 49 57 27 14 29 14 42 -12 8 -15 17 -29 20 -32 18 -16
72 -154 79 -204 5 -32 11 -60 13 -63 3 -2 17 -1 31 3 20 5 25 11 21 22 -3 9
-3 13 1 9 12 -12 34 14 34 42 0 42 22 73 60 85 26 8 36 18 38 36 5 34 38 67
81 81 49 16 55 20 41 29 -9 6 -8 15 4 39 16 29 31 37 86 43 21 3 26 9 32 51 9
62 22 78 65 75 39 -2 51 11 68 76 9 36 14 40 64 55 52 15 56 19 71 63 22 65
43 86 80 80 34 -5 47 -19 32 -34 -19 -19 15 -68 64 -89 24 -11 44 -24 44 -29
0 -9 43 -54 81 -87 8 -6 66 -66 129 -133 63 -67 130 -131 148 -142 19 -11 48
-34 65 -49 l32 -29 32 37 c18 21 32 43 33 48 0 6 -45 55 -100 110 -55 55 -100
105 -100 111 0 11 -133 114 -148 114 -5 0 -15 11 -22 25 -7 14 -38 44 -68 66
-30 23 -63 56 -73 74 -22 37 -50 48 -86 34 -19 -7 -23 -6 -20 3 3 7 11 31 18
52 7 22 21 41 31 44 10 2 18 9 18 16 0 6 5 4 10 -4 6 -10 10 -11 10 -2 0 6 8
12 18 12 13 0 14 -2 3 -9 -11 -7 -10 -11 5 -19 10 -6 19 -18 19 -28 0 -9 9
-22 20 -28 11 -6 85 -75 165 -153 209 -204 358 -343 368 -343 17 0 92 60 92
74 0 13 -35 51 -226 249 -31 32 -70 65 -88 74 -17 9 -55 42 -84 74 -30 33 -61
59 -70 59 -10 1 -32 21 -51 47 -30 41 -36 45 -66 40 -18 -3 -35 -3 -38 -1 -6
6 32 84 51 107 8 9 26 17 39 17 45 0 63 17 63 59 0 32 7 45 38 73 31 28 45 34
70 30 27 -4 32 -8 32 -32 0 -39 9 -60 26 -60 20 0 264 -228 264 -246 0 -8 5
-14 11 -14 6 0 35 -24 64 -53 29 -28 78 -72 109 -97 31 -24 56 -50 56 -57 0
-7 5 -13 10 -13 7 0 7 -6 0 -20 -18 -33 15 -25 42 11 13 16 38 48 56 69 l34
39 -149 147 c-81 80 -168 160 -193 177 -25 17 -47 35 -49 40 -8 21 -64 77 -77
77 -18 0 -63 50 -71 78 -6 24 -12 25 -70 7 -19 -6 -23 -3 -23 13 0 30 26 85
52 109 22 21 26 22 46 7 12 -8 22 -26 22 -39 0 -14 9 -29 21 -35 11 -7 29 -20
40 -31 10 -10 22 -19 27 -19 4 0 18 -16 31 -35 13 -19 31 -35 41 -35 10 0 33
-18 52 -40 20 -22 39 -36 43 -32 5 4 5 2 1 -5 -7 -12 35 -57 139 -148 31 -27
63 -62 71 -77 9 -18 23 -28 37 -28 22 -1 60 -23 57 -34 -13 -55 150 86 281
242 43 52 79 99 79 104 0 16 -18 8 -33 -15 -19 -28 -43 -16 -72 36 -11 20 -23
37 -28 37 -9 0 -70 54 -106 94 -33 36 -161 141 -183 149 -9 3 -22 18 -30 34
-7 15 -25 33 -39 40 -14 7 -34 28 -45 48 -19 36 -65 65 -103 65 -19 0 -21 4
-15 43 9 58 21 87 36 87 38 -1 60 -16 84 -60 24 -44 42 -60 87 -74 9 -3 20
-14 24 -23 6 -18 72 -83 84 -83 3 0 32 -34 64 -75 31 -41 61 -75 65 -75 5 0
35 -27 67 -61 32 -33 75 -68 96 -76 34 -14 38 -19 35 -44 -7 -46 17 -41 64 14
93 109 98 125 56 155 -10 7 -18 20 -18 28 0 8 -4 14 -8 14 -5 0 -39 30 -77 68
-38 37 -72 66 -77 65 -4 -2 -26 21 -49 49 -23 29 -54 58 -69 64 -15 7 -40 28
-55 48 -15 20 -39 39 -54 43 -37 8 -51 22 -51 49 0 14 -6 24 -14 24 -8 0 -17
7 -20 16 -4 10 -15 14 -33 12 -22 -2 -28 2 -34 26 -14 49 21 87 94 100 l37 7
0 -37 c0 -30 7 -44 41 -76 22 -21 44 -36 50 -33 5 4 9 0 9 -8 0 -7 26 -38 58
-68 31 -30 101 -101 155 -158 69 -74 113 -112 153 -132 l55 -28 37 23 c20 13
52 40 70 59 l34 35 -34 49 c-35 50 -220 233 -236 233 -5 0 -65 54 -133 120
-106 103 -128 119 -150 116 -26 -5 -26 -4 -22 42 6 55 17 69 59 78 36 7 64
-15 64 -50 0 -30 40 -67 66 -60 15 4 23 -3 37 -34 10 -24 30 -46 51 -57 18
-10 41 -30 49 -44 30 -51 251 -276 276 -281 14 -3 25 -9 24 -15 0 -5 3 -18 6
-28 6 -16 13 -13 58 28 29 25 70 68 93 95 l41 49 -51 47 c-27 26 -50 53 -50
60 0 7 -14 23 -31 36 -61 46 -238 206 -277 251 -13 14 -29 24 -36 21 -7 -3
-26 17 -44 45 -34 51 -58 67 -90 57 -17 -6 -18 -2 -9 54 12 72 28 86 85 71 31
-9 38 -16 40 -38 2 -29 25 -60 51 -68 9 -3 34 -28 55 -55 21 -28 49 -53 62
-56 15 -4 27 -18 35 -41 17 -52 189 -218 243 -235 40 -13 41 -14 41 -61 0 -26
3 -47 6 -47 11 0 58 56 103 123 42 62 46 72 46 130 0 34 4 68 8 75 13 20 116
4 158 -24 19 -13 45 -24 58 -24 12 0 31 -7 42 -15 10 -8 34 -15 52 -15 l33 0
-40 40 c-32 32 -47 40 -76 40 -20 0 -53 9 -75 20 -22 11 -44 20 -50 20 -22 0
-106 80 -134 129 -27 46 -59 71 -91 71 -20 0 -63 56 -74 96 -10 38 -5 94 10
94 4 0 16 13 25 29 10 16 26 32 36 34 32 9 22 46 -17 63 -19 8 -35 20 -35 27
0 46 -46 85 -84 71 -9 -3 -23 -3 -32 0 -13 5 -14 9 -4 21 7 8 10 26 8 40 -4
17 -1 25 8 25 8 0 14 6 14 13 0 22 19 41 42 43 62 5 84 17 115 62 18 26 32 51
32 56 -1 5 5 13 13 17 9 6 6 9 -10 9 -13 0 -31 4 -41 9 -10 6 -48 12 -86 15
-37 3 -70 8 -73 10 -7 8 -6 47 1 114 10 76 -7 91 -52 48 -15 -14 -32 -26 -38
-26 -6 0 -24 -15 -40 -34 -15 -18 -41 -42 -58 -52 -16 -10 -42 -31 -57 -45
-15 -14 -40 -29 -57 -32 -19 -4 -32 -14 -36 -29 -10 -31 -63 -86 -102 -105
-50 -23 -67 -15 -74 39 -4 26 -10 52 -14 57 -9 15 -32 14 -38 -1 -5 -16 -7
-13 -33 37 -23 47 -61 64 -142 64 -51 1 -56 -2 -102 -46 -34 -34 -49 -57 -52
-80 -2 -25 -6 -30 -17 -23 -13 7 -13 14 -2 48 11 32 11 56 3 113 -6 39 -15 76
-20 81 -11 11 -82 -47 -82 -67 0 -6 -8 -21 -17 -33 -10 -12 -29 -40 -43 -62
-17 -29 -34 -43 -60 -50 -75 -21 -90 -11 -90 56 0 22 5 34 13 34 24 0 49 37
45 67 -3 28 -4 28 -81 33 -43 3 -81 10 -85 15 -4 6 -16 15 -27 21 -11 6 -24
25 -29 42 -8 26 -15 31 -45 34 -31 3 -36 7 -39 31 -4 32 17 60 63 85 66 35 99
43 168 36 46 -4 67 -3 67 5 0 6 -4 11 -10 11 -5 0 -10 8 -10 18 0 30 -35 117
-48 118 -7 1 -23 2 -36 3 -27 1 -45 36 -28 53 5 5 29 10 53 11 30 1 55 11 79
28 19 14 43 29 53 32 23 8 49 70 40 94 -4 10 -16 25 -26 34 -17 13 -18 19 -7
40 7 13 33 43 57 65 35 32 45 49 46 75 l2 34 -55 -2 c-43 -2 -58 -7 -70 -24
-8 -12 -31 -38 -51 -59 -20 -20 -40 -47 -44 -59 -3 -12 -17 -33 -31 -46 -13
-13 -24 -29 -24 -35 0 -5 -6 -10 -14 -10 -21 0 -114 -80 -137 -118 -15 -27
-19 -49 -17 -92 3 -58 -6 -79 -45 -108 -40 -31 -117 -120 -117 -137 0 -3 -11
-22 -25 -43 -21 -32 -23 -43 -15 -72 5 -18 28 -51 50 -72 22 -21 43 -51 46
-66 4 -15 14 -36 24 -47 16 -19 41 -92 56 -165 7 -37 8 -42 18 -159 7 -77 11
-85 108 -202 27 -32 48 -78 48 -106 0 -46 27 -134 48 -157 23 -24 35 -72 34
-133 -1 -26 8 -61 22 -90 17 -33 26 -75 31 -134 7 -82 6 -87 -16 -108 -29 -27
-43 -23 -47 15 -2 16 -8 34 -13 40 -5 7 -15 29 -22 50 -7 22 -30 69 -51 105
-33 56 -45 69 -79 80 -54 18 -87 46 -87 74 0 28 -22 48 -44 39 -29 -11 -39
-80 -27 -181 6 -50 11 -107 11 -126 0 -25 7 -39 26 -53 14 -10 33 -35 42 -54
9 -19 18 -38 20 -42 1 -3 -7 -10 -19 -13 -33 -11 -58 -44 -65 -88 -8 -44 -8
-44 -62 -53 l-42 -7 0 55 c0 53 -2 57 -46 97 -43 39 -46 44 -39 79 4 20 13 51
20 67 30 68 25 84 -42 151 -44 44 -46 37 -28 -107 6 -43 -13 -94 -52 -140 -24
-28 -28 -43 -30 -97 -2 -70 -33 -132 -65 -132 -10 0 -18 -7 -18 -14 0 -21 -67
-69 -85 -62 -8 3 -22 23 -31 45 -17 43 -51 61 -61 33 -4 -9 -24 -37 -45 -61
-40 -47 -42 -72 -3 -44 14 10 25 21 25 26 0 4 7 7 15 7 16 0 21 -42 16 -127
-2 -32 2 -44 17 -52 12 -6 22 -26 26 -51 4 -26 11 -40 21 -40 9 0 15 -10 15
-25 0 -21 5 -25 30 -26 17 -1 35 -3 40 -4 6 -1 15 -3 20 -4 6 0 10 -9 10 -19
0 -11 9 -27 20 -37 26 -23 26 -71 1 -85 -11 -5 -26 -17 -35 -25 -14 -14 -21
-13 -74 12 -39 19 -63 38 -73 58 -11 20 -25 31 -42 33 -26 3 -27 2 -27 -47 0
-55 -12 -89 -48 -138 -35 -47 -62 -104 -62 -130 0 -31 -38 -46 -90 -34 -50 11
-120 69 -120 99 0 12 -3 22 -7 23 -31 3 -49 10 -59 23 -6 9 -19 16 -28 16 -20
0 -21 16 -1 24 8 3 20 -3 27 -13 7 -10 30 -23 50 -29 31 -8 39 -7 52 7 9 10
16 20 16 23 0 10 -37 48 -47 48 -5 0 -15 17 -21 39 -14 46 -16 151 -3 151 22
0 22 42 1 65 -22 23 -22 30 -16 121 5 65 14 110 27 135 10 21 19 57 19 79 0
24 13 70 30 110 17 38 30 73 30 78 0 11 70 105 82 110 5 2 20 25 34 50 57 108
83 146 132 195 66 67 82 85 82 90 0 3 22 28 49 57 38 41 53 51 69 45 18 -5 44
0 122 23 8 2 44 5 80 6 l65 1 0 80 c0 73 3 87 34 144 62 118 41 181 -60 181
-44 0 -49 2 -49 23 0 34 -35 139 -76 225 -38 81 -64 166 -64 207 0 14 -4 25
-10 25 -5 0 -10 7 -10 15 0 8 -7 15 -16 15 -9 0 -25 9 -35 21 -23 27 -42 16
-34 -21 3 -16 2 -31 -4 -35 -6 -3 -11 -14 -11 -23 -1 -29 -47 -55 -84 -48 -39
7 -71 39 -63 61 5 11 0 15 -17 15 -14 0 -26 7 -29 18 -4 9 -20 40 -37 67 -17
28 -34 59 -39 70 -5 11 -22 35 -39 53 -19 21 -28 40 -25 52 4 14 -15 39 -68
92 -52 52 -83 95 -111 151 -21 43 -38 84 -38 93 0 8 -7 25 -15 37 -9 14 -15
50 -16 92 -1 39 -6 76 -12 83 -5 7 -8 13 -6 15 50 29 51 29 70 11 19 -17 20
-17 13 0 -6 16 -1 17 57 12 76 -6 70 -4 66 -14 -1 -4 3 -9 8 -11 6 -2 15 -10
20 -17 8 -9 141 -34 187 -34 12 0 10 17 -4 32 -17 17 -38 78 -38 107 0 12 -7
36 -16 53 -9 17 -17 44 -20 60 -2 17 -8 36 -14 43 -6 7 -11 36 -11 65 -2 51
-2 52 -29 46 -26 -5 -30 -2 -46 44 -10 27 -21 47 -25 44 -5 -3 -11 8 -14 23
-4 15 -13 40 -21 55 -8 14 -21 64 -29 109 -9 51 -22 93 -35 108 -11 15 -25 37
-31 51 -6 14 -15 33 -20 42 -5 10 -9 27 -9 38 0 11 -4 20 -9 20 -4 0 -7 12 -5
26 2 20 -3 28 -24 35 -19 7 -32 23 -45 57 -10 26 -25 59 -33 74 -8 14 -14 38
-14 52 0 14 -7 29 -15 33 -8 5 -18 29 -21 53 -4 24 -12 53 -19 65 -7 11 -21
43 -31 70 -9 28 -21 55 -26 62 -9 11 -47 108 -52 129 -1 6 -9 23 -19 37 -9 15
-17 33 -17 41 0 8 -4 18 -10 21 -5 3 -10 14 -10 23 -1 9 -9 33 -20 52 -79 147
-170 345 -170 370 0 11 -4 20 -10 20 -5 0 -10 7 -10 15 0 9 -7 27 -16 40 -9
13 -13 28 -10 34 6 9 -40 88 -84 144 -12 15 -30 49 -40 75 -10 26 -28 70 -41
97 -12 28 -24 61 -25 75 -9 86 -17 115 -25 95 -6 -16 -8 -16 -8 -3 -1 9 -13
20 -29 26 -17 6 -35 25 -47 48 -11 21 -28 47 -37 58 -10 11 -18 23 -18 28 0 4
-13 29 -29 55 -16 27 -34 66 -40 88 -6 22 -17 49 -25 60 -11 14 -15 44 -16 95
l0 75 -47 21 c-67 30 -117 34 -198 18z m1683 -4296 c7 -7 12 -31 12 -54 0 -33
-4 -42 -16 -40 -23 3 -34 26 -34 69 0 38 15 48 38 25z m1372 -5 c0 -5 14 -16
30 -25 28 -16 30 -21 30 -73 0 -53 -1 -55 -26 -55 -15 0 -37 10 -48 23 -12 12
-32 29 -44 37 -26 17 -28 30 -6 30 8 0 22 16 30 35 13 31 34 48 34 28z m670
-430 c24 -45 41 -64 51 -57 9 5 110 -93 136 -132 8 -13 21 -20 29 -17 8 3 14
0 14 -6 0 -6 -4 -11 -10 -11 -5 0 -10 -11 -10 -24 0 -27 -17 -37 -40 -25 -8 4
-26 10 -40 13 -14 3 -62 42 -107 85 -45 44 -97 85 -117 92 -42 15 -44 27 -14
81 20 35 26 39 56 36 27 -2 38 -10 52 -35z m-2022 -33 c7 -11 18 -20 25 -20 6
0 22 -15 34 -33 17 -25 20 -39 14 -67 -10 -49 -38 -52 -46 -6 -8 41 -38 76
-65 76 -22 0 -42 30 -32 47 7 10 29 21 47 22 6 1 16 -8 23 -19z m1890 -62 c-2
-6 -10 -14 -16 -16 -7 -2 -10 2 -6 12 7 18 28 22 22 4z m-252 -264 c-21 -20
-28 -17 -14 5 7 11 16 17 20 15 5 -3 2 -12 -6 -20z m-706 -566 c0 -13 -6 -43
-13 -68 -13 -45 -12 -80 2 -80 5 0 11 -16 14 -37 7 -43 52 -93 84 -93 13 0 23
-5 23 -11 0 -21 60 -87 85 -93 13 -3 32 -20 40 -37 19 -36 40 -63 80 -104 51
-51 149 -139 187 -168 39 -30 41 -53 9 -95 -15 -21 -20 -22 -44 -11 -15 7 -27
19 -27 26 0 19 -93 116 -128 134 -29 15 -69 59 -65 71 2 4 -7 13 -20 19 -12 7
-42 27 -66 46 -52 39 -61 41 -61 11 -1 -22 -1 -22 -12 -4 -8 15 -8 21 0 24 34
11 -5 65 -60 85 -10 3 -31 25 -48 49 -31 43 -75 67 -83 45 -2 -7 -7 11 -11 40
-7 52 -19 73 -31 53 -8 -13 -62 -13 -70 0 -11 18 26 78 55 90 28 12 87 74 83
88 -1 4 5 11 13 15 8 5 12 12 10 16 -3 4 9 8 25 9 24 2 29 -1 29 -20z m-455
-38 c26 -10 26 -12 20 -73 -7 -60 -26 -97 -50 -97 -14 0 -45 43 -45 62 0 6
-10 22 -21 35 -20 21 -21 23 -5 29 14 5 15 9 5 15 -10 6 -9 12 6 29 19 22 33
22 90 0z m-960 -287 c4 -76 11 -145 16 -154 4 -9 13 -44 18 -78 5 -34 17 -68
25 -77 30 -29 17 -58 -19 -44 -21 8 -23 5 -29 -29 -5 -36 -35 -68 -78 -84 -10
-3 -18 -16 -18 -28 0 -11 -17 -37 -37 -57 l-37 -37 -7 25 c-7 24 -7 24 -8 -5
-1 -31 -56 -109 -70 -101 -11 7 -23 -5 -51 -46 -14 -21 -28 -38 -32 -38 -4 0
-26 -25 -48 -55 -22 -30 -47 -55 -55 -55 -15 0 -51 -46 -56 -73 -2 -10 -17
-26 -34 -35 -16 -9 -32 -21 -33 -25 -12 -25 -57 -67 -73 -67 -13 0 -19 -7 -19
-24 0 -15 -13 -36 -36 -55 -39 -35 -64 -34 -97 0 -23 24 -36 24 -64 -3 -28
-26 -29 -49 -3 -73 29 -26 26 -72 -6 -102 -19 -17 -29 -21 -34 -13 -10 16 -22
-3 -15 -22 8 -20 -36 -68 -62 -68 -25 0 -35 -10 -63 -57 -14 -23 -27 -33 -44
-33 -33 0 -93 36 -137 82 -20 21 -43 38 -53 38 -10 0 -19 11 -23 30 -4 23 -10
29 -22 25 -20 -6 -70 37 -90 77 -35 69 -10 126 113 249 52 52 116 120 144 151
28 31 53 54 56 51 3 -4 6 -1 6 5 0 16 80 95 111 111 16 8 35 32 48 63 12 28
24 48 28 45 3 -3 16 7 29 22 13 16 46 39 74 52 36 17 50 30 50 45 0 30 54 109
89 130 17 10 31 24 31 31 0 7 14 22 30 35 17 12 30 25 30 28 0 10 192 205 201
205 4 0 10 3 14 6 16 17 52 -10 106 -78 33 -41 70 -93 82 -114 15 -27 29 -39
45 -39 12 0 30 -9 39 -20 24 -28 47 -26 40 3 -28 117 -38 177 -33 212 17 125
22 150 32 148 6 -1 9 10 6 28 -2 16 0 29 6 29 6 0 13 -56 17 -137z"/>
<path d="M12686 9835 c-35 -47 -42 -53 -60 -43 -16 9 -23 7 -38 -12 -10 -12
-18 -31 -18 -42 0 -10 -4 -17 -9 -14 -11 7 -21 -17 -21 -54 0 -19 -9 -35 -27
-48 -25 -18 -26 -22 -15 -46 7 -15 8 -26 2 -26 -6 0 -10 -16 -10 -36 0 -20 -4
-33 -10 -29 -5 3 -18 -9 -29 -27 -32 -53 -42 -62 -52 -47 -6 11 -11 11 -20 2
-10 -10 -9 -14 4 -19 23 -9 21 -43 -4 -70 -11 -12 -28 -37 -37 -55 -13 -27
-24 -35 -50 -37 -25 -3 -38 -11 -50 -32 -9 -16 -32 -36 -50 -45 -47 -22 -112
-76 -112 -92 0 -7 -9 -13 -21 -13 -13 0 -23 -8 -26 -20 -3 -11 -17 -23 -32
-26 -14 -4 -33 -13 -41 -20 -8 -7 -19 -12 -23 -12 -5 0 -20 -9 -33 -21 -13
-12 -29 -21 -35 -21 -7 0 -25 -13 -41 -30 -15 -16 -33 -30 -39 -30 -5 0 -7 -4
-4 -10 3 -5 0 -10 -8 -10 -21 0 -107 -46 -100 -54 3 -3 1 -6 -6 -6 -7 0 -26
-13 -41 -30 -15 -16 -35 -30 -43 -30 -9 0 -19 -4 -22 -10 -3 -5 -19 -10 -35
-10 -16 0 -32 5 -35 10 -3 6 -21 10 -40 10 -24 0 -39 7 -50 23 -12 17 -25 22
-62 22 -28 0 -48 -5 -51 -13 -2 -6 -8 -9 -13 -6 -10 6 -52 -18 -76 -42 -10
-10 1 -14 55 -19 37 -4 85 -17 109 -30 40 -21 44 -21 162 -8 116 12 124 15
181 53 32 22 62 45 65 50 4 6 28 21 55 35 26 13 80 52 118 85 68 59 112 81
282 146 62 23 69 29 117 102 28 42 54 88 58 101 13 44 89 156 146 216 34 35
69 85 85 120 15 33 43 85 62 115 38 58 50 121 35 177 l-8 33 -39 -55z"/>
<path d="M4414 9815 c-19 -15 -10 -20 25 -16 7 2 10 -2 6 -9 -6 -9 -2 -9 15 0
24 13 24 13 -6 28 -16 9 -26 8 -40 -3z"/>
<path d="M4370 9785 c0 -9 6 -12 15 -9 8 4 12 10 9 15 -8 14 -24 10 -24 -6z"/>
<path d="M2750 9725 c-7 -8 -18 -15 -26 -15 -7 0 -15 -4 -18 -9 -6 -9 49 -5
65 4 12 8 12 35 0 35 -5 0 -14 -7 -21 -15z"/>
<path d="M2886 9731 c-10 -16 25 -71 45 -71 30 0 34 28 9 56 -24 25 -45 31
-54 15z"/>
<path d="M4443 9723 c-7 -3 -13 -12 -13 -22 0 -9 -7 -26 -15 -37 -24 -32 -18
-62 16 -83 17 -10 37 -28 45 -40 18 -24 42 -28 50 -6 8 19 -15 115 -27 115 -5
0 -9 9 -9 20 0 25 -30 59 -47 53z"/>
<path d="M10896 9685 c-38 -19 -74 -39 -80 -45 -7 -7 -11 -56 -11 -123 0 -62
-4 -120 -9 -129 -6 -13 -4 -18 8 -18 9 0 16 5 16 11 0 6 10 9 23 8 12 -1 35 3
50 9 16 7 33 12 38 12 5 0 9 5 9 10 0 6 8 10 18 10 10 0 22 3 26 7 3 4 12 8
19 9 28 5 42 10 58 23 16 13 15 16 -7 49 -19 27 -24 48 -24 94 0 49 -4 63 -25
83 -13 14 -28 25 -32 24 -4 0 -39 -16 -77 -34z"/>
<path d="M4762 9573 c-7 -3 -19 -17 -27 -32 -12 -24 -12 -31 1 -49 8 -12 19
-46 25 -77 6 -31 19 -65 30 -76 19 -19 19 -18 45 21 22 33 29 38 44 30 31 -16
39 -12 49 28 6 20 20 51 30 69 17 27 18 33 6 43 -8 7 -26 10 -39 6 -15 -4 -26
-1 -29 8 -3 7 -25 16 -49 19 -24 3 -50 8 -58 11 -8 2 -21 2 -28 -1z"/>
<path d="M12037 9514 c-11 -11 13 -43 28 -38 11 5 12 10 2 25 -12 20 -20 23
-30 13z"/>
<path d="M10483 9464 c-3 -8 -3 -44 1 -79 8 -76 -7 -120 -50 -154 l-29 -23 30
8 c17 4 34 13 38 20 10 18 63 41 110 49 20 3 37 10 37 15 0 4 13 11 30 15 32
7 51 25 26 25 -19 0 -76 48 -76 65 0 15 -77 75 -97 75 -8 0 -16 -7 -20 -16z
m67 -35 c18 -33 9 -64 -20 -64 -20 0 -26 6 -28 28 -7 55 25 79 48 36z"/>
<path d="M4230 9400 c-16 -31 -29 -40 -57 -40 -13 0 -23 -6 -23 -14 0 -13 29
-26 61 -26 27 0 52 47 41 78 l-9 27 -13 -25z"/>
<path d="M10220 9395 c-6 -7 -41 -28 -76 -46 -70 -35 -70 -35 -77 -137 -3 -34
-12 -74 -21 -87 -23 -36 -21 -38 35 -33 53 5 69 18 69 56 0 28 21 28 46 1 27
-30 85 -21 151 24 l53 35 -30 7 c-54 12 -86 49 -105 120 -20 72 -27 82 -45 60z"/>
<path d="M800 9271 c0 -5 7 -12 16 -15 24 -9 27 -7 10 9 -17 17 -26 19 -26 6z"/>
<path d="M185 9095 c-16 -24 -36 -45 -43 -45 -7 0 -33 11 -58 25 l-44 25 0
-36 c0 -21 -8 -47 -20 -61 -16 -21 -20 -41 -20 -109 l0 -83 38 6 c47 7 48 8
34 38 -7 14 -12 34 -12 44 0 27 75 71 121 71 30 0 47 8 78 35 21 19 44 35 50
35 6 0 11 9 11 20 0 11 5 20 10 20 16 0 11 47 -6 54 -9 3 -37 6 -62 6 -44 0
-49 -2 -77 -45z"/>
<path d="M4856 9125 c-8 -8 -19 -15 -24 -15 -5 0 -12 -10 -15 -21 -4 -15 -11
-20 -22 -15 -15 5 -16 0 -10 -45 4 -32 3 -54 -3 -58 -5 -3 -13 -36 -17 -73
l-7 -67 33 -20 c20 -12 42 -18 53 -15 11 4 16 2 12 -4 -3 -5 5 -12 19 -14 29
-6 62 25 69 62 2 14 5 26 7 28 1 1 2 5 3 10 1 4 7 24 13 44 9 29 8 48 -3 84
-8 26 -14 60 -14 75 0 51 -59 79 -94 44z"/>
<path d="M10930 9105 c-6 -8 -9 -18 -6 -24 10 -16 46 0 46 20 0 23 -23 25 -40
4z"/>
<path d="M5187 9044 c-8 -8 1 -24 14 -24 5 0 9 7 9 15 0 15 -12 20 -23 9z"/>
<path d="M10529 9019 c-15 -29 3 -67 36 -75 48 -12 70 30 39 74 -20 28 -60 29
-75 1z"/>
<path d="M410 9009 c-19 -10 -49 -22 -68 -25 -18 -4 -37 -15 -42 -25 -11 -20
-2 -28 62 -48 31 -10 40 -9 70 9 41 25 43 25 68 -2 l21 -23 20 24 c10 13 19
32 19 42 0 20 -36 40 -57 32 -6 -3 -16 5 -23 16 -13 26 -25 26 -70 0z"/>
<path d="M10210 8912 c-14 -2 -31 -9 -37 -14 -18 -15 -15 -59 5 -86 14 -18 24
-22 45 -17 25 7 27 11 27 54 0 56 -8 67 -40 63z"/>
<path d="M1619 8813 c-14 -37 -15 -151 -2 -164 15 -15 47 -3 84 30 l31 28 -25
26 c-14 13 -31 43 -37 66 -13 48 -35 54 -51 14z"/>
<path d="M1075 8788 c-8 -26 -17 -34 -47 -41 -34 -8 -36 -10 -33 -45 4 -57 38
-122 62 -122 5 0 15 -12 22 -26 9 -20 15 -23 25 -15 7 6 16 8 19 4 11 -10 8
16 -4 38 -16 31 -22 108 -9 124 8 10 8 14 -1 17 -9 3 -9 9 -1 23 8 14 7 26 -4
47 -8 15 -16 28 -17 28 -2 0 -7 -15 -12 -32z"/>
<path d="M0 8732 c0 -45 3 -51 29 -62 16 -6 44 -25 61 -40 46 -41 89 -49 112
-20 23 28 25 75 3 66 -9 -3 -15 0 -15 9 0 8 -4 15 -9 15 -5 0 -12 11 -15 24
-7 27 -39 42 -113 51 l-53 6 0 -49z"/>
<path d="M4576 8746 c-3 -14 -15 -27 -25 -31 -33 -10 -33 -33 0 -50 16 -9 27
-20 25 -24 -3 -5 6 -8 20 -8 17 0 24 4 20 13 -3 7 -1 16 3 19 15 8 19 58 8 82
-14 30 -43 30 -51 -1z"/>
<path d="M1125 8750 c-3 -5 3 -10 15 -10 12 0 18 5 15 10 -3 6 -10 10 -15 10
-5 0 -12 -4 -15 -10z"/>
<path d="M11118 8673 c-24 -6 -32 -33 -9 -33 10 0 22 7 25 16 8 20 6 21 -16
17z"/>
<path d="M4381 8650 c-19 -11 -6 -41 14 -34 16 6 20 29 7 38 -4 2 -14 1 -21
-4z"/>
<path d="M2952 8612 c-31 -5 -25 -36 7 -40 21 -3 40 11 41 29 0 10 -22 15 -48
11z"/>
<path d="M2803 8587 c-4 -7 -24 -24 -43 -38 -30 -21 -45 -24 -107 -22 l-73 2
16 -30 c8 -17 13 -33 10 -37 -3 -3 -6 0 -6 6 0 7 -4 12 -10 12 -8 0 -8 -23 -1
-72 0 -5 7 -8 15 -8 16 0 31 -34 21 -50 -3 -5 -13 -10 -21 -10 -8 0 -14 -1
-14 -2 0 -12 44 -114 51 -118 11 -7 82 0 75 8 -9 9 37 43 65 49 28 5 39 26 39
76 0 20 6 30 20 34 25 7 23 51 -3 59 -14 4 -15 9 -7 19 8 10 8 15 0 20 -12 8
-9 66 4 98 10 21 -18 25 -31 4z"/>
<path d="M10080 8565 c0 -46 92 -165 128 -165 9 0 85 -66 168 -148 176 -172
196 -190 212 -184 14 4 16 32 3 32 -5 0 -13 10 -17 22 -7 23 -307 326 -361
366 -17 12 -38 22 -46 22 -8 0 -24 16 -36 35 -21 36 -51 47 -51 20z"/>
<path d="M10935 8511 c-6 -10 2 -72 11 -80 2 -2 4 17 4 42 0 47 -3 56 -15 38z"/>
<path d="M1117 8503 c-12 -11 -8 -21 21 -50 26 -27 27 -27 30 -6 6 41 -29 79
-51 56z"/>
<path d="M3147 8443 c-6 -13 0 -84 8 -91 4 -4 10 -1 12 6 3 7 11 19 19 26 18
18 18 34 0 52 -16 15 -33 18 -39 7z"/>
<path d="M1219 8409 c-10 -6 -9 -10 6 -15 11 -4 23 -9 26 -10 4 -2 9 2 12 10
7 17 -25 27 -44 15z"/>
<path d="M1270 8341 c0 -36 5 -39 19 -12 8 14 7 22 -4 31 -13 11 -15 8 -15
-19z"/>
<path d="M5343 8359 c-13 -4 -23 -12 -23 -17 0 -5 -11 -14 -25 -20 -15 -7 -25
-8 -25 -2 0 6 -13 10 -30 10 -29 0 -30 -2 -30 -42 0 -24 -5 -50 -10 -58 -5 -8
-10 -10 -10 -5 0 6 -12 12 -27 13 -14 1 -32 11 -40 22 -8 11 -25 20 -38 20
-13 0 -27 5 -30 10 -9 14 -19 12 -42 -7 -11 -10 -18 -24 -16 -30 3 -7 0 -13
-6 -13 -6 0 -11 -5 -11 -11 0 -5 4 -7 10 -4 16 10 24 -44 12 -82 -9 -30 -8
-40 6 -59 9 -13 23 -26 31 -29 16 -6 43 13 36 26 -3 4 4 13 15 19 11 6 20 18
21 28 0 12 4 9 11 -8 6 -15 12 -20 15 -12 3 6 12 12 20 12 10 0 14 6 10 19 -2
10 4 29 13 42 15 19 21 21 33 10 9 -7 17 -22 19 -33 2 -12 8 -23 14 -25 14 -5
64 45 75 74 8 22 14 23 67 7 19 -6 22 -3 22 24 0 17 -4 34 -10 37 -5 3 -10 14
-10 23 -1 9 -6 29 -13 43 -10 22 -16 25 -34 18z"/>
<path d="M4624 8342 c-20 -19 -3 -38 42 -46 45 -9 56 -1 42 28 -13 29 -63 40
-84 18z"/>
<path d="M9847 8305 c-9 -20 -17 -42 -17 -51 0 -8 -7 -31 -17 -52 -9 -20 -17
-40 -17 -43 -1 -9 -112 -125 -156 -163 -135 -120 -172 -193 -105 -210 15 -4
25 -13 25 -25 0 -10 20 -35 45 -56 25 -20 56 -58 69 -83 13 -26 37 -55 53 -64
16 -9 52 -39 79 -67 28 -28 58 -51 67 -51 8 0 30 19 48 41 18 23 60 69 94 103
33 34 79 81 101 106 22 25 66 65 98 90 32 24 67 57 78 72 l19 28 -24 0 c-46 0
-81 71 -70 146 3 24 3 44 -1 44 -4 0 -24 -9 -46 -20 -48 -25 -92 -27 -83 -5 3
10 1 15 -8 13 -17 -4 -28 62 -19 112 8 46 7 49 -25 42 -16 -3 -25 -11 -25 -24
0 -17 -6 -19 -47 -16 -39 2 -48 7 -51 23 -2 11 -7 29 -12 40 -5 11 -14 39 -20
63 -6 23 -12 42 -14 42 -1 0 -10 -16 -19 -35z"/>
<path d="M3013 8313 c-22 -8 -15 -32 7 -26 11 3 20 12 20 19 0 14 -6 16 -27 7z"/>
<path d="M10892 8240 c-18 -22 -29 -40 -23 -40 11 0 61 58 61 71 0 14 -2 12
-38 -31z"/>
<path d="M10792 8168 c-53 -31 -62 -46 -20 -34 23 6 84 54 77 60 -2 2 -28 -10
-57 -26z"/>
<path d="M1488 8185 c-7 -7 -33 -13 -60 -14 -26 -1 -22 -26 5 -29 74 -8 96 2
74 32 -7 9 -15 14 -19 11z"/>
<path d="M2860 8050 c-57 -22 -61 -36 -12 -44 33 -5 43 -12 57 -43 10 -21 28
-45 40 -55 23 -18 39 -84 23 -94 -4 -3 -8 -31 -8 -63 0 -31 -5 -62 -12 -69
-19 -19 -46 -14 -64 13 -17 26 -44 34 -44 14 0 -8 -13 -10 -37 -7 -21 3 -47 2
-57 -2 -21 -7 -29 -48 -14 -67 5 -7 7 -21 3 -33 -4 -14 1 -30 19 -51 14 -17
26 -38 26 -48 0 -10 9 -26 19 -35 10 -9 17 -25 14 -35 -2 -9 3 -23 11 -30 21
-17 20 -31 -1 -47 -17 -12 -17 -13 2 -13 11 0 33 -3 48 -7 43 -10 106 14 113
43 9 34 -3 98 -27 144 -11 22 -17 44 -14 50 12 19 94 -22 95 -47 0 -7 7 -15
16 -18 8 -3 13 -10 10 -15 -3 -5 8 -14 26 -20 44 -16 62 3 30 30 -21 16 -25
31 -33 126 -4 60 -11 123 -15 141 -4 19 -2 32 4 32 6 0 24 12 41 26 26 21 31
33 31 69 0 41 -1 43 -45 60 -27 10 -58 32 -76 55 -18 23 -45 42 -68 49 -46 13
-45 13 -101 -9z"/>
<path d="M1832 8004 c-38 -44 -44 -62 -24 -68 26 -9 48 -64 33 -87 -6 -10 -11
-28 -11 -38 0 -11 -4 -23 -10 -26 -15 -9 -12 -35 5 -41 8 -3 34 4 59 17 38 19
48 20 61 9 28 -23 47 -70 40 -99 -4 -21 0 -33 21 -54 15 -15 36 -27 47 -27 11
0 18 3 14 6 -9 9 14 64 27 64 16 0 38 -26 56 -65 13 -29 15 -37 18 -63 1 -7
14 -17 29 -23 33 -12 95 10 132 48 l25 25 -29 54 c-16 30 -42 67 -57 81 -16
15 -28 32 -28 38 0 14 -59 95 -84 116 -15 12 -28 14 -57 8 -70 -16 -124 19
-135 87 -6 40 -9 44 -35 44 -15 0 -31 5 -34 10 -11 18 -39 10 -63 -16z"/>
<path d="M37 8003 c-20 -73 -13 -133 13 -107 18 18 59 112 52 118 -13 14 -61
5 -65 -11z"/>
<path d="M5270 7981 c0 -5 9 -11 20 -14 13 -3 20 0 20 9 0 8 -9 14 -20 14 -11
0 -20 -4 -20 -9z"/>
<path d="M3356 7935 c9 -14 21 -25 26 -25 15 0 32 -22 43 -54 13 -39 37 -53
67 -39 l23 11 -25 11 c-14 7 -34 24 -44 39 -17 25 -86 82 -100 82 -4 0 1 -11
10 -25z"/>
<path d="M9395 7940 c-16 -11 -27 -20 -24 -20 9 0 69 31 69 36 0 9 -16 3 -45
-16z"/>
<path d="M9338 7893 c-9 -10 -30 -44 -48 -75 -37 -67 -80 -108 -153 -144 -91
-46 -147 -86 -147 -106 0 -48 -44 -98 -146 -166 -45 -30 -65 -51 -79 -84 -52
-124 -66 -150 -89 -173 -14 -14 -21 -25 -17 -25 17 0 269 270 275 295 4 14 11
25 16 25 6 0 10 9 10 19 0 20 43 61 64 61 14 1 56 36 56 47 0 5 18 22 40 39
22 16 40 33 40 38 0 5 17 24 38 42 50 46 47 43 87 92 19 24 35 48 35 53 0 6
10 23 22 39 24 33 20 51 -4 23z"/>
<path d="M1585 7841 c-3 -5 -1 -12 4 -15 4 -3 11 -19 14 -35 4 -17 15 -35 27
-41 18 -10 20 -8 20 22 0 56 -10 78 -36 78 -12 0 -25 -4 -29 -9z"/>
<path d="M2296 7824 c-3 -9 -6 -21 -6 -29 0 -21 71 -95 91 -95 21 0 43 -35 35
-56 -3 -8 -1 -14 4 -14 12 0 13 100 1 119 -5 7 -14 10 -20 7 -6 -4 -11 -2 -11
5 0 7 -10 28 -22 46 -25 35 -62 44 -72 17z"/>
<path d="M521 7781 c-7 -5 -21 -6 -31 -4 -10 3 -21 0 -24 -6 -4 -6 -16 -11
-27 -11 -12 0 -19 -7 -19 -20 0 -11 -10 -26 -22 -34 -28 -17 -128 -29 -128
-16 0 18 -21 10 -50 -18 -27 -27 -28 -32 -25 -103 2 -40 9 -75 14 -77 16 -5
13 -22 -4 -22 -8 0 -15 -5 -15 -10 0 -6 13 -9 29 -8 16 1 36 -4 44 -11 10 -8
28 -10 51 -5 23 4 42 2 50 -6 19 -15 68 14 59 35 -5 14 23 25 57 23 8 -1 29 2
46 6 26 6 37 2 60 -19 19 -18 33 -23 48 -19 30 10 65 37 66 51 0 7 13 19 30
28 38 19 45 50 28 112 -10 35 -21 51 -41 61 -15 7 -27 17 -27 23 0 5 -7 9 -15
9 -8 0 -15 5 -15 11 0 6 -9 8 -20 4 -16 -5 -44 3 -100 31 -3 1 -12 -1 -19 -5z"/>
<path d="M9370 7712 c-14 -5 -94 -84 -134 -133 -52 -64 -110 -124 -119 -124
-30 0 -9 -33 73 -118 50 -52 99 -107 109 -123 23 -37 143 -149 181 -169 17 -9
31 -21 31 -28 3 -30 -4 -49 -27 -74 l-24 -26 -103 101 c-56 55 -122 115 -146
134 -24 18 -58 48 -77 66 -20 19 -43 32 -58 32 -14 0 -27 5 -27 10 -1 6 -3 15
-4 20 -1 6 -3 15 -4 20 -3 23 -95 -3 -107 -30 -5 -11 -48 -59 -96 -108 -78
-79 -86 -91 -83 -122 2 -23 9 -37 24 -44 11 -5 21 -14 21 -20 0 -17 75 -88 83
-80 4 4 7 1 7 -7 0 -18 214 -232 235 -235 23 -3 24 -6 26 -40 2 -58 -15 -93
-47 -94 -6 0 -27 17 -46 38 -20 20 -54 54 -76 75 -23 21 -43 46 -47 56 -3 10
-16 23 -29 29 -13 6 -58 40 -99 76 -41 36 -78 66 -82 66 -4 0 -26 21 -49 47
l-43 47 -55 -59 c-31 -33 -86 -91 -122 -128 -36 -37 -66 -72 -66 -77 0 -9 23
-34 43 -47 14 -9 35 -41 43 -64 3 -9 16 -21 28 -27 12 -5 37 -31 56 -57 45
-62 163 -175 202 -194 16 -8 33 -24 38 -35 14 -38 46 -28 117 36 37 34 106 87
154 118 48 31 105 78 128 105 23 28 64 78 91 111 27 34 65 73 84 88 24 18 40
42 52 78 28 87 50 121 109 168 32 25 70 56 86 69 16 13 43 43 59 66 16 24 43
56 59 72 16 17 35 49 41 73 6 24 19 54 27 67 18 27 15 33 -57 101 -25 23 -52
50 -60 59 -8 9 -23 23 -33 32 -10 9 -31 28 -47 44 -15 15 -38 27 -49 27 -12 0
-24 8 -28 18 -10 29 -55 62 -84 62 -22 0 -30 6 -35 24 -6 27 -21 36 -44 28z"/>
<path d="M5369 7654 c-28 -8 -38 -171 -20 -316 2 -15 46 -8 75 11 16 11 35 37
43 58 42 113 42 133 -2 133 -25 0 -26 2 -23 58 l3 57 -30 2 c-16 0 -37 -1 -46
-3z"/>
<path d="M2578 7585 c4 -43 -16 -84 -32 -67 -11 10 -24 -18 -19 -39 6 -21 23
-26 23 -8 0 7 9 0 21 -15 19 -25 22 -25 49 -11 16 8 31 19 34 24 11 17 -16
116 -37 139 -32 34 -43 28 -39 -23z"/>
<path d="M5725 7471 c-8 -27 -2 -36 13 -18 6 7 7 18 3 26 -7 10 -10 8 -16 -8z"/>
<path d="M1835 7431 c-3 -6 -1 -11 6 -11 8 0 6 -6 -4 -18 -10 -10 -17 -25 -17
-33 0 -11 2 -11 9 -1 6 10 10 10 19 -1 7 -8 23 -12 38 -9 l25 5 -26 27 c-15
16 -26 32 -25 36 2 13 -17 16 -25 5z"/>
<path d="M703 7369 c-24 -4 -58 -15 -76 -24 -19 -9 -48 -13 -68 -11 -26 3 -36
1 -36 -10 0 -8 4 -14 9 -14 4 0 8 -7 8 -15 0 -13 -30 -14 -76 0 -6 2 -9 -6 -7
-19 3 -13 -4 -29 -17 -41 -20 -19 -23 -19 -51 -3 -16 10 -29 13 -29 7 0 -7
-37 -72 -58 -99 -2 -3 -8 3 -13 13 -12 21 -36 22 -79 3 -21 -9 -28 -15 -19
-19 10 -4 10 -6 2 -6 -7 -1 -13 -9 -13 -20 0 -21 37 -30 164 -37 66 -4 85 -1
120 16 22 12 48 31 57 42 12 16 29 22 65 23 71 3 122 24 170 70 18 17 44 40
59 52 36 31 30 63 -15 85 -39 19 -39 19 -97 7z"/>
<path d="M3479 7299 c-43 -51 -44 -55 -20 -69 13 -6 21 -21 21 -35 0 -14 3
-25 8 -26 4 0 24 -2 45 -5 53 -7 62 21 35 110 -24 79 -39 84 -89 25z"/>
<path d="M1581 7271 c-14 -16 -36 -33 -50 -36 -27 -7 -71 -42 -71 -57 0 -13
27 -9 42 5 22 22 46 27 58 11 7 -8 9 -14 4 -14 -5 0 -2 -5 6 -10 19 -12 77
-13 84 -1 3 5 22 12 41 15 50 10 44 32 -13 46 -39 9 -52 18 -63 41 l-14 29
-24 -29z"/>
<path d="M5635 7190 c-22 -4 -55 -12 -73 -18 -37 -12 -36 -12 -61 -12 -27 0
-81 -101 -81 -152 0 -31 -5 -40 -29 -52 -32 -17 -41 -34 -41 -76 0 -33 -19
-80 -32 -80 -22 0 6 -67 41 -98 20 -18 36 -39 37 -45 1 -17 -17 -38 -27 -31
-5 3 -9 -3 -9 -14 0 -10 -16 -35 -35 -55 -29 -30 -34 -41 -29 -63 6 -22 0 -32
-35 -65 -38 -37 -41 -42 -35 -79 8 -50 25 -64 66 -55 18 3 60 8 93 11 76 5
105 15 154 55 25 19 46 29 56 25 25 -9 54 16 61 52 4 22 14 36 29 42 24 9 35
29 35 61 0 18 -5 20 -45 13 -29 -4 -45 -3 -45 4 0 6 -3 17 -6 25 -3 9 20 40
60 82 l65 68 57 -6 57 -6 59 58 c53 54 58 62 55 95 -2 25 -15 48 -37 71 -28
29 -41 35 -77 35 -32 0 -43 4 -43 15 0 8 -7 15 -15 15 -8 0 -15 -4 -15 -10 0
-5 -11 -10 -25 -10 -34 0 -76 -20 -107 -52 -14 -16 -34 -28 -43 -28 -9 0 -32
-7 -51 -16 -49 -23 -102 -12 -110 23 -11 43 12 111 48 141 18 15 34 27 37 27
3 0 16 10 29 23 12 12 30 22 40 22 17 0 55 -20 38 -20 -11 0 14 -30 25 -30 5
0 9 13 9 29 0 17 5 33 10 36 14 9 12 55 -2 54 -7 -1 -31 -5 -53 -9z"/>
<path d="M100 7103 c0 -5 8 -17 17 -28 14 -18 15 -18 9 -2 -3 10 -6 23 -6 28
0 5 -4 9 -10 9 -5 0 -10 -3 -10 -7z"/>
<path d="M2126 7084 c-9 -8 -16 -11 -16 -5 0 6 -7 11 -15 11 -9 0 -15 -9 -15
-25 0 -14 4 -25 9 -25 5 0 15 -25 22 -56 10 -43 10 -63 1 -86 -10 -26 -8 -35
8 -58 11 -16 20 -40 20 -54 0 -33 31 -50 76 -41 32 5 34 9 34 44 0 21 -9 65
-19 99 -22 68 -31 108 -38 170 -3 23 -9 42 -15 42 -5 0 -6 -4 -3 -10 3 -5 1
-10 -4 -10 -6 0 -11 5 -11 10 0 15 -16 12 -34 -6z"/>
<path d="M2491 7073 c-21 -17 -22 -22 -10 -44 7 -13 12 -29 11 -34 -1 -6 12
-25 28 -43 17 -19 30 -45 30 -60 1 -15 7 -43 14 -63 17 -48 0 -75 -40 -65 -22
6 -31 3 -45 -15 -14 -19 -15 -26 -3 -54 7 -17 14 -58 15 -90 2 -44 8 -64 26
-86 21 -25 27 -27 48 -17 19 8 28 8 41 -3 23 -19 61 -106 68 -156 5 -37 3 -44
-19 -59 -28 -18 -107 -21 -178 -7 -40 8 -52 7 -68 -6 -18 -14 -19 -21 -10 -61
12 -52 -1 -70 -51 -70 -24 0 -32 -7 -43 -34 -24 -57 -2 -176 36 -196 41 -22
166 -3 200 30 8 8 23 27 32 42 11 18 22 25 33 21 9 -3 19 -2 23 4 16 25 89 63
121 64 29 0 31 2 15 9 -15 7 -16 9 -4 9 15 1 14 11 -8 84 -26 84 -52 216 -58
297 -2 25 -11 63 -20 84 -9 22 -21 67 -26 100 -11 70 -29 126 -41 126 -4 0 -8
6 -8 13 -1 6 -9 30 -20 52 -11 22 -19 57 -20 77 0 20 -5 38 -11 40 -6 2 -16
32 -23 67 l-11 63 -24 -19z"/>
<path d="M3168 7004 c-4 -4 -5 -18 -2 -31 7 -28 -19 -63 -48 -63 -21 0 -24
-25 -4 -37 7 -4 18 -18 25 -30 6 -13 18 -23 25 -23 22 0 40 -30 43 -69 6 -120
13 -165 25 -172 7 -5 38 -9 69 -9 75 0 87 15 95 112 6 64 11 80 34 105 50 53
54 69 23 93 -21 16 -39 21 -76 19 -43 -3 -51 0 -72 27 -13 16 -24 34 -25 40 0
6 -6 16 -13 22 -17 14 -90 26 -99 16z"/>
<path d="M8452 6955 c-43 -38 -162 -184 -162 -198 0 -2 17 -1 37 2 32 5 45 16
83 68 25 34 50 62 57 63 30 1 74 110 44 110 -5 0 -32 -20 -59 -45z"/>
<path d="M6265 6940 c-19 -7 -19 -8 -2 -15 10 -4 23 -3 29 3 14 14 -3 21 -27
12z"/>
<path d="M826 6915 c-3 -8 -12 -15 -20 -15 -7 0 -16 -10 -20 -22 -3 -13 -23
-41 -45 -64 -32 -33 -41 -50 -47 -91 -6 -46 -4 -52 15 -63 12 -6 35 -8 51 -5
16 3 37 2 47 -3 13 -7 27 -5 51 8 27 15 30 19 17 30 -8 7 -12 17 -8 24 4 6 8
57 9 114 1 99 0 102 -21 102 -13 0 -25 -7 -29 -15z"/>
<path d="M3754 6805 c3 -9 -1 -18 -9 -22 -21 -8 -67 -89 -63 -110 3 -14 13
-18 48 -19 25 0 60 -4 78 -8 22 -6 32 -5 32 3 0 6 -8 11 -18 11 -37 0 -70 67
-42 85 6 3 10 15 10 26 0 12 -4 17 -11 13 -8 -4 -9 0 -4 15 5 16 2 21 -10 21
-11 0 -15 -5 -11 -15z"/>
<path d="M6587 6772 c-26 -26 -47 -50 -47 -54 0 -15 32 -8 57 12 14 11 32 20
39 20 19 0 28 40 13 55 -12 11 -22 5 -62 -33z"/>
<path d="M165 6690 c3 -5 19 -10 36 -10 24 0 29 -4 29 -24 0 -15 7 -27 19 -31
28 -8 32 -30 10 -48 -13 -12 -19 -13 -19 -4 0 6 -7 -1 -15 -17 -25 -48 -20
-63 27 -70 51 -8 68 -21 68 -52 0 -41 59 -43 81 -2 9 17 5 26 -25 57 -20 20
-36 46 -36 57 0 11 -5 25 -12 32 -14 14 -4 16 20 3 21 -11 46 5 54 37 5 18 1
23 -20 28 -15 3 -40 12 -57 20 -16 7 -57 18 -89 24 -74 12 -79 12 -71 0z"/>
<path d="M5176 6644 c-25 -26 -46 -51 -46 -56 0 -5 -4 -7 -9 -4 -15 10 -20
-33 -5 -45 8 -7 36 -22 63 -34 l48 -23 19 32 c24 40 27 59 19 124 -8 67 -26
68 -89 6z"/>
<path d="M7016 6646 c9 -19 33 -43 53 -54 20 -12 53 -40 74 -64 21 -24 54 -60
75 -81 42 -43 112 -84 112 -66 0 16 -204 222 -261 265 -60 44 -73 44 -53 0z"/>
<path d="M6787 6590 c-26 -26 -47 -57 -47 -68 0 -33 27 -42 70 -23 32 13 39
22 47 58 9 35 7 47 -6 62 -16 19 -18 18 -64 -29z"/>
<path d="M805 6621 c-31 -5 -40 -10 -40 -26 0 -17 7 -20 45 -21 25 -1 61 -6
80 -11 29 -8 38 -7 54 9 18 16 18 20 5 33 -16 17 -84 24 -144 16z"/>
<path d="M7730 6568 c-10 -24 -22 -77 -25 -118 -7 -69 -5 -79 19 -124 45 -85
29 -188 -35 -221 -29 -16 -31 -18 -14 -27 13 -8 27 -6 51 6 33 15 34 15 34 -7
0 -13 -5 -28 -11 -34 -16 -16 2 -44 51 -83 23 -18 40 -40 40 -52 0 -21 46 -68
65 -68 17 0 68 -51 105 -105 38 -55 55 -75 66 -75 4 0 23 -12 43 -27 64 -50
102 -62 159 -51 55 9 93 -2 123 -38 15 -18 132 -74 155 -74 17 0 17 3 0 44 -9
23 -23 36 -42 40 -15 4 -40 16 -55 27 -15 10 -39 19 -54 19 -30 0 -77 23 -115
57 -34 30 -105 53 -165 53 -42 0 -55 5 -83 31 -109 102 -66 297 70 315 26 4
48 10 48 15 0 5 -6 9 -12 9 -7 0 -31 18 -53 40 -132 131 -148 140 -173 100
-19 -31 -44 -26 -36 8 4 15 11 35 15 44 12 23 11 28 -6 28 -8 0 -15 -5 -15
-12 0 -6 -3 -9 -6 -5 -4 3 -19 0 -35 -8 -36 -19 -41 -19 -69 5 -45 39 -46 220
0 297 19 33 19 33 -1 33 -14 0 -26 -13 -39 -42z m100 -437 c0 -10 -30 -24 -37
-17 -3 3 -2 9 2 15 8 13 35 15 35 2z"/>
<path d="M8228 6534 c-29 -31 -84 -87 -123 -125 l-69 -69 73 -68 c41 -37 86
-75 100 -84 15 -10 37 -35 49 -57 13 -22 31 -42 41 -46 10 -3 35 -23 57 -45
38 -38 72 -56 131 -66 15 -3 52 -16 82 -29 43 -20 52 -22 47 -9 -14 38 6 83
65 143 32 34 59 65 59 71 0 18 -183 215 -218 235 -20 11 -42 26 -50 33 -7 6
-17 12 -21 12 -4 0 -14 11 -21 25 -7 14 -35 39 -61 57 -26 18 -50 43 -54 56
-9 35 -29 27 -87 -34z"/>
<path d="M6496 6549 c-22 -16 -46 -39 -55 -52 -8 -12 -26 -30 -38 -40 -23 -18
-32 -67 -13 -67 6 0 10 4 10 9 0 5 13 12 30 16 16 4 36 15 43 25 15 21 79 41
98 30 27 -17 28 2 4 50 -14 27 -28 51 -32 53 -5 2 -26 -9 -47 -24z"/>
<path d="M8044 6498 c-1 -32 2 -58 5 -58 16 1 39 29 51 63 9 24 20 37 32 37
10 0 18 4 18 9 0 4 -24 8 -52 7 l-53 0 -1 -58z"/>
<path d="M6127 6415 c-32 -49 -34 -57 -21 -70 17 -16 54 -20 54 -6 0 5 9 7 20
4 11 -3 20 -14 20 -24 0 -23 21 -24 67 -3 31 15 34 20 31 53 -3 31 -10 41 -52
69 -26 17 -56 32 -66 32 -10 0 -32 -23 -53 -55z"/>
<path d="M0 6415 c0 -8 5 -15 10 -15 6 0 8 -15 4 -40 -5 -32 -3 -40 8 -40 19
0 12 -49 -8 -57 -16 -6 -20 -153 -5 -153 5 0 12 -24 16 -52 4 -29 14 -62 21
-73 8 -11 14 -27 14 -37 0 -31 -23 -68 -42 -68 -10 0 -18 -4 -18 -10 0 -5 9
-10 19 -10 11 0 39 -9 64 -19 38 -17 45 -24 51 -56 4 -21 18 -54 30 -74 38
-61 75 -149 85 -204 9 -51 4 -96 -18 -167 -6 -19 -10 -73 -9 -120 1 -47 -1
-91 -5 -97 -5 -7 -4 -13 1 -13 29 0 31 -154 4 -207 -5 -10 -12 -39 -15 -65 -4
-26 -16 -73 -27 -105 -11 -31 -20 -70 -20 -85 0 -24 4 -28 28 -28 19 0 41 -12
65 -35 29 -28 44 -35 77 -35 34 0 42 -4 50 -25 5 -14 15 -22 22 -20 8 3 18 -7
26 -27 11 -29 10 -35 -5 -45 -27 -20 -107 -16 -127 6 -10 11 -28 22 -40 25
-22 5 -71 67 -89 110 -5 14 -10 16 -20 8 -14 -12 -57 -5 -57 9 0 5 -9 9 -20 9
-20 0 -28 -24 -12 -34 5 -3 7 -18 4 -35 -3 -23 0 -30 17 -36 12 -3 21 -15 21
-25 0 -10 4 -21 9 -25 5 -3 12 -19 16 -35 4 -16 12 -33 20 -37 7 -5 21 -24 31
-44 60 -115 68 -126 94 -136 37 -14 61 -53 71 -115 5 -27 15 -55 24 -62 29
-21 60 -256 35 -256 -5 0 -10 -7 -10 -15 0 -8 4 -15 9 -15 5 0 15 -16 23 -36
14 -34 16 -35 31 -19 16 15 17 12 17 -48 0 -43 -4 -67 -13 -70 -9 -3 -9 -7 2
-20 9 -11 28 -17 55 -17 35 0 48 -6 78 -37 24 -25 39 -52 44 -78 9 -52 44
-126 55 -119 9 5 159 -140 159 -154 0 -4 8 -12 18 -17 88 -47 112 -57 126 -52
10 4 26 27 37 52 17 37 24 45 47 45 15 0 38 7 51 16 20 14 22 23 18 57 -3 22
-10 43 -15 46 -25 16 -30 125 -7 148 8 8 15 27 15 42 0 52 -20 135 -34 143 -8
5 -17 21 -21 36 -3 17 -25 44 -52 67 -57 48 -89 114 -72 147 7 13 20 30 31 39
10 9 18 21 18 28 0 6 11 11 24 11 22 0 24 3 19 33 l-5 32 69 0 c57 1 74 5 107
28 22 15 52 27 70 27 17 0 47 6 66 13 75 28 90 39 96 74 10 53 -6 63 -91 58
-102 -6 -152 -19 -174 -46 -14 -18 -27 -22 -61 -21 -35 2 -47 -3 -66 -26 -13
-15 -24 -37 -24 -48 0 -12 -6 -27 -14 -33 -21 -17 -77 -22 -115 -9 -33 10 -36
9 -63 -23 -15 -18 -28 -39 -28 -45 0 -24 -86 -31 -115 -10 -17 12 -18 18 -7
53 7 22 12 50 12 62 0 11 3 21 8 21 4 0 16 18 26 40 11 22 24 40 30 40 6 1 24
11 40 24 26 22 28 28 22 67 -4 30 -1 52 9 69 8 14 25 49 39 78 28 59 62 81 84
54 6 -9 19 -42 28 -73 9 -32 23 -60 31 -63 22 -9 73 32 73 57 0 48 31 105 88
165 32 34 66 62 75 62 9 0 34 7 55 15 47 19 88 7 102 -30 12 -31 20 -31 67 1
28 19 47 24 73 21 41 -4 168 18 157 29 -2 3 8 18 23 34 33 35 43 92 44 250 1
58 5 111 9 118 5 7 24 19 43 27 29 12 34 19 34 47 0 30 -5 36 -51 58 -48 24
-58 37 -62 88 0 12 -4 22 -8 22 -18 0 -18 35 -1 50 13 10 21 33 25 68 7 61 -6
68 -53 25 -25 -22 -30 -34 -30 -74 0 -32 5 -49 15 -53 18 -6 20 -65 5 -147 -5
-30 -11 -89 -14 -132 -2 -43 -7 -81 -10 -84 -3 -3 -25 -8 -49 -10 -42 -5 -45
-4 -61 28 -12 24 -13 35 -4 40 7 4 -6 12 -32 20 -34 10 -44 11 -48 1 -2 -7 -8
-12 -14 -12 -6 0 -21 -10 -33 -22 -89 -92 -150 -122 -266 -134 -101 -10 -112
7 -83 131 3 13 -6 32 -26 54 l-31 34 -55 -13 c-30 -7 -54 -17 -54 -21 0 -4 -7
-15 -17 -24 -22 -23 -20 -115 4 -132 9 -7 13 -13 7 -13 -5 0 -23 -14 -41 -30
-26 -24 -41 -30 -76 -30 -60 0 -70 16 -77 114 l-5 81 -38 3 c-24 2 -40 9 -44
19 -11 28 -40 51 -71 56 -47 8 -72 25 -72 52 0 30 21 52 59 60 28 6 75 45 54
45 -6 0 -16 13 -23 30 -17 42 -34 52 -87 55 -53 2 -82 29 -86 80 -2 24 2 31
21 33 35 5 38 30 8 61 -14 15 -26 36 -26 47 0 24 -10 39 -31 46 -15 6 -21 24
-36 106 -3 17 -9 32 -14 32 -5 0 -9 7 -9 16 0 8 -4 13 -9 10 -5 -3 -21 13 -37
37 -25 36 -29 52 -29 108 0 50 -5 72 -17 86 -22 24 -23 71 -4 92 13 14 12 20
-6 49 -18 29 -22 31 -33 16 -11 -15 -13 -14 -19 11 -5 19 -10 25 -15 17 -5 -8
-16 7 -31 39 -12 28 -40 81 -61 118 -22 36 -39 73 -39 82 0 9 -7 19 -15 23 -9
3 -15 0 -15 -9z m821 -1705 c6 0 9 -19 7 -42 -3 -39 -5 -43 -28 -40 -29 4 -36
10 -44 38 -8 26 19 58 41 50 8 -3 19 -6 24 -6z m-186 -301 c26 -10 34 -20 43
-56 21 -78 16 -105 -28 -150 -43 -43 -80 -128 -80 -183 0 -16 -4 -30 -10 -30
-5 0 -10 13 -10 30 0 34 -27 108 -48 129 -17 18 -62 118 -62 140 0 23 28 60
54 72 11 5 36 21 55 34 39 29 43 29 86 14z"/>
<path d="M6580 6405 c-7 -8 -18 -15 -24 -15 -6 0 -17 -9 -24 -20 -10 -16 -10
-24 0 -40 17 -26 33 -25 93 9 38 21 51 34 53 54 3 26 1 27 -41 27 -27 0 -49
-6 -57 -15z"/>
<path d="M6848 6313 c-26 -7 -23 -42 5 -48 12 -2 58 -6 102 -7 l80 -3 0 30 0
30 -85 2 c-47 0 -93 -1 -102 -4z"/>
<path d="M6470 6179 c-14 -6 -43 -9 -65 -7 -33 2 -42 -1 -51 -20 -6 -12 -14
-19 -17 -15 -7 6 -97 -83 -97 -96 0 -5 -11 -21 -25 -37 -14 -16 -32 -45 -41
-64 -9 -19 -23 -39 -30 -43 -8 -4 -14 -23 -14 -41 l0 -33 73 -6 c60 -4 75 -2
92 13 32 29 88 54 115 52 41 -4 125 33 125 54 0 30 -39 29 -59 0 -18 -29 -44
-34 -52 -11 -9 22 13 44 53 51 50 9 100 65 109 120 8 54 2 72 -31 84 -32 12
-52 12 -85 -1z"/>
<path d="M3017 6154 c-3 -4 9 -21 28 -38 43 -41 52 -77 34 -130 -9 -24 -12
-58 -9 -81 4 -34 9 -40 30 -41 33 -1 84 -22 56 -23 -18 -1 -18 -2 -1 -21 10
-11 24 -20 30 -20 14 0 28 -27 20 -40 -8 -12 22 -20 98 -24 l67 -5 0 43 c0 29
-7 51 -20 66 -11 13 -20 36 -20 51 0 31 -16 47 -31 32 -6 -6 -27 -7 -49 -3
-30 6 -44 3 -57 -10 -17 -15 -19 -15 -34 4 -13 18 -27 45 -34 66 -1 3 -5 32
-9 65 -12 94 -23 115 -61 115 -17 0 -34 -3 -38 -6z"/>
<path d="M6035 6110 c-22 -10 -48 -25 -57 -33 -22 -17 -23 -46 -3 -53 11 -5
15 -22 15 -65 0 -55 1 -59 24 -59 54 0 113 104 87 153 -7 13 -10 35 -7 50 6
32 -4 34 -59 7z"/>
<path d="M7053 6110 c-43 -10 -63 -27 -80 -69 -37 -87 54 -136 142 -77 43 30
70 33 83 10 6 -11 20 -14 48 -12 35 3 39 6 41 33 4 49 -49 102 -116 115 -60
11 -72 11 -118 0z"/>
<path d="M1330 6093 c0 -6 -9 -21 -20 -34 -14 -15 -20 -34 -18 -54 3 -27 6
-30 33 -28 17 1 39 5 50 7 20 6 45 47 45 76 0 20 -53 47 -58 30 -3 -8 -8 -8
-18 1 -8 6 -14 7 -14 2z"/>
<path d="M3798 6093 c-23 -6 -24 -69 -3 -97 8 -11 15 -28 15 -38 0 -10 6 -18
14 -18 7 0 28 -3 45 -6 24 -5 31 -3 31 10 0 9 -4 16 -8 16 -11 0 -42 72 -42
98 0 24 -26 41 -52 35z"/>
<path d="M3430 6083 c-15 -2 -30 -15 -37 -30 -22 -46 -16 -68 22 -86 25 -12
35 -23 35 -39 0 -13 7 -44 16 -69 14 -39 20 -46 38 -41 12 3 26 9 33 14 14 11
42 -6 72 -44 15 -19 30 -25 64 -26 48 -2 121 28 131 53 15 39 3 105 -18 105
-14 0 -46 51 -46 73 0 7 -18 22 -40 32 -22 10 -40 25 -40 34 -1 12 -5 11 -20
-7 -14 -17 -25 -21 -45 -16 -14 3 -29 12 -33 19 -4 7 -23 15 -42 18 -19 3 -42
7 -50 9 -8 3 -26 3 -40 1z"/>
<path d="M648 6001 c3 -35 -2 -60 -18 -91 -12 -24 -19 -52 -16 -63 3 -12 1
-27 -5 -33 -8 -9 -3 -17 15 -29 20 -13 24 -23 20 -44 -7 -35 8 -47 71 -55 l50
-6 -3 127 c-4 167 -8 183 -58 208 -21 11 -40 23 -42 28 -10 21 -17 1 -14 -42z"/>
<path d="M400 6030 c-8 -5 -30 -10 -47 -10 -18 0 -33 -3 -33 -7 0 -23 67 -142
80 -143 16 0 61 52 73 84 5 11 -1 31 -14 52 -21 35 -34 40 -59 24z"/>
<path d="M2796 6004 c-11 -28 -6 -45 14 -62 11 -10 27 -42 35 -72 13 -47 12
-57 0 -76 -19 -30 -47 -37 -90 -25 -39 11 -51 1 -36 -27 7 -14 18 -18 36 -15
16 4 25 1 25 -7 0 -7 7 -10 15 -6 12 4 21 -7 35 -39 11 -25 24 -45 29 -45 6 0
18 -14 26 -31 14 -26 15 -38 4 -82 -7 -29 -18 -58 -25 -66 -13 -14 -66 -21
-209 -25 -49 -2 -105 -4 -122 -5 -22 -1 -33 -6 -33 -16 0 -8 -10 -25 -22 -37
-15 -15 -23 -37 -25 -72 -4 -51 -4 -51 35 -69 22 -10 71 -20 108 -24 67 -5
144 -36 144 -56 0 -12 66 0 101 19 17 8 30 25 34 44 4 16 11 32 16 35 5 4 9
28 9 55 0 58 13 70 44 41 39 -36 44 -27 48 81 2 67 7 103 15 105 7 3 9 11 6
19 -3 8 0 14 5 14 6 0 13 -8 16 -18 6 -17 36 -27 36 -13 0 3 -18 43 -40 89
-22 46 -40 88 -40 95 0 7 -7 21 -15 31 -8 11 -15 27 -15 36 0 9 -9 25 -20 35
-11 10 -20 26 -20 35 0 9 -22 41 -49 70 -28 30 -47 58 -45 62 3 5 -1 15 -9 23
-13 13 -16 13 -21 -1z"/>
<path d="M3008 5993 c12 -2 30 -2 40 0 9 3 -1 5 -23 4 -22 0 -30 -2 -17 -4z"/>
<path d="M1488 5943 c-21 -5 -41 -72 -32 -107 10 -43 27 -48 67 -20 33 22 37
29 37 69 0 34 -5 47 -19 55 -20 10 -25 11 -53 3z"/>
<path d="M7597 5886 c-25 -25 -47 -42 -50 -40 -3 3 -14 -6 -25 -20 -11 -15
-23 -26 -27 -26 -10 0 -35 -27 -35 -39 0 -6 -4 -11 -10 -11 -13 0 -13 -36 0
-61 11 -19 70 -55 70 -42 0 4 13 -14 30 -40 16 -25 47 -58 70 -72 38 -24 46
-42 39 -91 0 -4 5 -11 13 -15 11 -8 11 -10 -1 -18 -11 -7 -11 -9 0 -14 11 -4
10 -6 -2 -6 -9 -1 -24 8 -34 19 -10 11 -27 20 -38 20 -11 0 -43 25 -72 54 -29
30 -64 58 -78 61 -15 4 -29 15 -32 24 -7 22 -57 51 -89 51 -20 0 -27 -6 -34
-32 -5 -22 -19 -37 -45 -51 -20 -10 -37 -25 -37 -33 0 -8 -9 -23 -20 -34 -11
-11 -20 -28 -20 -38 0 -20 29 -52 47 -52 6 0 24 -16 40 -35 54 -68 102 -113
107 -102 2 7 5 2 5 -11 1 -25 46 -103 67 -115 8 -4 17 -26 20 -48 5 -26 15
-46 33 -59 87 -65 118 -88 151 -117 69 -60 181 -104 307 -120 23 -3 47 -11 54
-19 18 -22 65 -16 99 13 l33 27 -27 23 c-21 17 -39 23 -77 23 -27 0 -66 7 -85
15 -58 24 -186 105 -226 144 -21 19 -38 32 -38 27 0 -4 -16 9 -35 30 -19 20
-35 41 -35 45 0 18 -44 31 -82 25 -37 -6 -39 -5 -54 29 -12 31 -12 39 0 70 8
19 20 40 26 47 6 7 17 22 24 33 11 14 30 21 85 26 79 7 106 23 115 70 3 16 7
37 9 47 2 9 0 30 -6 45 -13 38 16 111 60 154 l33 33 93 -4 c50 -3 80 -2 65 0
-16 3 -28 9 -28 14 0 5 -9 10 -19 12 -10 2 -76 54 -145 116 -69 61 -130 112
-134 112 -5 0 -30 -20 -55 -44z"/>
<path d="M6672 5867 c-52 -32 -53 -33 -50 -76 2 -25 8 -46 14 -48 6 -2 26 11
45 29 19 18 37 31 41 30 5 -1 38 81 38 95 0 12 -43 -3 -88 -30z"/>
<path d="M1125 5851 c-3 -6 -1 -11 4 -11 21 0 10 -40 -15 -57 -22 -14 -31 -15
-58 -4 -48 18 -51 18 -48 -9 1 -14 20 -41 43 -62 29 -27 40 -44 37 -60 -2 -14
-9 -23 -19 -22 -12 1 -19 -10 -23 -38 -8 -51 -2 -60 43 -58 66 3 114 0 107 -7
-3 -4 -16 -8 -29 -10 -27 -4 -30 -8 -50 -61 -37 -95 -10 -129 90 -111 85 15
123 40 124 81 2 86 4 93 24 96 62 12 70 75 19 152 l-28 42 -51 -6 c-63 -7 -87
7 -114 69 -27 61 -47 89 -56 76z m165 -331 c0 -5 -13 -10 -29 -10 -17 0 -33 5
-36 10 -4 6 8 10 29 10 20 0 36 -4 36 -10z"/>
<path d="M1861 5816 c-18 -19 -21 -31 -16 -54 l6 -29 30 30 c23 22 29 36 25
53 -8 30 -17 30 -45 0z"/>
<path d="M7388 5819 c-27 -29 -21 -45 7 -19 24 23 32 41 18 39 -5 0 -16 -9
-25 -20z"/>
<path d="M1520 5641 c-19 -37 -2 -43 29 -12 17 17 17 20 4 25 -21 8 -21 8 -33
-13z"/>
<path d="M586 5491 c-16 -11 -33 -26 -38 -35 -11 -20 21 -77 53 -93 33 -17 59
-51 59 -78 0 -13 15 -38 32 -56 26 -26 43 -33 83 -37 35 -3 55 -10 66 -25 20
-25 35 -17 43 24 3 17 20 44 37 60 26 24 30 33 24 60 -7 31 -8 31 -53 25 -25
-3 -55 -14 -66 -24 -30 -25 -57 -39 -93 -46 -31 -7 -32 -7 -38 38 -7 42 -5 48
28 86 67 79 49 120 -53 120 -37 0 -64 -6 -84 -19z"/>
<path d="M2024 5454 c3 -9 6 -20 6 -25 0 -5 7 -9 15 -9 18 0 20 21 3 38 -17
17 -31 15 -24 -4z"/>
<path d="M3090 5436 c0 -2 7 -9 15 -16 12 -10 15 -10 15 4 0 9 -7 16 -15 16
-8 0 -15 -2 -15 -4z"/>
<path d="M7814 5402 c-51 -5 -53 -39 -7 -80 61 -53 111 -75 188 -80 l70 -5
-19 22 c-13 14 -15 21 -6 21 8 0 5 7 -8 18 -54 46 -63 52 -72 52 -5 0 -15 9
-23 20 -15 21 -75 37 -123 32z"/>
<path d="M3942 5388 c-7 -7 -27 -11 -46 -10 -28 2 -40 -5 -73 -41 -40 -44 -40
-44 -32 -98 5 -30 11 -64 14 -75 7 -30 -13 -43 -62 -42 -76 1 -80 -20 -25
-133 32 -66 40 -75 57 -68 11 4 37 10 58 14 20 3 37 10 37 15 0 6 7 10 16 10
8 0 22 6 30 14 16 16 19 56 4 56 -5 0 -7 6 -4 14 3 7 -9 26 -25 42 -42 39 -39
59 9 81 41 19 67 64 55 95 -3 8 9 30 30 53 19 22 35 44 35 50 0 31 -54 47 -78
23z"/>
<path d="M4257 5281 c6 -24 43 -29 43 -6 0 8 -4 15 -9 15 -5 0 -16 3 -24 6
-12 4 -14 0 -10 -15z"/>
<path d="M5535 5230 c-18 -19 -17 -20 3 -20 15 0 22 6 22 20 0 11 -2 20 -3 20
-2 0 -12 -9 -22 -20z"/>
<path d="M8193 5174 c-6 -17 35 -65 84 -95 25 -16 42 -18 90 -13 86 9 92 12
64 35 -13 10 -31 19 -40 19 -9 0 -46 16 -81 35 -71 38 -107 44 -117 19z"/>
<path d="M3440 5140 c-21 -21 -26 -45 -11 -55 17 -10 8 -45 -11 -45 -10 0 -18
-5 -18 -11 0 -8 -12 -10 -35 -6 -39 6 -55 -10 -55 -57 0 -38 31 -31 44 11 4
11 14 24 22 27 18 7 54 -10 54 -25 0 -13 25 -6 25 7 1 5 7 20 15 34 7 14 14
27 14 30 1 3 16 5 35 6 41 0 73 35 69 72 -3 23 -7 25 -66 29 -52 2 -66 -1 -82
-17z"/>
<path d="M3174 5108 c4 -24 6 -62 6 -85 0 -23 7 -58 18 -78 l18 -36 21 23 c21
22 21 27 11 97 -7 51 -17 80 -33 97 -35 37 -48 31 -41 -18z"/>
<path d="M2308 5083 c-25 -6 -22 -30 3 -36 19 -5 21 -10 15 -43 -9 -44 2 -54
56 -54 33 0 38 3 44 28 16 73 36 99 65 81 21 -13 39 -11 39 6 0 19 -61 30
-102 17 -30 -10 -76 -10 -95 0 -4 3 -16 3 -25 1z"/>
<path d="M3050 4865 c-10 -13 -10 -19 5 -35 22 -24 13 -50 -17 -50 -52 -1 -54
-15 -9 -74 36 -47 44 -64 48 -115 3 -33 0 -81 -6 -108 -11 -42 -10 -49 6 -61
10 -7 27 -10 38 -7 11 3 37 9 58 12 20 3 37 10 37 14 0 5 15 9 34 9 36 0 46
-12 46 -57 0 -21 2 -23 15 -13 11 9 14 26 9 69 -16 154 -71 307 -119 329 -14
6 -25 18 -25 26 0 8 -13 19 -29 24 -16 6 -34 20 -41 31 -13 25 -33 27 -50 6z"/>
<path d="M2655 4835 c-22 -14 -54 -31 -72 -39 -17 -8 -34 -24 -38 -35 -3 -12
-15 -26 -26 -31 -23 -13 -25 -33 -4 -50 21 -18 19 -39 -11 -81 -33 -48 -30
-84 8 -84 33 -1 45 -12 50 -45 3 -22 7 -25 38 -22 29 2 85 18 98 28 2 1 -3 13
-11 26 -12 18 -13 36 -6 86 5 35 6 69 2 75 -3 6 -1 7 5 3 8 -5 12 2 12 21 0
15 14 46 30 67 35 46 38 81 11 96 -28 14 -41 12 -86 -15z"/>
<path d="M2093 4827 c-41 -21 -43 -24 -43 -67 0 -40 4 -48 30 -63 16 -10 50
-38 75 -63 25 -25 51 -42 57 -38 6 4 8 23 5 48 -3 23 -2 68 2 100 7 55 6 62
-15 83 -28 28 -56 28 -111 0z"/>
<path d="M3440 4769 c0 -17 -8 -44 -17 -60 -16 -27 -16 -30 -1 -45 15 -16 19
-15 47 14 34 33 40 74 17 105 -22 29 -46 21 -46 -14z"/>
<path d="M1607 4568 c8 -42 13 -48 13 -17 0 14 5 30 12 37 9 9 7 12 -10 12
-19 0 -21 -4 -15 -32z"/>
<path d="M5025 4569 c-10 -29 19 -58 42 -43 9 6 20 23 24 37 7 25 5 27 -26 27
-25 0 -35 -5 -40 -21z"/>
<path d="M7740 4545 c14 -8 32 -14 40 -15 16 0 104 -52 152 -89 36 -28 52 -28
37 1 -14 25 -34 48 -44 48 -3 0 -19 10 -35 22 -16 11 -39 22 -52 23 -13 0 -33
6 -45 13 -12 7 -34 12 -50 12 l-28 -1 25 -14z"/>
<path d="M1382 4492 c-46 -40 -52 -52 -24 -52 29 0 59 28 64 60 3 16 4 30 4
30 -1 0 -20 -17 -44 -38z"/>
<path d="M2190 4494 c-19 -7 -50 -13 -68 -13 -22 -1 -41 -9 -56 -26 -13 -14
-31 -25 -41 -25 -11 0 -15 -5 -11 -15 4 -11 -1 -15 -17 -15 -45 0 -52 -16 -18
-45 17 -16 31 -36 31 -45 0 -9 14 -29 32 -44 58 -48 156 -31 234 42 41 38 51
83 29 131 -13 31 -62 75 -77 70 -1 -1 -19 -7 -38 -15z"/>
<path d="M1277 4404 c-31 -41 -14 -47 28 -10 38 34 39 35 15 35 -15 0 -32 -9
-43 -25z"/>
<path d="M1559 4353 c-33 -36 -49 -76 -39 -93 5 -8 6 -18 3 -23 -4 -6 6 -7 23
-3 41 11 84 9 100 -5 16 -13 19 -82 4 -109 -12 -23 -2 -30 26 -20 13 5 26 28
39 66 11 33 24 66 31 74 6 8 14 28 18 44 4 16 15 30 26 33 25 7 26 29 3 42
-10 5 -61 12 -113 16 l-95 7 -26 -29z"/>
<path d="M2321 4248 c-1 -9 -11 -18 -23 -20 -15 -2 -24 -11 -26 -27 -2 -13
-15 -34 -28 -46 -15 -14 -24 -33 -24 -51 0 -22 3 -26 10 -14 7 10 10 11 10 2
0 -9 12 -6 40 8 22 11 40 26 40 32 0 6 6 19 13 27 11 13 11 25 1 61 -7 25 -13
37 -13 28z"/>
<path d="M28 4230 c-27 -14 -28 -18 -28 -93 0 -75 1 -77 20 -67 11 6 27 21 35
34 9 13 33 31 55 41 41 19 52 35 24 35 -9 0 -31 15 -48 33 -30 32 -32 32 -58
17z"/>
<path d="M2830 4239 c-14 -6 -43 -8 -65 -4 -28 4 -46 1 -60 -9 -11 -9 -26 -16
-33 -16 -20 0 -59 -42 -66 -72 -5 -22 -2 -28 16 -34 54 -18 148 15 148 51 0
10 12 12 53 8 60 -6 75 4 82 56 3 28 1 31 -23 30 -15 0 -38 -5 -52 -10z"/>
<path d="M240 4055 c0 -14 -10 -35 -21 -46 -35 -35 -59 -117 -52 -182 6 -56 5
-57 -20 -57 -14 0 -29 5 -32 10 -3 6 -13 10 -22 10 -9 0 -24 6 -32 14 -9 7
-26 17 -39 21 -23 7 -23 6 -20 -72 l3 -78 79 1 c55 1 81 6 87 15 15 25 43 -4
58 -59 9 -34 27 -66 52 -92 22 -23 39 -35 39 -28 0 9 3 9 10 -2 16 -26 24 -1
11 38 -8 20 -16 92 -20 159 -4 67 -12 127 -18 135 -6 7 -13 40 -17 73 -11 90
-12 94 -19 101 -4 4 -7 20 -7 36 0 15 -4 28 -10 28 -5 0 -10 -11 -10 -25z"/>
<path d="M1878 4034 c-3 -5 -11 -33 -19 -61 -14 -59 -10 -57 -120 -53 -50 1
-69 -2 -75 -13 -5 -7 -25 -17 -45 -20 -42 -6 -79 19 -79 54 0 41 -18 59 -61
59 -38 0 -99 -25 -99 -41 0 -8 -55 -78 -94 -120 -43 -46 -59 -88 -51 -133 4
-23 9 -70 10 -106 4 -93 13 -121 54 -157 20 -18 39 -33 42 -33 4 0 22 -14 40
-31 27 -25 39 -30 66 -26 18 3 46 15 62 26 16 12 42 21 57 21 15 0 24 3 21 7
-10 9 50 33 83 33 30 0 60 22 60 45 0 7 6 15 13 18 16 5 -9 37 -29 37 -20 0
-17 23 6 48 26 27 36 28 43 2 4 -17 14 -20 59 -20 45 0 58 5 88 31 19 17 52
42 73 55 40 26 44 42 26 105 -13 43 0 73 27 62 8 -3 35 0 59 7 l44 12 -22 39
c-12 21 -27 39 -33 39 -7 0 -14 6 -17 14 -3 8 -34 33 -68 56 -62 41 -112 59
-121 44z m-339 -498 c24 -13 24 -14 3 -25 -23 -12 -75 -15 -85 -4 -6 6 40 43
53 43 3 -1 16 -7 29 -14z"/>
<path d="M2842 3821 c2 -21 6 -37 11 -34 11 7 8 73 -3 73 -6 0 -9 -17 -8 -39z"/>
<path d="M2530 3739 c-18 -24 -82 -47 -139 -51 -29 -1 -50 -10 -66 -26 -24
-24 -42 -78 -31 -90 10 -9 89 -2 103 10 8 6 33 8 61 5 41 -5 53 -2 94 26 37
25 48 38 48 59 0 15 5 30 10 33 14 9 12 21 -6 39 -21 22 -56 19 -74 -5z"/>
<path d="M5379 3573 c-19 -3 -32 -17 -52 -57 -15 -29 -27 -55 -27 -58 0 -3 10
-8 23 -12 22 -5 262 -229 262 -244 0 -7 122 -117 223 -201 37 -32 51 -49 47
-62 -12 -37 13 -25 74 37 51 52 60 64 43 64 -12 0 -26 8 -31 18 -14 25 -194
200 -274 266 -69 55 -107 96 -107 113 0 14 -40 48 -77 67 -21 10 -34 26 -38
46 -7 30 -10 32 -66 23z"/>
<path d="M1883 3477 c-17 -27 4 -56 40 -57 14 0 18 6 15 26 -3 30 -42 52 -55
31z"/>
<path d="M394 3466 c-4 -9 0 -24 9 -34 8 -9 18 -28 21 -42 2 -14 3 -3 2 23 -4
54 -21 82 -32 53z"/>
<path d="M2465 3413 c-33 -36 -39 -50 -38 -98 1 -33 2 -34 33 -50 18 -9 40
-13 52 -9 18 5 20 11 13 53 -4 25 -8 67 -8 94 0 26 -4 47 -9 47 -5 0 -25 -17
-43 -37z"/>
<path d="M2193 3378 c-26 -13 -29 -30 -9 -47 27 -23 88 21 70 50 -7 12 -33 10
-61 -3z"/>
<path d="M1825 3290 c-77 -80 -88 -102 -83 -165 3 -33 7 -40 32 -46 42 -11 48
-29 26 -66 l-19 -32 37 -31 c20 -17 43 -28 53 -25 9 3 28 -6 44 -21 23 -21 34
-25 64 -19 46 8 91 50 91 85 0 14 -10 45 -22 68 -13 23 -35 65 -51 93 -31 59
-33 69 -22 162 6 53 5 67 -6 68 -67 7 -69 6 -144 -71z"/>
<path d="M1388 3238 c-7 -4 -31 -13 -53 -18 -75 -20 -115 -42 -121 -67 -5 -20
3 -34 43 -74 l51 -50 73 8 74 8 3 75 c2 41 1 84 -2 96 -6 23 -46 37 -68 22z"/>
<path d="M2729 3210 c-96 -9 -135 -27 -146 -68 -8 -33 3 -49 55 -78 31 -18 58
-24 101 -24 l58 0 27 82 c22 65 25 83 14 89 -7 5 -15 8 -18 7 -3 0 -44 -4 -91
-8z"/>
<path d="M2275 3184 c-14 -15 -25 -35 -25 -46 0 -20 35 -38 76 -38 16 0 24 -6
24 -18 0 -10 13 -28 28 -39 27 -20 29 -20 51 -4 18 14 21 23 15 45 -3 15 -16
31 -28 36 -11 4 -37 26 -56 49 -19 22 -41 41 -48 41 -7 0 -24 -12 -37 -26z"/>
<path d="M4891 3080 c-21 -21 -30 -38 -28 -53 6 -34 17 -55 33 -61 9 -3 12 -1
9 4 -8 13 15 13 35 0 12 -8 12 -12 2 -18 -9 -6 -1 -14 27 -27 22 -9 54 -35 71
-56 17 -22 35 -39 41 -39 22 0 68 -66 69 -97 0 -29 3 -33 28 -33 32 -1 38 -5
122 -95 54 -57 74 -72 114 -83 43 -11 51 -10 68 4 30 28 21 50 -48 116 -37 35
-81 79 -98 98 -49 54 -140 140 -150 140 -5 0 -30 21 -56 48 -64 63 -77 73 -92
70 -7 -2 -26 23 -43 54 -35 68 -56 73 -104 28z"/>
<path d="M807 3003 c-4 -3 -7 -15 -7 -25 0 -10 -4 -18 -9 -18 -5 0 -9 -38 -9
-85 0 -51 -5 -92 -12 -100 -6 -7 -10 -26 -8 -42 3 -25 7 -28 43 -31 42 -3 85
21 85 47 0 7 11 24 25 39 18 19 25 38 25 67 0 22 3 49 6 61 4 15 -1 23 -18 31
-13 7 -17 12 -9 12 8 1 -3 12 -23 26 -36 24 -75 32 -89 18z"/>
<path d="M4785 2950 c-3 -5 -15 -10 -25 -10 -31 0 -36 -43 -9 -79 13 -17 31
-32 41 -32 10 -1 21 -2 26 -3 20 -5 190 -190 194 -211 6 -30 2 -35 -31 -35
-36 1 -62 18 -111 72 -23 26 -63 64 -90 84 -31 24 -51 48 -55 66 -9 39 -20 42
-65 17 -29 -16 -40 -29 -40 -46 0 -27 56 -82 83 -83 11 0 21 -8 24 -18 2 -11
21 -30 41 -42 59 -38 122 -116 122 -150 0 -17 -4 -30 -10 -30 -20 0 -93 44
-124 74 -17 18 -48 44 -69 59 -59 44 -87 73 -87 89 0 9 -6 21 -14 27 -10 8
-23 4 -56 -20 l-42 -31 28 -30 c16 -17 47 -42 69 -56 22 -14 54 -38 70 -54 20
-20 37 -28 53 -25 19 4 22 0 22 -25 0 -16 6 -31 15 -34 8 -4 15 -11 15 -17 0
-6 8 -19 17 -29 15 -17 15 -20 0 -35 -14 -14 -20 -15 -44 -4 -40 18 -93 54
-93 64 0 11 -21 32 -62 59 -40 27 -108 101 -108 117 0 22 -28 10 -53 -22 l-25
-33 25 -22 c14 -12 35 -28 46 -34 12 -6 30 -22 40 -35 11 -13 41 -36 67 -51
41 -24 120 -114 120 -137 0 -3 -11 -17 -24 -31 l-23 -26 -34 34 c-19 18 -43
38 -54 44 -11 6 -21 21 -23 33 -2 13 -11 21 -22 21 -11 0 -29 14 -42 30 -12
17 -31 30 -43 30 -20 0 -25 6 -55 66 -8 16 -15 30 -16 32 -1 1 -14 -2 -30 -8
-38 -15 -84 -68 -84 -97 0 -30 41 -103 58 -103 8 0 12 -12 12 -32 -1 -33 10
-118 16 -118 41 0 164 -26 177 -37 34 -31 13 -134 -34 -167 -13 -9 -38 -16
-56 -16 -17 0 -34 -4 -38 -9 -5 -9 28 -178 37 -186 1 -1 29 -10 60 -19 42 -12
64 -25 80 -47 28 -38 76 -59 134 -59 34 0 51 -7 79 -31 38 -34 41 -46 24 -94
-11 -30 -9 -33 37 -82 49 -51 134 -195 134 -227 0 -9 8 -33 19 -54 10 -20 22
-55 25 -77 6 -30 20 -52 59 -88 l50 -48 21 23 c41 46 67 89 71 116 8 67 46
120 186 264 49 50 89 96 89 100 0 5 11 19 25 32 l25 24 -37 7 c-50 9 -193 87
-250 136 -24 22 -57 46 -71 53 -43 22 -66 53 -87 119 -20 61 -21 62 -64 69
-47 8 -84 36 -107 81 -20 37 -9 96 20 107 28 10 63 50 68 75 2 12 24 30 61 47
51 25 57 31 51 51 -3 12 -13 30 -22 40 -8 9 -11 18 -6 19 5 0 14 2 19 3 6 2
31 3 57 4 37 1 50 6 58 21 24 45 -21 112 -144 213 -44 37 -61 77 -33 77 7 0
23 -10 35 -22 11 -13 26 -27 31 -33 6 -5 36 -36 66 -68 51 -54 57 -57 92 -53
21 3 41 5 45 5 4 1 14 13 22 28 13 26 12 30 -16 70 -17 23 -34 40 -38 38 -11
-7 -150 142 -150 160 0 8 -6 15 -14 15 -8 0 -38 18 -67 40 -30 22 -57 40 -62
40 -4 0 -7 7 -5 17 2 10 -18 31 -57 57 -43 30 -62 50 -69 74 -7 26 -14 32 -37
32 -15 0 -31 -4 -34 -10z m-14 -806 c4 -2 4 -15 1 -29 l-5 -26 -28 27 c-16 15
-29 31 -29 36 0 7 44 1 61 -8z"/>
<path d="M1640 2841 c-45 -7 -61 -15 -155 -73 -48 -29 -51 -30 -78 -14 -16 9
-44 16 -63 16 -35 0 -35 0 -29 -37 11 -65 14 -69 63 -96 71 -39 135 -58 171
-51 27 6 31 4 31 -14 0 -38 61 -35 79 4 20 44 93 35 236 -32 43 -19 52 -21 64
-9 12 12 12 20 1 57 -19 60 -36 76 -86 84 -31 4 -44 11 -44 22 0 27 -43 80
-70 86 -14 3 -34 19 -45 35 -11 17 -22 30 -25 30 -3 -1 -25 -5 -50 -8z"/>
<path d="M0 2678 l1 -63 14 39 c9 26 11 46 5 62 -15 38 -20 28 -20 -38z"/>
<path d="M210 2594 c0 -10 -6 -14 -15 -10 -8 3 -15 1 -15 -4 0 -13 10 -13 48
1 34 12 34 29 1 29 -11 0 -19 -7 -19 -16z"/>
<path d="M657 2473 c-2 -5 -7 -25 -11 -45 -5 -27 -15 -42 -40 -57 -42 -26 -44
-26 -56 4 -8 22 -13 24 -30 15 -11 -6 -21 -16 -21 -23 -1 -7 -2 -19 -3 -27 0
-8 -23 -30 -50 -47 l-48 -33 -33 28 c-18 15 -35 36 -37 47 -3 18 -13 21 -88
25 -79 6 -150 28 -150 48 0 7 -75 52 -86 52 -2 0 -4 -553 -4 -1230 l0 -1230
1993 0 1992 0 10 23 c7 14 19 22 35 22 15 0 26 6 28 18 2 9 -1 17 -7 17 -6 0
-11 18 -11 39 0 22 -9 60 -20 86 -30 69 -27 79 17 70 31 -6 61 -30 170 -141
l132 -134 325 0 c317 0 326 1 326 20 0 27 17 62 79 165 67 112 77 122 176 194
99 72 110 78 171 91 84 18 332 120 364 150 29 27 90 60 140 75 57 17 117 55
147 92 17 22 46 46 65 53 18 7 40 19 48 25 8 7 50 31 93 53 108 57 118 65 231
173 56 53 142 123 191 156 119 79 135 113 135 284 0 83 -3 98 -20 114 -11 10
-23 36 -27 57 -8 52 -38 73 -87 60 -20 -6 -109 -53 -198 -104 -90 -52 -181
-102 -203 -110 -22 -9 -94 -39 -160 -67 -135 -56 -207 -71 -310 -64 -66 4 -72
2 -101 -25 -18 -16 -36 -37 -41 -46 -8 -15 -81 -91 -419 -441 -56 -58 -110
-105 -120 -105 -10 0 -28 10 -41 22 -22 20 -23 21 -23 2 0 -10 8 -24 19 -31
11 -7 19 -23 19 -39 -1 -16 4 -30 10 -32 15 -5 4 -170 -14 -206 -7 -16 -14
-36 -14 -45 0 -9 -16 -38 -35 -65 -19 -27 -35 -53 -35 -57 0 -4 -15 -23 -32
-42 -18 -20 -51 -56 -73 -81 -22 -24 -42 -44 -45 -44 -18 1 -50 -17 -55 -31
-6 -20 -93 -61 -130 -61 -14 0 -33 -7 -41 -15 -16 -16 -81 -20 -100 -7 -6 4
-10 15 -8 24 1 10 -4 18 -12 18 -8 0 -14 -5 -14 -10 0 -14 -35 20 -43 42 -4
10 5 27 23 46 15 16 34 46 41 65 7 20 21 38 32 41 18 4 19 11 13 55 -6 43 -4
51 9 51 9 0 14 4 10 9 -3 5 4 12 15 16 13 4 21 16 22 33 0 15 3 38 5 52 12 71
13 221 3 240 -13 25 -11 29 20 35 31 6 38 15 11 15 -12 0 -20 4 -16 9 3 5 -2
17 -11 25 -15 15 -8 21 19 17 4 0 7 48 7 108 0 60 4 111 9 113 15 6 24 48 9
48 -7 0 -2 9 12 20 14 11 19 20 12 20 -7 0 -11 11 -10 28 4 56 -14 60 -83 15
-40 -26 -140 -48 -210 -45 -40 1 -50 -2 -73 -29 l-28 -31 -128 4 c-104 2 -131
6 -147 20 -16 15 -39 18 -141 18 -71 0 -123 -4 -127 -10 -4 -6 -10 -8 -15 -5
-5 3 -11 -9 -15 -26 -6 -27 -2 -36 27 -65 18 -19 45 -36 58 -39 14 -3 39 -8
57 -11 33 -6 87 -47 76 -58 -4 -3 3 -6 15 -6 17 0 22 6 23 28 1 16 3 20 6 10
2 -10 12 -18 22 -18 9 0 17 -8 18 -19 1 -14 -3 -18 -13 -14 -8 3 -23 -2 -33
-11 -16 -15 -19 -15 -24 -1 -9 21 -27 19 -27 -4 0 -18 -6 -19 -86 -14 -118 7
-137 14 -149 49 -22 63 -41 74 -135 74 -75 1 -88 3 -112 25 -16 13 -28 29 -28
36 0 7 -15 9 -47 4 -108 -14 -178 -6 -188 24 -5 18 -16 19 -133 18 l-127 -2
-3 33 c-3 27 -7 32 -28 32 -17 0 -27 8 -33 24 -11 27 -30 36 -73 36 -16 0 -42
6 -56 13 -59 30 -98 45 -124 46 -15 0 -51 10 -80 21 -29 11 -74 20 -100 20
-55 0 -78 7 -78 26 0 7 -36 54 -80 104 -44 50 -80 95 -80 100 0 22 14 40 31
40 34 0 23 44 -25 95 -39 42 -47 46 -82 44 -21 -2 -59 -14 -84 -26 l-45 -23
-38 38 c-21 20 -40 47 -44 59 -5 22 -10 23 -81 22 -48 -1 -78 3 -80 10 -2 6
-23 11 -46 11 -39 0 -47 5 -120 79 -74 75 -78 80 -71 112 4 18 12 41 18 50 7
12 6 23 -6 40 -21 29 -23 95 -3 102 25 10 28 56 6 93 -12 19 -25 34 -30 34 -5
0 -12 9 -15 20 -12 39 -56 74 -120 96 l-64 23 -32 -30 c-31 -29 -31 -30 -14
-49 10 -11 35 -25 56 -30 41 -11 48 -18 54 -52 3 -13 10 -35 16 -50 10 -25 17
-28 55 -28 37 0 43 -3 41 -20 -1 -11 -7 -20 -14 -20 -7 0 -18 -9 -25 -20 -9
-14 -24 -20 -49 -20 -25 0 -48 -9 -74 -30 -36 -28 -43 -30 -130 -30 -86 0 -95
2 -136 30 -28 19 -57 30 -80 30 -27 0 -43 8 -68 34 -36 37 -45 37 -95 3 -37
-26 -86 -24 -108 4 -24 29 -23 46 7 73 14 13 25 34 25 47 0 13 4 30 9 38 12
19 -20 83 -51 105 -25 18 -35 20 -41 9z m-432 -147 c36 -15 69 -56 63 -79 -2
-11 -21 -4 -75 27 -40 22 -72 44 -73 48 0 6 19 13 43 17 4 0 23 -5 42 -13z
m4340 -1245 c11 -5 28 -4 38 1 13 6 17 5 17 -7 0 -8 -7 -15 -16 -15 -8 0 -12
-4 -9 -10 3 -5 1 -10 -4 -10 -6 0 -11 -8 -11 -19 0 -25 -21 -41 -56 -43 -16
-1 -35 -6 -43 -12 -12 -9 -13 -2 -9 42 7 71 38 95 93 73z m25 -141 c11 -6 17
-17 14 -24 -3 -8 0 -17 5 -21 6 -3 9 -11 6 -16 -4 -5 -1 -9 5 -9 7 0 5 -7 -4
-16 -22 -22 -32 -43 -40 -84 -8 -48 -54 -70 -92 -45 -14 9 -28 24 -31 33 -4 9
-15 23 -25 30 -16 12 -16 15 -4 28 8 8 20 14 26 14 6 0 13 14 17 30 3 17 10
30 15 30 6 0 7 11 4 24 -4 15 -1 26 7 29 22 9 78 7 97 -3z m-1070 -85 c0 -14
-7 -28 -15 -31 -8 -4 -15 -13 -15 -21 0 -12 -9 -14 -47 -8 -42 6 -73 23 -73
40 0 15 30 34 61 38 83 10 89 9 89 -18z m1940 -25 c0 -28 -45 -68 -90 -80 -22
-6 -47 -13 -55 -16 -19 -8 -24 26 -9 57 33 67 154 98 154 39z"/>
<path d="M1534 2454 c4 -16 7 -36 7 -45 0 -9 19 -25 41 -37 33 -16 45 -18 60
-9 18 12 18 12 -2 17 -32 8 -60 38 -60 65 0 14 -4 25 -9 25 -5 0 -17 3 -27 7
-14 5 -16 2 -10 -23z"/>
<path d="M2084 2222 c-7 -4 -9 -23 -5 -52 5 -32 8 -40 14 -27 4 10 11 16 16
13 5 -3 16 5 25 19 9 14 23 25 31 25 18 0 20 20 3 21 -7 1 -26 3 -43 5 -16 2
-35 0 -41 -4z"/>
<path d="M1969 1893 l-33 -14 34 -32 c41 -38 60 -42 60 -13 0 12 3 31 6 42 8
28 -22 36 -67 17z"/>
<path d="M4325 1564 c-16 -13 -47 -34 -67 -46 -40 -23 -46 -36 -26 -56 16 -16
152 -16 166 1 6 7 8 34 4 67 -8 65 -29 75 -77 34z"/>
<path d="M4736 745 c4 -8 10 -15 15 -15 5 0 9 7 9 15 0 8 -7 15 -15 15 -9 0
-12 -6 -9 -15z"/>
<path d="M4600 357 c0 -16 6 -23 20 -23 14 0 20 7 20 23 0 16 -6 23 -20 23
-14 0 -20 -7 -20 -23z"/>
</g>
</svg>
