<?xml version="1.0" standalone="yes"?>
<svg xmlns="http://www.w3.org/2000/svg" width="640" height="480">
<path style="fill:#ccc; stroke:none;" d="M108 0C108.011 3.98386 108.928 8.05792 108.726 12C108.378 18.7991 106.286 25.4233 105 32C111.652 32.2159 114.982 36.0546 119 41L133 42C131.902 44.0824 131.315 45.6702 131 48C134.846 49.7212 137.248 53.1291 141 55C140.528 53.5837 140.186 53.1864 139 52L144 53C141.954 48.4922 143.094 47.9043 145 44C140.097 43.6477 135.735 41.2772 131 40C137.952 34.8131 148.177 37.4532 153 29L147 28L147 24C145.217 24.9802 145.406 24.9076 145 27C141.752 26.3705 139.975 26.6701 139 30C135.519 29.1099 133.343 28.4704 130 30C128.999 23.6732 123.116 20.1079 117 19L118 13L113 12L114 7C111.979 4.6481 113.084 1.87854 115.745 4.59183C118.458 7.35706 121.966 10.5555 124.412 13.4938C127.631 17.3604 126.23 20.5821 132 22C132.915 17.7007 131.701 13.291 128.726 9.87347C125.676 6.36871 122.437 6.35376 124 1C118.618 0.575226 113.421 0 108 0M140 0L142 10L145 10C144.794 5.57196 144.141 2.14709 140 0M187 9C189.735 7.61053 191.937 6.41718 195 6C193.672 7.6102 192.617 8.70114 191 10L191 12C192.8 12.5618 194.122 12.8241 196 13L196 16L206 17L206 20C209.52 20.5468 212.636 21.8805 216 23L213 16C216.387 17.7298 217.964 21.1503 221.184 22.9722C224.2 24.6782 227.756 23.4674 230.957 24.3179C235.003 25.393 236.689 29.4284 238 33L231 32L232 35C225.723 33.4493 220.283 33.45 214 33C213.316 34.5801 213.195 34.7772 212 36L214 39C211.719 37.8517 210.046 35.761 207.741 34.7369C205.399 33.6965 202.739 34.1127 200.514 32.6821C193.941 28.4557 191.678 23.2519 183 23C184.202 28.6351 189.038 29.7669 192.911 33.4599C195.774 36.1896 197.036 39.2582 198 43C193.475 42.6024 189.44 40.764 185 40C185 41.7969 185.014 41.5214 186 43L182 43C183.99 48.8094 188.999 47.2039 193.7 49.0887C202.731 52.7097 209.166 60.9628 208 71C216.328 72.8054 222.04 68.6428 227 78L216 77C213.346 84.5511 209.605 80.9213 204 79L203 83C190.71 82.1835 186.218 70.0694 176 66C178.304 77.0215 186.5 92.8156 198 96C196.979 103.883 204.863 106.817 206 114C202.708 112.855 200.475 112.444 197 113L197 117C193.038 118.266 192.8 120.207 194 124C190.96 126.156 191.255 128.534 192 132C188.301 130.307 185.371 128.13 182 126C182.067 132.056 183.225 140.526 190 142C189.518 139.636 189.364 139.482 187 139L187 135C190.078 135.064 192.975 135.438 196 136C200.55 133.082 208.02 137.115 212 140C209.393 139.564 207.571 139.437 205 140C206.506 140.683 207.315 140.826 209 141C209.819 143.791 211.295 145.644 213 148C209.632 147.324 201.725 144.152 201 149C184.883 144.601 171.803 140.834 155 144C153.896 140.565 150.455 137.371 149.981 133.91C149.372 129.473 154.503 123.965 158 122C155.879 115.221 153.152 110.734 149 105C157.109 104.734 155.394 100.886 153.544 94.9105C152.326 90.9778 152.048 87.7231 150 84C153.6 85.1395 156.297 85.9254 160 85L160 83C156.823 81.4255 154.394 79.617 152 77C147.021 79.0952 144.169 75.3591 140 72.9938C133.295 69.1899 120.339 69.7708 116 63L120 64C120.83 62.2656 121.026 61.8462 121 60C126.814 62.996 131.202 68.4889 138 69C137.032 66.0359 136.066 65.497 133 65C134.337 63.7204 135.4 62.9695 137 62L137 60C133.635 59.271 130.352 60.2619 127 59.571C119.97 58.122 113.088 55.01 106 54L106 52L110 52C108.245 49.0208 106.075 47.5474 103 46C101.786 50.1549 96.2114 53.4823 96.689 58.081C97.2952 63.9173 103.717 64.5291 106.079 68.5154C108.086 71.9002 101.98 72.7358 100.045 72.6697C98.7168 72.6244 97.2962 72.2369 96 72C96.6829 75.4402 98.2173 77.9967 100 81L94 78C92.5888 84.2146 94.7854 86.4111 101 85C99.8449 87.8585 99.7647 89.928 100 93L97 92C97.6128 93.6615 98.0427 94.4833 99 96L95 95C91.1547 104.09 96.0731 104.537 104 105C99.7461 110.42 93.5153 111.572 91.9151 119C91.3351 121.693 91.1711 124.928 94.2292 126.103C96.4908 126.971 99.5898 126.649 102 127C98.9515 128.777 96.5369 129.848 93 130C92.1205 133.694 92.0025 137.214 92 141C95.4141 142.736 97.924 145.715 101 148C99.9645 149.186 99.6613 149.604 99 151C101.469 152.949 103.297 155.424 106 157C105.556 161.637 106.763 163.725 110 167C108.548 167.251 108.248 167.315 107 168C107.598 172.359 112.751 178.396 117 174C118.638 179.702 117.072 186.229 116 192C119.119 196.283 115.104 201.823 120 205C119.632 207.566 119.917 210.418 119.285 212.91C118.544 215.838 116.347 217.857 116.149 221.015C115.896 225.058 117.581 229.294 119 233C126.51 230.621 132.583 238.208 139.285 240.965C143.475 242.688 148.557 242 153 242L153 238C155.548 237.216 158.232 234.575 160.921 234.631C167.108 234.761 167.672 244.763 167 249C171.076 251.835 174.57 252.654 179 250L170 248C172.106 247.356 173.795 247.094 176 247C174.881 243.807 173.284 243.375 170 243L170 241L174 241C172.901 237.679 171.41 237.263 168 237L168 235L172 235L171 230C173.545 228.365 173.779 227.007 174 224C170.466 221.91 169.267 219.039 169 215C161.438 208.187 167.729 195.279 166.83 186C166.474 182.319 165.934 178.225 163.992 175.015C162.275 172.177 159.056 170.153 158.063 166.91C157.198 164.085 158.126 160.914 157.671 158C157.181 154.865 154.408 150.399 156.121 147.317C158.225 143.533 166.342 144.002 170 144.002C184.732 144.002 196.511 150.757 210 155.561C214.516 157.169 219.341 158.375 224 156.748C232.951 153.623 237.844 145.234 243.711 138.441C247.54 134.006 252.268 129.923 257 126.49C262.401 122.572 269.202 119.148 276 120.681C286.545 123.06 294.681 132.77 299.394 142C300.771 144.696 303.935 149.568 302.644 152.701C301.25 156.081 294.096 158.127 291 159.536C283.044 163.158 275.08 166.876 267 170.204C261.9 172.304 258.569 174.236 253 173C250.646 178.893 245.439 180.594 240 183.167C232.418 186.752 224.414 191.905 216 193C215.146 190.475 214.492 189.97 212 189L213 195C208.486 195.712 205.151 198.844 201 200.663C192.621 204.335 184.282 208.076 176 212C179.761 213.235 183.471 210.965 186.985 209.46C194.995 206.031 202.833 202.013 211 199C209.502 203.789 205.247 204.857 201 206.92C193.084 210.765 185.063 214.476 177 218C178.941 218.951 180.898 219.439 183 220L181 224L184 225C191.14 218.27 203.776 214.141 213 211C214.2 216.817 213.684 228.911 220 231C218.36 223.831 215.214 216.332 215 209L219 208C218.328 202.044 222.05 200.496 227 198.167C235.463 194.187 244.709 188.393 254 187C250.607 192.611 242.46 193.205 238 198C243.994 196.746 249.243 193.96 255 192C255.764 196.115 254.578 204.139 257.179 207.396C259.054 209.744 262.671 208.576 265 207.732C272.328 205.077 278.255 200.619 286 199C273.008 211.474 276.85 235.936 297 238C286.409 260.697 258.65 243.884 242.015 255.108C236.118 259.086 232.6 265.97 229.15 272C223.338 282.159 217.807 292.562 210.844 302C200.895 315.486 188.044 327.993 172 333.76C165.812 335.984 159.207 336.148 153 338C160.16 341.004 170.009 337.894 177 335.49C199.26 327.837 218.242 304.157 229.11 283.996C234.274 274.417 238.05 262.006 248.09 256.328C254.243 252.848 260.299 253.967 267 253.999C278.997 254.056 289.783 253.92 298.906 244.924C301.332 242.532 303.112 240.263 304 237C292.989 234.279 286.426 229.6 284 218L290 220C288.02 218.116 286.69 217.531 284 217C284.601 209.641 287.363 201.098 292.584 195.633C295.43 192.655 300.329 191.078 304 189.373C310.907 186.167 317.794 182.458 325 180C323.471 183.151 323.697 184.771 325 188C320.644 191.316 324.005 195.683 321.847 199.87C320.488 202.509 317.494 203.564 315.258 205.267C311.924 207.806 310.11 210.59 306 212C306.124 214.254 306.104 216.639 307.742 218.417C309.506 220.332 312.662 220.492 313.713 223.146C314.525 225.198 313.397 227.949 313 230C321.382 233.316 320.698 239.422 323.509 246.715C325.202 251.108 327.84 253.485 331.64 255.91C333.098 256.841 334.391 258.356 336.209 258.542C339.467 258.877 342.384 256.005 344.575 253.995C350.005 249.015 354.667 243.292 360.289 238.504C367.388 232.458 373.67 225.671 380.421 219.274C382.777 217.041 385.794 215.682 387.606 212.892C392.033 206.073 393.724 196.659 395.764 189.004C399.857 173.646 402.167 159.742 398 144C401.209 143.238 405.722 140.456 408.985 141.417C414.348 142.997 415.901 149.056 422 150L418 138C422.876 141.909 427.757 145.579 433 149C432.089 145.781 429.845 143.839 428.583 140.83C427.326 137.833 426.836 134.159 426 131C429.968 134.951 434.444 137.929 440 139C438.347 137.488 437.106 136.819 435 136C440.002 132.237 438.27 129.12 436 124C439.46 125.858 442.077 128.203 446 129L445 125C449.894 124.389 456.177 124.951 461 126C460.647 122.11 459.775 119.773 457 117C468.916 112.943 467 125.963 467 134C473.753 131.759 469.341 124.303 470.627 119.004C471.612 114.948 474.213 112.301 474 108C484.926 104.876 494.569 98.343 505 94L505 92C498.44 91.1102 492.872 95.5552 487 98C486.82 93.8782 485.83 90.0255 485 86C494.639 83.7689 503.519 78.8662 513 76C513.482 78.364 513.636 78.5175 516 79L514 73L510 73C511.685 71.6925 512.846 70.7456 514 69L509 69C512.347 67.6203 514.499 68.3189 518 69L515 71C521.577 73.561 527.579 64.8802 533 70L529 70C533.056 74.2226 536.139 77.7573 541.914 79.1003C543.433 79.4534 545.94 80.9434 547.427 79.8611C549.292 78.505 547.189 76.4883 545.847 75.8966C543.279 74.7641 540.589 75.4054 538 76C536.824 72.2416 535.88 68.4518 534 65C541.017 62.1213 552.362 59.0023 556 52C552.184 51.0678 549.75 52.6517 546 52.8009C543.318 52.9076 540.594 51.5643 538 51C545.12 47.4258 551.338 46.4489 559 48L557 52C560.236 52.2002 562.15 51.5441 565 50L565 48C562.104 46.293 560.345 45.6335 557 46C565.995 39.8715 572.914 40.6363 583 42C581.846 39.751 581.249 39.1536 579 38L579 36L592 31C592.347 37.3136 597.025 39.4619 598.776 45.0038C599.576 47.5332 598.978 50.387 599.293 53C600.012 58.9664 602.156 63.4452 606 68C589.99 71.3028 574.522 75.1594 559 80.3333C551.548 82.8175 543.716 87.831 536 89.0301C530.891 89.8242 525.242 87.1088 520 87C522.078 89.9416 524.646 89.7247 528 90.5247C534.53 92.0822 537.541 92.7801 544 90.1998C565.774 81.501 588.395 72.863 612 71C610.771 64.6247 605.755 60.1433 604.062 54C603.118 50.572 605.119 47.4244 604.477 44.0394C603.651 39.682 598.899 34.9778 596.67 31.1088C595.762 29.5341 594.881 27.9521 592.946 27.5625C590.199 27.0094 586.592 29.2017 584 30C582.861 25.7647 581.235 24.1394 577 23C577.162 26.5385 577.932 29.6312 579 33C568.871 35.8957 559.109 40.4976 549 43.6528C541.905 45.8672 533.811 46.725 527.015 49.7029C521.483 52.1268 519.273 59.161 513 60L513 64C509.193 63.7453 506.651 65.7361 503 66.6111C492.063 69.2326 482.392 74.6791 472 79C471.144 72.2605 470.02 63.4987 467.397 57.2855C466.199 54.4469 463.376 52.3503 461.468 49.9962C457.638 45.271 454.383 40.3166 450.56 35.625C447.047 31.3128 448.783 25.3023 443 23L446 33C444.277 32.0659 442.894 31.4646 441 31C440.964 20.9202 432.796 14.8723 424 11L424 9C429.6 6.802 434.816 5.51538 436 13L441 14C440.651 5.88406 438.987 0.266998 430 0L430 4C428.402 2.51904 427.892 1.93851 427 0L391 0L391 5C382.938 4.36282 375.724 1.09125 368 0C369.259 4.10034 370.669 5.65558 375 6C373.435 9.35184 372.333 12.3028 372 16C374.254 16.7493 375.314 17.3441 377 19C381.895 18.8311 384.833 21.4826 388 25C389.797 25 389.521 24.9857 391 24L392 28C389.839 28.3188 389.823 30.0396 387.787 30.9815C385.617 31.9857 382.329 31.0711 380 31C381.824 36.5399 386.371 36.0796 390.982 38.2269C393.78 39.5297 395.539 42.263 398.259 43.5278C401.085 44.8412 404.966 44.0228 408 44L408 47L427 49C419.927 52.7747 411.832 47.69 406 54C409.046 53.5738 411.915 52.8536 415 53C409.613 57.8058 401.532 59.7669 399 67C402.32 68.9624 405.301 70.829 409 72C407.472 75.0373 406.366 77.6086 406 81L402 82C403.218 86.5932 407.72 100.678 415 95C415.562 96.8006 415.824 98.1217 416 100C410.292 101.654 406.783 106.83 401.91 110.011C395.924 113.92 387.81 116.901 381 119C383.827 110.308 385.831 102.929 383 94C384.479 94.9857 384.203 95 386 95C385.513 92.6297 384.68 90.3661 384.184 87.9985C382.452 79.7245 381.156 58.7107 368 65C369.452 58.7489 379.943 49.1085 369.951 45.7083C368.672 45.2734 367.324 45.1837 366 45L366 41C370.775 39.4151 370.249 35.2372 369 31L367 31C364.927 36.6415 363.73 40.6149 357 39C355.445 41.2405 354.006 43.167 352 45C354.544 34.3005 366.437 30.3625 368 19L363 19L363 23L358 23L359 27C354.02 27.4904 348.85 26.955 344 28C345.622 25.9619 347.163 24.4603 348 22L352 22L352 20L344 20L344 23C340.625 23.5048 338.216 25.6454 334.961 26.3434C332.594 26.8507 329.709 25.796 327.584 27.2176C325.202 28.8112 324.728 31.5113 322 33C322.188 38.7414 326 40.9758 328 46L322 46L322 55L328 56L328 58L324 59C324 60.7969 324.014 60.5214 325 62C321.173 62.8243 322.386 65.9009 326 65.9445C331.475 66.0104 336.928 57.1959 340 65C335.364 66.6065 329.611 70.237 328 75C323.058 75.7264 322.143 78.2888 322 83C328.86 82.0917 334.773 77.7846 341 75C338.878 77.3698 336.928 78.7582 334 80C334.598 81.1954 334.466 80.9774 336 82C332.601 84.5391 327.442 84.7393 324.603 87.804C322.872 89.6717 322.747 92.6402 322.14 95.0008C320.235 102.4 320.331 112.82 323 120C318.302 124.489 329.109 129.927 331 134L335 133L337 139L328 143L329 140C325.96 139.276 323.122 139.026 320 139L321 144L327 142C323.998 145.034 314.828 151.204 310.275 149.583C307.568 148.619 306.328 144.286 305.066 142C301.755 136.006 297.359 131.192 293 126L298 127C296.903 122.655 297.888 119.347 297.807 115C297.684 108.365 296.194 102.701 297 96L287 98C293.944 94.6131 297.198 89.8414 295.481 82.0038C294.686 78.3729 291.911 75.3785 294 72C288.592 69.7357 282.597 72.5429 277 73C279.478 66.2009 287.698 66.3 294 65C293.935 59.723 294.369 54.2468 293.896 49C293.545 45.1074 292.468 41.9558 293 38L286 38L286 36C292.28 35.2772 291.996 31.4981 292 26C284.208 26 276.686 27.3007 269 28.125C266.281 28.4167 261.553 25.7539 261 29C259.805 27.7772 259.684 27.58 259 26C254.942 25.4034 251.123 24.1884 247 24C246.518 21.636 246.364 21.4825 244 21L242 11L248 10C250.511 13.9602 254.786 15.7032 258 19L250 19C253.747 25.1031 259.88 23.3164 266 24C265.818 21.2763 265.265 19.4172 264 17C266.515 18.9137 268.915 22.3742 272.039 23.223C275.198 24.0812 278.754 22.2373 282 22.3758C284.545 22.4843 288.041 23.7203 289.987 21.3958C293.975 16.632 292.022 5.50446 291 0L278 0C279.552 2.33865 280.463 4.24393 281 7L277 6C275.457 7.2999 274.952 7.48929 273 8C274.098 5.9176 274.685 4.3298 275 2C261.404 -2.24249 245.174 0 231 0L231 4L236 3C232.189 11.5721 224.119 10.3592 216 11C215.032 8.03592 214.066 7.49704 211 7L211 5C215.216 4.55698 220.589 3.64917 223 0C217.136 0 204.217 -2.67963 202 4C200.392 2.55023 199.936 1.94852 199 0C190.911 0 187.082 -0.0611877 187 9z"/>
<path style="fill:#ccc; stroke:none;" d="M225 0L225 2L228 2L228 0L225 0z"/>
<path style="fill:#ccc; stroke:none;" d="M321 0C322.119 3.19275 323.716 3.62503 327 4C324.582 4.72238 322.528 4.94812 320 5C320.589 12.3961 321.944 18.5279 321 26L325 27L327 22C329.106 22.6438 330.795 22.9059 333 23L336 17C338.417 18.2646 340.276 18.818 343 19C341.752 18.3152 341.452 18.2512 340 18C339.151 12.9254 336.216 13.2646 332 15C337.552 5.9259 344.896 16.2938 351.039 17.4383C355.987 18.36 358.54 14.1209 358 10C360.607 7.62225 359.924 3.40469 360 0L321 0z"/>
<path style="fill:#ccc; stroke:none;" d="M136 17C135.198 20.0276 134.311 22.8756 134 26C139.876 25.1361 140.937 20.3591 136 17z"/>
<path style="fill:#ccc; stroke:none;" d="M379 20C379.211 22.7386 379.302 23.422 382 24C381.224 21.8683 380.87 21.2292 379 20z"/>
<path style="fill:#ccc; stroke:none;" d="M195 24C196.624 26.0436 197.643 26.8965 200 28C198.598 25.7257 197.485 25.0128 195 24z"/>
<path style="fill:#ccc; stroke:none;" d="M381 27C383.013 28.2247 384.659 28.6453 387 29C385.266 26.9966 383.645 27.0769 381 27z"/>
<path style="fill:#ccc; stroke:none;" d="M554 34L555 38L557 38L558 35L554 34z"/>
<path style="fill:#ccc; stroke:none;" d="M534 40C535.543 41.2667 536.048 41.4893 538 42C536.542 40.9189 535.752 40.564 534 40z"/>
<path style="fill:#ccc; stroke:none;" d="M109 42C111.614 47.1059 114.306 48.9322 120 49C116.906 45.7727 113.332 43.1772 109 42M146 42C147.669 44.745 148.824 45.4966 152 46C150.528 43.1855 149.122 42.4559 146 42M585 42C583.864 46.6986 585.995 50.4466 590 53C587.582 53.7224 585.528 53.9481 583 54C585.47 57.8335 601.288 64.9476 597.498 54.9992C597.119 54.0042 596.502 52.9998 595.916 52.115C594.802 50.4341 593.506 49.3107 592 48L597 49C595.209 42.7724 590.773 42.3943 585 42z"/>
<path style="fill:#ccc; stroke:none;" d="M387 48C389.729 50.7871 392.173 50.9556 396 51C391.313 52.3468 386.809 51.0993 382 51C383.48 56.9495 387.211 58.991 393 60C391.032 61.6809 389.35 62.9382 387 64C391.414 72.0186 400.399 61.4621 404 57C401.097 56.2629 398.951 56.4714 396 57C398.041 55.4571 399.525 54.6135 402 54L402 49C396.971 48.0665 392.101 48 387 48M112 50C113.458 51.0811 114.248 51.4361 116 52C114.686 50.3821 114.123 50.3067 112 50z"/>
<path style="fill:#ccc; stroke:none;" d="M576 52C573.34 56.1132 565.683 57.0764 561 58L561 63C567.546 62.8468 573.924 60.3263 580 58C579.496 55.8541 578.881 54.0214 578 52L576 52z"/>
<path style="fill:#ccc; stroke:none;" d="M118 54C119.223 55.1952 119.42 55.3164 121 56C119.777 54.8047 119.58 54.6836 118 54z"/>
<path style="fill:#ccc; stroke:none;" d="M188 59C189.506 59.683 190.315 59.8259 192 60C190.494 59.317 189.685 59.1741 188 59M199 60C200.127 62.8406 200.987 63.4917 204 64C203.032 61.0359 202.066 60.497 199 60z"/>
<path style="fill:#ccc; stroke:none;" d="M542 64C543.879 72.6108 554.581 67.6083 560 65C557.544 57.6056 547.524 63.6414 542 64z"/>
<path style="fill:#ccc; stroke:none;" d="M319.333 63.9997C319.278 63.7223 319.222 64.7777 319.667 64.3333C319.722 64.2778 319.778 63.2222 319.333 63.9997M580 63C582.208 66.3281 585.146 66.7995 589 67C587.517 62.7822 584.037 63.0366 580 63z"/>
<path style="fill:#ccc; stroke:none;" d="M140 67C140.211 69.7386 140.303 70.422 143 71C142.064 69.0514 141.608 68.4498 140 67z"/>
<path style="fill:#ccc; stroke:none;" d="M560 69C562.797 72.202 567.174 75.5946 569 70C566 69.3932 563.054 69.1707 560 69M145 71C145.98 72.7833 145.908 72.5943 148 73C146.777 71.8047 146.58 71.6836 145 71z"/>
<path style="fill:#ccc; stroke:none;" d="M401 71L401 77L404 77C403.682 74.123 403.38 72.6656 401 71M517 74L517 76C521.113 76.8545 524.15 75.4821 528 74L528 72C523.916 71.1494 520.768 72.3326 517 74z"/>
<path style="fill:#ccc; stroke:none;" d="M508 79C509.223 80.1952 509.42 80.3165 511 81C510.02 79.2167 510.092 79.4056 508 79M597 80C598.223 81.1952 598.42 81.3164 600 82C598.777 80.8048 598.58 80.6836 597 80z"/>
<path style="fill:#ccc; stroke:none;" d="M315 83L315 85L317 85L317 83L315 83M502 86C506.129 87.6705 509.044 85.0661 513 84C508.815 82.2469 505.574 83.5139 502 86z"/>
<path style="fill:#ccc; stroke:none;" d="M576 86L578 91L582 91C581.657 86.7032 580.327 85.4333 576 86M312 86L312 88L314 88L314 86L312 86z"/>
<path style="fill:#ccc; stroke:none;" d="M510 87C512.804 89.9403 515.01 90.9133 519 90C516.291 87.8678 513.401 87.4415 510 87z"/>
<path style="fill:#ccc; stroke:none;" d="M307 89C309.613 90.0977 312.165 89.9928 315 90C312.387 88.9023 309.836 89.0072 307 89z"/>
<path style="fill:#ccc; stroke:none;" d="M549 94C550.223 95.1952 550.42 95.3164 552 96C550.777 94.8048 550.58 94.6836 549 94z"/>
<path style="fill:#ccc; stroke:none;" d="M185 104C184.323 107.879 186.196 111.71 184 115C187.283 115.899 191.231 113.068 190.356 109.2C189.737 106.462 187.266 105.111 185 104z"/>
<path style="fill:#ccc; stroke:none;" d="M301.667 113.333C301.222 113.778 302.278 113.722 302.333 113.667C302.778 113.222 301.722 113.278 301.667 113.333z"/>
<path style="fill:#ccc; stroke:none;" d="M322 129C323.465 131.122 324.457 131.474 327 132C325.283 130.16 324.434 129.651 322 129z"/>
<path style="fill:#ccc; stroke:none;" d="M322 133C323.823 135.818 325.715 135.895 329 136C326.763 134.667 324.482 133.802 322 133z"/>
<path style="fill:#ccc; stroke:none;" d="M268 140C271.437 142.017 274.572 142.047 276 138C272.978 138.138 270.603 138.439 268 140M195 140L196 144C196.683 142.494 196.826 141.685 197 140L195 140z"/>
<path style="fill:#ccc; stroke:none;" d="M537 157L537 163C533.077 163 527.663 162.098 524.148 164.179C520.2 166.517 519.873 174.145 524.279 176.258C528.716 178.386 534.507 175.661 539 175L539 157L537 157z"/>
<path style="fill:#ccc; stroke:none;" d="M585 159C588.969 160.221 593.726 159.209 598 160C595.076 156.654 588.908 157.845 585 159M618 165C617.972 164.153 618.068 162.793 617.852 161.899C616.557 156.55 611.747 160.212 615.417 163.971C616.095 164.999 617.168 164.722 618 165z"/>
<path style="fill:#ccc; stroke:none;" d="M515 159C515.003 163.927 514.135 173.623 518 177C517.235 170.946 517 165.107 517 159L515 159M573 160C574.693 161.062 576.041 161.52 578 162C576.46 160.197 575.403 160.168 573 160z"/>
<path style="fill:#ccc; stroke:none;" d="M549 161C551.815 162.215 554.967 162.435 558 163C555.196 160.875 552.466 161.012 549 161z"/>
<path style="fill:#ccc; stroke:none;" d="M543 165L547 163C544.692 162.442 544.244 163.004 543 165z"/>
<path style="fill:#ccc; stroke:none;" d="M500 165C502.116 165.961 504.866 166.194 506.679 167.742C510.652 171.132 507.292 175.078 504 177C510.138 179.109 513.433 170.87 509.258 166.603C507.048 164.346 502.86 165.002 500 165z"/>
<path style="fill:#ccc; stroke:none;" d="M556 174C553.104 172.796 548.979 174.399 546.466 172.818C544.768 171.75 545.944 169.974 547.207 169.174C549.921 167.455 553.939 168.002 557 168L557 173L559 173L559 167C555.128 167 547.809 165.623 544.604 168.179C542.544 169.822 543 173.259 545.318 174.397C548.401 175.909 552.868 174.746 556 174z"/>
<path style="fill:#ccc; stroke:none;" d="M586 170C588.89 171.213 591.874 170.998 595 171C592.11 169.787 589.126 170.002 586 170z"/>
<path style="fill:#ccc; stroke:none;" d="M241 176C242.543 177.267 243.048 177.489 245 178C243.686 176.382 243.123 176.307 241 176z"/>
<path style="fill:#ccc; stroke:none;" d="M403 192L403 194C404.98 196.204 405.295 197.051 405 200L401 199C400.637 201.232 400.637 202.768 401 205C404.405 204.326 407.523 203.823 411 204C410.602 199.174 408.745 195.433 407 191L403 192z"/>
<path style="fill:#ccc; stroke:none;" d="M201 194L201 197L204 197L204 194L201 194z"/>
<path style="fill:#ccc; stroke:none;" d="M391 209C394.007 208.779 395.365 208.545 397 206C394.004 206.225 392.751 206.552 391 209z"/>
<path style="fill:#ccc; stroke:none;" d="M258 212C261.287 212 261.663 217.087 266 218C264.87 214.525 262.146 207.325 258 212z"/>
<path style="fill:#ccc; stroke:none;" d="M239 212C239.578 214.697 240.261 214.789 243 215C241.771 213.13 241.132 212.776 239 212M172 214C173.139 215.015 173.612 215.309 175 216C174.02 214.217 174.092 214.406 172 214M250 219L250 221L254 221L254 219L250 219M177.667 222.333C177.222 222.778 178.278 222.722 178.333 222.667C178.778 222.222 177.722 222.278 177.667 222.333z"/>
<path style="fill:#ccc; stroke:none;" d="M92 229L92 233C93.2667 231.457 93.4892 230.952 94 229L92 229M198 231C198.609 234.139 198.7 236.296 202 237C201.219 234.057 200.605 232.579 198 231M220 237C222.124 236.101 222.101 236.124 223 234C220.876 234.899 220.899 234.876 220 237M209 237C209.578 239.697 210.261 239.789 213 240C211.771 238.13 211.132 237.776 209 237M188 241C189.314 242.618 189.877 242.693 192 243C190.542 241.919 189.752 241.564 188 241M178 244C179.543 245.267 180.048 245.489 182 246C180.686 244.382 180.123 244.307 178 244M184.667 248.333C184.222 248.778 185.278 248.722 185.333 248.667C185.778 248.222 184.722 248.278 184.667 248.333M319 260C317.572 263.364 317.193 267.124 315 270C317.163 270.676 318.732 270.387 321 270L321 260L319 260M202 262C202.839 264.626 203.374 265.161 206 266C204.919 263.879 204.121 263.081 202 262M325 263C323.964 264.186 323.661 264.604 323 266C325.251 265.527 326.118 265.14 325 263M165.333 273.667C165.278 273.722 165.222 274.778 165.667 274.333C165.722 274.278 165.778 273.222 165.333 273.667M161 284C162.819 282.636 162.031 282.508 164 283L165 279C162.036 279.968 161.497 280.934 161 284M178 295C179.226 297.035 179.703 297.326 182 298C180.771 296.13 180.132 295.776 178 295M155 297C150.987 305.198 150.39 316.012 148.92 325C148.124 329.862 147.214 334.034 153 335C154.845 326.058 156.718 317.04 157.999 308C158.661 303.327 160.112 299.055 155 297M105 301C107.196 322.327 132.031 338.588 152 339C148.607 336.417 144.048 336.551 140 335.254C134.272 333.418 128.643 330.512 124 326.671C119.413 322.877 115.218 318.144 112.198 313C109.859 309.015 108.796 303.783 105 301M618 304C619.769 304.779 621.036 304.912 623 305C621.231 304.221 619.964 304.088 618 304M531 312L531 314C552.728 313.067 574.255 309.56 596 308.667C601.718 308.433 607.32 306.511 613 307C609.269 302.73 596.289 305.856 591 306.576C571.41 309.243 550.761 311.836 531 312M636 307L640 306C637.953 305.249 637.404 305.344 636 307M620 312C621.248 312.685 621.549 312.749 623 313C621.752 312.315 621.452 312.251 620 312M469 318C476.036 320.952 488.589 318.376 496 317C488.261 313.753 477.25 317.932 469 318M493 346L493 348C501.859 347.817 510.39 346.159 519.039 345.129C534.937 343.236 551.107 342.676 567 341.482C583.379 340.252 599.495 337 616 337L616 335C587.493 335 558.355 339.47 530 342.17C517.76 343.335 505.279 345.898 493 346M308 348C307.12 352.349 304.574 353.934 302.296 357.455C299.952 361.078 299.122 365.784 299 370L296 370C295.603 379.251 292.768 386.95 296 396C302.01 395.012 306.064 389.557 312 388C313.202 383.345 314.854 380.437 320 381C321.386 375.831 322.667 371.873 328 370C326.807 368.184 324.302 366.777 323.577 364.726C320.837 356.976 331.551 357 336 357C336.684 355.42 336.805 355.223 338 354L336 343C332.232 341.616 331.305 339.956 331 336C326.566 336.587 321.077 338.238 317.325 340.725C313.983 342.94 311.595 346.175 308 348M451 340C452.248 340.685 452.548 340.749 454 341C452.752 340.315 452.452 340.251 451 340M419 342C423.345 346.973 435.995 343.05 442 343L442 341C434.313 341.005 426.608 343.255 419 342M447 341C448.248 341.685 448.549 341.749 450 342C448.752 341.315 448.452 341.251 447 341M432 346C435.35 347.403 438.521 346.828 442 346C438.651 344.595 435.436 344.985 432 346M134 346C134.839 348.626 135.374 349.161 138 350L138 346L134 346M149 346C148.119 348.021 147.504 349.854 147 352L151 353C150.858 350.19 150.591 348.314 149 346M381 359L387 358C384.471 356.961 382.824 356.907 381 359M343 359L344 363C341.314 363.889 335.786 368.889 339.619 371.782C341.54 373.233 344.84 372.254 347 372L346 365C347.186 366.036 347.604 366.339 349 367C348.084 362.838 347.125 360.512 343 359M331 364C331 366.896 331.396 370.214 330.401 372.985C328.748 377.593 323.73 380.715 330 384C331.763 376.896 333 371.472 333 364L331 364M121 365C121.98 366.783 121.908 366.594 124 367C122.861 365.985 122.388 365.691 121 365M111 375C109.45 380.242 109.056 385.697 107.406 391.011C105.113 398.395 101.229 403.171 104 411C99.3299 413.701 91.586 421.898 90 427C95.9938 425.887 103.73 426.988 107 421C104.27 420.883 101.686 420.501 99 420C102.004 417.236 105.276 412.067 109.301 410.862C112.189 409.997 115.291 411.437 118 412.333C122.95 413.971 127.821 415.331 133 416C129.369 412.825 124.464 411.72 120 410C123.109 409.792 125.914 410.554 129 411C126.794 407.838 122.87 407.508 120 405C124.445 405.542 129.09 408.468 132 404C129.63 403.992 120.212 403.677 125 400C122.289 397.178 118.798 395.896 115 395C117.32 389.286 120.66 377.482 113 375C113.406 377.092 113.217 377.02 115 378L111 379C111.309 377.242 111.406 376.659 111 375M320 384L320 389L322 389L322 384L320 384M151 397C150.024 401.732 149.04 406.143 149 411C154.737 410.079 158.559 405.741 159 400C157.217 400.98 157.406 400.908 157 403L154 403C153.469 400.31 152.884 398.98 151 397z"/>
<path style="fill:#ccc; stroke:none;" d="M360 410L360 415C362.885 414.161 363.289 412.885 364 410L360 410M136 414C135.014 415.479 135 415.203 135 417C137.106 417.644 138.795 417.906 141 418C139.617 415.683 138.513 415.037 136 414M149 416C153.591 419.403 159.375 422 165 423C161.95 418.543 154.166 416.774 149 416M322 416C322.578 418.697 323.261 418.789 326 419C324.778 417.267 323.991 416.849 322 416M133 422C131.777 423.195 131.58 423.316 130 424L130 428C131.314 427.232 131.232 427.314 132 426L134 426C135.682 427.895 136.538 427.615 139 427L133 422M328 423C329.218 425.118 329.867 425.845 332 427L332 423L328 423M318 431C322.839 435.208 329.942 434 336 434L336 436L332 436C334.331 436.984 336.457 436.981 339 437C338.005 434.644 338.235 433.429 339 431L318 431M85 440L85 442L87 442L87 440L85 440M79 455C85.8837 453.354 91.7241 448.907 99 448C98.4221 445.091 97.1095 442.728 96 440C88.254 440.544 82.9163 448.927 79 455M358 443L358 447C360.035 445.774 360.326 445.297 361 443L358 443M347 453L348 459C350.728 460.109 353.091 461.422 356 462C355.17 457.043 351.716 454.312 347 453M336 463C334.573 464.756 333.585 465.825 333 468C337.445 469.355 339.191 473.312 343.09 475.566C346.36 477.457 350.368 477 354 477C352.052 471.384 340.962 466.39 336 463z"/>
</svg>
