<?xml version="1.0" standalone="yes"?>
<svg xmlns="http://www.w3.org/2000/svg" width="879" height="617">
<path style="fill:#999; stroke:none;" d="M543 20C545.876 21.2047 548.506 20.6546 551.561 20.9028C556.226 21.2818 559.219 24.3086 562 19C555.592 19 549.322 18.8262 543 20M491 31L489 36C498.012 33.6793 507.2 29.4354 515.996 26.233C520.05 24.7573 523.911 25.1937 527 22C518.494 22.3661 510.17 26.0228 502.004 28.257C498.091 29.3273 495.136 31.2399 491 31M461 43C466.107 41.54 470.733 38.907 476 38C472.971 40.8501 468.483 40.7353 466 44C470.56 42.9572 477.09 42.5942 477 37C483.941 35.2462 496.089 29.0756 500 23C494.052 24.9957 489.274 28.5325 483.715 31.2368C476.362 34.813 466.622 36.8449 461 43M514 37C516.376 33.61 519.246 30.7661 521 27C515.689 30.7512 510.588 35.9749 508 42C510.268 40.4918 511.637 39.3424 513 37C516.138 38.6207 517.111 36.783 520.171 35.5648C526.5 33.0448 530.764 30.6591 535 25C526.982 26.4702 519.905 31.5808 514 37M498 37C505.486 37.8692 512.536 33.8187 517 28C511.402 30.2391 501.875 32.5468 498 37M538 31C534.634 34.1285 531.533 36.5826 530 41L537 38L535 35C536.952 34.9302 536.94 34.6462 538 36C538.754 34.0789 538.809 32.9012 538 31M544 31C539.928 39.9566 532.952 46.0607 524 50L527 43C518.762 45.8144 511.996 51.7388 503 52C504.104 50.5432 504.543 50.1035 506 49C501.961 47.4748 497.456 49.6208 495 53L501 52C496.581 54.9194 491.202 56.1191 486 57C488.635 55.77 491.196 54.7657 494 54C488.213 51.5945 481.765 55.2603 476.001 56.4861C474.035 56.9041 471.408 56.7241 469.742 58.0023C468.4 59.0327 468.33 60.4869 468 62C475.49 64.8167 482.016 64.6625 490 65C482.387 68.0627 471.295 63.8249 466 72C472.269 71.7135 478.809 70.15 485 69C480.907 73.2897 475.736 72.1631 471 75C478.019 80.5895 491.037 74.7262 499 73.5741C502.273 73.1006 505.733 74.6747 509 75C504.611 77.3425 500.734 76.45 496 77.2238C491.06 78.0311 484.965 79.472 480.17 80.9738C475.805 82.3408 471.703 83.5482 470 88C474.001 88.0331 478.027 88.9953 482 88.7909C488.381 88.4627 494.578 87.0177 501 87C499.564 88.4496 498.885 89.222 498 91L507 88L505 93L509 93C506.259 96.0449 503.007 98.3732 501 102C503.038 101.82 503.448 101.836 505 103C506.388 100.298 507.963 98.2638 510 96L509 100C514.676 97.2699 518.108 91.6342 524.005 89.2654C534.28 85.1377 545.068 87.7081 555 81.6019C559.451 78.8656 562.588 76.3512 563 71C560.061 73.1811 557.231 75.2587 554 77L557 73C552.347 74.3682 546.825 75.9862 542.424 77.8773C538.988 79.354 536.834 81.4401 533 82C535.934 78.3561 540.633 76.9771 543 73C532.489 74.3295 524.053 78.9675 514 82C518.277 77.4824 526.21 75.0425 532 72.8055C535.108 71.605 538.569 71.4814 539 68C548.233 69.7081 556.857 65.8112 561 57C556.483 59.1058 553.548 63.4894 549 65.4537C543.9 67.6561 535.548 66.9963 530 67C536.489 64.9473 543.386 64.6049 547 58C542.604 58.3405 537.838 58.2216 535 62L542 60C536.266 63.7883 529.714 63.9955 523 64C524.45 62.3923 525.051 61.9357 527 61C523.802 59.8534 520.223 60.358 518 63C509.662 60.5298 499.644 63.6483 493 57C498.99 58.0445 506.34 54.7665 512 52.6721C516.641 50.9548 519.791 48.1962 524 52C533.868 49.6157 548.687 40.248 553 31C550.944 31.4875 549.856 31.9519 548 33L548 31C546.584 31.472 546.186 31.8138 545 33C545 31.1467 545.3 31.6498 544 31M587 33L586 37C587.608 35.5503 588.064 34.9485 589 33L587 33M568 36C566.988 38.3733 566.378 40.4492 566 43C564.977 41.4662 565.195 41.5977 564 41C563.043 42.5168 562.613 43.3384 562 45L565 47C566.806 43.6074 569.064 39.8352 568 36M577 37C573.839 42.4343 568.642 46.3043 566 52C568.576 50.1933 570.748 48.2058 573 46C571.478 49.169 569.178 51.6509 568 55C572.933 52.7341 576.629 49.9711 579 45C577.203 45 577.478 45.0143 576 46C576.466 42.7332 577.805 40.0551 579 37L577 37M595 48L595 52L599 54C600.881 51.1299 601.804 47.6172 604.222 45.0833C606.726 42.4595 610.216 42.679 611 39C604.236 40.2075 601.013 45.4663 595 48M485 43C486.949 42.0643 487.55 41.6077 489 40C486.868 40.7765 486.229 41.1302 485 43M470 46C471.58 45.3165 471.777 45.1951 473 44C471.42 44.6837 471.223 44.8047 470 46M553 47C551.069 49.3845 548.978 51.0724 548 54C551.749 52.504 553.467 50.7271 555 47L553 47M589 49L589 52C589.696 50.4464 589.696 50.5537 589 49M593 49L593 52C593.696 50.4464 593.696 50.5537 593 49M504 56L504 58C510.73 58 516.466 58.7199 521 53C515.061 53.0656 509.865 55.5171 504 56z"/>
<path style="fill:#999; stroke:none;" d="M585 64L584 69C585.475 67.0648 585.791 66.3073 585 64M429 65L429 67L444 67L444 65L429 65M447.667 66.3333C447.222 66.7779 448.278 66.7222 448.333 66.6667C448.778 66.2223 447.722 66.2777 447.667 66.3333M605 66C603.841 70.8538 601.956 78.085 603.725 82.9105C606.496 90.4744 612.612 93.1293 613 102C609.094 100.788 608.798 98.9069 609 95C605.102 93.1893 603.014 89.5208 599 88C594.608 94.4034 596.308 97.966 598 105L601 103C600.543 107.132 598.555 110.222 597 114L595 114C593.262 107.048 589.233 102.96 582.715 99.9437C580.517 98.9263 578.156 99.0769 576 98C573.835 101.648 574.097 105.842 574 110L568 109C563.289 114.923 557.755 119.632 554.899 127C552.405 133.432 553.25 141.284 553.51 148C553.728 153.642 549.441 160.35 557 162C557 165.914 556.684 170.072 557.989 173.829C559.155 177.186 561.744 179.781 563.054 183.09C565.466 189.18 566.547 195.642 568 202C572.514 199.745 577.485 192.178 577.985 187C578.619 180.425 575.001 172.907 575 166C578.508 170.586 580.794 176.355 582 182C587.745 177.566 582.349 167.399 578.856 163C576.912 160.553 573.875 157.589 575.988 154.298C578.324 150.659 582.133 153.788 585.014 154.824C593.347 157.821 595.575 162.485 594 171C604.213 164.555 595.038 150.46 594 142C592.604 142.661 592.186 142.964 591 144C590.171 141.918 588.699 139.386 589.131 137.062C590.474 129.847 595.575 137.828 596 141C599.738 141.932 603.162 143.522 607 144L608 150C610.326 148.439 611.444 146.349 613 144C611.536 140.612 609.916 136.786 610.363 133C611.203 125.885 616.203 119.189 616.849 112.015C617.219 107.903 614.836 104.035 614.29 99.9992C613.662 95.3616 614.472 90.6133 613.671 86C612.502 79.2671 609.451 72.3585 607 66L605 66M421 68L421 71C423.442 71.1095 425.623 71.428 428 72L427 76C432.122 73.6786 444.374 74.5593 446 69L421 68M450 71C453.837 71.9066 458.058 70.3137 462 70L462 68C457.814 68.365 453.916 69.501 450 71M416 72C414.015 73.2766 413.151 73.9809 412 76C414.427 75.2369 417.059 74.8253 416 72M565 74C563.739 76.0098 562.81 77.7779 562 80C564.153 78.1146 565.41 76.8882 565 74M600 75C599.11 76.7446 598.547 78.1251 598 80C599.848 78.2198 600.566 77.5087 600 75M421 80C422.248 80.6848 422.548 80.7488 424 81C422.752 80.3152 422.452 80.2512 421 80M418 95C422.207 93.4603 426.033 91.0826 430 89C424.907 87.454 420.227 90.4846 418 95M578 90C578.497 93.0662 579.036 94.0317 582 95L581 90L578 90M332 117C334.662 116.856 335.636 116.181 336 119L340 117C336.152 119.686 332.689 120.39 330 116C317.895 119.811 300.961 119.738 295 133C300.808 129.045 306.066 124.707 313 122.785C318.038 121.39 323.796 121.542 329 121L330 126L329 127C325.738 126.861 322.898 129.008 319.804 128.72C316.535 128.415 314.527 125.952 310.996 126.989C304.333 128.946 299.008 133.755 292 135C288.472 141.589 279.108 142.986 277 150C273.767 148.334 272.64 150.059 271 153C262.235 151.501 259.283 159.539 253.816 164.671C249.891 168.355 245.417 169.937 243 175L239 173C237.523 175.323 236.106 177.487 235 180L238 180L238 182L232 183C232.986 181.521 233 181.797 233 180C228.757 180.961 224.831 182.949 221 185C223.501 186.312 225.224 186.455 228 186C226.718 191.992 229.755 194.816 232 200C236.426 197.011 232.818 193.428 229 192C229.562 190.199 229.824 188.878 230 187C235.41 187 240.655 187.073 246 188.039C248.899 188.563 252.014 190.154 255 189.629C259.716 188.799 263.026 184.79 268 184L268 180C258.154 180.98 249.99 182.809 240 182C244.295 178.028 248.752 174.278 254.17 171.88C258.399 170.009 262.913 167.968 267.17 166.25C269.021 165.503 271.066 165.62 272.722 164.362C277.514 160.723 277.89 154.859 284 152L284 156L288 156C287.712 152.339 286.334 150.728 284 148C288.16 147.951 290.888 147.83 293 144L288 145C290.421 142.821 292.862 141.868 296 141L296 145L299 144C297.105 147.106 293.881 148.033 292 151C295.046 151 296.698 150.079 299 151L298 152C299.797 152 299.521 151.986 301 151C301.251 152.452 301.315 152.752 302 154C304.044 152.376 304.896 151.357 306 149L304 149C306.136 145.466 316.372 134.572 320 139C322.446 138.265 324.446 137.992 327 138C328.578 132.996 331.024 128.136 332 123C335.007 123.221 336.365 123.455 338 126C341.684 124.889 345.172 123.469 349 123C349.839 125.626 350.374 126.161 353 127L352 132C353.58 132.684 353.777 132.805 355 134L365 133L363 127C365.082 128.098 366.67 128.685 369 129L369 132C370.952 132.511 371.457 132.733 373 134L383 133C384.147 135.414 385.441 137.384 386 140L383 137L379 138L381 143L377 144C378.223 145.195 378.42 145.316 380 146L383 143C381.944 149.053 383.623 150.518 389 153C389.986 151.521 390 151.797 390 150C391.58 150.684 391.777 150.805 393 152L397 151C394.322 153.994 393.377 157.267 392 161L390 158C386.249 159.655 383.826 161.287 382 165C386.067 167.127 387.856 169.572 389 174C384.536 173.499 382.752 170.947 378.911 169.138C377.022 168.249 374.237 168.476 372.971 166.532C370.341 162.498 375.648 161.82 378 164C381.104 162.518 382.518 161.104 384 158C381.819 156.104 380.931 154.741 380 152C378.203 152 378.479 152.014 377 153L377 149L372 152L374 148C369.301 150.509 365.71 154.968 364 160L369 159C369.397 163.968 368.813 166.635 365 170L367 176C365.197 177.54 365.168 178.598 365 181C361.522 182.218 361.006 184.604 360 188C358.056 187.598 357.944 187.598 356 188C355.31 186.463 355.672 186.662 354 187C354.027 184.621 354.06 184.317 356 183L354 184C357.046 184.688 357.549 182.758 358 180C361.342 179.535 361.057 169.649 362 166C360.048 165.489 359.543 165.267 358 164C353.846 169.693 353.927 175.835 350.876 181.83C348.814 185.88 344.368 190.067 344.758 194.961C345.096 199.189 349.346 203.596 351.265 207.285C353.786 212.131 354.41 216.042 360 218C362.131 215.278 363.878 213.48 367 212C364.403 214.463 362.467 216.732 361 220C363.035 218.774 363.326 218.297 364 216C367.291 217.558 369.442 217.765 373 217C372.798 215.15 372.798 213.85 373 212C375.458 212.646 376.542 212.646 379 212L379 210C376.525 208.587 375.413 207.475 374 205L369 206C366.989 203.953 365.84 205.107 364 207C366.537 207.655 368.047 208.276 370 210C362.821 209.999 354.817 209.349 353 201C354.916 202.366 354.712 202.351 357 202C358.014 206.734 363.393 206.009 365 202C362.123 201.524 359.863 201.438 357 202C355.97 198.466 355.643 195.667 356 192C353.746 191.251 352.686 190.656 351 189C355.318 190.244 357.952 189.941 362 188L362 192C367.157 188.906 364.53 181.941 367 177C368.934 173.132 369.185 178.073 370 174C373.546 177.072 376.803 176.289 380.996 177.702C383.614 178.584 385.648 180.712 388.285 181.475C394.546 183.284 398.298 177.251 399 172C397.051 171.064 396.45 170.608 395 169L399 170L400 167C401.478 167.986 401.203 168 403 168C404.899 162.625 402.346 158.221 404 153C401.867 151.845 401.218 151.118 400 149L406 148C405.02 146.217 405.092 146.406 403 146C403.801 141.751 402.281 137.412 398 136C399.098 133.918 399.685 132.33 400 130C396.542 128.092 395.282 124.179 391.87 122.319C389.074 120.794 386.156 121.58 383.17 121.261C378.724 120.785 374.53 120.101 370 120C367.706 113.309 358.781 115 353 115L353 117L363 119C357.684 127.66 350.725 119.277 347 114C349.032 114.323 349.982 114.34 352 114C345.836 110.196 333.637 106.963 332 117M503 114L503 117C503.696 115.446 503.696 115.554 503 114z"/>
<path style="fill:#999; stroke:none;" d="M327 122C325.964 123.186 325.661 123.604 325 125C326.994 124.153 327.699 123.993 327 122M333 127C335.124 126.101 335.101 126.124 336 124C333.876 124.899 333.899 124.876 333 127M342 129C343.173 134.853 341.589 136.284 336 138L337 132C332.956 134.363 332.775 137.725 334 142C331.116 143.013 330.686 142.863 328 142L327 148C329.315 148 329.422 149.697 332 150C329.962 155.214 329.09 157.638 331 163C336.998 162.411 338.832 165.358 344 167C344.327 162.816 344.74 159.174 344 155C341.71 156.792 339.758 158.071 337 159C341.521 154.387 342.36 147.074 335 145C337.013 142.675 337.93 142.101 341 142C342.543 140.733 343.048 140.511 345 140C345.574 136.302 346.655 134.684 350 133C349.181 128.051 346.464 127.508 342 129z"/>
<path style="fill:#999; stroke:none;" d="M325 140C323.414 142.618 322.045 145.126 321 148C323.915 146.121 325.82 143.503 325 140M363 150C363.246 152.121 363.231 153.874 363 156C365.447 154.164 366.7 152.763 368 150L367 149L363 150M308 156C310.492 155.03 311.146 154.525 312 152C309.751 153.154 309.154 153.751 308 156z"/>
<path style="fill:#999; stroke:none;" d="M404 156L406 163C407.065 160.413 406.781 158.679 406 156L404 156z"/>
<path style="fill:#999; stroke:none;" d="M405 166L404 176C396.952 176.309 390.193 189.144 399 192C398.535 190.106 397.934 188.723 397 187C403.593 192.014 404.385 200.214 405 208L402 208L400 198C399.083 200.158 399.098 202.621 397.992 204.715C396.585 207.38 394.839 209.034 394 212C395.195 211.402 394.977 211.534 396 210L397 216L400 215C402.71 218.716 407.82 217.034 412 217L411 221C414.917 218.84 415.174 216.136 414 212C413.315 213.248 413.251 213.548 413 215C410.585 212.893 408.776 210.67 407 208L413 211C412.61 208.262 409.455 203.006 411.661 200.689C413.812 198.43 416.949 199.816 419 197C410.764 196.402 409.214 191.462 406 185C410.876 185.385 415.35 186.546 420 188C421.832 182.688 420.18 181.464 417.258 176.961C413.249 170.78 412.484 168.403 405 166M271 176L275 175C275.751 178.504 277.878 177.659 281 178C281.59 174.242 279.722 172.264 278 169C273.743 169.906 272.246 171.908 271 176M339 170L339 174C340.87 172.771 341.224 172.132 342 170L339 170M260 171L259 175C260.608 173.55 261.064 172.949 262 171L260 171M452.333 176.667C452.278 176.722 452.222 177.778 452.667 177.333C452.722 177.278 452.778 176.222 452.333 176.667M451 181L451 183L453 183L453 181L451 181M386 185L388 189C390.547 187.627 391.188 186.782 392 184C389.795 184.094 388.106 184.356 386 185M429 184L429 186L431 186L431 184L429 184M179 216C180.543 217.267 181.048 217.489 183 218C179.191 220.771 175.162 221.095 171 223.049C164.178 226.253 158.285 231.913 154 238C157.978 236.158 161.421 231.857 166 231.649C171.415 231.403 175.655 236.286 181 237L178 231L189 233C187.126 226.593 175.42 228 170 228C175.994 221.137 185.28 223.271 193 220L193 218C190.294 217.009 187.868 216.287 185 216C192.817 211.211 201.608 211.383 206 220C210.978 217.999 212.405 209.963 208.275 206.148C205.679 203.75 202.29 204.012 199 204C202.04 198.172 207.204 194.841 213 192C213.406 196.705 212.41 200.416 214 205C215.925 204.977 218.767 205.342 220.359 203.972C224.335 200.55 219.423 195.571 216 195C215.756 190.286 217.835 188.808 220 185C203.727 188.858 192.228 206.965 179 216M431 187C428.728 189.758 426.097 192.613 425 196L432 196C431.998 192.874 432.213 189.89 431 187z"/>
<path style="fill:#999; stroke:none;" d="M456 189L457 194L461 193L460 189L456 189M374 193C373.014 194.479 373 194.203 373 196C374.289 194.557 374.401 194.766 374 193M368 197C370.124 196.101 370.101 196.124 371 194C368.876 194.899 368.899 194.876 368 197M459 195C459.951 198.982 463.399 202.009 463.816 206.039C464.737 214.93 459.389 224.087 459 233C472.573 231.337 486.262 225.914 499 220.946C505.947 218.236 513.618 213.961 521 213C519.944 215.242 519.819 215.577 520 218L516 218C516.406 220.092 516.217 220.02 518 221L517 225C518.701 226.783 519.948 228.644 522 230C521.837 226.807 522.194 224.092 523 221C524.158 223.462 524.335 224.432 527 225L526 220C527.582 222.057 527.826 223.388 528 226L525 226L525 234L528 234C528.675 229.127 529.655 226.089 535 226L534 220L531 220L532 211L529 212L530 208C523.38 207.163 516.733 206.587 510.039 207.054C506.908 207.272 504.174 208.498 500.985 208.192C490.476 207.185 480.199 204.32 470.17 201.526C466.956 200.631 464.315 198.723 461 198C461.986 196.522 462 196.797 462 195L459 195M375 196C376.226 198.035 376.703 198.326 379 199C377.771 197.13 377.132 196.776 375 196M419 220C416.157 220.421 414.988 220.939 413 223C419.067 223.596 419.097 227.624 416 232L416 228C412.604 232.678 412.004 242.201 412 248C415.55 247.424 416.764 246.371 418 243C420.355 243.868 422.531 244.574 425 245C424.983 238.84 423.13 233.116 423 227L427 227C426.884 221.561 424.009 216.357 428 212L427 209C430.572 206.695 428.611 201.957 429 198C418.911 198.802 419.335 212.2 419 220M236 199C235.643 202.726 236.699 204.266 240 206C240.497 202.904 239.742 201.6 238 199L236 199M384 200C383.014 201.479 383 201.203 383 203C384.289 201.557 384.401 201.766 384 200M439 200C438.356 202.106 438.094 203.795 438 206L440 206C439.953 203.747 439.874 202.052 439 200M444 200L444 224L446 224C445.488 216.749 448.23 206.192 444 200M241 208L245 207C242.954 206.249 242.404 206.344 241 208M389 207L389 209C390.635 208.455 390.455 208.635 391 207L389 207M437 209L436 217C439.882 215.864 439.882 212.696 440 209L437 209z"/>
<path style="fill:#999; stroke:none;" d="M338 211C337.11 212.745 336.547 214.125 336 216C339.058 216.71 340.268 216.669 342 214C340.254 213.176 339.351 212.402 338 211M380 215C382.545 216.635 382.779 217.993 383 221C378.543 220.55 375.982 223.155 374 227L376 226C375.428 228.377 375.11 230.558 375 233C377.85 232.979 380.271 232.81 383 232C381.056 229.334 379.66 227.255 379 224C381.38 225.947 383.101 227.888 386 229L384 224C387.88 225.198 390.972 225.423 395 225C391.433 228.12 387.281 228.464 385 233L389 233L389 229C391.337 229.519 392.64 229.48 395 229C397.157 232.016 399.843 232.016 402 229C404.678 230.438 406.89 231.819 409 234L402 232L400 236C402.959 236.91 414.966 241.51 411.879 233.18C411.026 230.879 408.458 228.958 407 227L413 230C411.039 225.845 408.746 221.786 404 221L405 225C399.399 220.943 394.803 215.031 387.985 212.889C384.205 211.701 381.414 210.796 380 215M164 226C167.165 223.143 170.144 219.842 172 216C167.642 218.13 165.46 221.429 164 226M339 219C338.542 221.786 338.631 222.455 341 224L341 219L339 219M368 220L368 222L372 223L372 219L368 220M498 224L499 228C494.403 228.781 489.444 229.802 487 234C496.499 231.488 502.684 235.192 512 237L508 229C506.139 229.84 504.666 230.798 503 232L502 224C505.717 223.517 508.903 223.271 511 220C506.682 221.015 501.987 222.078 498 224M198 223C199.58 222.316 199.777 222.195 201 221C198.908 221.406 198.98 221.217 198 223z"/>
<path style="fill:#999; stroke:none;" d="M431 233C436.522 231.475 436.952 228.314 437 223C432.475 224.468 431.298 228.528 431 233M505 226C507.092 225.594 507.02 225.783 508 224C506.42 224.684 506.223 224.805 505 226z"/>
<path style="fill:#999; stroke:none;" d="M513 225L512 229C517.511 232.127 519.225 238.085 526 239C523.736 236.724 523.042 235.22 523 232L519 233C517.541 229.762 515.713 227.283 513 225M225 237C223.215 230.589 230.523 230.387 234 226C229.962 226.926 225.352 227.883 222.164 230.72C218.345 234.117 220.415 237.686 225 237M215 228L215 230C216.635 229.455 216.455 229.635 217 228L215 228M531 228L531 230C532.635 229.455 532.455 229.635 533 228L531 228M444 229C444.01 232.455 444.198 235.632 445 239C446.327 235.837 446 232.414 446 229L444 229M535 230C535.651 232.373 536.605 233.962 538 236L534 235L534 239C538.539 241.865 541.387 244.515 542 250C544.306 244.452 540.742 237.741 540 232C537.868 232.076 536.949 230.86 535 230M362 249C362.922 246.677 362.687 245.42 362 243C360.497 244.663 359.801 245.896 359 248L357 248C356.248 241.664 353.317 237.791 351 232C343.666 233.322 346.758 238.549 349.083 243.083C350.363 245.579 350.347 248.127 353.083 249.583C356.43 251.365 360.919 248.063 362 249M390.667 232.333C390.222 232.778 391.278 232.722 391.333 232.667C391.778 232.222 390.722 232.278 390.667 232.333M427 234C427.211 236.739 427.302 237.422 430 238C429.151 236.009 428.733 235.222 427 234M451.333 234.667C451.278 234.722 451.222 235.778 451.667 235.333C451.722 235.278 451.778 234.222 451.333 234.667M384 241L390 242L390 235C386.778 236.221 385.369 237.857 384 241M546 235L548 240C548.873 237.388 548.276 236.453 546 235M483 237L474 244C475.186 242.814 475.528 242.416 476 241C471.12 242.182 467.806 244.933 467 250C460.697 248.814 453.672 256.246 452 262L457 262L457 267L461 266C459.652 267.768 458.878 268.983 458 271C461.27 269.208 462.774 267.528 464 264C460.777 261.904 461.193 259.549 462 256L466 257C467.461 254.496 468.913 251.61 472.019 250.927C474.353 250.414 476.645 251.618 479 250.877C484.419 249.173 486.892 244.079 488 239C485.366 239.273 484.831 238.845 483 237z"/>
<path style="fill:#999; stroke:none;" d="M545 238C545 242.423 544.741 246.74 546 251L553 248L553 245C549.571 243.317 547.719 240.592 545 238M181 241C183.613 242.098 186.165 241.993 189 242L189 239C186.132 239.287 183.706 240.009 181 241M136 278C143.783 271.9 147.967 270 158 270C156.184 267.258 154.202 266.584 151 266C150.752 264.074 149.451 261.099 150.287 259.25C151.277 257.062 154.089 256.007 155.831 254.53C159.416 251.492 162.023 246.973 166.961 245.933C170.633 245.159 174.109 246.891 178 246L176 242L180 241C174.821 238.827 166.471 239.346 162.209 243.279C159.569 245.714 158.049 249.112 155.532 251.671C147.069 260.277 139.314 265.634 136 278M397 243C399.124 242.101 399.101 242.124 400 240C397.876 240.899 397.899 240.876 397 243M444 241L443 244C444.766 243.021 444.955 242.778 444 241M551 242L551 244L553 244L553 242L551 242M556 242C557.013 244.485 557.726 245.598 560 247L559 251C560.608 252.45 561.064 253.051 562 255L557 254C557 260.041 557.192 265.204 559 271L564 271C565.451 261.698 572.206 271.336 577 273C573.401 267.711 568.735 262.228 567 256C570.107 257.939 571.414 259.358 572 263L576 262C573.083 255.11 567.071 248.312 561 244L561 246L556 242M154 246L159 244C156.491 243.434 155.78 244.152 154 246M386 244L384 251L388 249C388.572 251.377 388.89 253.558 389 256C391.922 254.423 393.764 251.853 397 251C395.814 252.186 395.416 252.528 394 253C394.885 256.153 396.832 257.643 399 260C401.232 257.427 402.573 255.767 406 257L407 253C403.267 253 399.626 248.86 396 247.5C394.411 246.904 392.888 247.876 391.333 247C389.033 245.703 388.86 244.327 386 244M401 244L401 246L403 246L403 244L401 244M143 254C146.145 251.314 149.796 248.481 152 245C147.225 246.341 144.341 249.225 143 254M402.333 247.667C402.278 247.722 402.222 248.778 402.667 248.333C402.722 248.278 402.778 247.222 402.333 247.667M184 248C186.78 251.935 194.378 252.32 199 253C197.068 247.505 189.028 248.042 184 248M404.333 248.667C404.278 248.722 404.222 249.778 404.667 249.333C404.722 249.278 404.778 248.222 404.333 248.667M375 250L376 253L371 253C371.613 254.661 372.043 255.483 373 257C376.124 254.991 379.112 253.216 381 250C378.686 250.555 377.314 250.544 375 250M412 250C411.332 254.54 410.376 258.789 407 262C408.331 265.331 409.543 266.936 413 268C413.643 264.07 415.003 262.849 419 263L421 259C423.234 264.689 425.399 264.432 431 263C430.658 259.072 430.82 255.901 428 253L428 257C422.789 254.035 418.143 250.441 412 250M427 250L427 252L429 252L429 250L427 250M496 251C494.691 253.777 492.865 256.041 492 259C495.355 257.058 497.245 254.428 499 251L496 251M159 253C160.745 257.961 165.582 256.504 170 257C169.014 258.479 169 258.203 169 260C175.705 261.735 181.212 261.14 188 261L188 259L182 259L182 257C185.816 257.163 189.27 257.942 193 257C181.618 250.815 170.873 255.212 159 253M544 252L545 266C543.863 263.357 543.533 260.833 543 258L540 258C539.11 260.669 539.423 264.561 538 267C536.254 269.994 533.777 270.894 533 274C532.171 277.317 533.495 280.97 534 284L536 285C537.136 287.841 532.674 289.817 534 293C534.763 294.832 537.377 296.13 538 298C538.606 299.819 535.876 303.54 535 305L534 304C535.732 306.669 536.943 306.71 540 306L539 302L545 304C543.905 296.604 541.838 289.359 540 282L544 283C545.079 278.017 543.398 273.04 543 268C544.479 268.986 544.203 269 546 269C546.531 266.31 547.116 264.98 549 263L546 261C548.496 258.928 550.133 257.147 551 254L544 252M380 257C381.195 258.223 381.316 258.42 382 260C383.582 258.088 384.899 256.22 386 254C382.773 253.881 381.616 254.19 380 257M257 267C251.168 268.655 245.389 269.318 244 276C250.874 275.924 259.744 273.767 261 266C267.51 264.642 266.233 260.525 266 255C260.225 257.403 255.568 260.274 257 267M403 258C403.307 260.123 403.382 260.686 405 262C404.489 260.048 404.267 259.543 403 258M484 262C485.923 261.098 485.999 260.924 487 259C484.876 259.899 484.899 259.876 484 262M191 260C192.644 265.089 198.114 266.268 203 267C200.452 261.986 196.489 260.174 191 260M371 262L371 264L374 264L374 262L371 262M390 263C387.038 269.7 385.095 274.633 384 282C386.964 281.032 387.503 280.066 388 277L390 278C391.322 273.111 394.489 268.901 396 264L390 263M486 263C484.153 265.728 483.291 267.085 485 270C486.605 267.263 487.613 265.791 486 263M170 268C173.916 267.989 177.584 268.42 180 265C176.078 264.614 172.492 264.686 170 268M417 289C421.863 284.847 424.152 279.296 427.615 274.043C430.007 270.414 432.645 268.507 433 264C423.635 265.504 414.491 279.784 417 289M404 265L404 270L407 270C406.824 268.122 406.562 266.801 406 265L404 265M451 265L449 270L453 268C453.849 269.991 454.267 270.778 456 272L456 267C454.42 266.316 454.223 266.195 453 265L451 265M188 266C186.85 272.923 192.881 275.666 199 276C198.515 269.894 193.278 267.921 188 266M266 266L266 270L269 270L269 266L266 266M372 267L371 273C372.603 271.076 373.247 269.409 374 267L372 267M445.333 270.667C445.278 270.722 445.222 271.778 445.667 271.333C445.722 271.278 445.778 270.222 445.333 270.667M475 272C475.598 273.195 475.466 272.977 477 274C475.083 276.371 474.107 279.144 473 282C477.035 280.026 483.147 271.868 475 272M157 272C157.581 277.159 155.323 278.665 151 281C155.296 283.148 157.892 283.699 156 289C162.415 290.244 169.307 290.127 174 295C170.627 296.46 167.938 297.83 166 301C174.971 298.441 185.049 295.366 191 305L185 306L185 308C188.481 307.962 190.917 307.647 194 306C194.899 308.124 194.876 308.101 197 309C196.439 305.023 194.459 302.118 195 298C192.876 297.101 192.899 297.124 192 295C188.554 294.961 181.583 294.763 185 290C185.251 291.452 185.315 291.752 186 293C187.267 291.457 187.489 290.952 188 289C192.201 290.915 196.017 292.677 198 297L205 294C194.969 288.532 191.999 274.151 178 278L178 284C179.608 285.45 180.064 286.051 181 288L176 287C176 288.797 176.014 288.521 177 290L171 289C172.784 286.993 174.595 285.29 176 283C172.537 283.029 166.362 284.835 163.603 282.243C159.816 278.685 163.234 273.893 157 272M397 273C397.858 280.994 398.028 289.011 400.299 296.83C401.506 300.982 404.494 303.459 405 308C410.467 306.126 408.856 301.696 410.236 297.093C411.006 294.525 413.485 293.138 414.312 290.675C415.404 287.423 414.01 282.468 414 279C408.45 279.672 406.328 277.55 407 272L397 273M556 274L555 282C559.788 280.015 561.621 277.974 563 273L556 274M583 273C583.905 276.782 586.075 279.653 588 283C589.293 278.918 586.388 275.159 583 273M579 274C576.633 275.776 574.933 276.603 572 277C573.624 281.599 577.084 280.188 581 279C580.705 284.443 577.49 288.6 577 294C578.797 294 578.521 293.986 580 293L577 301C579.177 300.001 585.536 293.804 581 293L585 288C584.677 290.032 584.66 290.982 585 293C587.058 290.22 586.787 287.401 587 284C584.61 285.355 582.941 287.029 581 289C583.607 282.556 583.027 279.64 579 274M367 275C365.973 277.398 365.322 279.416 365 282C366.836 279.692 367.797 277.889 367 275M434 275L433 279C435.698 278.422 435.789 277.739 436 275L434 275M374 276L373 280C374.303 278.332 374.553 278.008 374 276M445 278L445 281C446.195 279.777 446.316 279.58 447 278L445 278M430 281C428.132 284.661 424.535 287.973 423.557 292C421.994 298.434 426.502 302.774 419 307L419 317C422.77 312.464 427.624 303.739 429 298C425.109 295.639 426.042 292.912 429 290C429.617 292.303 430.257 293.372 432 295L436 289C432.335 286.926 431.536 285.166 432 281L430 281M443 282L440 284C442.047 284.705 443.397 284.294 443 282M576 282C572.977 285.118 570.466 287.857 569 292C572.38 289.598 576.599 286.494 576 282M132 294L145 284C139.435 282.72 133.423 289.037 132 294M376 285C375.014 286.479 375 286.203 375 288C376.289 286.557 376.401 286.766 376 285M393 285L393 291C395.717 289.023 395.717 286.977 393 285M589 285C588.765 288.072 588.845 290.142 590 293C590.871 290.165 590.278 287.661 589 285z"/>
<path style="fill:#999; stroke:none;" d="M206 286L206 288L208 288L208 286L206 286M555 289C556.752 288.436 557.542 288.081 559 287C556.547 286.861 556.324 286.929 555 289M381 287L381 289L383 289L383 287L381 287M139 290C137.333 294.256 134.218 297.608 133 302C134.416 301.528 134.814 301.186 136 300C136.63 304.659 138.253 306.625 143 307C142.229 304.197 140.67 302.359 139 300C142.695 300.467 146.265 300.969 150 301C149.043 302.517 148.613 303.339 148 305C149.801 305.562 151.122 305.824 153 306C151.814 307.186 151.472 307.584 151 309C153.221 309.74 154.685 310.07 157 310C154.994 304.334 161.499 303.032 164 299C154.456 299.196 145.655 300.065 141 290L139 290M206 293L210 296C211.043 293.905 211.603 292.301 212 290C209.157 290.421 207.988 290.939 206 293M384.333 291.667C384.278 291.722 384.222 292.778 384.667 292.333C384.722 292.278 384.778 291.222 384.333 291.667M436 291C435.438 292.801 435.176 294.122 435 296C436.475 294.065 436.791 293.307 436 291M555 291C554.947 297.377 554.7 302.696 556 309C560.633 306.051 564.077 300.072 566 295C562.139 297.138 560.345 301.184 557 304C558.083 299.439 557.58 295.588 557 291L555 291M396 292C395.49 295.27 395.143 297.097 398 299L398 292L396 292M381 293L381 296C381.696 294.446 381.696 294.554 381 293M527 294L524 303L530 304L529 294L527 294M570 300C572.745 298.331 573.497 297.176 574 294C571.15 295.556 570.497 296.793 570 300M203 295C202.014 296.479 202 296.203 202 298C203.766 297.021 203.955 296.778 203 295M585 301L589 300C588.132 302.355 587.426 304.531 587 307C591.726 305.987 590 298.995 590 295C587.082 296.517 586.078 297.893 585 301M432 298L432 300C433.635 299.455 433.455 299.635 434 298L432 298M208 299L204 300L206 307L208 307C208.864 304.06 209.188 301.852 208 299M515 300C514.438 301.801 514.176 303.122 514 305L510 304C511.98 305.884 513.31 306.469 516 307C515.981 304.457 515.985 302.332 515 300M582 302C580.705 308.339 577.355 311.132 574.208 316.319C573.147 318.069 572.925 320.202 571.542 321.782C569.719 323.864 566.796 324.047 565.023 326.218C562.375 329.46 561.472 333.674 566 335C564.607 326.625 571.138 330.126 575.417 326.383C577.774 324.321 577.745 320.861 578 318L580 318L585 329C582.4 328.577 580.822 328.064 579 330C575.863 329.506 575 329.964 574 333L579 333C576.68 335.203 575.19 335.768 572 336L575 340L570 340C570.434 347.851 571.388 354.389 561 353C559.173 355.357 555.356 358.123 554.887 361.171C554.489 363.757 556.994 366.088 555.829 368.656C554.606 371.35 550.807 371.817 549 374C547.521 373.014 547.797 373 546 373C546 374.797 546.014 374.521 547 376C551.895 375.192 556.43 376.162 561 374L561 378C559.521 377.014 559.797 377 558 377C558.421 379.058 558.637 380.076 558 382C559.139 384.055 558.818 384.049 561 384L561 389C556.276 386.718 553.544 383.372 548 383C549.797 385.581 552.014 386.118 555 387C553.316 387.224 552.686 387.218 551 387C552.851 390.198 555.458 391.978 559 393C557.937 396.406 557.104 399.415 557 403L563 403L563 408C557.142 404.055 557.331 407.707 551.857 409.272C549.864 409.842 547.812 408.687 546 408L546 413L554 415C554.092 419.392 557.363 422.637 554 426C559.01 430.937 555.048 438.806 563 441C562.395 425.559 567.669 410.241 569 395C583.38 400.336 604.202 396.452 603.995 378C603.963 375.141 603.616 372.578 602.31 370C600.195 365.823 598.414 361.591 594.014 359.532C591.129 358.183 583.509 357.604 582.148 354.782C578.66 347.554 585.056 338.459 587.13 332C588.354 328.187 588.132 324.209 584 323C583.898 319.548 582.258 316.355 582.258 313C582.257 308.561 584.83 306.156 582 302M504 303L503 307C505.695 307.845 508.194 308.657 511 309C509.323 305.723 507.417 304.337 504 303M428 304L428 306L430 306L430 304L428 304M133 305C131.078 306.658 130.105 307.741 129 310C131.517 308.753 133.083 307.895 133 305M523.333 305.667C523.278 305.722 523.222 306.778 523.667 306.333C523.722 306.278 523.778 305.222 523.333 305.667M546 305L546 309C546.71 307.24 546.71 306.759 546 305M553 306C552.602 309.894 551.065 313.265 550 317C554.488 314.512 555.643 310.449 553 306M427.333 307.667C427.278 307.722 427.222 308.778 427.667 308.333C427.722 308.278 427.778 307.222 427.333 307.667M560 307L557 313C559.662 311.427 560.772 309.834 562 307L560 307M535 308L535 310C536.635 309.455 536.455 309.635 537 308L535 308M393 309C393.43 315.768 394.059 328.063 400 332L399 325L401 328C406.862 321.303 399.308 312.576 393 309M512 309L512 311L514 311L514 309L512 309M522 309L522 311L524 311L524 309L522 309M157 312C160.679 319.213 174.519 322.166 176 312C169.473 310.714 163.603 311.219 157 312M191 318C193.643 315.455 194.386 313.657 194 310C189.847 311.379 189.894 314.115 191 318M538.333 310.667C538.278 310.722 538.222 311.778 538.667 311.333C538.722 311.278 538.778 310.222 538.333 310.667M508 311L508 314C509.015 312.861 509.309 312.388 510 311L508 311M515.667 311.333C515.222 311.778 516.278 311.722 516.333 311.667C516.778 311.222 515.722 311.278 515.667 311.333M200 312L200 318C198.72 316.663 197.97 315.6 197 314C193.898 316.766 193.465 318.927 194 323C195.923 322.098 195.999 321.924 197 320L199 320C199.572 322.377 199.89 324.558 200 327C190.61 324.868 191.06 333.73 191 341C186.262 340.265 184.388 341.027 184 346C188.272 344.568 196.472 340.272 200.903 341.639C204.65 342.795 207.174 351.484 208 355L210 355C209.988 351.361 208.145 346.53 208.858 343.129C209.465 340.238 213.501 338.815 212.083 335.464C210.481 331.676 205.64 331.227 204.228 326.981C202.475 321.706 204.197 316.11 200 312M527 312C528.324 314.687 529.313 315.676 532 317C530.694 314.563 529.437 313.306 527 312M567 313C569.047 313.751 569.596 313.656 571 312L567 313M412 313C408.478 318.562 407.512 324.509 407 331C409.126 330.769 410.879 330.754 413 331C412.834 328.27 412.587 325.673 412 323C413.457 324.104 413.897 324.543 415 326L417 326C417.929 322.086 417.929 318.914 417 315C415.603 315.661 415.186 315.964 414 317C413.404 315.44 412.911 314.377 412 313M514 313L514 315L516 315C515.455 313.365 515.635 313.545 514 313M497 314L492 324C498.458 324.935 498.953 319.193 499 314L497 314M559.333 314.667C559.278 314.722 559.222 315.778 559.667 315.333C559.722 315.278 559.778 314.222 559.333 314.667M502 316L501 320C503.104 319.199 504.337 318.503 506 317L502 316M510 316C507.597 322.713 503.225 329.912 503 337L493 337C496.959 338.661 501.737 338 506 338C505.232 336.686 505.314 336.768 504 336C505.801 335.438 507.122 335.176 509 335C510.207 328.617 513.258 322.13 510 316M561 321C563.19 319.879 565.028 318.487 567 317C563.712 316.325 562.415 318.181 561 321M525 317L525 319L527 319L527 317L525 317M548 318C546.127 323.348 544.007 327.881 540 332L540 334C541.759 336.308 541.917 338.092 542 341L544 341C544.559 334.518 544.613 328.418 551 325L548 318M515 319C516.352 322.884 518.116 324.648 522 326C519.875 323.398 517.656 321.052 515 319M522.667 319.333C522.222 319.778 523.278 319.722 523.333 319.667C523.778 319.222 522.722 319.278 522.667 319.333M536 320L533 323L534 326L530 324C531.373 326.547 532.218 327.188 535 328C533.37 332.238 530.434 335.676 529 340C527.666 336.35 529.438 330.951 525 330C525 333.257 521.565 331.203 519 331L518 336C519.314 335.232 519.232 335.314 520 334C522.321 338.891 526.35 342.593 531 338C532.186 339.036 532.604 339.339 534 340C534.458 332.949 538.547 327.295 538 320L536 320M504 321C502.814 322.186 502.472 322.584 502 324C503.994 323.153 504.699 322.993 504 321M526 321C525.014 322.478 525 322.203 525 324C526.766 323.021 526.955 322.778 526 321M141 322L141 328L144 328C143.906 325.795 143.644 324.106 143 322L141 322M182 324C184.189 327.195 187.264 327.671 191 328C189.517 323.782 186.037 324.037 182 324M524 325L522 330C524.131 328.516 524.71 327.531 524 325M163 337C169.362 334.944 176.588 332.147 181 327C175.096 329.112 166.318 331.432 163 337M182 328C181.438 329.8 181.176 331.122 181 333C182.366 331.369 183.142 329.962 184 328L182 328M559 328C552.419 332.877 552.396 336.286 553 344C560.265 344.21 564.56 347.431 569 340L562 342L563 339L559 338L562 336C560.521 335.014 560.797 335 559 335C560.396 332.173 560.769 330.672 559 328M495 329L495 331L497 331C496.455 329.365 496.635 329.545 495 329M489 330L488 332L490 332C490 330.147 490.3 330.65 489 330M176 334L179 333C177.222 332.045 176.979 332.234 176 334M395 333L395 337C396.951 335.74 397.84 334.981 399 333L395 333z"/>
<path style="fill:#999; stroke:none;" d="M485 334C483.985 337.51 482.199 341.295 482.405 345C482.658 349.552 485.413 353.493 486 358C489.287 355.603 487.323 352.268 489.642 349.317C491.519 346.929 495.257 346.686 498 346C491.5 343.17 490.426 340.077 487 334L485 334M399 336C398.455 337.635 398.635 337.455 397 338L398 343C399.421 340.751 400.382 338.586 401 336L399 336M172 337C171.438 338.801 171.176 340.122 171 342C172.314 340.388 173.187 338.915 174 337L172 337M517 337C518.248 337.685 518.548 337.749 520 338C518.752 337.315 518.452 337.251 517 337M143 339C143.77 342.748 144.888 346.134 145 350C147.619 349.556 150.305 348.418 152.961 348.338C157.736 348.194 159.926 350.666 162 345C159.2 345.297 156.783 345.445 154 345L154 343C156.637 342.061 157.618 341.42 159 339C155.725 340.259 152.985 342.166 150 344C148.81 340.229 146.828 339.431 143 339z"/>
<path style="fill:#999; stroke:none;" d="M174.667 342.333C174.222 342.778 175.278 342.722 175.333 342.667C175.778 342.222 174.722 342.278 174.667 342.333M331 342C332.754 348.609 334.937 356.176 341 360C338.597 354.163 336.702 345.215 331 342M516 352C511.108 352.5 507.89 352.448 507 347L505 347C505.05 351.541 506.458 355.555 507 360L505 360C504.559 355.572 503.105 351.491 503 347L497 348C496.897 353.072 495.219 357.907 495 363C498.141 363.815 500.771 365.5 504 366L504 372C507.936 371.156 506.627 368.317 506 365L510 366C511.481 364.402 512.061 363.892 514 363L513 358L517 358C516.428 360.377 516.109 362.558 516 365C518.017 364.122 519.232 363.349 521 362C521.949 364.567 522.694 365.532 525 367C525.646 364.542 525.646 363.458 525 361L521 362C522.183 359.672 523.223 357.489 524 355L520 356C521.308 352.531 522.396 349.671 525 347C525.048 345.052 525.304 343.823 526 342C520.143 343.289 516.826 345.84 516 352M541 343L541 345C542.635 344.455 542.455 344.635 543 343L541 343M173 347C174.58 346.316 174.777 346.195 176 345C174.42 345.684 174.223 345.805 173 347M188 345L188 349L184 350C182.551 348.354 182.208 348.547 180 349C182.383 355.014 179.686 361.641 183 368C180.419 367.874 179.574 367.954 178 370C182.686 369.609 187.306 369.988 192 370L191 366C193.248 366.162 197.615 367.075 194 369C196.283 370.222 198.428 370.652 201 371C197.747 371.962 194.145 371.601 191 372.857C188.094 374.018 185.596 376.292 183 378C180.993 384.544 172.926 386.868 171 394C173.106 394.644 174.795 394.906 177 395L177 392C182.034 392.384 182.43 395.525 186.414 397.397C189.356 398.78 193.822 398 197 398C195.598 395.128 193.714 393.385 193 390C196.518 392.096 199.187 394.296 201 398L206 398C206.006 406.343 207.991 413.759 212.528 420.896C215.105 424.949 218.981 428.034 221.331 432.325C223.29 435.902 222.913 440.153 224.043 444C226.274 451.596 229.986 458.026 231 466C234.277 463.761 234.871 461.912 235 458L232 458C231.613 449.114 230.565 437.219 226.99 429.015C222.777 419.346 215.675 411.199 213 401L223 402C224.671 411.204 232.583 418.176 236.478 426.304C238.485 430.492 237.406 437.296 238 442L240 442L241 432C245.807 433.769 248.591 435.7 249 441C255.23 437.565 253.426 429.864 247 428C246.152 418.574 240.179 412.905 235.901 405C232.547 398.801 230.868 392.656 226.112 387.174C219.958 380.08 211.721 377.644 211 367C224.373 372.568 236.863 380.12 251 383.844C270.558 388.996 294.65 387.006 314 382C309.32 380.041 303.849 381.773 299 382.586C290.178 384.066 280.96 385.786 272 384.715C258.817 383.138 246.073 379.22 234 373.691C226.271 370.152 218.671 364.45 210 364C208.997 354.93 202.162 353.131 197 347C193.441 347.196 191.202 346.456 188 345M409 345C407.813 347.365 407.511 348.415 408 351C409.305 348.819 409.736 347.433 409 345z"/>
<path style="fill:#999; stroke:none;" d="M173 349L173 351L175 351L175 349L173 349M158 353C160.092 352.594 160.02 352.783 161 351C159.42 351.684 159.223 351.805 158 353M451 351C444.982 359.562 449.177 368.171 453 377C454.425 374.542 454.447 373.426 453 371C463.353 369.905 455.576 355.679 451 351M356 354C357.745 356.777 359.457 358.935 362 361C361.403 356.723 360.782 353.813 356 354M466 353C467.223 354.195 467.42 354.316 469 355C465.324 357.376 464.018 359.782 463 364C464.416 363.528 464.814 363.186 466 362L464 367C466.518 364.904 467.815 363.057 469 360C467.584 360.472 467.186 360.814 466 362C467.684 359.316 469.649 356.862 471 354L466 353M473 355C473.064 357.993 472.946 359.346 476 360C475.187 358.085 474.314 356.612 473 355M530 356C529.883 358.73 529.501 361.314 529 364L533 364C532.987 361.493 533.351 359.419 534 357L530 356z"/>
<path style="fill:#999; stroke:none;" d="M405 357C405.684 358.58 405.805 358.777 407 360C406.316 358.42 406.195 358.223 405 357M164 358L164 362C165.878 361.824 167.199 361.562 169 361C167.314 359.344 166.254 358.749 164 358z"/>
<path style="fill:#999; stroke:none;" d="M474 361C473.8 364.118 474.336 365.318 477 367C476.403 364.579 475.567 362.943 474 361z"/>
<path style="fill:#999; stroke:none;" d="M151 369C156.119 370.836 160.475 367.681 165 372C169.135 367.32 170.175 368.645 175 371C174.856 368.338 174.181 367.364 177 367C170.079 364.097 158.26 367.652 151 369M545 366C542.665 368.76 540.604 370.318 540 374C536.624 374.372 534.1 375.74 531 377C534.208 381.57 541.694 382.952 547 383C545.738 381.179 542.105 379.873 541.59 377.791C540.894 374.976 547.009 369.084 548 366L545 366M462 368C459.255 371.776 456.655 375.627 455 380C458.358 377.226 462.98 372.611 462 368M525 368C522.845 374.823 513.488 372.57 511 380C518.128 377.372 526.061 375.558 529 368L525 368M468 369C468.396 371.876 468.679 373.253 471 375C470.779 371.993 470.545 370.635 468 369M469 386L472 394L476 394C477.158 390.729 477.316 386.878 479 384C477.494 383.317 476.685 383.174 475 383C476.036 381.814 476.339 381.396 477 380C478.479 380.986 478.203 381 480 381C480.047 376.736 481.452 373.139 482 369C479.168 370.475 474.909 373.657 473.259 376.495C471.252 379.946 472.189 382.926 469 386M344 373L344 375L347 375L347 373L344 373M467 375L467 377L469 377C468.455 375.365 468.635 375.545 467 375M374 376C378.294 378.287 383.313 378.394 388 379.503C395.95 381.384 403.695 384.649 409 391C409.892 386.611 405.487 384.526 402 382.76C392.969 378.188 384.082 376.001 374 376M418 381C418.018 387.519 418.822 393.492 418 400C422.098 394.673 420.017 387.288 420 381L418 381M64 392L64 387L62 387C62.2055 404.56 48.3692 418.111 48 436C56.2165 437.911 63.4108 443.601 72 444L72 439C81.0152 447.387 78.3029 465.03 94 465.956C98.2331 466.206 107.46 466.269 107.508 460.126C107.59 449.826 96.5475 442.668 96 432L99 435C100.512 431.584 102.145 427.833 101.747 424C101.142 418.172 96.7319 412.982 94.0154 408C89.1967 399.162 88.2368 383.024 75.0046 383.184C69.0881 383.256 67.8918 388.659 64 392M480 383C479.89 385.442 479.572 387.623 479 390C483.202 389.516 485.014 388.352 484 384C482.286 383.874 481.567 383.698 480 383M452 385L450 390C452.044 388.376 452.896 387.357 454 385L452 385M260 400C268.76 399.921 270.347 396.266 271 388C262.166 388.031 260.662 391.621 260 400M271 401C273.712 400.177 274.538 399.433 276 397L277 401L281 401C281.929 396.937 282.911 393.194 283 389L279 389L278 393L277 389C271.194 390.008 271.217 395.959 271 401M282 401C284.442 400.891 286.623 400.572 289 400C293.919 405.425 297.655 387.912 288.208 390.623C287.272 390.891 286.613 391.655 285.966 392.318C285.011 393.296 284.385 394.766 283.801 395.98C283.008 397.629 282.504 399.25 282 401M545 393L550 393C548.964 394.186 548.661 394.604 548 396C549.875 395.453 551.255 394.89 553 394L553 392C549.626 390.611 547.196 389.711 545 393M56 391C55.2776 393.418 55.0519 395.472 55 398L58 398L58 391L56 391M295 403C299.421 402.984 302.711 403.151 305 399C309.395 404.333 315.147 405.601 319 399C319.644 401.106 319.906 402.795 320 405L326 405L327 401L328 405L334 405L338 394C334.171 394.304 332.827 395.205 332 399C331.438 397.199 331.176 395.878 331 394C328.403 394.178 327.113 394.499 325 396C323.604 392.855 320.819 392.178 320 396C315.734 391.535 310.155 391.138 307 397C305.304 393.437 299.874 387.775 296.434 393.318C294.742 396.044 295.025 399.929 295 403M477 396C478.924 394.999 479.099 394.922 480 393C477.876 393.899 477.899 393.876 477 396M616.961 393.753C606.935 396.433 596.32 404.613 597.225 416C597.716 422.178 601.539 426.506 600.725 433C599.949 439.186 597.486 445.891 597.244 451.956C597.15 454.317 598.268 456.677 601.004 456.454C604.915 456.135 607.906 449.336 610.439 446.729C615.082 441.949 619.43 436.773 624.129 432.09C629.412 426.823 633.797 423.267 633.725 415C633.654 406.73 628.007 390.8 616.961 393.753M454 394C451.311 398.927 451.004 403.469 451 409L448 409C447.761 404.525 446.017 400.494 446 396C443.66 397.785 443.581 399.129 444 402C442.206 403.823 442.683 406.183 441.661 408.576C439.428 413.805 436.113 419.472 435 425L439 426C439.854 423.62 440.666 421.512 441 419L443 419C442.905 427.539 438.404 429.136 434.312 435.495C431.024 440.605 432.346 443.761 425 444C427.359 447.113 431.26 447.496 435 448C436.089 443.493 436.288 440.092 440 437C440.843 438.769 441.541 439.688 443 441C445.347 436.602 446.564 430.021 446.227 425.004C445.82 418.957 442.992 415.377 447 410L453 419L459 420C460.324 417.313 461.313 416.324 464 415C462.386 412.098 461.192 410.933 458 410L458 416C456.516 412.238 455.44 409.049 456 405L460 406C459.342 401.762 457.656 397.941 456 394L454 394z"/>
<path style="fill:#999; stroke:none;" d="M51 396C50.428 398.377 50.1095 400.558 50 403L49 401C48.2211 402.769 48.0876 404.036 48 406C52.8371 403.789 53.9384 401.169 54 396L51 396z"/>
<path style="fill:#999; stroke:none;" d="M414.333 401.667C414.278 401.722 414.222 402.778 414.667 402.333C414.722 402.278 414.778 401.222 414.333 401.667M473 401C473.156 406.808 472.071 412.595 470 418C474.799 415.226 477.504 406.252 479 401C476.685 401.463 475.25 401.654 473 401M259 402L259 406C260.267 404.457 260.489 403.952 261 402L259 402M265 403L265 407L268 407L268 403L265 403M273 403L272 407C273.656 405.596 273.751 405.046 273 403M283 404L282 409L286 409L286 404L283 404M291 405L290 409C291.656 407.596 291.751 407.046 291 405M297 405C296.438 406.801 296.176 408.122 296 410L299 410L299 405L297 405M304 406L303 410C305.697 409.422 305.789 408.739 306 406L304 406M96 407C98.496 415.407 111.471 430.72 99 438C99.6455 442.134 103.146 446.874 107.272 442.423C109.076 440.477 109.562 437.421 110.435 435C114.599 423.455 110.644 407.434 96 407M311 407L310 411C311.656 409.596 311.751 409.046 311 407M427 407L428 408L427 407M316 411C318.739 410.789 319.422 410.698 320 408C317.703 408.674 317.226 408.965 316 411M324 408L323 412L327 411L327 409L326 408L324 408M332 408C330.952 409.856 330.487 410.944 330 413L334 413C333.697 410.706 333.422 409.789 332 408M341 409L338 414C340.015 412.356 341.098 411.587 341 409M433.333 409.667C433.278 409.722 433.222 410.778 433.667 410.333C433.722 410.278 433.778 409.222 433.333 409.667M620 456L624 456C622.777 457.195 622.58 457.316 621 458C623.042 463.081 628.291 461.879 633 463C631.778 469.663 636.642 476.389 638 483C641.948 485.26 644.332 489.533 645 494C642.908 494.406 642.98 494.217 642 496L641 492L639 492C639.745 497.632 642.276 503.14 641.027 509C640.314 512.345 637.84 514.83 636.727 518C635.728 520.844 636.002 524.035 636 527C638.892 527.806 640.094 528.677 642 531C653.188 528.372 656.035 519.973 659.075 510.09C662.018 500.52 664.395 491.715 660.407 482C658.22 476.673 655.839 470.882 650 469C651.052 463.805 656.864 458.069 660.486 465.189C662.944 470.022 662 476.762 662 482C664.826 475.265 663.73 466.334 665.975 459.09C667.736 453.402 671.62 449.861 674.402 444.866C678.067 438.285 678.964 430.453 677.853 423C675.817 409.355 651.026 405.352 642.309 414.558C633.745 423.603 635.786 435.3 638.525 445.999C639.347 449.21 644.99 458.622 642.296 461.288C640.09 463.472 637.207 460.345 635.714 458.906C631.623 454.961 624.463 449.684 620 456M120 411L120 415L122 415L122 411L120 411M543 415C544.675 417.221 546.257 417.562 549 418C547.02 416.116 545.69 415.531 543 415M412 417C412.272 419.21 413.317 421.786 412.867 424C411.913 428.687 407.608 432.43 414 435L417 432L416 439L409 442L409 446C412.884 446 419.018 447.581 420 443C420.916 447.228 420.012 451.651 420 456C422.92 452.29 422.962 447.604 423 443L427 442L425 436L422 436C421.726 431.303 421.826 426.64 421 422C416.994 421.378 415.213 419.123 412 417M120 418L120 422C120.71 420.241 120.71 419.76 120 418M256 438C258.453 438.818 262.829 439.697 265 441C266.543 441.926 268.907 445.547 272 444C274.779 442.61 279.12 437.507 281 435C281.883 433.823 282.573 430.856 284 430C287.834 427.7 287.994 435.032 289 430C289.91 435.657 287.25 441.267 287 447C290.603 442.16 291.239 434.89 292 429L286 429C287.939 426.017 289.86 423.384 291 420C282.038 421.324 271.738 425.357 264.003 430.09C260.449 432.264 257.166 433.861 256 438M381 423L380 427C381.656 425.596 381.751 425.046 381 423M118 425L118 429L120 429L120 425L118 425M389 425C390.556 427.85 391.793 428.503 395 429L395 427L389 425M298 429C297.567 434.442 296.1 439.669 295 445C298.979 441.107 298.965 434.34 300 429L298 429M405 429L405 438C407.55 435.042 408 432.755 407 429L405 429M306 430C305.555 435.445 303.727 440.599 303 446C307.381 442.943 306.986 436.905 307 432C307.986 433.479 308 433.203 308 435L313 435L313 431L306 430M315 431L312 447C315.501 442.728 315.966 436.331 317 431L315 431M115 432L115 436L117 436L117 432L115 432M324 432C323.555 437.445 321.727 442.599 321 448C324.902 444.86 324.961 438.707 325 434C326.195 435.223 326.316 435.42 327 437L332 437L332 433C329.27 432.883 326.686 432.501 324 432M334 433C333.459 439.622 331.557 446.534 330 453C334.663 453.013 338.048 453.393 342 456L343 452L332 452C333.324 446.227 334.95 440.984 335 435C335.986 436.479 336 436.203 336 438L343 438C342.824 436.122 342.562 434.801 342 433C339.194 433.402 336.806 433.402 334 433M45.3333 434.667C45.2778 434.722 45.2222 435.778 45.6667 435.333C45.7222 435.278 45.7778 434.222 45.3333 434.667M317 434C319.248 435.301 320.434 435.394 323 435C320.948 434.126 319.253 434.047 317 434M344 435C343.586 440.074 342.106 444.879 342 450C344.228 446.353 344.815 442.232 345 438C348.041 438.9 350.831 438.992 354 439L354 436L344 435M355 435L355 437L357 437L357 435L355 435M360.667 435.333C360.222 435.778 361.278 435.722 361.333 435.667C361.778 435.222 360.722 435.278 360.667 435.333M358 437L358 440C360.873 440.344 363.175 440.615 366 440C365.404 444.716 365.001 449.237 365 454L354 454C354.429 448.608 355.888 443.432 356 438C352.675 442.784 353.041 449.394 352 455L364 456L363 466C363.683 464.494 363.826 463.685 364 462L374 462C372.382 461.313 365.979 460.939 366.631 458.209C367.345 455.22 374.12 457.303 376 457.572C385.572 458.938 395.53 457.745 405 460C406.894 454.009 407.87 447.286 408 441C404.933 445.414 406.778 451.517 403.972 455.681C402.127 458.42 398.757 457.604 396 457.284C389.989 456.587 384.055 456.001 378 456C379.157 450.032 380.52 444.068 381 438L379 438C378.874 444.088 377.126 449.912 377 456C373.306 455.121 369.786 455.003 366 455C366.236 449.579 367.887 444.444 368 439C368.986 440.479 369 440.203 369 442L378 442C377.131 437.697 368.069 435.111 367 440C366.014 438.521 366 438.797 366 437L358 437M549 439C552.76 442.642 555.597 446.271 561 447C558.641 441.195 555.503 438.023 549 439M114 439L114 443L116 443L116 439L114 439M382 439L382 443L391 444L391 440L382 439M393 440C392.092 444.683 391.099 449.215 391 454C393.344 450.112 394.751 444.293 393 440M396 441C396.062 442.737 396.02 442.64 395 444C398.368 444.802 401.545 444.99 405 445C403.544 440.613 400.15 441.015 396 441M347 447C349.739 446.789 350.422 446.698 351 444C348.791 444.684 348.297 445.08 347 447M357 444L357 448L363 448C361.096 446.116 359.466 445.047 357 444M437 444C436.408 448.678 435.21 453.328 436 458C438.066 454.55 437.989 450.947 438 447C440.672 448.43 442.979 448.098 446 448L446 446L439 446C440.801 445.438 442.122 445.176 444 445C441.668 444.015 439.543 444.019 437 444M0 445C0.26256 448.41 0.678701 449.901 4 451C3.50312 447.793 2.84957 446.556 0 445M454 445L453 460C455.363 456.055 456.541 448.936 454 445M113 446L113 450C113.71 448.241 113.71 447.759 113 446M472 447C471.447 451.377 471.003 455.578 471 460C473.097 456.056 473.188 451.361 474 447L472 447M383 448C384.864 450.644 386.83 450.827 390 451C388.19 448.205 386.195 448.279 383 448M303.667 449.333C303.222 449.778 304.278 449.722 304.333 449.667C304.778 449.222 303.722 449.278 303.667 449.333M491 449C490.404 453.716 490.001 458.237 490 463C492.427 458.948 492.414 453.64 493 449L491 449M320 451C322.613 452.098 325.165 451.993 328 452C325.387 450.902 322.836 451.007 320 451M511 451C510.235 457.054 510 462.893 510 469C511.973 464.426 513.764 455.281 511 451M143 452L143 456C143.71 454.24 143.71 453.759 143 452M344 453C346.332 453.985 348.457 453.981 351 454C348.668 453.015 346.543 453.019 344 453M532 453L532 466C533.802 461.985 533.964 457.372 534 453L532 453M555 455L555 467C556.663 463.539 556.921 459.815 557 456L565 456L565 454C561.578 454.028 558.363 454.375 555 455M330 455C328.791 459.674 328.04 464.167 328 469C330.223 465.29 331.472 459.105 330 455M245 467L248 466C246.888 471.586 243.196 476.482 238.907 480.181C236.398 482.346 232.916 484.058 231.337 487.104C228.524 492.533 235.374 498.514 240 500C241.139 492.616 248.37 488.258 252.049 482C256.606 474.246 257 465.761 257 457C251.941 458.946 247.404 462.069 245 467M190 458L190 462L194 463C193.188 460.218 192.547 459.373 190 458M340 458C339.313 461.7 339.01 465.237 339 469C340.51 465.636 341.358 461.48 340 458M579 458L579 470C581.229 466.279 580.997 462.24 581 458L579 458M351 459L350 470C352.21 466.769 352.289 462.814 353 459L351 459M605 460C605.31 466.661 607.323 468.921 614 469C614.22 475.788 619.401 478.905 621.355 485.015C622.554 488.765 624.262 494.198 624.57 498.09C624.872 501.898 624.097 505.163 625 509C622.336 509.937 620.625 510.694 619 513L623 513L623 518L627 518C626.221 507.777 630.411 498.144 628.112 488C626.94 482.83 625.32 477.667 622.771 473.004C620.353 468.583 616.771 465.068 616 460C612.104 459.287 608.896 459.287 605 460M309 461L309 466C309.83 463.97 309.83 463.03 309 461M376 461C379.778 465.346 389.634 464 395 464C389.216 460.925 382.26 462.49 376 461M590 464C592.132 466.668 593.522 468.565 594 472C595.797 472 595.521 471.986 597 471C596.438 474.025 596.064 476.922 596 480C600.934 474.327 599.302 462.271 590 464M318 464L318 467C319.015 465.861 319.309 465.388 320 464L318 464M398 464C400.332 464.985 402.457 464.981 405 465C402.668 464.016 400.543 464.019 398 464M362 467L362 472C363.062 470.307 363.52 468.96 364 467L362 467M365 468C368.121 469.401 371.589 469.73 375 470L374 473C375.783 472.02 375.594 472.092 376 470C380.571 470.038 385.37 469.827 388 474C393.142 470.288 398.388 470.531 403 475C403.685 473.752 403.749 473.452 404 472L411 472C406.124 469.954 399.306 470.341 394 469.914C384.34 469.138 374.708 468 365 468M704 468L704 473C704.83 470.97 704.83 470.03 704 468M418 469C417.738 471.428 417.738 473.572 418 476C419.059 473.466 419.059 471.534 418 469M434 470C433.499 472.686 433.117 475.27 433 478L435 478C434.993 475.165 435.098 472.613 434 470M605.333 470.667C605.278 470.722 605.222 471.778 605.667 471.333C605.722 471.278 605.778 470.222 605.333 470.667M210 472C211.988 474.061 213.157 474.579 216 475C214.672 471.698 213.434 471.197 210 472M531 474L531 483C532.256 480.006 532.256 476.994 531 474M708 474C708 484.045 710.194 493.131 711 503L714 503C714 493.252 713.416 483.695 713 474L708 474z"/>
<path style="fill:#999; stroke:none;" d="M148 476L148 479L150 479L150 476L148 476M451 476L451 479C451.696 477.446 451.696 477.554 451 476M33 478L33 482L37 482L36 478L33 478M379 478L381 482C378.34 480.878 377.666 480.606 376 483C380.741 484.683 383.926 486.162 389 485L389 487L391 487C392.481 485.402 393.061 484.892 395 484L394 479L388 478L388 482C385.055 479.98 382.497 478.767 379 478M754 478C754.077 485.01 756.762 488.673 761 494C764.025 493.438 766.922 493.064 770 493L770 489C765.894 486.92 763.847 483.655 759 483C759.562 481.199 759.824 479.878 760 478C758.365 478.545 758.545 478.365 758 480C756.483 479.043 755.661 478.613 754 478M281 479C280.043 480.517 279.613 481.339 279 483C280.466 481.505 280.961 481.038 281 479M401 479L402 484C404.964 483.032 405.503 482.066 406 479L401 479M704 479L703 483C704.656 481.596 704.751 481.046 704 479M488 480L488 482L490 482L490 480L488 480M151 483L151 486C151.696 484.446 151.696 484.554 151 483M350 484C350.062 485.739 349.522 486.375 349 488C347.056 487.598 346.944 487.598 345 488C347.89 489.213 350.874 488.998 354 489C353.061 486.363 352.42 485.382 350 484M403 490C406.473 489.042 408.411 487.218 410 484C406.322 485.041 404.653 486.564 403 490M686 487C688.543 486.474 689.535 486.122 691 484C688.606 484.648 687.464 485.032 686 487M340 486C341.154 488.249 341.751 488.846 344 490L344 486L340 486M358 488C358.684 489.58 358.805 489.777 360 491L360 488L358 488M363 489C364.147 491.375 365.333 493.44 366 496L371 496C369.186 492.203 366.979 490.356 363 489M704 489L703 493C704.656 491.596 704.751 491.046 704 489M167.333 491.667C167.278 491.722 167.222 492.778 167.667 492.333C167.722 492.278 167.778 491.222 167.333 491.667M775 491C770.462 496.261 774.164 503.743 765 504C765.225 507.535 765.845 512.487 768.009 515.432C772.717 521.837 783.848 522.38 790 519C791.437 523.591 793.393 528.231 794 533C796.447 532.691 797.834 532.195 800 531L800 535C801.677 533.924 803.22 532.064 805.13 531.418C807.081 530.759 809.008 531.547 810.985 531.413C815.157 531.131 828.105 526.2 820.848 521.26C819.066 520.047 816.917 519.267 815.039 518.197C812.665 516.843 810.649 515.658 808 515C808.124 522.006 808.265 527.077 800 528C798.76 522.925 797.462 520.29 799 515C803.749 515.988 805.617 514.918 806 510C800.037 509.205 796.101 504.863 791 502C790.063 505.193 791.289 515.46 786.083 515.169C783.542 515.027 781.475 511.816 779 511C779.41 509.032 779.644 507.271 781.43 506.019C783.267 504.73 786.185 505.098 787.199 502.726C788.751 499.096 777.868 493.039 775 491M329 495C330.306 497.437 331.563 498.694 334 500L334 495L329 495M336 496L336 500L342 499C340.022 497.268 338.566 496.598 336 496M603 502C605.689 501.582 606.554 501.283 608 499C605.606 499.648 604.464 500.032 603 502M241 502C249.986 508.147 265.564 505.15 275.985 507.225C282.546 508.531 287.334 517.275 293 520.91C298.817 524.641 305.281 527.061 312 528.575C318.048 529.938 324.47 530.464 329 535C329.746 531.756 326.864 530.439 323.995 529.468C317.793 527.369 311.137 526.935 305 524.536C298.132 521.851 291.47 517.903 286.329 512.572C283.601 509.743 282.076 505.089 278.671 503.028C276.166 501.511 272.788 502.098 270 501.7C265.584 501.069 261.528 499.814 257 500.044C251.558 500.321 246.552 501.996 241 502M365 503L365 505L368 505L368 503L365 503M584 503L583 507C585.698 506.422 585.789 505.739 586 503L584 503M732 516C736.371 513.879 739.23 510.507 741 506C735.842 507.461 733.486 510.996 732 516M341 507L342 513C337.393 511.279 332.779 509.08 328 508C328.313 512.452 329.762 514.512 334 516C330.995 521.656 337.701 522.64 342 523L338 517C342 518.939 346.412 518.017 349.735 514.857C353.025 511.729 350.923 508.148 346.985 507.279C345.057 506.853 342.96 507.007 341 507M43 518C49.3765 531.322 70.2996 528.072 71 513L68 513L68 509C62.1175 509.189 59.8246 512.392 54.9961 515.196C51.2614 517.365 47.2322 517.91 43 518M243 510C244.612 512.452 246.193 513.151 249 514C247.392 511.427 245.944 510.71 243 510M215 512L216 513L215 512M358 512L359 518L363 516L362 519C364.911 517.538 366.135 516.147 367 513L358 512M1 515C3.88248 523.725 17.585 533.162 26 536C22.4699 529.23 17.1269 525.48 11.1698 520.961C7.66291 518.301 5.49181 515.695 1 515M344 527L349 527C349.475 524.43 350.914 523.225 352 521C347.511 521.347 345.839 522.954 344 527M789 525C787.663 527.479 787.184 529.19 787 532C789.824 530.171 790.263 528.117 789 525M826 527L826 539C829.433 539 837.608 540.492 839.953 537.412C843.703 532.486 829.32 527.466 826 527M341 528L342 533C347.876 532.983 353.259 530.315 359 531C355.903 526.222 352.427 529.482 347.912 529.482C345.626 529.481 343.229 528.456 341 528M330 537C329.014 538.478 329 538.203 329 540C330.289 538.557 330.401 538.766 330 537M551 561C549.2 564.586 548.327 568.003 548 572C555.566 571.311 557.265 567.134 553 561L551 561M602 570C600.326 573.246 598.052 575.986 596 579C600.139 577.027 602.351 574.253 604 570L602 570M365 581L365 583C373.751 583.377 380.396 588.816 389 589L387 592C388.186 593.186 388.528 593.584 389 595L374 595C376.96 596.857 379.639 598.375 382 601C383.797 601 383.521 600.986 385 600C386.909 604.361 392.757 606.612 393.851 611.013C394.325 612.921 393.391 615.143 393 617L427 617C422.575 609.124 417.125 598.539 409.737 593.05C406.028 590.294 401.044 589.679 397 587.497C392.228 584.923 387.262 581.31 381.83 580.263C376.434 579.223 370.478 580.985 365 581z"/>
</svg>
