<?xml version="1.0" standalone="yes"?>
<svg xmlns="http://www.w3.org/2000/svg" width="600" height="399">
<path style="fill:#ccb6a3; stroke:none;" d="M280 44C279.043 45.5168 278.613 46.3384 278 48C279.729 46.7286 280.155 46.1481 280 44M278 81C276.932 84.3688 276.162 87.4614 276 91C266.871 92.8197 280.761 101.015 283 104L276 103L276 99C271.172 98.1036 267.458 97.6804 263 100C264.693 101.062 266.04 101.52 268 102C266.199 102.562 264.878 102.824 263 103C265.283 104.222 267.428 104.652 270 105L269 103C272.859 103.917 276.342 105.5 280 107L276 107C277.139 108.015 277.612 108.309 279 109C277.16 110.248 276.249 111.16 275 113L274 109C271.119 109.125 270.104 108.942 268 107C265.067 108.022 259.981 110.687 263 114C258.683 113.192 256.319 109.328 256 105C251.046 105.102 249.19 102.623 245 106L245 102C244.315 103.248 244.251 103.548 244 105C243.19 102.271 243.021 99.8495 243 97L239 97C241.553 101.584 242.963 107.844 242 113L244 113C242.365 114.794 241.12 115.838 239 117C239 112.639 241.214 97.8512 235 98L237 94L236 93L234 93C232.911 96.1621 231.545 97.8305 229 100L230 87C229.049 88.9407 228.561 90.8976 228 93C226.521 92.0143 226.797 92 225 92C225.981 94.8315 226.188 97.0131 226 100C224.288 94.735 222.134 89.5773 222 84L220 84C220.016 88.674 221.434 91.6628 222.6 96.0394C225.026 105.142 224.584 117.69 236 120L236 123L233 123L232 136L228 136C224.603 142.057 220.406 144.662 219 152C217.199 151.438 215.878 151.176 214 151L213 157C215.575 157 214.184 162.181 215 165L209 164C210.534 162.977 210.402 163.195 211 162C201.981 157.661 196.16 163.146 187.92 165.769C185.673 166.483 183.303 165.31 180.961 165.843C176.231 166.919 171.261 169.729 167 172C172.445 173.084 177.237 167.564 181 174L174 173L176 177L173 173L169 174C170.569 176.511 170 178.963 170 182C176.952 178.389 180.24 178.177 185 185C181.055 184.56 178.494 182.646 175 181C182.13 190.912 191.42 195.517 192 209L197 205C195.523 207.323 194.106 209.487 193 212C196.623 211.915 199.6 211.239 203 210C202.481 212.337 202.52 213.64 203 216C198.848 216.008 195.021 216.151 191 215C190.044 219.017 190 222.887 190 227C195.509 225.615 200.523 226.258 206 225L207 230C200.733 228.463 194.22 224.715 191 233C203.939 236.116 218.731 239.486 232 240L232 243C242.263 242.837 249.324 253.063 256 260C253.877 260.307 253.314 260.382 252 262C248.052 253.767 241.857 250.389 235 245L231 247C228.483 240.401 223.53 242.562 218 240.912C211.985 239.118 207.403 237.358 201.001 236.836C198.57 236.637 195.799 235.976 194.179 238.333C191.971 241.544 193.555 246.48 194 250L190 250C190.798 253.112 192.174 255.352 194 258C196.061 256.012 196.579 254.843 197 252L199 252C199.186 257.619 202.059 261.376 207 264C204.794 267.24 203.583 270.122 203 274L209 273C206.287 275.101 204.446 275.976 201 276L200 277C200.709 279.412 201.427 281.051 203 283C207.046 278.651 216.964 275.472 220.817 282.394C222.082 284.668 221.728 288.445 222 291C217.022 292.512 216.961 295.66 219 300C220.314 299.232 220.232 299.314 221 298C221.765 299.157 222.374 300.869 224.111 300.556C226.762 300.078 228.324 297.089 230.222 295.472C234.517 291.812 239.182 289.054 242 284L239 284C248.207 276.487 263.527 273.578 265 260L271 261C275.839 251.386 284.375 251.568 294 252C293.716 246.361 292.855 241.35 291 236C284.796 236.427 274.445 235.592 270 231L276 232C274.607 230.566 273.767 229.955 272 229C275.296 224.914 276.319 220.73 278.337 216C280.889 210.019 282.86 204.087 285.093 198C286.035 195.435 287.904 192.909 288.243 190.17C288.464 188.389 287.615 186.699 287.713 184.91C288.093 177.948 287.797 171.157 281 167C280.154 171.292 279.199 175.624 279 180C276.355 180.427 275.539 180.821 274 183L272 180L270 180C268.614 183.312 266.875 184.883 264 187C267.405 182.421 269.339 179.847 268 174C270.342 172.637 271.492 171.268 273 169C269.297 169.013 264.568 170.532 261.039 169.593C255.942 168.236 249.285 160.514 247 156C253.941 159.245 260.744 160.02 268 162L269 159C271.621 161.621 276.497 163.104 277 167C291.183 159.32 298.67 144.031 303 129L299 129C300.801 128.438 302.122 128.176 304 128C303.584 120.476 298.667 120.499 294 116L292 116C290.457 117.267 289.952 117.489 288 118C288.574 121.698 289.655 123.316 293 125C287.494 124.048 286.212 120.144 287 115C277.905 117.348 270.903 123.986 263 115C266.671 116.414 270.928 118.632 274.961 118.471C280.907 118.234 282.182 112.348 280 108C286.68 111.1 292.575 112.681 300 113C297.055 110.819 294.6 110.458 291 111C290.972 107.578 290.625 104.363 290 101C289.315 102.248 289.251 102.548 289 104C281.695 97.4872 285.119 88.3605 280 81L278 81M271 88L269 93C271.274 91.5976 271.987 90.4853 273 88L271 88M257 99C258.377 99.9114 259.44 100.404 261 101C260.386 98.1492 259.697 98.1456 257 99M256 104L260 103C257.954 102.249 257.404 102.344 256 104M259 104L260 105L259 104M271.667 105.333C271.222 105.778 272.278 105.722 272.333 105.667C272.778 105.222 271.722 105.278 271.667 105.333M257 106L258 107L257 106M290 113C291.506 113.683 292.315 113.826 294 114C292.494 113.317 291.685 113.174 290 113z"/>
<path style="fill:#ccb6a3; stroke:none;" d="M214 149C215.769 149.779 217.036 149.912 219 150C216.99 148.526 216.478 148.535 214 149z"/>
<path style="fill:#ccb6a3; stroke:none;" d="M165 173L166 174L165 173z"/>
<path style="fill:#ccb6a3; stroke:none;" d="M153 187C157.865 184.176 159.967 181.517 161 176C155.64 178.278 153.191 181.139 153 187M167 176L166 181C167.475 179.065 167.791 178.307 167 176M545.667 178.333C545.222 178.778 546.278 178.722 546.333 178.667C546.778 178.222 545.722 178.278 545.667 178.333z"/>
<path style="fill:#ccb6a3; stroke:none;" d="M162 184C163.809 184.574 164.069 184.465 166 184C164.341 183.594 163.758 183.691 162 184M519 185L520 188C518.032 189.464 517.648 190.606 517 193C519.239 197.307 514.888 200.192 511 201C510.999 193.262 510.774 188.994 502 190C502.496 192.976 501.039 206.202 496.085 204.655C492.547 203.551 492.204 199.699 488 199C488.531 201.738 489.103 204.362 490 207L479 210C479.036 214.665 479.174 219.409 480 224C463.811 228.628 448.197 238.041 433 245.219C408.45 256.815 383.673 267.979 359 279.309C349.183 283.816 339.39 290.007 329 293C331.175 289.333 329.538 285.919 328.421 282C326.228 274.304 323.984 266.999 320 260L323 261C322.415 253.589 320.646 246.401 322 239C319.395 240.348 317.273 242.135 315 244C316.677 241.579 319.565 238.953 320.184 236C320.835 232.899 318.541 229.586 317.143 227C314.1 221.371 312.822 215.002 308.671 210.004C306.861 207.825 300.043 199.458 296.568 201.407C293.519 203.116 296.619 210.411 297 213C298.195 212.402 297.977 212.534 299 211L301 215C296.608 218.18 298.813 223.413 300 228C297.426 230.249 297.935 233.706 298.015 237C298.2 244.714 300.393 252.309 301 260L299 256C296.996 260.788 298.601 264.532 303 267C302.536 264.828 301.895 263.042 301 261C303.609 260.341 305.64 259.313 308 258C308 259.853 307.7 259.35 309 260L304 264C306.12 271.525 306.331 277.297 306 285L316 282C311.042 288.71 311.916 293.113 316 300C312.052 301.137 308.543 302.933 305 305C302.586 300.515 298.804 300.103 294 300L295 305C291.987 305.508 291.127 306.159 290 309L286 308C284.873 315.065 278.155 317.07 275.647 308.996C274.433 305.087 277.521 301.727 279.874 299.015C285.963 291.999 301.834 287.985 301.471 277.001C301.161 267.649 285.47 268.723 279 269.04C255.788 270.177 239.815 294.19 223 307C224.163 309.482 225.49 311.709 227 314C222.331 309.992 218.617 304.996 215.039 300C212.417 296.339 209.76 291.8 205 290.711C199.552 289.465 196.201 295.625 194.939 300C191.041 313.52 198.938 321.625 204 333C199.671 327.154 196.57 321.271 193 315L191 315C188.362 319.358 187.09 322.095 192 325C191.455 326.635 191.635 326.455 190 327L190 332C182.844 329.328 175.834 326.469 169 323.03C162.578 319.798 157.392 316.338 150 316L150 308C153.023 308.384 156.148 308.743 159 309.88C168.501 313.671 183.842 326.856 191 313.001C191.994 311.077 192.5 309.087 193 307C189.612 308.768 188.196 312.078 185 314C184.748 308.132 183.954 302.124 181 297C186.674 299.404 191.318 299.589 195.941 294.941C197.297 293.577 199.417 291.467 199.079 289.318C198.349 284.686 187.463 287.958 185 289C184.906 286.795 184.644 285.106 184 283L182 283C180.645 285.684 179.564 288.047 179 291C177.144 289.952 176.056 289.487 174 289C175.719 285.462 177.598 282.979 177 279L173 280C172.184 276.172 167.093 274.596 164 272.306C160.481 269.699 157.995 266.154 155 263C157.691 263.193 159.543 263.862 162 265C164.081 261.03 164.905 257.472 165 253C169.405 251.496 169.878 247.511 172.752 244.237C174.565 242.173 177.252 241.965 179 240C181.598 239.77 181.77 239.598 182 237C184.421 236.403 186.057 235.567 188 234C186.752 233.315 186.452 233.251 185 233C185.169 229.293 183.992 227.099 182 224L178 225C176.862 218.776 174.257 218.603 169 216.457C166.464 215.421 164.356 213.219 162 215C160.587 213.935 159.7 213.458 158 213L161 205C163.12 206.162 164.365 207.205 166 209L170 208C169.208 213.589 173.456 215.73 178 218C177.421 214.338 176.247 211.946 174 209C178.151 207.198 182.923 204.077 185 200C180.467 198.757 177.096 199.853 173 202C177.087 197.688 179.686 194.041 180 188C176.235 189.087 173.189 190.731 170 193C168.302 189.758 166.573 188.726 163 188C164.537 192.269 163.275 195.617 163 200C159.68 200.041 156.299 200.373 153 199.896C150.207 199.492 147.046 197.922 144.301 199.272C140.539 201.124 138.079 206.562 136 210C138.019 211.15 138.723 212.015 140 214C136.71 215.094 135.814 216.674 135 220L139 220L139 217L146 217L145 221L149 220C148.598 221.944 148.598 222.056 149 224C145.584 224.366 142.988 225.341 140 227L145 222C140.869 221.093 136.191 221.321 132 222C132.119 225.227 131.81 226.384 129 228L130 225C127.166 226.228 125.573 227.338 124 230L128 229C125.251 230.568 118.441 234.443 123.333 237.977C125.08 239.238 128.78 238.793 129.458 241.318C130.216 244.139 126.417 247.844 125 250L136 251L128 253C126.074 250.792 123.875 251.032 121 251C121.178 253.597 121.499 254.887 123 257L116 260C116.044 265.408 110.93 273.653 118 276L117 272C119.146 275.849 121.366 284.352 126 285C125.934 290.57 124.055 291.906 121 296C124.301 296.053 126.901 296.921 130 298C131.29 292.384 129.256 287.605 129 282C133.452 286.693 133.271 292.984 134.515 299C137.051 311.273 144.359 324.94 139 337C141.035 338.226 141.326 338.703 142 341C135.718 343.096 137.152 348.927 139 354C134.005 350.762 136 341.383 136 336L130 336L130 353C128.398 348.267 126.571 341.058 128.603 336.188C130.8 330.921 142.67 324.127 134 318C133.161 327.251 125.171 331.812 120.221 339C111.45 351.736 113.762 366.478 115.719 381C116.299 385.304 117.068 395.122 120.728 397.972C122.817 399.6 126.529 398.998 129 399C128.02 397.217 128.092 397.406 126 397C127.835 393.44 127.296 391.665 126 388C129.992 387.145 129 383.53 129 380L129 356C131.32 358.203 132.81 358.768 136 359C136 368.009 136.394 375.361 139 384C143.008 380.836 146.846 378.502 152 378L152 380C147.109 381.395 142.183 383.077 138 386C140.524 389.821 141.591 393.431 141 398C142.892 398.081 143.376 398.135 145 399C145.699 397.007 144.994 396.847 143 396L147 394L148 395L147 399C149.058 398.579 150.076 398.363 152 399C153.342 396.464 152.346 395.46 150 394C152.637 392.617 154.17 391.348 156 389C157.639 390.981 158.85 392.711 160 395C157.505 394.817 156.317 395.04 154 396C155.364 397.819 155.492 397.031 155 399C162.007 398.505 168.968 399 176 399C176 396.879 176.07 397.245 178 396L175 391C174.248 392.997 174.162 394.847 174 397C172.924 394.642 172.456 392.558 172 390C177.56 388.042 180.086 387.122 185 391L179 394C181.493 394.251 182.821 393.321 185 392C185.996 400.842 193.998 399 201 399L201 396L218 396L212 398C216.72 399.981 222.92 399 228 399L259 399C263.784 399 270.609 400.214 274.985 397.972C281.211 394.784 286.398 386.823 289.864 381C295.249 371.953 304.268 361.837 297 352C294.602 353.027 292.584 353.678 290 354C293.573 349.54 295.186 344.371 297 339C298.46 342.327 298.215 345.52 299 349C300.24 347.19 300.184 347.223 300 345L306 344C302.761 347.056 300.286 350.254 305 353C303.182 356.519 306.408 359.24 307 363L309 363C309.098 358.949 309.345 356.135 313 354C311.861 352.985 311.388 352.691 310 352C311.373 346.026 308.754 339.926 310.318 334.043C312.186 327.017 324.693 323.516 331 323C330.862 325.667 331.089 326.107 333 328L333 325C334.186 326.186 334.528 326.584 335 328L341 325C341 323.203 340.986 323.478 340 322C341.948 321.064 342.55 320.608 344 319C341.558 318.891 339.377 318.572 337 318L337 316C344.293 313.899 351.297 309.755 358 306.219C360.565 304.866 363.906 302.033 366.961 302.252C372.646 302.661 374.732 311.012 381 312C380.776 313.684 380.782 314.314 381 316C379.521 315.014 379.797 315 378 315C376.178 319.273 374.629 323.291 378 327L378 320C380.255 323.463 382.047 325.625 386 327L385 330C387.118 331.218 387.845 331.867 389 334C383.292 332.17 377.983 327.759 372 329C372.101 324.794 373.117 321.745 375 318C370.852 318.212 359.477 319.665 360.706 325.984C361.174 328.39 364.221 330.375 365.807 327.643C366.735 326.044 366.161 323.712 366 322C368.345 327.451 369.068 332.16 368 338C370.43 339.182 372.313 339.73 375 340L375 335C375.834 337.763 375.78 339.214 375 342C383.31 344.633 393.561 347.485 400 340C396.893 340.791 394.779 341.715 392 340C390.15 340.202 388.85 340.202 387 340C388.624 337.956 389.643 337.104 392 336L392 340C393.015 338.861 393.309 338.388 394 337C395.635 337.545 395.455 337.365 396 339C399.073 338.096 401.382 336.848 404 335L400 340C405.485 337.857 410.201 333.338 409.877 327C409.7 323.55 408.186 320.516 408.468 317C408.972 310.74 410.946 304.273 409.341 298C408.197 293.529 402.332 285.8 406.361 281.637C412.079 275.729 422.868 272.595 430 268.576C442.803 261.359 455.944 254.497 469 247.742C475.853 244.196 482.511 239.578 490 237.431C494.472 236.149 500.433 235.145 504.985 236.513C508.148 237.464 510.557 240.808 514.039 240.577C517.459 240.351 520.491 237.437 523 235.384C529.133 230.368 534.692 224.698 540.424 219.259C542.469 217.319 545.1 215.255 548 214.924C556.997 213.898 566.707 220.09 570.971 208C571.531 206.411 571.808 204.684 571.725 203C570.998 188.344 556.304 193.973 549 187L547 192C545.814 190.814 545.472 190.416 545 189C542.076 190.157 541.223 192.391 538.701 194.027C536.48 195.469 533.552 195.668 531 196C531.314 193.515 532.209 190.584 531.643 188.094C530.241 181.929 523.198 182.983 519 185M541 186C544.474 186.87 546.708 186.382 550 185C546.617 183.086 544.001 183.649 541 186M551 184L550 187C551.289 185.557 551.401 185.766 551 184z"/>
<path style="fill:#ccb6a3; stroke:none;" d="M516 195L517 196L516 195M480 196L481 197L480 196M294 198C295.223 199.195 295.42 199.316 297 200C295.777 198.805 295.58 198.684 294 198z"/>
<path style="fill:#ccb6a3; stroke:none;" d="M478 199C478.81 201.222 479.739 202.99 481 205C481.634 203.303 481.815 201.83 482 200L478 199z"/>
<path style="fill:#ccb6a3; stroke:none;" d="M160 209C162.355 212.367 166.055 214.075 170 215C167.145 211.887 164.122 209.969 160 209z"/>
<path style="fill:#ccb6a3; stroke:none;" d="M253 211L252 213L254 213C254 211.147 254.3 211.65 253 211z"/>
<path style="fill:#ccb6a3; stroke:none;" d="M130 224L131 225L130 224M283 225C282.631 227.799 281.687 228.277 279 229C282.033 232.983 285.198 234.052 290 235C289.164 231.431 287.283 228.416 286 225L283 225z"/>
<path style="fill:#ccb6a3; stroke:none;" d="M120 240L120 242C121.635 241.455 121.455 241.635 122 240L120 240z"/>
<path style="fill:#ccb6a3; stroke:none;" d="M179 247C181.33 247.048 181.006 247.203 182 245C180.612 245.691 180.139 245.985 179 247z"/>
<path style="fill:#ccb6a3; stroke:none;" d="M175 247L175 249L178 249L178 247L175 247z"/>
<path style="fill:#ccb6a3; stroke:none;" d="M295.667 253.333C295.222 253.778 296.278 253.722 296.333 253.667C296.778 253.222 295.722 253.278 295.667 253.333M172 257C172 258.797 172.014 258.521 173 260L169 260L169 269C172.252 268.833 174.946 268.114 178 267C177.711 269.353 176.773 272.414 178.067 274.606C180.765 279.178 192.025 283.067 195 278L199 279C197.496 275.092 188.542 267.804 187 275C184.399 273.827 183.61 273.834 181 275C180.965 272.052 179.975 269.794 179 267C182.127 266.066 183.066 265.127 184 262L178 259C180.771 258.914 183.254 259.553 186 260L186 256C183.502 255.758 180.666 254.73 178.174 255.069C175.969 255.37 174.246 256.759 172 257M289 254C288.839 256.256 287.42 258.7 287.602 260.906C287.953 265.167 293.931 264.934 297 265C296.382 261.293 296.311 258.311 294 256L295 255L289 254z"/>
<path style="fill:#ccb6a3; stroke:none;" d="M277 264L284 264L284 260C280.79 260.641 279.156 261.542 277 264M106 262L106 264C107.635 263.455 107.455 263.635 108 262L106 262M112 265L108 274L103 273L103 278C111.186 278.279 112.691 271.744 114 265L112 265z"/>
<path style="fill:#ccb6a3; stroke:none;" d="M153.667 275.333C153.222 275.778 154.278 275.722 154.333 275.667C154.778 275.222 153.722 275.278 153.667 275.333M104 281L104 286L109 287C107.589 284.427 106.468 282.575 104 281M121 287C120.826 289.268 120.856 290.082 122 292C122.562 290.199 122.824 288.878 123 287L121 287M302 290C303.949 289.064 304.55 288.608 306 287C304.051 287.936 303.45 288.392 302 290z"/>
<path style="fill:#ccb6a3; stroke:none;" d="M116 292C117.543 293.267 118.048 293.489 120 294C118.457 292.733 117.952 292.511 116 292M302 295C303.924 293.999 304.098 293.922 305 292C302.636 292.482 302.482 292.636 302 295z"/>
<path style="fill:#ccb6a3; stroke:none;" d="M287 301C285.522 301.986 285.797 302 284 302C284 303.797 284.014 303.521 285 305L287 305C287.309 303.242 287.406 302.659 287 301z"/>
<path style="fill:#ccb6a3; stroke:none;" d="M281 304C281.105 307.285 281.182 309.177 284 311C284.184 307.491 284.116 305.807 281 304z"/>
<path style="fill:#ccb6a3; stroke:none;" d="M347.333 320.667C347.278 320.722 347.222 321.778 347.667 321.333C347.722 321.278 347.778 320.222 347.333 320.667z"/>
<path style="fill:#ccb6a3; stroke:none;" d="M319 327C319.402 329.806 319.402 332.194 319 335L315 334L316 342C321.85 336.418 325.374 333.813 333 331L333 329C328.054 327.666 324.038 325.227 319 327M358 326C352.674 328.345 340.975 333.627 346 340C341.25 339.668 337.923 338.988 336 344C339.512 343.111 343.654 343.575 346.961 342.257C352.043 340.232 359.542 331.643 358 326z"/>
<path style="fill:#ccb6a3; stroke:none;" d="M365 337C366.236 340.371 367.451 341.424 371 342C369.158 339.92 367.35 338.491 365 337z"/>
<path style="fill:#ccb6a3; stroke:none;" d="M349 348L358 348C355.191 343.585 351.516 343.137 349 348M372 343C373.393 349.38 378.986 347.586 384 346L372 343z"/>
<path style="fill:#ccb6a3; stroke:none;" d="M335 345C335.318 347.877 335.62 349.334 338 351C337.291 348.588 336.573 346.949 335 345M205 346L206 347L205 346z"/>
<path style="fill:#ccb6a3; stroke:none;" d="M210 352C211.135 355.397 212.577 355.579 216 355C214.059 353.598 212.27 352.779 210 352z"/>
<path style="fill:#ccb6a3; stroke:none;" d="M331.667 357.333C331.222 357.778 332.278 357.722 332.333 357.667C332.778 357.222 331.722 357.278 331.667 357.333z"/>
<path style="fill:#ccb6a3; stroke:none;" d="M162.333 369.667C162.278 369.722 162.222 370.778 162.667 370.333C162.722 370.278 162.778 369.222 162.333 369.667M169 374L170 375L169 374M220 375L220 377L222 377C221.455 375.365 221.635 375.545 220 375M166 377L167 378L166 377z"/>
<path style="fill:#ccb6a3; stroke:none;" d="M168 381L169 382L168 381M173 381L173 383C174.635 382.455 174.455 382.635 175 381L173 381z"/>
<path style="fill:#ccb6a3; stroke:none;" d="M177.667 389.333C177.222 389.778 178.278 389.722 178.333 389.667C178.778 389.222 177.722 389.278 177.667 389.333z"/>
<path style="fill:#ccb6a3; stroke:none;" d="M181 396L181 398L183 398L183 396L181 396z"/>
<path style="fill:#ccb6a3; stroke:none;" d="M204 398L205 399L204 398z"/>
</svg>
