<svg id="a2c94151-0440-485a-8cc2-05751cb3964d" data-name="Capa 1" xmlns="http://www.w3.org/2000/svg" viewBox="0 0 79.02 77.02"><g id="be63cfb8-3ec4-42fa-a57e-b53298cd1713" data-name="HEAD ESP"><g id="e00a4f59-32a2-4c3b-9a31-b0770f731c4e" data-name="ESP Logo"><g id="b46655af-be14-4cb1-bb3b-6019c1c0b0c0" data-name="R"><path id="fafce427-fc87-4ace-b630-c1f86cc56910" data-name="path14454" d="M2252.84,772.36l.26-.21a.7.7,0,0,0,.24-.27.27.27,0,0,0-.07-.25.22.22,0,0,0-.21-.1.51.51,0,0,0-.29.14l-.3.23Zm.44,1.21-1.33-1.68.74-.59a.66.66,0,0,1,.52-.19.61.61,0,0,1,.39.24.57.57,0,0,1,.14.39.7.7,0,0,1-.19.41.49.49,0,0,1,.24,0,2.42,2.42,0,0,1,.41.14l.45.19-.4.32-.34-.17a1.59,1.59,0,0,0-.47-.16.41.41,0,0,0-.31.1l-.08.06.54.69Zm-1-2.67a1.46,1.46,0,0,0-.58,1.1,1.69,1.69,0,0,0,1.42,1.77,1.46,1.46,0,0,0,1.15-.3,1.47,1.47,0,0,0,.55-1.05,1.67,1.67,0,0,0-.36-1.17,1.59,1.59,0,0,0-.71-.52,1.47,1.47,0,0,0-.82-.1,1.54,1.54,0,0,0-.65.27m-.32-.25a1.84,1.84,0,0,1,1.47-.4,2,2,0,0,1,1.31.77,2,2,0,0,1,.45,1.46,1.75,1.75,0,0,1-.68,1.3,1.82,1.82,0,0,1-1.43.38,2.05,2.05,0,0,1-1.32-.77,2.11,2.11,0,0,1-.44-1,1.81,1.81,0,0,1,.14-1,1.76,1.76,0,0,1,.5-.69" transform="translate(-2176.19 -742.75)"/></g><g id="e206e46b-6e84-4a10-951b-1bf5a3aeb7e9" data-name="Outline"><path d="M2186.67,782l-2.89,2.3h0l-6.21,4.94-1.39,1.11,1.11,1.4,21.21,26.67,1.11,1.39,1.4-1.11,8.75-7,1.39-1.11h0l7.64-6.08,1.4-1.11-1.11-1.4-9.27-11.67h0l-3.18-4-8.74-11-1.11-1.39-1.4,1.1Zm18.57,5.47-3-.7-1.41-1.77-2.34-3-.79,3.67-7.77-1.82-1.07-1.35h0l7.65-6.07Zm-13.52-1.32,5.61,1.31-.65,3-.94.75Zm11,13.8,1-.78,3-.06.29,6.27Zm3.93-2.62-3.6.07-1.44,1.15-4.72-5.94,1.44-1.14.77-3.61,2.17.51,5.27,6.63Zm-7.17-11.21h0Zm.47,31.19-21.22-26.67,7.32-5.82,1.36.31,1.55.37,5.43,6.82-.8.64,1.11,1.39,4.72,5.94,1.11,1.39.79-.62,5.85,7.36.09,1.74.06,1.28Zm17.78-14.16-7.64,6.08-1.16-1.46-.41-8.7L2212,799l-2.24-2.82-1.46-1.85-.16-3.26Zm-11.37-12,0,.8L2204,789l.81.19,1.41.33Z" transform="translate(-2176.19 -742.75)" style="fill:#ff0"/><path d="M2228.7,771.77l-10.21-12.83-1.11-1.4-1.85,1.47-9.51,7.57-2.77,2.2c-1.22,1-2.4,3.41-2.12,6.85a10.22,10.22,0,0,0,2.3,5.24l-.07-.08.13.17h0l5.49,6.89,10.79,13.59,1.11,1.39,1.4-1.11L2232,794l2.71-2.16c2.43-1.94,2.89-4.73,2.39-7.71a9.8,9.8,0,0,0-2.14-4.43h0Zm-7.51,28.57-10.8-13.59,20,5.71-.26.74Zm13.6-16a5.88,5.88,0,0,1-2.32,5.91l-.22.17a1.74,1.74,0,0,0-.16-.34,2.93,2.93,0,0,0-2.07-1.39c-1.88-.4-19.6-5.44-22.05-6.27-1.82-.62-4.12-3.25-4.63-6.19a5.94,5.94,0,0,1,2.32-5.92l.3-.23a3.13,3.13,0,0,0,2.12,1.82c.75.23,3.63,1,7.09,2,5.72,1.6,13.55,3.8,15,4.29C2232,778.77,2234.29,781.39,2234.79,784.31Zm-18.15-23.9,10.2,12.83-19.22-5.14.13-.63Z" transform="translate(-2176.19 -742.75)" style="fill:#ff0"/><path d="M2233.35,744.83h0l-2.88,2.29-1.4,1.11-9.42,7.49-1.39,1.11,1.11,1.39,21.22,26.68,1.11,1.39,1.39-1.11,9.42-7.49,1.39-1.11-1.11-1.4-8.24-10.36,1.15-.91,1.73-1.37a9.62,9.62,0,0,0,3.79-6.48,11.29,11.29,0,0,0-2.68-8.24C2244.41,742.65,2238.12,741.05,2233.35,744.83Zm8.63,39-21.22-26.68,9.42-7.49,21.22,26.67Zm7.47-27.93a7.89,7.89,0,0,1-3.13,5.28l-2.21,1.75-11.3-14.21,2.2-1.76h0c4.75-3.78,9.38-1.44,12.12,2A9.53,9.53,0,0,1,2249.45,755.87Z" transform="translate(-2176.19 -742.75)" style="fill:#ff0"/></g><g id="a99921af-a88c-47e8-8c88-3fd723b13cc2" data-name="ESP"><path id="a4cac301-c4ce-4418-9852-1c6714d54d3d" data-name="path14458" d="M2187.78,783.36l8.72-6.93,8.74,11Z" transform="translate(-2176.19 -742.75)"/><path id="a3ce0d7e-3b29-4789-9123-1d11064c3ab1" data-name="path14462" d="M2199.44,786.07l8.89,11.19-5.32.1-2.23,1.78-4.73-5.94,2.24-1.77Z" transform="translate(-2176.19 -742.75)"/><path id="fff4f6e5-0f7a-4127-986d-cee6cc5f98bc" data-name="path14470" d="M2210.39,786.75l10.8,13.59,9.72-7.74Z" transform="translate(-2176.19 -742.75)"/><path id="b6de353e-fa9d-4c7c-a51a-681495495965" data-name="path14466" d="M2208.1,791h0l9.59,12.07L2209,810Z" transform="translate(-2176.19 -742.75)"/><path id="fd6d07d0-3c69-46e0-9a35-2a3057778b97" data-name="path14474" d="M2207.13,768l9.51-7.56,10.2,12.83Z" transform="translate(-2176.19 -742.75)"/><path id="bf62266f-68e8-42df-8c03-7d69fb09b981" data-name="path14478" d="M2220.76,757.12,2242,783.8l9.42-7.5-21.22-26.67Z" transform="translate(-2176.19 -742.75)"/><path id="a7f80d27-2e31-4bfc-8e66-3693667f67b0" data-name="path14482" d="M2231.55,748.54,2244,764.15s.28-.21,2.9-2.3c4.67-3.71,4.37-9.19,1-13.47s-8.62-5.94-13.38-2.15l-2.91,2.31" transform="translate(-2176.19 -742.75)"/><path id="b33e46d3-12e2-4014-8c9e-fe803a348676" data-name="path14486" d="M2231.44,792.18l1.58-1.26c5.84-4.65,1.18-12.34-2.54-13.61-2.36-.79-20.11-5.68-22.15-6.29a2.28,2.28,0,0,1-1.68-2.67l-1.54,1.24c-5.85,4.64-1.15,12.38,2.57,13.64,2.36.8,20.07,5.86,22.15,6.31a2,2,0,0,1,1.61,2.64" transform="translate(-2176.19 -742.75)"/><path id="eaa353e9-3aea-41ff-8c83-8cd71ff46eaf" data-name="path14490" d="M2208.66,810.3l-21.2-26.68-8.77,7,21.22,26.67Z" transform="translate(-2176.19 -742.75)"/></g></g></g></svg>