<?xml version="1.0" encoding="utf-8"?>
<svg viewBox="-298.24 35.106 1283.939 392.597" width="1283.939" height="392.597" xmlns="http://www.w3.org/2000/svg">
  <g id="Background" transform="matrix(1, 0, 0, 1, -307.402496, 30.055317)">
    <path d="M -1 406 L 0 199 L 10.154 199.141 L 10 210 L 20 205 C 20 205 3 402 134 384 C 265 366 270 321 305 327 C 340 333 414 361 430 360 C 446 359 506 340 467 327 C 428 314 403 322 388 273 C 373 224 455 225 445 223 C 435 221 1097 222 1097 222 C 1097 222 1115 249 1124 244 C 1133 239 1129 248 1129 248 L 1122 251 L 1123 262 C 1123 262 1141.333 265.667 1142 262 C 1142.667 258.333 1141 249 1141 249 L 1135 250 L 1135 242 L 1166 238 L 1165 244 L 1159 246 L 1160 258 L 1178 256 L 1179 243 L 1173 243 L 1172 238 L 1202 232 L 1200 237 L 1195 238 L 1195 250 L 1214 250 L 1215 238 L 1209 237 L 1208 231 C 1208 231 1268.02 214.948 1276.951 198.059 C 1278.602 194.937 1297.598 194.772 1307.065 197.739 C 1319.535 201.647 1301 405.667 1304.667 405.333 C 1308.333 405 -1 406 -1 406 Z" fill="#000000"/>
    <path d="M 0 -1 L -0.202 199.182 L 10 199 L 10 189 L 20 194 C 20 194 3 -3 134 15 C 265 33 270 78 305 72 C 340 66 414 38 430 39 C 446 40 506 59 467 72 C 428 85 403 77 388 126 C 373 175 455 174 445 176 C 435 178 1097 177 1097 177 C 1097 177 1115 150 1124 155 C 1133 160 1129 151 1129 151 L 1122 148 L 1123 137 C 1123 137 1141.333 133.334 1142 137 C 1142.667 140.667 1141 150 1141 150 L 1135 149 L 1135 157 L 1166 161 L 1165 155 L 1159 153 L 1160 141 L 1178 143 L 1179 156 L 1173 156 L 1172 161 L 1202 167 L 1200 162 L 1195 161 L 1195 149 L 1214 149 L 1215 161 L 1209 162 L 1209.682 169.682 C 1209.682 169.682 1254.524 178.237 1284.546 176.397 C 1298.17 175.562 1271.357 198.687 1276.617 198.736 C 1719.93 202.903 1288.21 -13.488 1304.667 -5 C 1321.124 3.488 0 -1 0 -1 Z" fill="#ffffff"/>
  </g>
</svg>