<svg id="f2fcbeb2-7759-447c-a212-d97a1ddb05cc" data-name="Capa 1" xmlns="http://www.w3.org/2000/svg" xmlns:xlink="http://www.w3.org/1999/xlink" viewBox="0 0 90.67 85.57"><defs><clipPath id="ad203306-5b1c-48b5-b004-2052564edc03" transform="translate(-2182.37 -729.38)"><rect x="2187.09" y="776.36" width="93.27" height="10.2" transform="translate(10.56 1592.47) rotate(-39.32)" style="fill:none"/></clipPath><linearGradient id="f9d546e3-f1f5-4db4-b111-ec81e9996b31" x1="662.92" y1="1824.27" x2="663.93" y2="1824.27" gradientTransform="translate(20218.28 -5758.98) rotate(90) scale(9.86)" gradientUnits="userSpaceOnUse"><stop offset="0" stop-color="#e21f26"/><stop offset="0.24" stop-color="#c91d24"/><stop offset="1" stop-color="#88171a"/></linearGradient><clipPath id="aa9432c8-80c3-4fd9-abe1-604ee2b66efa" transform="translate(-2182.37 -729.38)"><path d="M2244.07,737c-7.86,7.67.93,20.32,10.52,15.4,2.51-1.28,4.3-3.74,6-5.6l.26-.29-6.35-4.1s0,.22,0,.33a9.82,9.82,0,0,1-.26,2,3.7,3.7,0,0,1-3,3c-2.58.41-3.62-2.22-3.22-4.82.34-2.22,1.59-4.22,3.94-3.8l.49.12-2.81-6.44s-.67.37-1.18.71-1.5,1-2.67,2c-.56.46-1.15,1-1.7,1.51" style="fill:none"/></clipPath><linearGradient id="a5340163-b5f0-4495-a817-547e246a4dc3" x1="487" y1="1747.34" x2="488.01" y2="1747.34" gradientTransform="matrix(0, 18.8, -18.8, 0, 35093.66, -8417.95)" gradientUnits="userSpaceOnUse"><stop offset="0" stop-color="#fdf168"/><stop offset="0.3" stop-color="#edcd52"/><stop offset="0.96" stop-color="#cf822a"/><stop offset="1" stop-color="#cd7d29"/></linearGradient><clipPath id="a5503224-5325-445f-bce2-b87f74e9967e" transform="translate(-2182.37 -729.38)"><path d="M2244.51,737.31a8.89,8.89,0,0,0-1.1,11.89,8.42,8.42,0,0,0,11,2.64,17.41,17.41,0,0,0,4.84-4.36l.82-.94-5-3.24a9.56,9.56,0,0,1-.23,1.53,4.24,4.24,0,0,1-3.45,3.36,3,3,0,0,1-2.72-.81,5.45,5.45,0,0,1-1.12-4.63,5.51,5.51,0,0,1,1.94-3.71,3.3,3.3,0,0,1,2.13-.59c-.53-1.21-1.82-4.16-2.16-5l-.63.37c-.17.12-1.34.9-2.63,2-.55.45-1.13.95-1.66,1.47" style="fill:none"/></clipPath><linearGradient id="b367b71a-7eef-490a-acc2-589751e45ad3" x1="85.12" y1="1571.35" x2="86.13" y2="1571.35" gradientTransform="translate(-25317.36 2247.1) rotate(-90) scale(17.54)" gradientUnits="userSpaceOnUse"><stop offset="0" stop-color="#fdec0a"/><stop offset="0.19" stop-color="#fce20f"/><stop offset="0.55" stop-color="#f9cb16"/><stop offset="1" stop-color="#f5a61c"/></linearGradient><clipPath id="a7da03d3-b7b9-441c-b3cb-f4ae314a51d0" transform="translate(-2182.37 -729.38)"><path d="M2188.26,782.57c-2.05,1.95-3.33,3.79-3.2,5.95a6.36,6.36,0,0,0,2,4.09c2.69,2.74,4.79,1.51,7.58-.24.44-.28.86-.6,1.27-.87a1.1,1.1,0,0,1,1-.24.94.94,0,0,1,.66.88,1.63,1.63,0,0,1-.3.79,14.29,14.29,0,0,1-2.81,2.52c-.74.54-1.85,1.24-1.85,1.24l1.94,4.35s1.69-1,3.07-1.94a28.93,28.93,0,0,0,4.07-3.3c2.77-2.64,3.33-6.76-.06-9.71a4.38,4.38,0,0,0-3.29-1.17c-1.71.14-4.79,2.54-5.62,2.77-.31.09-.47.14-.69,0a.92.92,0,0,1-.63-.89,1.22,1.22,0,0,1,.28-.67,15.38,15.38,0,0,1,3.07-2.61c.81-.56,1.9-1.25,1.9-1.25l-1.78-4.07s-1.11.51-2.25,1.18a28.72,28.72,0,0,0-3.51,2.38c-.3.25-.59.51-.88.77" style="fill:none"/></clipPath><linearGradient id="b4acfe9a-3d31-48c9-973f-57235262939e" x1="486.99" y1="1747.26" x2="488" y2="1747.26" gradientTransform="matrix(0, 18.8, -18.8, 0, 35039.67, -8374.54)" xlink:href="#a5340163-b5f0-4495-a817-547e246a4dc3"/><clipPath id="b064a503-c9e0-44a8-b6e2-f9a28fccd7e9" transform="translate(-2182.37 -729.38)"><path d="M2188.69,782.92h0c-2.23,2.12-3.14,3.77-3,5.52a5.79,5.79,0,0,0,1.87,3.74c2.32,2.37,4,1.52,6.9-.32l.7-.48.56-.38a1.61,1.61,0,0,1,1.44-.31,1.48,1.48,0,0,1,1.07,1.44,2.15,2.15,0,0,1-.41,1.07,14.76,14.76,0,0,1-2.93,2.64l-1.48,1,1.5,3.36c.6-.37,1.63-1,2.53-1.6a29.59,29.59,0,0,0,4-3.24,6.43,6.43,0,0,0,2.12-4.68,5.73,5.73,0,0,0-2.16-4.22,3.79,3.79,0,0,0-2.89-1.05,11.8,11.8,0,0,0-3.79,1.82,9.07,9.07,0,0,1-1.72.94h-.05a1.38,1.38,0,0,1-1,0,1.47,1.47,0,0,1-.95-1.38,1.72,1.72,0,0,1,.39-1,14.89,14.89,0,0,1,3.19-2.72l1.54-1c-.26-.58-1.07-2.44-1.38-3.13-.42.2-1,.53-1.69.91a27.44,27.44,0,0,0-3.46,2.34c-.29.24-.57.48-.84.74" style="fill:none"/></clipPath><linearGradient id="e2f21f46-a062-48d1-9c26-2057817a706b" x1="85.12" y1="1571.32" x2="86.13" y2="1571.32" gradientTransform="translate(-25371.69 2291.73) rotate(-90) scale(17.54)" xlink:href="#b367b71a-7eef-490a-acc2-589751e45ad3"/><clipPath id="f3d801f1-daee-4def-83e3-0b636ca99e86" transform="translate(-2182.37 -729.38)"><polygon points="2230.03 748.14 2242.02 762.78 2247.39 758.39 2235.4 743.74 2230.03 748.14" style="fill:none"/></clipPath><linearGradient id="e9a35571-e739-421d-9bc9-0e43d03a5d44" x1="487.15" y1="1747.32" x2="488.16" y2="1747.32" gradientTransform="matrix(0, 18.78, -18.78, 0, 35058.45, -8406.27)" xlink:href="#a5340163-b5f0-4495-a817-547e246a4dc3"/><clipPath id="bf66c5e4-0ccd-412b-a24c-6ded32af091b" transform="translate(-2182.37 -729.38)"><path d="M2230.85,748.17l11.31,13.8,4.52-3.71-11.3-13.8Z" style="fill:none"/></clipPath><linearGradient id="ae44c7e9-e891-4fb5-94dc-b5143dd11c89" x1="85.12" y1="1571.35" x2="86.13" y2="1571.35" gradientTransform="translate(-25327.84 2255.47) rotate(-90) scale(17.54)" xlink:href="#b367b71a-7eef-490a-acc2-589751e45ad3"/><clipPath id="b46b090c-ac1a-4fb3-b829-a0d1d0549218" transform="translate(-2182.37 -729.38)"><path d="M2208.73,781.77c-3.47-.33-2.94-5.95-1.36-7.7a3,3,0,0,1,4.9.61,6,6,0,0,1-.63,5.78,4.33,4.33,0,0,1-.58.56,3.09,3.09,0,0,1-2.33.75m-6.1-11.12a9.68,9.68,0,0,0-3,8.26,10.61,10.61,0,0,0,3.95,6.54c7.67,5.64,18.82-3.66,14.58-12.37a11.19,11.19,0,0,0-3.88-4.34c-3.16-1.88-7.08-1.88-10.82,1.18-.28.23-.55.47-.83.73" style="fill:none"/></clipPath><linearGradient id="fc50a7c9-1d5d-4a4b-ab87-968a4290e5da" x1="487" y1="1747.27" x2="488" y2="1747.27" gradientTransform="translate(35054.88 -8386.72) rotate(90) scale(18.8)" xlink:href="#a5340163-b5f0-4495-a817-547e246a4dc3"/><clipPath id="e7e34e51-4025-46c8-9476-32092da435eb" transform="translate(-2182.37 -729.38)"><path d="M2208.74,782.26a3.16,3.16,0,0,1-2.72-2.13,7.17,7.17,0,0,1,1-6.47,3.54,3.54,0,0,1,3-1.18,3.62,3.62,0,0,1,2.77,1.88h0a6.53,6.53,0,0,1-.7,6.41,5.25,5.25,0,0,1-.63.62,3.67,3.67,0,0,1-2.73.87M2203.06,771a9.09,9.09,0,0,0-2.84,7.78A10.08,10.08,0,0,0,2204,785c4,2.93,8.43,1.43,11-.74s4.94-6.4,2.73-11a10.42,10.42,0,0,0-1.29-2,9.8,9.8,0,0,0-2.38-2.15c-3.28-1.94-7-1.51-10.22,1.16q-.39.32-.78.69" style="fill:none"/></clipPath><linearGradient id="a07ab508-ed19-44fa-b459-6a7aee54cc1a" x1="85.13" y1="1571.32" x2="86.13" y2="1571.32" gradientTransform="translate(-25357.23 2279.75) rotate(-90) scale(17.54)" xlink:href="#b367b71a-7eef-490a-acc2-589751e45ad3"/><clipPath id="fab31858-f3a9-4b46-80ed-3918ad1697bc" transform="translate(-2182.37 -729.38)"><path d="M2224.41,777.19l4.64-3.8L2223,766l9.91,4.34,6.21-5.11-12-14.64-4.64,3.8,6.33,7.72-10.25-4.49-6.1,5,12,14.64Z" style="fill:none"/></clipPath><linearGradient id="aa8dc9f1-5284-4f3e-87f7-f524578c0ca2" x1="487.05" y1="1747.28" x2="488.05" y2="1747.28" gradientTransform="translate(35062.25 -8398.65) rotate(90) scale(18.79)" xlink:href="#a5340163-b5f0-4495-a817-547e246a4dc3"/><clipPath id="a5566632-c684-4646-83a0-965877dbfca4" transform="translate(-2182.37 -729.38)"><polygon points="2223.21 754.42 2230.63 763.47 2218.61 758.2 2213.18 762.63 2224.49 776.43 2228.28 773.32 2221.09 764.54 2232.77 769.66 2238.31 765.11 2227.01 751.31 2223.21 754.42" style="fill:none"/></clipPath><linearGradient id="a18909fe-86eb-42ca-aca9-b0f1de2060d3" x1="85.37" y1="1571.45" x2="86.38" y2="1571.45" gradientTransform="translate(-25375.65 2272.17) rotate(-90) scale(17.56)" xlink:href="#b367b71a-7eef-490a-acc2-589751e45ad3"/></defs><g id="a2ab9636-832f-4c14-a1cb-2701f997eb01" data-name="HEAD STH"><g id="a95f9609-1802-45c8-9f83-759b1d026abf" data-name="Shape"><g style="clip-path:url(#ad203306-5b1c-48b5-b004-2052564edc03)"><rect x="2187.09" y="776.36" width="93.27" height="10.2" transform="translate(-2171.81 863.09) rotate(-39.32)" style="fill:url(#f9d546e3-f1f5-4db4-b111-ec81e9996b31)"/></g><polygon points="14.89 77.99 18.47 75.06 19.29 76.06 18.32 76.86 21.62 80.89 19.98 82.23 16.68 78.2 15.71 78.99 14.89 77.99" style="fill:#010101"/><polygon points="23.16 71.21 24.8 69.87 28.93 74.9 27.29 76.24 25.55 74.13 25.06 74.53 26.8 76.65 25.16 77.99 21.03 72.95 22.67 71.61 24.15 73.41 24.64 73.01 23.16 71.21" style="fill:#010101"/><polygon points="31.79 72.55 27.67 67.52 30.4 65.28 31.23 66.29 30.13 67.18 30.91 68.14 31.94 67.3 32.72 68.25 31.7 69.09 32.61 70.2 33.81 69.22 34.63 70.22 31.79 72.55" style="fill:#010101"/><polygon points="38.66 58.51 40.3 57.17 44.43 62.2 42.79 63.55 41.05 61.43 40.56 61.83 42.3 63.95 40.66 65.29 36.53 60.26 38.17 58.91 39.65 60.71 40.14 60.31 38.66 58.51" style="fill:#010101"/><polygon points="47.3 59.85 43.17 54.82 45.9 52.58 46.73 53.59 45.63 54.48 46.42 55.44 47.44 54.6 48.22 55.56 47.2 56.39 48.11 57.5 49.31 56.52 50.13 57.53 47.3 59.85" style="fill:#010101"/><path d="M2233.85,778.91a.29.29,0,0,1,.24,0,2.78,2.78,0,0,1,.38.41l1.61,2a1.85,1.85,0,0,1,.42.68c0,.12-.1.28-.34.48l-2.71-3.32a1.21,1.21,0,0,1,.4-.25m3.44,4.08a7.84,7.84,0,0,0,.84-.78,1.52,1.52,0,0,0,.34-.58.89.89,0,0,0,0-.58,4.07,4.07,0,0,0-.67-1l-1.44-1.76a6.36,6.36,0,0,0-.84-.91,1,1,0,0,0-.63-.22,1.68,1.68,0,0,0-.88.23,12.56,12.56,0,0,0-1.67,1.23l-1.23,1,4.13,5,2.06-1.69Z" transform="translate(-2182.37 -729.38)" style="fill:#010101"/><path d="M2242.72,772.86l.18.21-1.63,1.35-.38-.46a2.2,2.2,0,0,0-.49-.5c-.09-.05-.19,0-.31.07a.27.27,0,0,0-.13.26,1.49,1.49,0,0,0,.34.52l2,2.42a1.3,1.3,0,0,0,.42.4.28.28,0,0,0,.3-.07.34.34,0,0,0,.15-.32,1.72,1.72,0,0,0-.33-.53l-.49-.59-.33.27-.62-.77,1.92-1.57,2.21,2.71-1,.84-.45-.24a1.3,1.3,0,0,1-.14.7,1.75,1.75,0,0,1-.5.61,2.55,2.55,0,0,1-.91.47,1.75,1.75,0,0,1-.87.05,1.52,1.52,0,0,1-.64-.3,6.91,6.91,0,0,1-.68-.74l-1.23-1.5a5.62,5.62,0,0,1-.76-1.13,1.45,1.45,0,0,1,.07-1,3,3,0,0,1,1-1.25,3.32,3.32,0,0,1,1.39-.74,1.55,1.55,0,0,1,1.08,0,3,3,0,0,1,.91.83" transform="translate(-2182.37 -729.38)" style="fill:#010101"/><polygon points="65.99 44.54 61.87 39.5 64.6 37.27 65.42 38.27 64.33 39.17 65.11 40.13 66.13 39.29 66.92 40.24 65.89 41.08 66.8 42.19 68 41.2 68.83 42.21 65.99 44.54" style="fill:#010101"/><polygon points="69.56 33.2 71.2 31.86 75.32 36.89 73.68 38.24 71.95 36.12 71.46 36.52 73.19 38.64 71.56 39.98 67.43 34.95 69.07 33.6 70.54 35.4 71.03 35 69.56 33.2" style="fill:#010101"/><path d="M2261.81,761.46a.27.27,0,0,1-.12.29.26.26,0,0,1-.29.07,2.35,2.35,0,0,1-.49-.51L2259,759c-.22-.26-.32-.43-.32-.52a.33.33,0,0,1,.13-.24.25.25,0,0,1,.28-.07,1.63,1.63,0,0,1,.42.41l1.9,2.31a2.44,2.44,0,0,1,.41.61m-1-4.52a1.39,1.39,0,0,0-.76-.33,1.91,1.91,0,0,0-1,.13,3.89,3.89,0,0,0-1,.61,3.43,3.43,0,0,0-.82.91,1.9,1.9,0,0,0-.31.92,1.47,1.47,0,0,0,.19.81,11.37,11.37,0,0,0,.84,1.11l.7.86a11.4,11.4,0,0,0,.94,1,1.48,1.48,0,0,0,.76.34,2,2,0,0,0,1-.14,3.73,3.73,0,0,0,1-.61,3.59,3.59,0,0,0,.82-.91,1.9,1.9,0,0,0,.31-.92,1.39,1.39,0,0,0-.19-.81,11.37,11.37,0,0,0-.84-1.11l-.7-.86a11.4,11.4,0,0,0-.94-1" transform="translate(-2182.37 -729.38)" style="fill:#010101"/><path d="M2267.91,752.23l.18.21-1.64,1.35-.38-.46a2,2,0,0,0-.49-.5c-.09-.05-.19,0-.31.07a.29.29,0,0,0-.13.26,1.67,1.67,0,0,0,.34.52l2,2.42a1.3,1.3,0,0,0,.42.4.3.3,0,0,0,.31-.07.35.35,0,0,0,.14-.32,1.47,1.47,0,0,0-.32-.53l-.49-.59-.33.27-.63-.77,1.92-1.57,2.21,2.7-1,.85-.45-.24a1.39,1.39,0,0,1-.13.7,2,2,0,0,1-.51.61,2.43,2.43,0,0,1-.9.47,1.76,1.76,0,0,1-.87,0,1.41,1.41,0,0,1-.64-.3,6.78,6.78,0,0,1-.69-.74l-1.22-1.5a4.86,4.86,0,0,1-.76-1.13,1.39,1.39,0,0,1,.06-1,3,3,0,0,1,1-1.25,3.38,3.38,0,0,1,1.39-.74,1.54,1.54,0,0,1,1.08,0,3.14,3.14,0,0,1,.92.83" transform="translate(-2182.37 -729.38)" style="fill:#010101"/><polygon points="14.4 77.9 17.98 74.97 18.8 75.98 17.83 76.78 21.13 80.8 19.49 82.14 16.19 78.12 15.22 78.91 14.4 77.9" style="fill:#fff"/><polygon points="22.67 71.13 24.31 69.78 28.43 74.82 26.8 76.16 25.07 74.05 24.57 74.45 26.3 76.56 24.67 77.91 20.54 72.87 22.18 71.53 23.66 73.33 24.15 72.93 22.67 71.13" style="fill:#fff"/><polygon points="31.3 72.47 27.18 67.44 29.91 65.2 30.74 66.2 29.64 67.1 30.43 68.06 31.45 67.22 32.23 68.17 31.21 69.01 32.12 70.12 33.32 69.14 34.14 70.14 31.3 72.47" style="fill:#fff"/><polygon points="38.17 58.43 39.81 57.09 43.94 62.12 42.3 63.46 40.56 61.35 40.08 61.75 41.81 63.86 40.17 65.21 36.05 60.17 37.69 58.83 39.16 60.63 39.65 60.23 38.17 58.43" style="fill:#fff"/><polygon points="46.81 59.77 42.68 54.73 45.41 52.5 46.24 53.51 45.15 54.4 45.93 55.36 46.95 54.52 47.74 55.48 46.71 56.31 47.62 57.42 48.82 56.44 49.65 57.44 46.81 59.77" style="fill:#fff"/><path d="M2233.36,778.83a.26.26,0,0,1,.24,0,2.65,2.65,0,0,1,.39.41l1.6,2a1.78,1.78,0,0,1,.42.68c0,.12-.11.28-.34.47l-2.72-3.31a1.15,1.15,0,0,1,.41-.25m3.44,4.07a7,7,0,0,0,.84-.77,1.6,1.6,0,0,0,.34-.58.92.92,0,0,0,0-.59,4.07,4.07,0,0,0-.67-1l-1.44-1.76a7.31,7.31,0,0,0-.84-.92,1.17,1.17,0,0,0-.64-.22,1.79,1.79,0,0,0-.87.24,12.56,12.56,0,0,0-1.67,1.23l-1.23,1,4.13,5Z" transform="translate(-2182.37 -729.38)" style="fill:#fff"/><path d="M2242.23,772.77l.18.22-1.64,1.34-.37-.45a2.63,2.63,0,0,0-.49-.51.35.35,0,0,0-.44.34,1.59,1.59,0,0,0,.34.52l2,2.42a1.42,1.42,0,0,0,.42.4.28.28,0,0,0,.3-.07.34.34,0,0,0,.15-.32,1.72,1.72,0,0,0-.33-.53l-.49-.59-.33.27-.62-.77,1.91-1.57,2.22,2.7-1,.85-.45-.24a1.3,1.3,0,0,1-.14.7,1.72,1.72,0,0,1-.5.6,2.39,2.39,0,0,1-.9.48,1.8,1.8,0,0,1-.88.05,1.53,1.53,0,0,1-.64-.31,5.36,5.36,0,0,1-.68-.74l-1.23-1.49a5.62,5.62,0,0,1-.76-1.13,1.48,1.48,0,0,1,.07-1.06,3,3,0,0,1,1-1.24,3.54,3.54,0,0,1,1.39-.75,1.6,1.6,0,0,1,1.08.06,3.09,3.09,0,0,1,.91.82" transform="translate(-2182.37 -729.38)" style="fill:#fff"/><polygon points="65.5 44.46 61.38 39.42 64.11 37.18 64.93 38.19 63.84 39.09 64.62 40.04 65.64 39.2 66.43 40.16 65.41 41 66.31 42.11 67.51 41.12 68.34 42.13 65.5 44.46" style="fill:#fff"/><polygon points="69.07 33.12 70.71 31.78 74.83 36.81 73.19 38.15 71.46 36.04 70.97 36.44 72.7 38.55 71.06 39.9 66.94 34.86 68.58 33.52 70.05 35.32 70.55 34.92 69.07 33.12" style="fill:#fff"/><path d="M2261.32,761.37a.28.28,0,0,1-.12.3.26.26,0,0,1-.29.07,3,3,0,0,1-.49-.51l-1.92-2.35c-.22-.26-.32-.43-.32-.52a.33.33,0,0,1,.13-.24.25.25,0,0,1,.28-.07,1.63,1.63,0,0,1,.42.41l1.9,2.31a2.67,2.67,0,0,1,.41.6m-1-4.51a1.48,1.48,0,0,0-.76-.34,2,2,0,0,0-1,.14,3.63,3.63,0,0,0-1,.61,3.56,3.56,0,0,0-.82.9,2.09,2.09,0,0,0-.31.93,1.42,1.42,0,0,0,.19.8,10.63,10.63,0,0,0,.84,1.11l.7.87c.43.51.74.86.94,1a1.39,1.39,0,0,0,.76.33,2,2,0,0,0,1-.13,3.93,3.93,0,0,0,1-.61,3.74,3.74,0,0,0,.81-.91,1.9,1.9,0,0,0,.31-.92,1.39,1.39,0,0,0-.19-.81,11.37,11.37,0,0,0-.84-1.11l-.7-.86a11.4,11.4,0,0,0-.94-1" transform="translate(-2182.37 -729.38)" style="fill:#fff"/><path d="M2267.42,752.14l.18.22L2266,753.7l-.38-.45a2.36,2.36,0,0,0-.49-.51.29.29,0,0,0-.31.08.29.29,0,0,0-.13.26,1.79,1.79,0,0,0,.34.52l2,2.42a1.56,1.56,0,0,0,.42.4.27.27,0,0,0,.3-.07.34.34,0,0,0,.15-.32,1.47,1.47,0,0,0-.32-.53l-.49-.6-.33.28-.63-.77,1.92-1.57,2.21,2.7-1,.85-.45-.24a1.39,1.39,0,0,1-.13.7,2,2,0,0,1-.51.61,2.43,2.43,0,0,1-.9.47,1.76,1.76,0,0,1-.87.05,1.42,1.42,0,0,1-.64-.31,5.29,5.29,0,0,1-.69-.74l-1.22-1.49a4.86,4.86,0,0,1-.76-1.13,1.47,1.47,0,0,1,.06-1.06,3.08,3.08,0,0,1,1-1.24,3.61,3.61,0,0,1,1.39-.75,1.59,1.59,0,0,1,1.08.06,3.08,3.08,0,0,1,.92.82" transform="translate(-2182.37 -729.38)" style="fill:#fff"/><path d="M2255.24,740.26l-4.73-10.88-2.31,1.39-1.33.8a36.25,36.25,0,0,0-4.74,3.79,12,12,0,0,0-3.73,8.62l-2.89-3.54-16.74,13.7,1.42,1.74-2.29-1-9.15,7.48,2.41,2.95c-3.62-.56-7.32.74-10.45,3.71a12.46,12.46,0,0,0-3.82,8.35c-.23-.51-1-2.24-1-2.24l-2.26,1c-.13.06-1.27.59-2.47,1.3a26.34,26.34,0,0,0-4.84,3.48c-2,1.86-4.17,4.43-4,7.87a8.38,8.38,0,0,0,2,4.87l.71.79a6.8,6.8,0,0,0,4.63,2.28c0,.09.44,1.07.44,1.07l3.06,6.89,2.37-1.44c.19-.11,1.81-1.09,3.16-2a32.14,32.14,0,0,0,4.41-3.57,9.34,9.34,0,0,0,3-6.9,8.1,8.1,0,0,0-.17-1.38,12.39,12.39,0,0,0,10.58-2.73,12.83,12.83,0,0,0,4.64-9.07l2.58,3.14,8.41-6.89-1.2-1.46,2,.86,17.57-14.41-2.43-3a11.57,11.57,0,0,0,7.31-1.21,19.84,19.84,0,0,0,5.74-5.06l3.14-3.48-9.11-5.89" transform="translate(-2182.37 -729.38)" style="fill:#1d435b"/><path d="M2261.69,745l-6.8-4.39-.86-2-3.72-8.51-1.87,1.12-1.33.8a36.72,36.72,0,0,0-4.66,3.73,11.31,11.31,0,0,0-3.53,9.63l-3.47-4.24-16,13.13,2.33,2.85L2218,755.4l-8.58,7,2.91,3.56c-3.8-1.05-7.85.11-11.28,3.36a11.72,11.72,0,0,0-3.6,10c0,.21.08.42.13.64l-1.88-4.28-1.84.84c-.05,0-1.22.56-2.43,1.27a26,26,0,0,0-4.75,3.43c-1.88,1.79-4,4.26-3.82,7.51a8,8,0,0,0,1.91,4.61c.21.25.44.51.68.76a6.31,6.31,0,0,0,4.62,2.18l.54,1.31,2.86,6.41,1.93-1.17c.07,0,1.75-1.06,3.14-2a31.26,31.26,0,0,0,4.35-3.52,9,9,0,0,0,2.9-6.57,7.72,7.72,0,0,0-.31-2,11.73,11.73,0,0,0,10.88-2.48,12.12,12.12,0,0,0,4.48-10l3.09,3.76,7.71-6.32-2.1-2.57,3.43,1.5,17-13.93-3-3.64a10.86,10.86,0,0,0,8.28-.89,19.31,19.31,0,0,0,5.6-5l1-1.07,1.84-2Z" transform="translate(-2182.37 -729.38)" style="fill:#2a3780"/><g style="clip-path:url(#aa9432c8-80c3-4fd9-abe1-604ee2b66efa)"><rect x="2238.55" y="736.37" width="19.12" height="19.26" transform="translate(-2146.08 864.17) rotate(-39.32)" style="fill:url(#a5340163-b5f0-4495-a817-547e246a4dc3)"/></g><g style="clip-path:url(#a5503224-5325-445f-bce2-b87f74e9967e)"><rect x="2241.83" y="735.96" width="14.84" height="18.06" transform="translate(-2145.18 864.66) rotate(-39.32)" style="fill:url(#b367b71a-7eef-490a-acc2-589751e45ad3)"/></g><g style="clip-path:url(#a7da03d3-b7b9-441c-b3cb-f4ae314a51d0)"><rect x="2186.64" y="779.94" width="16.33" height="18.96" transform="translate(-2185.66 840.22) rotate(-39.32)" style="fill:url(#b4acfe9a-3d31-48c9-973f-57235262939e)"/></g><g style="clip-path:url(#b064a503-c9e0-44a8-b6e2-f9a28fccd7e9)"><rect x="2187.3" y="780.57" width="14.79" height="17.86" transform="translate(-2185.74 840.17) rotate(-39.32)" style="fill:url(#e2f21f46-a062-48d1-9c26-2057817a706b)"/></g><g style="clip-path:url(#f3d801f1-daee-4def-83e3-0b636ca99e86)"><rect x="2235.24" y="743.8" width="6.94" height="18.93" transform="translate(-2152.81 859.86) rotate(-39.32)" style="fill:url(#e9a35571-e739-421d-9bc9-0e43d03a5d44)"/></g><g style="clip-path:url(#bf66c5e4-0ccd-412b-a24c-6ded32af091b)"><rect x="2235.84" y="744.29" width="5.86" height="17.84" transform="translate(-2152.77 859.88) rotate(-39.32)" style="fill:url(#ae44c7e9-e891-4fb5-94dc-b5143dd11c89)"/></g><g style="clip-path:url(#b46b090c-ac1a-4fb3-b829-a0d1d0549218)"><rect x="2199.84" y="767.71" width="20.24" height="21.31" transform="translate(-2175.23 847.33) rotate(-39.32)" style="fill:url(#fc50a7c9-1d5d-4a4b-ab87-968a4290e5da)"/></g><g style="clip-path:url(#e7e34e51-4025-46c8-9476-32092da435eb)"><rect x="2199.69" y="768.53" width="19.02" height="17.86" transform="translate(-2174.83 846.64) rotate(-39.32)" style="fill:url(#a07ab508-ed19-44fa-b459-6a7aee54cc1a)"/></g><g style="clip-path:url(#fab31858-f3a9-4b46-80ed-3918ad1697bc)"><rect x="2216.28" y="754.4" width="18.95" height="18.94" transform="translate(-2162.47 854.05) rotate(-39.32)" style="fill:url(#aa8dc9f1-5284-4f3e-87f7-f524578c0ca2)"/></g><g style="clip-path:url(#a5566632-c684-4646-83a0-965877dbfca4)"><rect x="2216.82" y="754.95" width="17.86" height="17.85" transform="translate(-2162.47 854.05) rotate(-39.32)" style="fill:url(#a18909fe-86eb-42ca-aca9-b0f1de2060d3)"/></g></g></g></svg>