<svg xmlns="http://www.w3.org/2000/svg" viewBox="0 0 1909.02 579.55"><g id="a6c3913e-4b91-4c2e-94dd-b86544112c8e" data-name="Logos"><g id="b3683404-558d-46ff-b444-19648a75b9e5" data-name="Crush 40 (2009)"><path id="bd4441b0-b072-4ea2-8025-e961724fc8d8" data-name="Ring" d="M1913.6,4285.48c-167.64-145-441.49-44.76-534.07,36.25-117.57,102.88-185.44,247.32-68.42,380.21,102.81,116.75,306,112.05,473,27.43C1939,4650.93,2076.38,4426.28,1913.6,4285.48Zm-162.74,413.46c-146,72.5-331.16,84.26-436.13-28.64s-18.48-272.15,79.46-341.69,294.94-150.9,459.48-32.73S1896.84,4626.44,1750.86,4698.94Z" transform="translate(-77.9 -4211.85)"/><path id="aed3d5c0-3243-47af-83a4-84be768258b2" data-name="Crush" d="M1230.5,4402.48l24.94-70.56h-43.13c-4.76,0-108.13,1.54-149.51,70.56H946.74c-31.74,0-63.87,23.17-75,54.79l-7.24,20.49c6.77-19.3,4.68-38.81-5.75-53.55-9.91-14-26.35-21.73-44.88-21.73h-93L715,4419.12c-10-10.86-24.55-16.64-40.71-16.64l-92.92-.33-.11.33H440a67.31,67.31,0,0,0-10.58.87L455,4331.26H306.29c-5.19,0-127.45,1-159,90.23L77.9,4617.85H423c31.71,0,64-24.06,75.07-55.45l22.67-64.14h26.63l-15.48,43.81c-6.85,19.35-4.77,38.93,5.69,53.72,9.91,14,26.22,22.06,44.75,22.06H929.47c27.95,0,56.47-18.72,70.43-44.57l-15.75,44.57H1098.8a69.16,69.16,0,0,0,26.7-4.88l-1.73,4.88h114.46c28.19,0,56.74-18.29,70.61-44.53l61.29-170.84Zm-923.84,170H129.72l55-155.7c24.71-69.89,130.23-69.89,130.23-69.89H420.5l-12.29,34.78H302.68l-55,155.69H353.17C346.26,4556.88,325.64,4572.45,306.66,4572.45ZM384.49,4427a82.3,82.3,0,0,0-19.6,30.56l-22.68,64.13H282.09L315.57,4427Zm123.36,25.82L478,4537.33c-6.79,19.21-27.41,34.78-46.4,34.78H360.17l42.16-119.25c6.79-19.21,27.41-34.78,46.39-34.78H588.35l-12.3,34.78ZM592,4572.45c-19,0-28.6-15.57-21.69-35.12l42.27-119.58H684c19,0,28.6,15.56,21.69,35.11l-29.86,84.47h34.1l42.27-119.58h71.42c19,0,28.6,15.56,21.69,35.11l-42.27,119.59Zm392.67-35.12c-6.79,19.21-27.41,34.78-46.39,34.78H824.72L837,4537.33h42.15l30-84.8c6.9-19.55,27.85-35.12,46.51-35.12h113.57l-12.42,35.12h-42.14Zm308.61.66c-6.91,19.55-27.53,35.12-46.51,35.12h-71.42L1218,4452.53h-34.1L1153.67,4538c-6.91,19.55-27.54,35.12-46.52,35.12h-71.42l55-155.7c24.7-69.89,130.22-69.89,130.22-69.89l-25,70.89h139.62Z" transform="translate(-77.9 -4211.85)"/><g id="fda6e510-4ce9-4b29-a8c5-1146f63a7e14" data-name="40"><path id="bf4d55f1-e0a6-4a8b-b9d4-0a13525b8fed" data-name="4" d="M1575.61,4537.33l56.88-160.91c-70.33,0-107.4,33.62-117.09,61l-35.31,99.89h-29.6L1495,4411.54c-70.32,0-107.4,33.61-117.08,61l-35.31,99.9h125.12l-28,79.22c49.29,0,100.08-9.66,124.67-79.22,25.4,0,37.55-11.88,48.84-35.12h-37.57Z" transform="translate(-77.9 -4211.85)"/><path id="bdd85525-17e1-41a9-b8e6-5742236df9c5" data-name="0" d="M1707.8,4417.41c-19,0-39.6,15.57-46.51,35.12L1619,4572.11h186.67c19,0,39.61-15.57,46.4-34.78l42.39-119.92Zm49.29,119.92h-31l30-84.8h31Z" transform="translate(-77.9 -4211.85)"/></g></g></g></svg>