<!DOCTYPE svg PUBLIC "-//W3C//DTD SVG 20010904//EN" "http://www.w3.org/TR/2001/REC-SVG-20010904/DTD/svg10.dtd">
<svg version="1.0" xmlns="http://www.w3.org/2000/svg" width="900px" height="321px" viewBox="0 0 9000 3210" preserveAspectRatio="xMidYMid meet">
<g id="layer101" fill="#ffffff" stroke="none">
 <path d="M6485 2963 c-539 -36 -920 -316 -1008 -742 -9 -40 -18 -75 -21 -78 -3 -3 -261 -11 -573 -19 -312 -7 -569 -13 -570 -13 0 -1 10 -31 23 -67 13 -37 24 -69 24 -71 0 -3 -21 14 -47 38 -27 23 -73 54 -103 68 l-55 26 -914 3 -915 2 -37 -24 c-81 -54 -116 -135 -105 -246 6 -69 35 -170 67 -232 10 -20 19 -40 19 -43 0 -9 -121 -5 -141 5 -10 6 -19 21 -19 33 0 48 -52 214 -91 288 -50 95 -134 179 -205 203 -42 14 -140 16 -886 16 -461 0 -838 -2 -838 -4 0 -2 61 -183 135 -402 87 -254 152 -428 180 -481 111 -209 249 -330 440 -385 79 -23 84 -23 535 -20 250 2 456 5 457 6 1 1 -22 69 -52 151 -30 83 -55 153 -55 158 0 4 272 7 605 7 643 0 658 1 692 47 12 15 13 14 13 -10 l0 -27 273 0 c309 0 324 4 388 79 32 36 61 110 72 176 2 14 12 3 36 -42 41 -76 108 -146 175 -181 l51 -27 327 -3 326 -3 18 -27 c32 -49 118 -134 175 -173 140 -95 280 -133 489 -132 80 0 154 4 166 9 20 9 19 13 -33 154 -29 80 -53 148 -53 152 0 5 78 8 174 8 l174 0 82 -95 c413 -480 1046 -816 1670 -886 146 -16 408 -6 533 21 487 104 775 402 812 840 30 356 -177 809 -534 1169 -433 437 -1034 723 -1615 771 -125 10 -155 10 -261 3z m445 -218 c571 -81 1159 -426 1500 -880 549 -732 313 -1488 -502 -1609 -486 -73 -1066 99 -1548 457 -95 71 -338 305 -399 385 l-33 42 81 0 c45 0 81 3 81 6 0 23 -277 740 -303 783 -18 30 -56 79 -85 108 l-54 54 22 72 c75 245 263 432 530 525 77 27 195 55 275 65 78 10 340 5 435 -8z m-5105 -834 c102 -46 182 -194 224 -415 12 -59 21 -109 21 -112 0 -2 71 -4 158 -4 l157 0 35 -86 c19 -48 37 -91 38 -95 2 -5 -163 -9 -367 -9 l-370 0 -34 30 c-54 47 -93 134 -188 418 -49 147 -89 270 -89 274 0 11 53 15 220 16 131 1 161 -1 195 -17z m3161 0 c49 -22 96 -77 120 -140 9 -25 48 -126 86 -223 l69 -178 60 0 c32 0 59 1 59 3 0 1 -40 124 -90 272 -49 148 -90 273 -90 278 0 4 94 7 209 5 l209 -3 39 -31 c74 -60 108 -125 213 -412 55 -150 100 -280 100 -289 0 -14 -32 -15 -325 -10 -179 4 -325 3 -325 0 0 -4 21 -71 47 -150 26 -78 44 -145 40 -149 -4 -4 -40 -7 -81 -6 -205 6 -399 117 -483 277 -25 49 -197 501 -274 723 l-18 52 197 0 c170 0 203 -3 238 -19z m-3753 -5 c21 -8 48 -22 59 -33 26 -22 78 -93 78 -105 0 -4 -108 -8 -241 -8 -224 0 -240 -1 -235 -17 3 -10 59 -171 124 -358 l118 -340 254 -5 255 -5 12 -70 c6 -38 12 -76 12 -82 1 -10 -69 -13 -317 -13 -285 0 -327 2 -396 20 -154 39 -278 132 -348 260 -20 36 -56 124 -81 195 -113 324 -197 567 -197 571 0 2 195 4 433 4 338 -1 440 -4 470 -14z m2262 -19 c32 -78 168 -476 178 -524 14 -67 1 -119 -36 -147 -26 -19 -44 -21 -220 -24 l-192 -3 -99 281 -99 281 -59 -2 c-32 -1 -61 -6 -64 -10 -3 -5 23 -95 57 -201 112 -346 105 -358 -189 -358 l-169 0 -103 242 c-56 132 -109 266 -117 297 -25 95 -5 168 52 192 11 4 251 8 533 8 l513 1 14 -33z m732 6 c60 -28 82 -71 150 -291 36 -114 68 -213 73 -221 5 -10 29 -13 97 -12 l89 2 32 -81 c18 -45 32 -86 32 -91 0 -7 -100 -9 -282 -7 l-283 3 -46 27 c-47 28 -83 68 -113 126 -14 27 -146 388 -146 398 0 2 -44 5 -97 6 l-97 3 -28 75 c-15 41 -28 79 -28 84 0 5 125 6 307 2 250 -6 313 -10 340 -23z m-2847 -423 c52 -116 97 -215 98 -220 2 -6 -53 -10 -146 -10 l-150 0 -71 213 c-39 116 -71 215 -71 220 0 4 55 7 123 7 l122 0 95 -210z"/>
 <path d="M6395 2458 c18 -53 155 -499 155 -508 0 -7 -98 -10 -295 -10 -162 0 -295 -3 -295 -7 0 -4 57 -160 128 -347 114 -305 131 -345 168 -383 l41 -43 191 0 c106 0 192 2 192 4 0 2 -52 135 -115 296 -63 160 -115 293 -115 295 0 3 42 5 94 5 l94 0 88 -262 c78 -236 91 -267 124 -300 l38 -38 93 -1 c52 0 139 -3 193 -5 54 -3 105 -3 112 0 9 3 0 38 -31 128 -24 68 -109 310 -189 538 l-145 415 -56 52 c-67 64 -169 114 -295 147 -134 35 -181 41 -175 24z"/>
 <path d="M7180 1875 c0 -5 33 -96 177 -485 56 -151 84 -196 142 -227 l44 -23 479 0 c263 0 478 3 478 8 0 18 -169 532 -189 573 -27 58 -84 125 -122 144 -23 13 -106 15 -519 15 -269 0 -490 -2 -490 -5z m674 -282 c36 -112 96 -310 96 -317 0 -3 -31 -6 -69 -6 l-69 0 -63 188 c-34 103 -64 193 -67 200 -3 9 15 12 71 12 l75 0 26 -77z"/>
 </g>

</svg>